<svg width="41" height="40" viewBox="0 0 41 40" fill="none" xmlns="http://www.w3.org/2000/svg">
    <path fill-rule="evenodd" clip-rule="evenodd" d="M9.378 9.816a.938.938 0 0 1-.613 1.07l-.123.034-1.346.269c-.608.121-1.08.589-1.216 1.183l-.029.165-.659 5.57a7.501 7.501 0 0 1 12.398 4.836 7.447 7.447 0 0 1 2.543-.443c.893 0 1.75.156 2.543.442a7.5 7.5 0 0 1 12.42-4.816l-.676-5.592-.03-.164a1.563 1.563 0 0 0-1.053-1.139l-.162-.041-1.35-.27-.123-.034a.938.938 0 0 1 .364-1.822l.126.017 1.35.27.227.053a3.438 3.438 0 0 1 2.476 2.675l.036.23 1.201 9.935c.08.394.13.798.146 1.211l.021.183.007.127a.926.926 0 0 1-.026.202l-.017.343a7.5 7.5 0 0 1-14.7 1.474l.021.076a4.958 4.958 0 0 0-2.8-.86 4.977 4.977 0 0 0-2.803.859l-.015.057a7.5 7.5 0 0 1-14.47-3.943l1.143-9.656a3.438 3.438 0 0 1 2.512-2.913l.228-.054 1.345-.27a.937.937 0 0 1 1.104.736zm20.955 8.934a5 5 0 1 0 0 10 5 5 0 0 0 0-10zm-20 0a5 5 0 1 0 0 10 5 5 0 0 0 0-10z" fill="#A8ABAC"/>
</svg>
