<svg xmlns="http://www.w3.org/2000/svg" width="16" height="16" viewBox="0 0 16 16">
    <g fill="none" fill-rule="evenodd">
        <g fill="#008BBF">
            <g>
                <g>
                    <g>
                        <path d="M14 12.667c0 1.104-.895 2-2 2H5.333c-1.104 0-2-.896-2-2V3.333c0-1.104.896-2 2-2h5.334c.176 0 .346.07.471.196l2.667 2.666c.125.125.195.295.195.472zm-4.667-10h-4c-.368 0-.666.298-.666.666v9.334c0 .368.298.666.666.666H12c.368 0 .667-.298.667-.666V5.999l-2 .001c-.703 0-1.28-.544-1.33-1.234l-.004-.1v-2zm3.056 2l-1.723-1.724v1.724h1.723z" transform="translate(-962.000000, -222.000000) translate(946.000000, 210.000000) translate(8.000000, 8.000000) translate(8.000000, 4.000000)"/>
                    </g>
                </g>
            </g>
        </g>
    </g>
</svg>
