<svg xmlns="http://www.w3.org/2000/svg" xmlns:xlink="http://www.w3.org/1999/xlink" width="24" height="24" viewBox="0 0 24 24">
    <defs>
        <path id="0t1n8t331a" d="M15.683 0v1.517c-.85 0-1.896 1.719-2.87 5.235 6.001-3.902 9.473 1.101 9.473 7.096 0 6.297-6.574 12.634-10.403 9.125-4.233 3.6-10.443-2.95-10.443-9.106 0-5.007 2.409-9.33 6.967-8.176-.128-.17-.24-.347-.334-.527-.747-1.435-.724-3.958.044-4.342.77-.384 2.817.93 3.564 2.366.15.29.271.62.36.966.977-2.679 2.105-4.075 3.52-4.15L15.682 0zm-2.665 8.458l-.206.156-.888.685-.916-.65c-4.927-3.493-8.05-.926-8.05 5.218 0 5.373 5.05 10.187 7.841 8.033l.101-.082 1.02-.868.988.905c2.48 2.272 7.86-2.63 7.86-8.007 0-2.83-.851-5.218-2.18-6.304-1.292-1.057-3.117-.91-5.57.914zM9.045 2.573v.04c-.007.675.142 1.405.374 1.851.201.387.6.818 1.05 1.143l.172.116.077.048.002-.072c.003-.572-.117-1.198-.31-1.65l-.075-.16c-.203-.39-.622-.84-1.099-1.186l-.16-.111-.031-.02z"/>
    </defs>
    <g fill="none" fill-rule="evenodd">
        <g>
            <g>
                <g transform="translate(-152.000000, -152.000000) translate(144.000000, 144.000000) translate(8.000000, 8.000000)">
                    <mask id="uk3hfesgyb" fill="#fff">
                        <use xlink:href="#0t1n8t331a"/>
                    </mask>
                    <use fill="#15A988" fill-rule="nonzero" xlink:href="#0t1n8t331a"/>
                    <g fill="#23A888" mask="url(#uk3hfesgyb)">
                        <path d="M0 0H24V24H0z"/>
                    </g>
                </g>
            </g>
        </g>
    </g>
</svg>
