<svg width="24" height="24" viewBox="0 0 24 24" fill="none" xmlns="http://www.w3.org/2000/svg">
    <path fill-rule="evenodd" clip-rule="evenodd" d="M12 2a5 5 0 0 1 5 5v3a3 3 0 0 1 2.995 2.824L20 13v6a3 3 0 0 1-2.824 2.995L17 22H7a3 3 0 0 1-2.995-2.824L4 19v-6a3 3 0 0 1 2.824-2.995L7 10V7a5 5 0 0 1 5-5zm5 10H7a1 1 0 0 0-.993.883L6 13v6a1 1 0 0 0 .883.993L7 20h10a1 1 0 0 0 .993-.883L18 19v-6a1 1 0 0 0-.883-.993L17 12zm-5 2a1.5 1.5 0 0 1 .764 2.79L13.5 19h-3l.737-2.209A1.5 1.5 0 0 1 12 14zm0-10a3 3 0 0 0-2.995 2.824L9 7v3h6V7a3 3 0 0 0-2.824-2.995L12 4z" fill="#A8ABAC"/>
</svg>
