<svg width="24" height="24" viewBox="0 0 24 24" fill="none" xmlns="http://www.w3.org/2000/svg">
    <path fill-rule="evenodd" clip-rule="evenodd" d="M19.778 11.719c0 .276-.023.554-.072.833 1.31.258 2.294 1.544 2.294 3.073 0 1.563-1.018 2.875-2.382 3.094a.267.267 0 0 1-.118.031H5.056C3.37 18.75 2 17.208 2 15.312c0-1.705 1.109-3.132 2.576-3.39a6.512 6.512 0 0 1-.076-.985C4.5 7.665 6.868 5 9.778 5c1.75 0 3.356.958 4.345 2.576a3.595 3.595 0 0 1 1.627-.388c2.22 0 4.028 2.033 4.028 4.53zM8 15.664l2.652-2.652L8 10.361 9.06 9.3l2.652 2.652L14.364 9.3l1.06 1.06-2.651 2.652 2.652 2.652-1.061 1.06-2.652-2.651-2.651 2.652L8 15.664z" fill="#fff"/>
</svg>
