<svg width="32" height="32" viewBox="0 0 32 32" fill="none" xmlns="http://www.w3.org/2000/svg">
<g id="Gray / Calculate">
<path id="Shape" fill-rule="evenodd" clip-rule="evenodd" d="M26 3C27.5977 3 28.9037 4.24892 28.9949 5.82373L29 6V26C29 27.5977 27.7511 28.9037 26.1763 28.9949L26 29H6C4.40232 29 3.09634 27.7511 3.00509 26.1763L3 26V6C3 4.40232 4.24892 3.09634 5.82373 3.00509L6 3H26ZM15 17H5V26C5 26.5128 5.38604 26.9355 5.88338 26.9933L6 27H15V17ZM27 17H17V27H26C26.5128 27 26.9355 26.614 26.9933 26.1166L27 26V17ZM8.58579 19.1716L10 20.5858L11.4142 19.1716C11.8047 18.781 12.4379 18.781 12.8284 19.1716C13.219 19.5621 13.219 20.1953 12.8284 20.5858L11.4149 21.9993L12.8284 23.4142C13.219 23.8047 13.219 24.4379 12.8284 24.8284C12.4379 25.219 11.8047 25.219 11.4142 24.8284L10 23.4142L8.58579 24.8284C8.19526 25.219 7.5621 25.219 7.17157 24.8284C6.78105 24.4379 6.78105 23.8047 7.17157 23.4142L8.58579 22L7.17157 20.5858C6.78105 20.1953 6.78105 19.5621 7.17157 19.1716C7.5621 18.781 8.19526 18.781 8.58579 19.1716ZM25 23C25.5523 23 26 23.4477 26 24C26 24.5523 25.5523 25 25 25H19C18.4477 25 18 24.5523 18 24C18 23.4477 18.4477 23 19 23H25ZM25 19C25.5523 19 26 19.4477 26 20C26 20.5523 25.5523 21 25 21H19C18.4477 21 18 20.5523 18 20C18 19.4477 18.4477 19 19 19H25ZM15 5H6C5.48716 5 5.06449 5.38604 5.00673 5.88338L5 6V15H15V5ZM26 5H17V15H27V6C27 5.48716 26.614 5.06449 26.1166 5.00673L26 5ZM10 6C10.5523 6 11 6.44772 11 7V8.999L13 9C13.5523 9 14 9.44772 14 10C14 10.5523 13.5523 11 13 11H11V13C11 13.5523 10.5523 14 10 14C9.44772 14 9 13.5523 9 13V11H7C6.44772 11 6 10.5523 6 10C6 9.44772 6.44772 9 7 9H9V7C9 6.44772 9.44772 6 10 6ZM25 9C25.5523 9 26 9.44772 26 10C26 10.5523 25.5523 11 25 11H19C18.4477 11 18 10.5523 18 10C18 9.44772 18.4477 9 19 9H25Z" fill="#474B55"/>
</g>
</svg>
