<svg width="20" height="20" viewBox="0 0 20 20" fill="none" xmlns="http://www.w3.org/2000/svg">
    <path fill-rule="evenodd" clip-rule="evenodd" d="M12.5 1.667c.879 0 1.598.68 1.662 1.542l.005.124V5h2.5a.833.833 0 0 1 0 1.667h-.891l-.668 9.344a2.5 2.5 0 0 1-2.348 2.318l-.145.004h-5.23a2.5 2.5 0 0 1-2.479-2.177l-.014-.145-.669-9.344h-.89a.833.833 0 0 1 0-1.667h2.5V3.333c0-.878.68-1.598 1.543-1.662l.124-.004h5zm1.604 5H5.895l.659 9.226a.834.834 0 0 0 .642.752l.097.017.092.005h5.23a.834.834 0 0 0 .82-.683l.011-.091.658-9.226zM7.917 7.5c.316 0 .578.224.619.514l.006.081v7.143c0 .329-.28.595-.625.595a.616.616 0 0 1-.62-.514l-.005-.08V8.094c0-.329.28-.595.625-.595zM10 7.5c.316 0 .578.224.62.514l.005.081v7.143c0 .329-.28.595-.625.595a.616.616 0 0 1-.62-.514l-.005-.08V8.094c0-.329.28-.595.625-.595zm2.083 0c.317 0 .578.224.62.514l.005.081v7.143c0 .329-.28.595-.625.595a.616.616 0 0 1-.619-.514l-.006-.08V8.094c0-.329.28-.595.625-.595zm.417-4.167h-5V5h5V3.333z" fill="#474B55"/>
</svg>
