<svg width="16" height="16" viewBox="0 0 16 16" fill="none" xmlns="http://www.w3.org/2000/svg">
    <path fill-rule="evenodd" clip-rule="evenodd" d="m6.211 3.42-3.843 7.686A2 2 0 0 0 4.158 14h7.684a2 2 0 0 0 1.79-2.894L9.788 3.42a2 2 0 0 0-3.578 0zm2.087.299c.129.064.234.169.298.298l3.843 7.685a.667.667 0 0 1-.597.965H4.157a.667.667 0 0 1-.596-.965l3.843-7.685a.667.667 0 0 1 .894-.298zm-.965 2.948a.667.667 0 0 1 1.334 0v2.666a.667.667 0 1 1-1.334 0V6.667zm0 4.667a.667.667 0 1 1 1.334 0 .667.667 0 0 1-1.334 0z" fill="#757575"/>
</svg>
