<svg width="24" height="24" viewBox="0 0 24 24" fill="none" xmlns="http://www.w3.org/2000/svg">
<path fill-rule="evenodd" clip-rule="evenodd" d="M14.2666 13.6667C14.4214 13.6667 14.5755 13.6883 14.7244 13.7308L17.9295 14.6466C19.3524 15.0531 20.3333 16.3536 20.3333 17.8334V18.6667C20.3333 19.5872 19.5871 20.3334 18.6667 20.3334H5.33332C4.41285 20.3334 3.66666 19.5872 3.66666 18.6667V17.8334C3.66666 16.3536 4.64762 15.0531 6.07047 14.6466L9.27555 13.7308C9.42445 13.6883 9.57855 13.6667 9.73342 13.6667H14.2666ZM12 3.66669C14.3012 3.66669 16.1667 5.53217 16.1667 7.83335C16.1667 10.1345 14.3012 12 12 12C9.6988 12 7.83332 10.1345 7.83332 7.83335C7.83332 5.53217 9.6988 3.66669 12 3.66669Z" fill="#A8ABAC"/>
</svg>
