<svg width="102" height="24" viewBox="0 0 102 24" fill="none" xmlns="http://www.w3.org/2000/svg">
    <g clip-path="url(#sgxyzm7qaa)">
        <path d="M56.137 15.227c0 .193-.017.392-.07.566-.219.725-.97 1.338-1.909 1.338-.782 0-1.404-.445-1.404-1.384 0-1.438 1.582-1.835 3.383-1.826v1.306zm2.826-2.505c0-2.371-1.013-4.457-4.435-4.457-1.758 0-3.152.494-3.913.933l.557 1.906c.695-.439 1.804-.802 2.853-.802 1.736-.004 2.02.982 2.02 1.615v.15c-3.784-.005-6.176 1.304-6.176 3.975 0 1.63 1.218 3.158 3.336 3.158 1.302 0 2.392-.52 3.044-1.353h.064s.432 1.809 2.816 1.117c-.126-.752-.166-1.555-.166-2.521v-3.72zM0 5.037S2.473 15.17 2.867 16.815c.46 1.92 1.291 2.626 3.684 2.15l1.544-6.284c.391-1.56.654-2.672.906-4.26h.044c.177 1.603.428 2.705.75 4.266 0 0 .629 2.852.95 4.35.324 1.498 1.222 2.441 3.566 1.928L17.99 5.037h-2.97l-1.257 6.021c-.338 1.753-.644 3.123-.88 4.726h-.042c-.215-1.588-.488-2.903-.832-4.61l-1.308-6.137H7.607l-1.4 5.982c-.396 1.818-.767 3.285-1.002 4.835h-.043a170.582 170.582 0 0 0-.911-5.063S3.42 6.51 3.128 5.037H0zM23.606 15.227c0 .193-.017.392-.07.566-.22.725-.97 1.338-1.909 1.338-.783 0-1.404-.445-1.404-1.384 0-1.438 1.582-1.835 3.383-1.826v1.306zm2.825-2.505c0-2.371-1.013-4.457-4.434-4.457-1.758 0-3.153.494-3.914.933l.557 1.906c.696-.439 1.804-.802 2.853-.802 1.738-.004 2.022.982 2.022 1.615v.15c-3.786-.005-6.177 1.304-6.177 3.975 0 1.63 1.217 3.158 3.334 3.158 1.303 0 2.392-.52 3.046-1.353h.064s.432 1.809 2.815 1.117c-.125-.752-.166-1.555-.166-2.521v-3.72zM31.146 16.007V5.037h-2.828v13.927h2.828v-2.957zM68.15 5.037V15.31c0 1.416.267 2.409.837 3.015.499.53 1.32.874 2.303.874.836 0 1.659-.159 2.047-.303l-.037-2.21c-.288.07-.62.127-1.074.127-.964 0-1.287-.617-1.287-1.888v-3.931h2.464V8.33h-2.464V5.037H68.15zM60.85 8.501v10.463h2.917v-5.357c0-.29.018-.541.063-.772.216-1.123 1.075-1.84 2.307-1.84.338 0 .58.037.842.074V8.33a2.813 2.813 0 0 0-.643-.065c-1.089 0-2.328.703-2.847 2.21h-.08V8.5h-2.56zM33.127 8.501v10.463h2.843v-6.136c0-.287.033-.592.133-.856.236-.618.81-1.34 1.728-1.34 1.148 0 1.684.97 1.684 2.37v5.962h2.84v-6.21c0-.275.038-.605.119-.848.234-.703.853-1.275 1.706-1.275 1.163 0 1.721.953 1.721 2.6v5.733h2.842v-6.162c0-3.25-1.65-4.537-3.512-4.537-.825 0-1.477.207-2.065.568-.495.304-.938.736-1.325 1.304h-.042c-.45-1.128-1.507-1.872-2.884-1.872-1.77 0-2.565.897-3.047 1.658h-.042V8.501h-2.699z" fill="#2D7AC8"/>
        <path d="M88.692 8.08c.562 0 1.025-.292 1.088-.67l.555-6.28c0-.62-.727-1.13-1.641-1.13-.913 0-1.64.51-1.64 1.13l.555 6.28c.061.378.525.67 1.085.67h-.002zM85.298 10.041c.282-.486.26-1.033-.037-1.276l-5.16-3.62c-.537-.31-1.342.064-1.798.855-.459.791-.377 1.675.159 1.985l5.714 2.66c.358.134.844-.12 1.124-.607l-.002.003zM92.087 10.038c.281.486.766.74 1.124.608l5.715-2.66c.538-.311.615-1.195.16-1.986-.458-.791-1.264-1.165-1.8-.855l-5.16 3.62c-.296.243-.318.79-.037 1.276l-.002-.003zM88.692 15.923c.562 0 1.025.29 1.088.668l.555 6.278c0 .622-.727 1.131-1.641 1.131-.913 0-1.64-.509-1.64-1.13l.555-6.28c.061-.377.525-.667 1.085-.667h-.002zM92.087 13.962c.281-.487.766-.74 1.124-.606l5.715 2.658c.538.311.615 1.195.16 1.987-.458.79-1.264 1.164-1.8.855l-5.16-3.617c-.296-.246-.318-.792-.037-1.278h-.002zM85.298 13.96c.282.487.26 1.033-.037 1.279l-5.16 3.617c-.537.31-1.342-.066-1.798-.855-.459-.792-.377-1.676.159-1.987l5.714-2.658c.358-.134.844.119 1.124.606l-.002-.001zM100.771 18.435h.118c.129 0 .241-.04.241-.151 0-.09-.055-.152-.224-.152a.647.647 0 0 0-.135.01v.293zm0 .529h-.174v-.939a1.8 1.8 0 0 1 .326-.028c.157 0 .236.028.297.073.057.039.096.112.096.197 0 .118-.084.19-.186.224v.012c.085.033.13.107.158.225.028.146.045.202.068.236h-.18c-.028-.034-.051-.118-.073-.248-.023-.1-.085-.146-.22-.146h-.112v.394zm.158-1.232a.72.72 0 0 0-.715.737c0 .416.31.742.726.742.405.006.703-.326.703-.736 0-.411-.298-.743-.709-.743h-.005zm.011-.157c.506 0 .905.394.905.894a.895.895 0 0 1-.911.905.9.9 0 1 1 0-1.8h.006z" fill="#FAB41D"/>
    </g>
    <defs>
        <clipPath id="sgxyzm7qaa">
            <path fill="#fff" d="M0 0h101.844v24H0z"/>
        </clipPath>
    </defs>
</svg>
