<svg xmlns="http://www.w3.org/2000/svg" width="24" height="24" viewBox="0 0 24 24">
    <g fill="none" fill-rule="evenodd">
        <g>
            <g>
                <g>
                    <g>
                        <g>
                            <path fill="#AB3192" d="M15.633 0c2.409 0 3.613 0 4.91.41 1.416.515 2.532 1.63 3.047 3.047.41 1.296.41 2.501.41 4.91v7.266c0 2.409 0 3.613-.41 4.91-.515 1.416-1.63 2.532-3.047 3.047-1.297.41-2.501.41-4.91.41H8.367c-2.409 0-3.614 0-4.91-.41C2.04 23.075.925 21.96.41 20.543 0 19.246 0 18.042 0 15.633V8.367c0-2.409 0-3.614.41-4.91C.925 2.04 2.04.925 3.457.41 4.753 0 5.958 0 8.367 0h7.266z" transform="translate(-160 -524) translate(144 280) translate(0 152) translate(0 80) translate(16 12)"/>
                            <g fill="#FFF">
                                <path d="M8 1.333c.212 0 .467.066.652.181 1.245.777 3.222 1.454 4.049 1.773.645.249 1.299.172 1.299.892V9.17c0 2.388-1.418 3.295-5.515 5.365-.182.097-.371.132-.485.132-.121 0-.311-.035-.493-.132C3.418 12.451 2 11.558 2 9.17V4.18c0-.51.434-.624.916-.733l.243-.055c.122-.03.243-.063.356-.105.827-.312 2.8-.977 3.833-1.773.206-.115.432-.18.652-.18zm0 4c-.368 0-.667.24-.667.534v1.466H5.867l-.063.005c-.265.038-.47.32-.47.662 0 .368.238.667.533.667h1.466v1.466l.005.063c.038.265.32.47.662.47.368 0 .667-.238.667-.533V8.666h1.466l.063-.004c.265-.038.47-.32.47-.662 0-.368-.238-.667-.533-.667H8.666V5.867l-.004-.063c-.038-.265-.32-.47-.662-.47z" transform="translate(-160 -524) translate(144 280) translate(0 152) translate(0 80) translate(16 12) translate(4 4)"/>
                            </g>
                        </g>
                    </g>
                </g>
            </g>
        </g>
    </g>
</svg>
