<?xml version="1.0" encoding="UTF-8"?>
<svg width="16px" height="16px" viewBox="0 0 16 16" version="1.1" xmlns="http://www.w3.org/2000/svg" xmlns:xlink="http://www.w3.org/1999/xlink">
    <title>ico-payment</title>
    <defs>
        <path d="M13.9961003,3.71064815 C13.9961003,2.953125 13.4696379,2.33333333 12.8261838,2.33333333 L11.6991643,2.33333333 L1.02562674,2.34710648 C0.460167131,2.34710648 0,2.88885031 0,3.55455247 L0,5.05123457 L0,9.54587191 L0,11.042554 C0,11.7082562 0.460167131,12.25 1.02562674,12.25 L2.29693593,12.25 L11.745961,12.25 C11.7888579,12.25 11.8239554,12.2408179 11.8629526,12.2362269 L12.8300836,12.2362269 C13.4735376,12.2362269 14,11.6164352 14,10.858912 L14,9.53209877 L14,5.04205247 L14,3.71064815 L13.9961003,3.71064815 Z M11.3442897,3.25154321 C11.508078,4.37635031 12.2607242,5.26242284 13.216156,5.45524691 L13.216156,9.11431327 C12.2568245,9.30713735 11.5041783,10.202392 11.3442897,11.3317901 L2.65181058,11.3317901 C2.57381616,10.7808642 2.35543175,10.2758488 2.01225627,9.87183642 C1.6729805,9.47241512 1.24401114,9.21990741 0.77994429,9.12808642 L0.77994429,5.46902006 C1.24401114,5.37719907 1.67688022,5.12010031 2.01615599,4.71608796 C2.35543175,4.31666667 2.57381616,3.81165123 2.65181058,3.26072531 L11.3442897,3.25154321 Z M7,4.31666667 C5.79471081,4.31666667 4.8125,5.65145754 4.8125,7.29166667 C4.8125,8.93187579 5.79471081,10.2666667 7,10.2666667 C8.20528919,10.2666667 9.1875,8.93187579 9.1875,7.29166667 C9.1875,5.65145754 8.20528919,4.31666667 7,4.31666667 Z" id="path-1"></path>
    </defs>
    <g id="Home-Page" stroke="none" stroke-width="1" fill="none" fill-rule="evenodd">
        <g id="LOL-icons" transform="translate(-354.000000, -346.000000)">
            <g id="ico-payment" transform="translate(354.000000, 346.000000)">
                <rect id="background" fill-opacity="0" fill="#000000" x="0" y="0" width="16" height="16"></rect>
                <g id="iconography/_nav/home" transform="translate(1.000000, 1.000000)">
                    <mask id="mask-2" fill="white">
                        <use xlink:href="#path-1"></use>
                    </mask>
                    <use id="Shape" fill="#A8ABAC" fill-rule="nonzero" xlink:href="#path-1"></use>
                    <g id="Group" mask="url(#mask-2)" fill="#3E7128">
                        <g id="colors/03_medium_gray">
                            <rect id="Rectangle-Copy" x="0" y="0" width="14" height="14"></rect>
                        </g>
                    </g>
                </g>
            </g>
        </g>
    </g>
</svg>
