<?xml version="1.0" encoding="UTF-8"?>
<svg width="16px" height="16px" viewBox="0 0 16 16" version="1.1" xmlns="http://www.w3.org/2000/svg" xmlns:xlink="http://www.w3.org/1999/xlink">
    <title>ico-list</title>
    <defs>
        <path d="M11.7584746,11.5 C12.1737288,11.5 12.5,11.83 12.5,12.25 C12.5,12.67 12.1737288,13 11.7584746,13 L2.74152542,13 C2.32627119,13 2,12.67 2,12.25 C2,11.83 2.32627119,11.5 2.74152542,11.5 L11.7584746,11.5 Z M7.33628319,7.5 C7.7079646,7.5 8,7.83 8,8.25 C8,8.67 7.7079646,9 7.33628319,9 L2.66371681,9 C2.2920354,9 2,8.67 2,8.25 C2,7.83 2.2920354,7.5 2.66371681,7.5 L7.33628319,7.5 Z M13.3087558,3 C13.6958525,3 14,3.33 14,3.75 C14,4.17 13.6958525,4.5 13.3087558,4.5 L2.69124424,4.5 C2.30414747,4.5 2,4.17 2,3.75 C2,3.33 2.30414747,3 2.69124424,3 L13.3087558,3 Z" id="path-1"></path>
    </defs>
    <g id="Icons" stroke="none" stroke-width="1" fill="none" fill-rule="evenodd">
        <g id="Gray" transform="translate(-140.000000, -546.000000)">
            <g id="ico-list" transform="translate(140.000000, 546.000000)">
                <rect id="background-copy-6" fill-opacity="0" fill="#000000" fill-rule="nonzero" transform="translate(8.000000, 8.000000) rotate(90.000000) translate(-8.000000, -8.000000) " x="0" y="0" width="16" height="16"></rect>
                <mask id="mask-2" fill="white">
                    <use xlink:href="#path-1"></use>
                </mask>
                <use id="Combined-Shape" fill="#008BBF" fill-rule="nonzero" xlink:href="#path-1"></use>
            </g>
        </g>
    </g>
</svg>