<?xml version="1.0" encoding="UTF-8"?>
<svg width="16px" height="16px" viewBox="0 0 16 16" version="1.1" xmlns="http://www.w3.org/2000/svg" xmlns:xlink="http://www.w3.org/1999/xlink">
    <title>ico-check</title>
    <defs>
        <polygon id="path-1" points="4.375 8.75 12.25 1.75 14 3.5 4.375 12.25 0 7.875 1.75 6.125"></polygon>
    </defs>
    <g id="Icons" stroke="none" stroke-width="1" fill="none" fill-rule="evenodd">
        <g id="Gray" transform="translate(-403.000000, -576.000000)">
            <g id="ico-check" transform="translate(403.000000, 576.000000)">
                <g id="Messages-Icon" fill="#000000" fill-opacity="0">
                    <path d="M10.4217333,0 C12.028,0 12.8309333,0 13.6956,0.273333333 C14.6396,0.616933333 15.3830667,1.3604 15.7266667,2.3044 C16,3.16893333 16,3.97213333 16,5.57826667 L16,10.4217333 C16,12.028 16,12.8309333 15.7266667,13.6956 C15.3830667,14.6396 14.6396,15.3830667 13.6956,15.7265333 C12.8309333,16 12.028,16 10.4217333,16 L5.57826667,16 C3.972,16 3.16893333,16 2.3044,15.7265333 C1.3604,15.3830667 0.616933333,14.6396 0.273333333,13.6956 C0,12.8309333 0,12.028 0,10.4217333 L0,5.57826667 C0,3.97213333 0,3.16893333 0.273333333,2.3044 C0.616933333,1.3604 1.3604,0.616933333 2.3044,0.273333333 C3.16893333,0 3.972,0 5.57826667,0 L10.4217333,0 Z" id="background"></path>
                </g>
                <g id="shape" transform="translate(1.000000, 1.000000)">
                    <mask id="mask-2" fill="white">
                        <use xlink:href="#path-1"></use>
                    </mask>
                    <use id="Path" fill="#BBBDBF" xlink:href="#path-1"></use>
                    <g id="Group" mask="url(#mask-2)" fill="#529535">
                        <g id="colors/03_medium_gray">
                            <rect id="Rectangle-Copy" x="0" y="0" width="14" height="14"></rect>
                        </g>
                    </g>
                </g>
            </g>
        </g>
    </g>
</svg>