<svg xmlns="http://www.w3.org/2000/svg" width="20" height="20" viewBox="0 0 20 20">
    <g fill="none" fill-rule="evenodd">
        <g fill="#AD122A">
            <g>
                <g>
                    <g>
                        <g>
                            <path d="M15.833 4.167c1.381 0 2.5 1.119 2.5 2.5v6.666c0 1.381-1.119 2.5-2.5 2.5H4.167c-1.381 0-2.5-1.119-2.5-2.5V6.667c0-1.381 1.119-2.5 2.5-2.5zm.833 5.028l-5.907 3.02c-.477.243-1.041.243-1.518 0l-5.908-3.02v4.138c0 .425.318.776.73.827l.104.007h11.666c.46 0 .834-.373.834-.834l-.001-4.138zm-.282-3.154c-.025-.022-.051-.042-.078-.061l-.08-.049c-.023-.012-.045-.022-.068-.032l-.026-.01.026.01c-.06-.025-.123-.044-.19-.055l-.034-.004-.1-.007H4.166c-.46 0-.834.373-.834.834v.656L10 10.731l6.667-3.409v-.655c0-.143-.036-.277-.1-.394l-.05-.082c-.018-.027-.039-.053-.06-.078z" transform="translate(-510 -323) translate(480 176) translate(16 104) translate(0 33) translate(14 10)"/>
                        </g>
                    </g>
                </g>
            </g>
        </g>
    </g>
</svg>
