<svg xmlns="http://www.w3.org/2000/svg" width="16" height="16" viewBox="0 0 16 16">
    <g fill="none" fill-rule="evenodd">
        <g fill="#003863">
            <g>
                <g>
                    <g>
                        <path d="M8 1.333c3.682 0 6.667 2.985 6.667 6.667S11.682 14.667 8 14.667 1.333 11.682 1.333 8 4.318 1.333 8 1.333zm0 5.334c-.368 0-.667.298-.667.666v4c0 .369.299.667.667.667.368 0 .667-.298.667-.667v-4c0-.368-.299-.666-.667-.666zM8 4c-.368 0-.667.298-.667.667 0 .368.299.666.667.666.368 0 .667-.298.667-.666C8.667 4.298 8.368 4 8 4z" transform="translate(-711 -871) translate(485 776) translate(0 78) translate(226 17)"/>
                    </g>
                </g>
            </g>
        </g>
    </g>
</svg>
