<svg width="20" height="20" viewBox="0 0 20 20" fill="none" xmlns="http://www.w3.org/2000/svg">
    <path fill-rule="evenodd" clip-rule="evenodd" d="M12.266 11.667c.155 0 .31.021.458.064l3.205.915a3.315 3.315 0 0 1 2.404 3.187v.834c0 .92-.746 1.666-1.666 1.666H3.332c-.92 0-1.667-.746-1.667-1.666v-.834c0-1.48.981-2.78 2.404-3.187l3.205-.915c.15-.043.303-.064.458-.064h4.533zm0 1.666H7.733l-3.205.916c-.663.19-1.133.77-1.19 1.447l-.005.137v.834h13.334v-.834c0-.69-.43-1.3-1.066-1.54l-.13-.044-3.205-.916zM10 1.667A4.167 4.167 0 1 1 10 10a4.167 4.167 0 0 1 0-8.333zm0 1.666a2.5 2.5 0 1 0 0 5 2.5 2.5 0 0 0 0-5z" fill="#474B55"/>
</svg>
