<?xml version="1.0" encoding="UTF-8"?>
<svg width="16px" height="16px" viewBox="0 0 16 16" version="1.1" xmlns="http://www.w3.org/2000/svg" xmlns:xlink="http://www.w3.org/1999/xlink">
    <title>ico-community</title>
    <defs>
        <path d="M3.29379672,11.1565968 C3.13350219,11.185118 2.96848903,11.2 2.8,11.2 C1.2536027,11.2 0,9.9463973 0,8.4 C0,6.95471378 1.09502861,5.76518523 2.50069055,5.61580957 C3.16432603,3.96179757 4.59434249,2.69788749 6.35135123,2.26346807 C6.60163847,0.973739361 7.73710469,0 9.1,0 C10.6463973,0 11.9,1.2536027 11.9,2.8 C11.9,3.15160294 11.8351929,3.48806936 11.7168722,3.79810571 C12.6966803,4.80660337 13.3,6.18284527 13.3,7.7 C13.3,8.2023256 13.2338609,8.6892036 13.1098159,9.15240081 C13.6575439,9.66349279 14,10.391754 14,11.2 C14,12.7463973 12.7463973,14 11.2,14 C10.391754,14 9.66349279,13.6575439 9.15240081,13.1098159 C8.6892036,13.2338609 8.2023256,13.3 7.7,13.3 C5.91162614,13.3 4.31904996,12.4616905 3.29379672,11.1565968 Z M4.60573115,10.5400177 C5.37343318,11.3760049 6.47552381,11.9 7.7,11.9 C7.96337115,11.9 8.22108035,11.8757583 8.47101801,11.8293845 C8.4245504,11.6270792 8.4,11.4164066 8.4,11.2 C8.4,9.6536027 9.6536027,8.4 11.2,8.4 C11.4164066,8.4 11.6270792,8.4245504 11.8293845,8.47101801 C11.8757583,8.22108035 11.9,7.96337115 11.9,7.7 C11.9,6.65268485 11.5166626,5.69490299 10.8826425,4.95930919 C10.3984077,5.35952916 9.7772864,5.6 9.1,5.6 C7.86503018,5.6 6.81679873,4.80047797 6.44468146,3.69080963 C5.34408199,4.03506473 4.43822271,4.82002129 3.93374762,5.8390353 C4.91530576,6.27421774 5.6,7.25714941 5.6,8.4 C5.6,9.25829744 5.21381678,10.026397 4.60573115,10.5400177 Z" id="path-1"></path>
    </defs>
    <g id="Home-Page" stroke="none" stroke-width="1" fill="none" fill-rule="evenodd">
        <g id="LOL-icons" transform="translate(-320.000000, -346.000000)">
            <g id="ico-community" transform="translate(320.000000, 346.000000)">
                <rect id="background" fill-opacity="0" fill="#000000" x="0" y="0" width="16" height="16"></rect>
                <g id="colors/03_medium_gray" transform="translate(1.000000, 1.000000)">
                    <mask id="mask-2" fill="white">
                        <use xlink:href="#path-1"></use>
                    </mask>
                    <use id="Mask" fill="#000000" fill-rule="nonzero" xlink:href="#path-1"></use>
                    <g id="Group" mask="url(#mask-2)" fill="#3E7128">
                        <g id="colors/03_medium_gray">
                            <rect id="Rectangle-Copy" x="0" y="0" width="14" height="14"></rect>
                        </g>
                    </g>
                </g>
            </g>
        </g>
    </g>
</svg>
