<?xml version="1.0" encoding="UTF-8"?>
<svg width="16px" height="16px" viewBox="0 0 16 16" version="1.1" xmlns="http://www.w3.org/2000/svg" xmlns:xlink="http://www.w3.org/1999/xlink">
    <title>ico-id</title>
    <defs>
        <path d="M10,1.5 C11.1045695,1.5 12,2.3954305 12,3.5 L12,9 C12,10.1045695 11.1045695,11 10,11 L2,11 C0.8954305,11 0,10.1045695 0,9 L0,3.5 C0,2.3954305 0.8954305,1.5 2,1.5 L10,1.5 Z M11,5 L1,5 L1,9 C1,9.55228475 1.44771525,10 2,10 L10,10 C10.5522847,10 11,9.55228475 11,9 L11,5 Z M10,2.5 L2,2.5 C1.44771525,2.5 1,2.94771525 1,3.5 L11,3.5 C11,2.94771525 10.5522847,2.5 10,2.5 Z" id="path-1"></path>
    </defs>
    <g id="Home-Page" stroke="none" stroke-width="1" fill="none" fill-rule="evenodd">
        <g id="LOL-icons" transform="translate(-74.000000, -346.000000)">
            <g id="ico-id" transform="translate(74.000000, 346.000000)">
                <rect id="background" fill-opacity="0" fill="#000000" x="0" y="0" width="16" height="16"></rect>
                <g id="iconography/_nav/user" transform="translate(2.000000, 2.000000)">
                    <mask id="mask-2" fill="white">
                        <use xlink:href="#path-1"></use>
                    </mask>
                    <use id="Combined-Shape" fill="#979797" fill-rule="nonzero" xlink:href="#path-1"></use>
                    <g id="Group" mask="url(#mask-2)" fill="#008BBF">
                        <g id="colors/03_medium_gray">
                            <rect id="Rectangle-Copy" x="0" y="0" width="12" height="12"></rect>
                        </g>
                    </g>
                </g>
            </g>
        </g>
    </g>
</svg>
