<svg width="20" height="20" viewBox="0 0 20 20" fill="none" xmlns="http://www.w3.org/2000/svg">
    <path fill-rule="evenodd" clip-rule="evenodd" d="M10 1.667a4.167 4.167 0 0 1 4.167 4.166v2.5a2.5 2.5 0 0 1 2.496 2.354l.004.146v5a2.5 2.5 0 0 1-2.353 2.496l-.147.004H5.833a2.5 2.5 0 0 1-2.495-2.353l-.005-.147v-5a2.5 2.5 0 0 1 2.354-2.495l.146-.005v-2.5A4.167 4.167 0 0 1 10 1.667zM14.167 10H5.833a.833.833 0 0 0-.827.736L5 10.833v5c0 .428.322.78.736.828l.098.006h8.333c.427 0 .78-.322.828-.736l.005-.098v-5a.833.833 0 0 0-.736-.827L14.167 10zM10 11.667a1.25 1.25 0 0 1 .637 2.325l.613 1.841h-2.5l.614-1.84A1.25 1.25 0 0 1 10 11.667zm0-8.334a2.5 2.5 0 0 0-2.496 2.354l-.004.146v2.5h5v-2.5a2.5 2.5 0 0 0-2.353-2.495L10 3.333z" fill="#A8ABAC"/>
</svg>
