<?xml version="1.0" encoding="UTF-8"?>
<svg width="32px" height="32px" viewBox="0 0 32 32" version="1.1" xmlns="http://www.w3.org/2000/svg" xmlns:xlink="http://www.w3.org/1999/xlink">
    <title>ico_substance</title>
    <defs>
        <path d="M14.08,0.64 C14.7869245,0.64 15.36,1.40410069 15.36,2.34666667 L15.36,4.05333333 C15.36,4.99589931 14.7869245,5.76 14.08,5.76 L14.0804451,8.99520364 C16.9601991,9.31377034 19.2,11.7553184 19.2,14.72 L19.2,25.302 L22.4564347,19.4291401 C23.4645497,17.6104526 25.9667454,17.0701021 28.0452454,18.2222334 C30.1237454,19.3743648 30.9914639,21.7826893 29.983349,23.6013768 L26.3326419,30.1874267 C25.3245269,32.0061142 22.8223312,32.5464647 20.7438312,31.3943334 C20.0721303,31.0220035 19.5268791,30.5184814 19.1305231,29.9460643 C18.9106383,30.7608356 18.1652903,31.36 17.28,31.36 L4.48,31.36 C3.41961328,31.36 2.56,30.5003867 2.56,29.44 L2.56,14.72 C2.56,11.7550991 4.80013233,9.31340909 7.68019405,8.99513297 L7.68,5.76 C6.97307552,5.76 6.4,4.99589931 6.4,4.05333333 L6.4,2.34666667 C6.4,1.40410069 6.97307552,0.64 7.68,0.64 L14.08,0.64 Z M22.023,24.649 L20.6874562,27.0582492 C20.288687,27.7776479 20.6959021,28.9078601 21.7868904,29.5126048 C22.8233292,30.0871122 23.9349258,29.8869787 24.3853891,29.2487347 L24.4509133,29.1443676 L25.786,26.735 L22.023,24.649 Z M17.28,24.32 L4.48,24.32 L4.48,29.44 L17.28,29.44 L17.28,24.32 Z M24.4036876,20.3678321 L24.3381633,20.4721992 L23.066,22.767 L26.829,24.853 L28.1016204,22.5583176 C28.5003896,21.8389189 28.0931745,20.7087066 27.0021862,20.103962 C25.9657474,19.5294546 24.8541508,19.7295881 24.4036876,20.3678321 Z M17.28,19.2 L4.48,19.2 L4.48,22.4 L17.28,22.4 L17.28,19.2 Z M12.16,6.4 L9.59936,6.4 L9.60026795,10.7146337 L7.8910897,10.9035153 C6.00889274,11.1115172 4.55616209,12.6751616 4.48290056,14.5697577 L4.48,14.72 L4.48,17.28 L17.28,17.28 L17.28,14.72 C17.28,12.8088496 15.875752,11.2016152 14.0170069,10.922796 L13.8693369,10.9035624 L12.1606146,10.7145386 L12.16,6.4 Z M13.44,2.56 L8.32,2.56 L8.32,4.48 L13.44,4.48 L13.44,2.56 Z" id="path-1"></path>
    </defs>
    <g id="Icons" stroke="none" stroke-width="1" fill="none" fill-rule="evenodd">
        <g id="Colored" transform="translate(-435.000000, -555.000000)">
            <g id="ico_substance" transform="translate(435.000000, 555.000000)">
                <rect id="surface" fill-opacity="0" fill="#000000" x="0" y="0" width="32" height="32"></rect>
                <mask id="mask-2" fill="white">
                    <use xlink:href="#path-1"></use>
                </mask>
                <use id="Combined-Shape" fill="#97310D" fill-rule="nonzero" xlink:href="#path-1"></use>
            </g>
        </g>
    </g>
</svg>