<svg width="100" height="32" viewBox="0 0 100 32" fill="none" xmlns="http://www.w3.org/2000/svg">
    <g clip-path="url(#pwgkgvn7ca)">
        <path d="M2.77 12.468h1.19c2.067 0 2.654-1.284 2.654-2.66 0-.549-.13-1.245-.528-1.793-.322-.433-.88-.89-2.112-.89H2.771v5.343zM0 4.95h3.593c1.217 0 3.388 0 4.796 1.807.748.917.997 1.952.997 3.013 0 2.643-1.467 4.869-5.588 4.869H0V4.95zM12.92 5v5.794c0 .649.044 1.83 1.393 1.83 1.365 0 1.365-1.063 1.365-1.83V5h2.745v5.794c0 1.611-.392 2.321-1.074 2.942-.697.638-1.67 1.04-3.006 1.04-.784 0-2.207-.17-3.094-1.026-.885-.868-1.073-1.541-1.073-2.956V5h2.744zM22.308 11.27h2.274L23.467 7.96h-.044l-1.115 3.312zm-.763 1.964-.572 1.402h-2.977l4.357-9.69h2.185l4.312 9.69h-3.008l-.528-1.402h-3.769zM29.047 4.946h2.39l4.176 6.088V4.946h2.584v9.69h-2.404l-4.131-5.893v5.893h-2.615v-9.69zM39.603 4.946h7.15v2.173H42.26v1.507h4.39v2.173h-4.39v1.664h4.492v2.174h-7.149V4.945zM53.86 5.075h-.002a3.583 3.583 0 0 0-.937.642c-.26.257-.466.525-.61.794l-.017.042V5.037h-3.563v.633h1.42v8.178h-1.42v.767h5.622v-.767H52.34V9.05c0-.552.078-1.05.23-1.48.157-.427.352-.8.579-1.103a2.59 2.59 0 0 1 .726-.678c.252-.149.488-.225.7-.225.564 0 .635.262.635.493l-.038.366-.093.234.005-.004c-.014.02-.04.077-.114.24l-.06.366c0 .343.207.746 1.192.746.341 0 .645-.087.905-.256.282-.184.425-.536.425-1.05 0-.227-.043-.456-.127-.682a1.625 1.625 0 0 0-.413-.612 2.27 2.27 0 0 0-.706-.427 2.696 2.696 0 0 0-.99-.166c-.512 0-.963.089-1.336.263zM60.795 6.51c.169-.287.401-.52.69-.69.288-.17.662-.253 1.112-.253.247 0 .488.034.708.104.206.067.383.18.525.333.145.158.264.378.35.655.087.29.132.663.132 1.109v.517l-.032.361h-4.04c.036-.424.085-.78.153-1.09.09-.394.227-.747.402-1.046zm-.086-1.158a5.317 5.317 0 0 0-1.591 1.102 5.162 5.162 0 0 0-1.07 1.57 4.506 4.506 0 0 0-.392 1.835c0 .72.128 1.386.38 1.979.25.59.612 1.105 1.073 1.535.46.427 1.012.76 1.643.989a6.091 6.091 0 0 0 2.053.341c.74 0 1.357-.112 1.833-.336.467-.219.85-.481 1.131-.781.278-.296.483-.598.612-.898l.329-.862-.213-.025-.47-.094-.313.775a2.69 2.69 0 0 1-.493.726c-.222.238-.527.442-.909.609-.382.167-.882.252-1.484.252-.592 0-1.066-.122-1.412-.36a2.351 2.351 0 0 1-.8-.927 3.953 3.953 0 0 1-.362-1.293c-.057-.49-.085-.964-.085-1.41l.012-.798h6.644v-.174c0-.776-.141-1.44-.419-1.976a3.933 3.933 0 0 0-1.037-1.285 4.074 4.074 0 0 0-1.343-.7 4.755 4.755 0 0 0-1.344-.213c-.7 0-1.364.142-1.973.42zM91.757 6.51c.171-.287.403-.52.69-.69.29-.17.663-.253 1.113-.253.248 0 .487.034.71.104.204.067.38.18.521.333.148.16.266.379.352.655.087.29.13.663.13 1.109v.517l-.03.361h-4.04a8.04 8.04 0 0 1 .155-1.09c.09-.392.223-.746.4-1.046zm-.085-1.158a5.36 5.36 0 0 0-1.592 1.102 5.143 5.143 0 0 0-1.07 1.57 4.53 4.53 0 0 0-.39 1.835c0 .72.127 1.386.377 1.979.252.59.614 1.105 1.075 1.535.46.427 1.012.76 1.643.989a6.09 6.09 0 0 0 2.052.341c.741 0 1.358-.112 1.834-.336.468-.219.85-.481 1.13-.781a3.18 3.18 0 0 0 .613-.898l.329-.862-.215-.025-.47-.094-.31.775c-.11.245-.274.488-.495.726-.22.238-.526.441-.91.609-.38.167-.88.252-1.483.252-.59 0-1.065-.122-1.412-.36-.35-.24-.62-.554-.8-.927a3.95 3.95 0 0 1-.36-1.293 12.477 12.477 0 0 1-.087-1.41l.012-.798h6.645v-.174c0-.776-.141-1.44-.419-1.976a3.966 3.966 0 0 0-1.036-1.285 4.12 4.12 0 0 0-1.342-.7 4.772 4.772 0 0 0-1.346-.213c-.7 0-1.363.142-1.973.42zM70.756 13.82a1.197 1.197 0 0 1-.458-.369 1.403 1.403 0 0 1-.228-.523 3.143 3.143 0 0 1-.062-.605c0-.437.12-.81.353-1.098.244-.298.599-.532 1.058-.698l1.735-.618c.245-.092.431-.187.577-.289v1.655c0 .265-.025.565-.078.89a2.703 2.703 0 0 1-.303.881 1.792 1.792 0 0 1-.657.656c-.286.175-.672.265-1.145.265-.329 0-.595-.05-.792-.147zm-.221-8.661c-.475.129-.875.308-1.191.533-.32.227-.567.493-.734.792-.168.3-.254.622-.254.955 0 .3.073.55.219.746.163.217.51.319 1.09.319.333 0 .597-.08.782-.24a.785.785 0 0 0 .294-.62l-.071-.54a3.553 3.553 0 0 1-.065-.663c0-.293.128-.49.402-.621.308-.149.706-.222 1.189-.222.354 0 .644.044.86.132.198.082.351.203.454.36.112.165.188.368.231.603.044.252.067.543.067.861 0 .395-.034.71-.097.933-.061.207-.172.38-.33.513-.17.146-.412.272-.717.373l-1.259.39-1.28.35a6.04 6.04 0 0 0-1.193.437 2.525 2.525 0 0 0-.907.745c-.239.317-.359.742-.359 1.263 0 .222.038.463.11.716.08.274.242.521.482.733.23.208.555.384.962.521.401.137.942.205 1.607.205.59 0 1.084-.062 1.466-.182.388-.124.705-.28.945-.464.239-.184.423-.382.542-.587l.109-.199c.153.428.354.745.615.968.362.308.94.464 1.718.464.42 0 .784-.055 1.08-.165.29-.112.544-.24.756-.387l.157-.107-.405-.495-.133.085a1.834 1.834 0 0 1-.968.303c-.218 0-.373-.052-.48-.155-.07-.07-.155-.243-.155-.683v-5.14c0-.388-.066-.766-.197-1.123a2.486 2.486 0 0 0-.672-.977c-.313-.285-.723-.512-1.221-.678-.497-.163-1.115-.246-1.84-.246a6.1 6.1 0 0 0-1.609.194zM81.239 13.871c-.3-.2-.528-.493-.68-.87-.157-.395-.259-.881-.298-1.447a27.534 27.534 0 0 1-.062-1.941c0-.483.053-1.114.158-1.878.065-.484.182-.901.346-1.24.158-.329.38-.584.657-.757.284-.175.653-.264 1.096-.264.476 0 .873.085 1.179.25a2.3 2.3 0 0 1 .751.633c.129.178.24.375.33.585.09.21.163.461.216.748.054.295.091.64.112 1.023l-.026 1.58c0 .445-.035.91-.102 1.382a4.203 4.203 0 0 1-.376 1.262c-.18.365-.434.666-.76.894-.316.227-.753.342-1.295.342-.527 0-.946-.101-1.246-.302zM83.428-.001v.638h1.59c.002.034.017 1.56.017 1.56s.04 4.036.04 4.143c-.223-.381-.463-.673-.755-.904-.5-.394-1.156-.594-1.947-.594-.616 0-1.202.133-1.749.4a4.969 4.969 0 0 0-1.436 1.05c-.415.435-.744.95-.984 1.529-.253.61-.42 1.427-.42 2.039 0 .652.124 1.283.375 1.876.249.59.59 1.118 1.016 1.569.426.454.927.822 1.49 1.093.563.27 1.17.408 1.8.408.489 0 .915-.085 1.263-.253.339-.165.628-.369.856-.603a2.76 2.76 0 0 0 .478-.668v1.329h3.68v-.727H87.15V0h-3.722zM96.998 2.866H96.5v-.303h1.312v.303h-.502V4.24h-.312V2.866zM97.973 2.563h.425l.449 1.282.456-1.282h.422V4.24h-.31V2.984l-.433 1.256h-.265l-.432-1.256V4.24h-.312V2.563zM16.713 25.501c0-.893-.294-1.417-.966-1.417-.322 0-.635.157-.966.497v2.089c.303.266.625.359.883.359.589 0 1.05-.515 1.05-1.528zm-2.043 1.84h-.027l-.102.48h-.856v-6.498h1.096v1.675l-.037.746c.377-.332.837-.562 1.297-.562 1.132 0 1.785.911 1.785 2.3 0 1.556-.92 2.448-1.923 2.448-.414 0-.856-.211-1.233-.588zM18.36 29.569l.212-.82c.129.038.211.047.313.047.469 0 .745-.313.892-.755l.083-.285-1.776-4.463h1.104l.764 2.2c.138.395.267.846.396 1.278h.037c.11-.423.23-.865.34-1.279l.662-2.2h1.05l-1.63 4.722c-.377 1.03-.855 1.656-1.849 1.656-.248 0-.423-.037-.598-.101z" fill="#100F0D"/>
        <path d="M67.89 25.763c0-.966 1.468-2.458 2.202-2.458.201 0 .332.087.332.292 0 .535-1.13 1.489-2.534 2.166zm-3.62-2.455c.202 0 .332.087.332.292 0 .535-1.13 1.488-2.534 2.166 0-.966 1.468-2.458 2.202-2.458zm-14.955 2.565c0-1.152 1.751-2.425 3.106-2.425.268 0 .538.046.777.143-1.59 2.536-3.883 3.545-3.883 2.282zm-1.508 5.31c-.155 0-.254-.078-.254-.243 0-.359.704-1.292 2.557-1.958-.788 1.286-1.704 2.2-2.303 2.2zm-10.405-5.31c0-1.112 1.73-2.429 3.115-2.429.279 0 .542.046.769.147-1.675 2.636-3.884 3.502-3.884 2.282zm10.788-5.085c.153 0 .22.076.22.22 0 .659-1.577 2.703-3.162 3.993.4-1.404 2.197-4.213 2.942-4.213zm35.804 5.811c1.198-1.503-.371-3.702 1.325-4.298-.04-.422-.435-.675-.941-.675-.456 0-.943.25-1.255.652-1.787 2.305-3.642 4.08-4.703 4.08-.353 0-.477-.162-.477-.439 0-.86 1.079-2.12 1.91-3a.504.504 0 0 0 .153-.334c0-.258-.296-.43-.66-.43-.912 0-2.806 1.445-4.206 2.764.5-.948 1.058-1.701 1.058-2.11 0-.43-.45-.554-.965-.544-1.999 2.656-4.563 4.619-6.209 4.619-.426 0-.71-.144-.889-.357 2.096-.856 3.846-2.287 3.846-3.343 0-.654-.549-.945-1.317-.945-1.974 0-4.471 2.1-4.594 4.203-1.903.684-3.32.562-3.757.088 2.096-.856 3.846-2.287 3.846-3.343 0-.654-.549-.945-1.317-.945-1.99 0-4.514 2.136-4.598 4.257-.952.293-2.035.421-2.035-.364 0-1.294 1.94-2.357 1.94-3.219 0-.239-.105-.44-.287-.544-.618.318-1.538.582-2.207.582.172-.535-.01-.955-.535-.955-.773 0-1.363.87-1.363 1.576 0 .31.114.526.301.668a9.842 9.842 0 0 1-3.051 2.729c.391-.812.694-1.687 1.116-2.921 1.018-.6 1.534-1.823-.517-1.823-1.68 0-3.538 1.01-4.7 2.369-1.517 1.774-3.364 2.765-3.692 1.418 2.505-1.884 4.834-4.548 4.809-5.875-.01-.48-.295-.806-.967-.806-1.59 0-5.3 3.616-5.615 6.834-2.655 1.422-2.354-.818-1.543-1.997 1.18-.606 1.997-1.943-.203-1.943-3.193 0-5.82 2.969-5.776 4.868.013.562.295 1.026.892 1.026.685 0 1.783-.474 2.94-1.669-.223 1.145.042 1.67.981 1.67.763 0 1.74-.385 2.774-.979.172.535.618.978 1.493.978.91 0 2.03-.716 2.907-1.64-.044.205-.068.41-.068.615 0 .664.356 1.025.885 1.025.596 0 1.489-.473 2.471-1.4-.154.421-.33.85-.538 1.27-2.115.745-4.295 1.554-4.295 3.017 0 .621.514.991 1.164.991 1.585 0 3.532-1.893 4.748-3.74 1.507-.675 3.261-1.954 4.614-3.783a4.09 4.09 0 0 0 1.103-.147c-1.157 1.23-1.691 2.025-1.691 2.799 0 .64.487.993 1.347.993.75 0 1.693-.265 2.808-.756.326.5 1.006.756 1.88.756 1.303 0 2.745-.445 3.863-.906.248.528.844.906 1.8.906 1.944 0 3.702-1.233 5.186-2.555-.67 1.02-1.667 2.555-.265 2.555.22 0 .529-.035.783-.12.993-1.815 2.284-2.99 3.573-3.764-1.06 1.318-1.5 2.321-1.5 2.97 0 .603.373.914.984.914 1.862 0 4.05-1.914 5.933-4.105.097.837.606 1.735-.286 2.514-1.349-.032-2.103.357-2.101.99 0 .389.327.601.789.601.469 0 .93-.136 1.356-.346.755.219 1.535.453 2.447.453 1.328 0 2.264-.667 2.293-1.772-.762.399-1.99.248-3.195.142z" fill="#E62324"/>
        <path d="M30.63 25.212c.028-1.787 1.289-3.664 1.93-3.664.188 0 .228.123.228.253 0 .612-.907 2.245-2.159 3.41zm6.345-6.372c-.596-.003-1.172.358-1.544.9 1.76 1.15-.396 6.878-3.576 6.878-.38 0-.704-.11-.92-.337 1.721-1.55 2.964-3.659 2.964-4.902 0-.636-.31-1.04-1.038-1.04-2.112 0-4.338 3.466-3.925 5.965-1.332.473-1.993-.119-1.993-1.307 0-2.481 2.592-5.055 2.442-5.829-2.687.83-4.789-1.099-5.758 2.041 1.306-.71 2.511.426 4-.405-1.279 1.476-2.57 3.565-2.552 5.33.011 1.155.635 1.988 1.986 1.988.767 0 1.564-.269 2.33-.707.329.41.858.707 1.667.707 3.297 0 6.902-4.634 6.902-7.94 0-.877-.349-1.338-.985-1.341z" fill="#E62324"/>
    </g>
    <defs>
        <clipPath id="pwgkgvn7ca">
            <path fill="#fff" d="M0 0h99.727v32H0z"/>
        </clipPath>
    </defs>
</svg>
