<svg xmlns="http://www.w3.org/2000/svg" width="20" height="20" viewBox="0 0 20 20">
    <g fill="none" fill-rule="evenodd">
        <g fill="#008BBF">
            <g>
                <g>
                    <g>
                        <path d="M11.746 1.667c.428 0 .786.324.829.75l.198 1.98c.24.119.47.253.691.4l1.815-.819c.39-.176.85-.027 1.065.343l1.746 3.024c.214.371.112.844-.235 1.094L16.237 9.6c.009.132.013.265.013.399s-.004.266-.012.398l1.617 1.163c.347.25.449.723.235 1.094l-1.746 3.024c-.214.37-.674.519-1.065.343l-1.815-.819c-.22.147-.451.28-.69.4l-.199 1.98c-.043.426-.401.75-.83.75h-3.49c-.429 0-.787-.324-.83-.75l-.2-1.98c-.239-.12-.47-.253-.69-.4l-1.814.819c-.39.176-.85.027-1.065-.343L1.91 12.655c-.214-.371-.112-.844.235-1.094L3.763 10.4c-.009-.132-.013-.265-.013-.399s.004-.266.012-.398L2.145 8.439c-.347-.25-.449-.723-.235-1.094l1.746-3.024c.214-.37.674-.519 1.065-.343l1.815.819c.22-.147.451-.28.69-.4l.199-1.98c.043-.426.401-.75.83-.75h3.49zm-1.746 5c-1.84 0-3.333 1.492-3.333 3.333 0 1.84 1.492 3.333 3.333 3.333 1.84 0 3.333-1.492 3.333-3.333 0-1.84-1.492-3.333-3.333-3.333z" transform="translate(-512 -158) translate(1 56) translate(455) translate(56 102)"/>
                    </g>
                </g>
            </g>
        </g>
    </g>
</svg>
