<svg width="41" height="40" viewBox="0 0 41 40" fill="none" xmlns="http://www.w3.org/2000/svg">
    <path fill-rule="evenodd" clip-rule="evenodd" d="M30.042 2.5h-17.5a3.75 3.75 0 0 0-3.75 3.75v27.5a3.75 3.75 0 0 0 3.75 3.75h17.5a3.75 3.75 0 0 0 3.75-3.75V6.25a3.75 3.75 0 0 0-3.75-3.75zM12.542 5h17.5c.69 0 1.25.56 1.25 1.25v1.875h-20V6.25c0-.69.56-1.25 1.25-1.25zm-1.25 25.625V9.375h20v21.25h-20zm20 1.25v1.875c0 .69-.56 1.25-1.25 1.25h-17.5c-.69 0-1.25-.56-1.25-1.25v-1.875h20zm-15.348-18.84a.546.546 0 0 0-.555-.535h-1.667l-.064.004a.543.543 0 0 0-.491.532l.002 2.285C13.247 17.918 15.455 20 18.167 20l.002 3.378c.07 2.288 2 4.122 4.373 4.122 2.416 0 4.375-1.903 4.375-4.25v-.857a1.876 1.876 0 1 0-1.03.063v.794l-.002.117c-.063 1.74-1.536 3.133-3.343 3.133-1.848 0-3.346-1.455-3.346-3.25v-3.352c2.268-.458 3.97-2.397 3.97-4.72v-2.142l-.003-.063a.549.549 0 0 0-.552-.473h-1.666l-.065.004a.543.543 0 0 0-.491.532l.004.062a.549.549 0 0 0 .552.473h1.11v1.608l-.002.128c-.07 2.012-1.783 3.622-3.886 3.622l-.134-.003c-2.086-.068-3.755-1.72-3.755-3.747V13.57h1.111l.065-.003a.543.543 0 0 0 .49-.532zm9.41 7.59a.938.938 0 1 1 1.875 0 .938.938 0 0 1-1.875 0z" fill="#A8ABAC"/>
</svg>
