<svg xmlns="http://www.w3.org/2000/svg" width="16" height="16" viewBox="0 0 16 16">
    <path fill="#A8ABAC" fill-rule="evenodd" d="M5.954 0c3.288 0 5.954 2.551 5.954 5.698 0 1.511-.615 2.885-1.618 3.905.079.033.154.082.22.145l5.272 5.038.022.022c.266.278.256.718-.022.984-.294.281-.758.281-1.052 0l-5.273-5.038-.022-.023c-.083-.087-.14-.19-.169-.298-.945.608-2.085.963-3.312.963C2.665 11.396 0 8.845 0 5.698 0 2.551 2.665 0 5.954 0zm0 1.422c-2.466 0-4.466 1.914-4.466 4.276s2 4.276 4.466 4.276 4.465-1.914 4.465-4.276-2-4.276-4.465-4.276z"/>
</svg>
