<svg width="24" height="24" viewBox="0 0 24 24" fill="none" xmlns="http://www.w3.org/2000/svg">
<path fill-rule="evenodd" clip-rule="evenodd" d="M22 8C22 6.34315 20.6569 5 19 5H5C3.34315 5 2 6.34315 2 8V9V10.5V16C2 17.6569 3.34315 19 5 19H19C20.6569 19 22 17.6569 22 16V10.5V9V8ZM4 16V10.5H20V16L19.9933 16.1166C19.9355 16.614 19.5128 17 19 17H5L4.88338 16.9933C4.38604 16.9355 4 16.5128 4 16ZM4 9H20V8C20 7.48716 19.614 7.06449 19.1166 7.00673L19 7H5C4.48716 7 4.06449 7.38604 4.00673 7.88338L4 8V9ZM6 13C5.44772 13 5 13.4477 5 14V15C5 15.5523 5.44772 16 6 16H8C8.55228 16 9 15.5523 9 15V14C9 13.4477 8.55228 13 8 13H6Z" fill="#474B55"/>
</svg>
