<svg xmlns="http://www.w3.org/2000/svg" width="24" height="24" viewBox="0 0 24 24">
    <g fill="none" fill-rule="evenodd">
        <g fill="#008BBF">
            <g>
                <g>
                    <path d="M15.75 1.5c.414 0 .75.336.75.75v1.5H18c.414 0 .75.336.75.75v3.75c0 .414-.336.75-.75.75h-.75v11.25c0 1.19-.925 2.166-2.096 2.245L15 22.5H9c-1.243 0-2.25-1.007-2.25-2.25V9H6c-.414 0-.75-.336-.75-.75V4.5c0-.414.336-.75.75-.75h1.52v-1.5c0-.414.337-.75.75-.75h7.48zm0 7.5h-7.5v11.25c0 .385.29.702.663.745L9 21h6c.414 0 .75-.336.75-.75V9zm-1.5 1.688c.31 0 .563.251.563.562v6c0 .31-.252.563-.563.563h-4.5c-.31 0-.563-.252-.563-.563v-6c0-.31.252-.563.563-.563zm-.563 1.124h-3.374v4.876h3.374v-4.875zM15 3H9.02v2.25H6.75V7.5h10.5V5.25H15V3z" transform="translate(-168 -586) translate(144 562) translate(24 24)"/>
                </g>
            </g>
        </g>
    </g>
</svg>
