<svg xmlns="http://www.w3.org/2000/svg" width="16" height="16" viewBox="0 0 16 16">
    <g fill="none" fill-rule="evenodd">
        <g fill="#008BBF">
            <g>
                <g>
                    <g>
                        <path d="M13.333 10c.342 0 .624.257.663.589l.004.078V12c0 1.065-.833 1.936-1.882 1.997L12 14H4c-1.065 0-1.936-.833-1.997-1.882L2 12v-1.333c0-.369.298-.667.667-.667.342 0 .623.257.662.589l.004.078V12c0 .342.258.624.59.662l.077.005h8c.342 0 .624-.258.662-.59l.005-.077v-1.333c0-.369.298-.667.666-.667zM8 2c.342 0 .624.257.662.589l.005.078v6.389l1.528-1.527c.26-.26.683-.26.943 0 .24.24.259.618.056.88l-.056.062-2.667 2.667-.074.064-.074.048-.04.02-.075.03-.073.02-.078.01-.057.003-.078-.004-.075-.013-.075-.023-.054-.022-.065-.035-.062-.042c-.024-.02-.044-.037-.062-.056L4.862 8.471c-.26-.26-.26-.682 0-.942.24-.24.618-.26.88-.056l.063.056 1.528 1.528v-6.39C7.333 2.298 7.632 2 8 2z" transform="translate(-923 -222) translate(907 210) translate(8 8) translate(8 4)"/>
                    </g>
                </g>
            </g>
        </g>
    </g>
</svg>
