<svg xmlns="http://www.w3.org/2000/svg" xmlns:xlink="http://www.w3.org/1999/xlink" width="15" height="14" viewBox="0 0 15 14">
    <defs>
        <path id="ix3vw3i0ja" d="M7 0C3.14 0 0 3.14 0 7s3.14 7 7 7 7-3.14 7-7-3.14-7-7-7zm-.488 1.058v2.193H4.818c.396-1.118.975-1.937 1.694-2.193zm.976 0c.72.256 1.298 1.075 1.694 2.193H7.488V1.058zm-2.742.356c-.357.506-.664 1.127-.905 1.837H2.284c.643-.809 1.489-1.445 2.462-1.837zm4.508 0c.973.392 1.819 1.028 2.462 1.837h-1.557c-.241-.71-.548-1.33-.905-1.837zm-7.6 2.813H3.56c-.164.707-.265 1.476-.295 2.28H.997c.066-.817.298-1.588.656-2.28zm2.879 0h1.979v2.28h-2.27c.03-.8.128-1.576.29-2.28zm2.955 0h1.98c.162.704.26 1.48.29 2.28h-2.27v-2.28zm2.951 0h1.908c.358.692.59 1.463.656 2.28h-2.269c-.03-.804-.131-1.573-.295-2.28zM.997 7.483h2.269c.03.805.132 1.572.295 2.28H1.648c-.356-.692-.586-1.463-.65-2.28zm3.246 0h2.269v2.28h-1.98c-.161-.704-.26-1.48-.29-2.28zm3.245 0h2.27c-.03.8-.129 1.576-.29 2.28h-1.98v-2.28zm3.246 0h2.269c-.065.817-.295 1.588-.651 2.28h-1.913c.163-.708.266-1.475.295-2.28zM2.279 10.74h1.557c.242.713.55 1.339.91 1.847-.976-.393-1.823-1.035-2.467-1.847zm2.534 0h1.699v2.198c-.72-.257-1.303-1.077-1.7-2.198zm2.675 0h1.7c-.397 1.121-.98 1.941-1.7 2.198v-2.198zm2.676 0h1.557c-.644.812-1.491 1.454-2.467 1.847.36-.508.668-1.134.91-1.847z"/>
    </defs>
    <g fill="none" fill-rule="evenodd">
        <g>
            <g>
                <g>
                    <g>
                        <g transform="translate(-169.000000, -531.000000) translate(144.000000, 184.000000) translate(25.067873, 281.000000) translate(0.000000, 64.000000) translate(0.000000, 2.000000)">
                            <mask id="we0nj1vglb" fill="#fff">
                                <use xlink:href="#ix3vw3i0ja"/>
                            </mask>
                            <use fill="#000" fill-rule="nonzero" xlink:href="#ix3vw3i0ja"/>
                            <g fill="#008BBF" mask="url(#we0nj1vglb)">
                                <path d="M0 0H14V14H0z"/>
                            </g>
                        </g>
                    </g>
                </g>
            </g>
        </g>
    </g>
</svg>
