<svg xmlns="http://www.w3.org/2000/svg" width="20" height="20" viewBox="0 0 20 20">
    <g fill="none" fill-rule="evenodd">
        <g fill="#474B55">
            <g>
                <g>
                    <g>
                        <g>
                            <path d="M12.267 11.667c.154 0 .309.021.457.064l3.206.916c1.422.406 2.403 1.707 2.403 3.186v.834c0 .92-.746 1.666-1.666 1.666H3.333c-.92 0-1.666-.746-1.666-1.666v-.834c0-1.48.98-2.78 2.403-3.186l3.206-.916c.148-.043.303-.064.457-.064h4.534zM10 1.667c2.301 0 4.167 1.865 4.167 4.166C14.167 8.135 12.3 10 10 10c-2.301 0-4.167-1.865-4.167-4.167 0-2.3 1.866-4.166 4.167-4.166z" transform="translate(-478 -82) translate(1 56) translate(455) translate(16 20) translate(6 6)"/>
                        </g>
                    </g>
                </g>
            </g>
        </g>
    </g>
</svg>
