<svg xmlns="http://www.w3.org/2000/svg" width="20" height="20" viewBox="0 0 20 20">
    <g fill="none" fill-rule="evenodd">
        <g fill="#A8ABAC">
            <g>
                <g>
                    <g>
                        <path d="M13.333 1.667c.46 0 .834.373.834.833v.833h1.666c1.332 0 2.42 1.041 2.496 2.353l.004.147v10c0 1.332-1.04 2.42-2.353 2.496l-.147.004H4.167c-1.332 0-2.42-1.04-2.496-2.353l-.004-.147v-10c0-1.331 1.04-2.42 2.353-2.495l.147-.005h1.666V2.5c0-.46.373-.833.834-.833.46 0 .833.373.833.833v.833h5V2.5c0-.46.373-.833.833-.833zm3.334 9.166H3.333v5c0 .428.322.78.736.828l.098.006h11.666c.428 0 .78-.322.828-.736l.006-.098v-5zM5.833 5H4.167c-.428 0-.78.322-.828.736l-.006.097v3.334h13.334V5.833c0-.427-.322-.78-.736-.827L15.833 5h-1.666v.833c0 .46-.373.834-.834.834-.46 0-.833-.373-.833-.834V5h-5v.833c0 .46-.373.834-.833.834-.46 0-.834-.373-.834-.834V5z" transform="translate(-948 -333) translate(936 323) translate(12 8) translate(0 2)"/>
                    </g>
                </g>
            </g>
        </g>
    </g>
</svg>
