<svg xmlns="http://www.w3.org/2000/svg" xmlns:xlink="http://www.w3.org/1999/xlink" width="15" height="14" viewBox="0 0 15 14">
    <defs>
        <path id="nmkcyidg2a" d="M13.217 5.303c.086-.053.2.002.2.096v5.684c0 .322-.288.584-.642.584H1.225c-.354 0-.642-.262-.642-.584V5.4c0-.094.114-.149.2-.096l5.186 3.174c.311.181.67.27 1.028.27.364 0 .728-.093 1.051-.28zm-.442-2.97c.354 0 .642.262.642.584v.794c0 .04-.02.076-.056.097L7.344 7.49c-.21.122-.48.122-.675.01L.64 3.808C.604 3.788.583 3.75.583 3.71v-.794c0-.322.288-.584.642-.584z"/>
    </defs>
    <g fill="none" fill-rule="evenodd">
        <g>
            <g>
                <g>
                    <g>
                        <g transform="translate(-169.000000, -499.000000) translate(144.000000, 184.000000) translate(25.067873, 281.000000) translate(0.000000, 32.000000) translate(-0.000000, 2.000000)">
                            <mask id="dj4dt7fgdb" fill="#fff">
                                <use xlink:href="#nmkcyidg2a"/>
                            </mask>
                            <use fill="#000" fill-rule="nonzero" xlink:href="#nmkcyidg2a"/>
                            <g fill="#008BBF" mask="url(#dj4dt7fgdb)">
                                <path d="M0 0H14V14H0z"/>
                            </g>
                        </g>
                    </g>
                </g>
            </g>
        </g>
    </g>
</svg>
