<svg width="24" height="24" viewBox="0 0 24 24" fill="none" xmlns="http://www.w3.org/2000/svg">
    <path fill-rule="evenodd" clip-rule="evenodd" d="M4.5 1.5a.75.75 0 0 1 .087 1.495L4.5 3H3v2.25a5.25 5.25 0 0 0 5.07 5.247l.18.003a5.25 5.25 0 0 0 5.247-5.07l.003-.18V3H12a.75.75 0 0 1-.745-.663l-.005-.087a.75.75 0 0 1 .662-.745L12 1.5h2.25a.75.75 0 0 1 .745.663L15 2.25v3a6.751 6.751 0 0 1-6 6.709v4.166a4.875 4.875 0 0 0 9.747.175l.003-.175v-.47a3.001 3.001 0 0 1 .75-5.905 3 3 0 0 1 .75 5.905v.47a6.375 6.375 0 0 1-12.747.191l-.003-.191v-4.166a6.751 6.751 0 0 1-5.997-6.51L1.5 5.25v-3a.75.75 0 0 1 .663-.745L2.25 1.5H4.5zm15 9.75a1.5 1.5 0 1 1 0 3 1.5 1.5 0 0 1 0-3z" fill="#A8ABAC"/>
</svg>
