<svg xmlns="http://www.w3.org/2000/svg" width="100" height="100" viewBox="0 0 100 100">
    <g fill="none" fill-rule="evenodd">
        <g fill="#529535">
            <g>
                <g>
                    <path d="M50 8.333c23.012 0 41.667 18.655 41.667 41.667S73.012 91.667 50 91.667 8.333 73.012 8.333 50 26.988 8.333 50 8.333zm23.78 26.22c-1.628-1.626-4.266-1.626-5.893 0l-26.22 26.218-9.554-9.55-.393-.347c-1.634-1.271-3.998-1.156-5.5.346-1.627 1.628-1.627 4.266 0 5.893l12.5 12.5.393.347c1.634 1.27 3.998 1.155 5.5-.347L73.78 40.446l.346-.392c1.271-1.635 1.156-3.998-.346-5.5z" transform="translate(-590.000000, -270.000000) translate(424.000000, 222.000000) translate(166.000000, 48.000000)"/>
                </g>
            </g>
        </g>
    </g>
</svg>
