<svg width="32" height="32" viewBox="0 0 32 32" fill="none" xmlns="http://www.w3.org/2000/svg">
    <path fill-rule="evenodd" clip-rule="evenodd" d="M26.667 20c.683 0 1.247.515 1.324 1.178l.009.155V24a4 4 0 0 1-3.765 3.993L24 28H8a4 4 0 0 1-3.993-3.765L4 24v-2.667a1.333 1.333 0 0 1 2.658-.155l.009.155V24c0 .684.514 1.247 1.178 1.324l.155.01h16c.684 0 1.247-.515 1.324-1.178l.01-.156v-2.667c0-.736.596-1.333 1.333-1.333zM16 4l.114.005.156.023.146.038.148.059.081.041.149.096.149.129 5.333 5.333.111.125a1.334 1.334 0 0 1-1.87 1.871l-.127-.11-3.057-3.055v12.778l-.009.156a1.334 1.334 0 0 1-2.648 0l-.01-.156V8.553L11.61 11.61l-.126.111a1.334 1.334 0 0 1-1.871-1.87l.11-.126 5.334-5.333.059-.055.067-.056.123-.085.13-.07.108-.045.15-.045.15-.026L16 4z" fill="#474B55"/>
</svg>
