<svg width="24" height="24" viewBox="0 0 24 24" fill="none" xmlns="http://www.w3.org/2000/svg">
    <path fill-rule="evenodd" clip-rule="evenodd" d="M12 22c.17 0 .455-.052.728-.197C18.872 18.698 21 17.338 21 13.755V6.27c0-.806-.546-.947-1.226-1.121a6.381 6.381 0 0 1-.723-.218c-.194-.075-.43-.163-.698-.262-1.443-.537-3.8-1.414-5.375-2.397A1.966 1.966 0 0 0 12 2c-.33 0-.669.098-.979.27-1.356 1.048-3.798 1.943-5.215 2.463l-.533.197c-.26.098-.545.162-.822.224C3.698 5.323 3 5.479 3 6.269v7.486c0 3.583 2.128 4.922 8.26 8.048.274.145.558.197.74.197zm0-2c.133 0 .354-.041.566-.158C17.346 17.358 19 16.27 19 13.404v-5.99c0-.644-.425-.756-.953-.896-.18-.047-.372-.098-.563-.174-.15-.06-.334-.13-.543-.21-1.122-.43-2.955-1.131-4.18-1.917A1.497 1.497 0 0 0 12 4c-.257 0-.52.078-.761.217-1.055.837-2.954 1.553-4.057 1.97-.155.058-.295.11-.414.157-.202.078-.424.13-.64.179-.585.135-1.128.26-1.128.892v5.99c0 2.865 1.655 3.937 6.425 6.437.212.117.433.158.575.158zm0-12c.513 0 .935.309.993.707L13 8.8V11h2.2c.442 0 .8.448.8 1 0 .513-.309.935-.707.993L15.2 13H13v2.2c0 .442-.448.8-1 .8-.513 0-.935-.309-.993-.707L11 15.2V13H8.8c-.442 0-.8-.448-.8-1 0-.513.309-.935.707-.993L8.8 11H11V8.8c0-.442.448-.8 1-.8z" fill="#A8ABAC"/>
</svg>
