<svg width="16" height="16" viewBox="0 0 16 16" fill="none" xmlns="http://www.w3.org/2000/svg">
    <path fill-rule="evenodd" clip-rule="evenodd" d="M5.333 1.333h5.334c.177 0 .346.07.471.196l2.667 2.666a.666.666 0 0 1 .195.472v8a2 2 0 0 1-2 2H7.933c.39-.383.714-.834.951-1.334H12a.667.667 0 0 0 .667-.666V6h-2a1.333 1.333 0 0 1-1.33-1.234l-.004-.1v-2h-4a.667.667 0 0 0-.666.667v3.334c-.464 0-.911.067-1.334.193V3.333a2 2 0 0 1 2-2zm5.334 1.61 1.723 1.724h-1.723V2.943z" fill="#474B55"/>
    <path fill-rule="evenodd" clip-rule="evenodd" d="M4.667 14.667a3.333 3.333 0 1 0 0-6.667 3.333 3.333 0 0 0 0 6.667zm0-1.334a2 2 0 0 0 1.723-3.016l-2.74 2.74a1.99 1.99 0 0 0 1.017.276zM5.683 9.61l-2.74 2.74a2 2 0 0 1 2.74-2.74z" fill="#474B55"/>
</svg>
