<svg width="16" height="16" viewBox="0 0 16 16" fill="none" xmlns="http://www.w3.org/2000/svg">
    <path fill-rule="evenodd" clip-rule="evenodd" d="M8 1.333a3.333 3.333 0 0 1 3.333 3.334v2a2 2 0 0 1 1.997 1.882l.003.118v4a2 2 0 0 1-1.882 1.996l-.118.004H4.667a2 2 0 0 1-1.997-1.883l-.003-.117v-4A2 2 0 0 1 4.549 6.67l.118-.003v-2A3.333 3.333 0 0 1 8 1.333zM11.333 8H4.667a.667.667 0 0 0-.663.589L4 8.667v4c0 .342.257.623.589.662l.078.004h6.666a.667.667 0 0 0 .662-.589l.005-.077v-4a.667.667 0 0 0-.589-.663L11.333 8zM8 9.333a1 1 0 0 1 .51 1.86L9 12.668H7l.491-1.473A1 1 0 0 1 8 9.334zm0-6.666a2 2 0 0 0-1.997 1.882L6 4.667v2h4v-2A2 2 0 0 0 8.117 2.67L8 2.667z" fill="#474B55"/>
</svg>
