<svg width="125" height="24" viewBox="0 0 125 24" fill="none" xmlns="http://www.w3.org/2000/svg">
    <g clip-path="url(#m82wf1o3ha)">
        <path d="M11.264 5.631A5.632 5.632 0 1 1 0 5.631a5.632 5.632 0 0 1 11.264 0z" fill="#E9124B"/>
        <path d="M11.264 18.368a5.632 5.632 0 1 1-11.264 0 5.632 5.632 0 0 1 11.264 0z" fill="#78CA2A"/>
        <path d="m13.898 16.166 1.843-2.201c1.195.938 2.491 1.433 3.874 1.433.904 0 1.382-.307 1.382-.82v-.033c0-.512-.393-.768-2.03-1.16-2.543-.58-4.505-1.297-4.505-3.737v-.034c0-2.219 1.757-3.822 4.623-3.822 2.03 0 3.618.546 4.915 1.586l-1.656 2.338C21.253 8.931 20.058 8.539 19 8.539c-.802 0-1.194.324-1.194.768v.034c0 .546.41.785 2.082 1.16 2.73.597 4.436 1.485 4.436 3.72v.034c0 2.44-1.928 3.89-4.829 3.89-2.116 0-4.112-.665-5.597-1.979zM29.17 8.897h-3.844v-2.9H36.34v2.9h-3.86v9.043h-3.31V8.897zM46.519 12.002v-.034c0-1.74-1.229-3.224-3.055-3.224-1.825 0-3.036 1.467-3.036 3.19v.035c0 1.723 1.245 3.224 3.07 3.224 1.81 0 3.02-1.467 3.02-3.19zm-9.47 0v-.034c0-3.43 2.764-6.21 6.45-6.21 3.685 0 6.415 2.747 6.415 6.176v.035c0 3.43-2.764 6.21-6.45 6.21-3.685 0-6.415-2.747-6.415-6.176zM56.506 11.934c1.16 0 1.894-.631 1.894-1.57v-.034c0-1.023-.733-1.552-1.91-1.552h-1.57v3.156h1.586zM51.61 5.996h5.136c3.003 0 4.948 1.553 4.948 4.18v.035c0 2.832-2.167 4.317-5.118 4.317h-1.656v3.412h-3.31V5.996zM74.383 16.166l1.843-2.201c1.194.938 2.49 1.433 3.873 1.433.904 0 1.382-.307 1.382-.82v-.033c0-.512-.392-.768-2.03-1.16-2.543-.58-4.505-1.297-4.505-3.737v-.034c0-2.219 1.758-3.822 4.624-3.822 2.03 0 3.618.546 4.914 1.586L82.83 9.716c-1.092-.785-2.286-1.177-3.344-1.177-.802 0-1.195.324-1.195.768v.034c0 .546.41.785 2.082 1.16 2.73.597 4.436 1.485 4.436 3.72v.034c0 2.44-1.928 3.89-4.828 3.89-2.116 0-4.113-.665-5.597-1.979zM86.666 5.996h3.31v4.47h3.84v-4.47h3.31V17.94h-3.31v-4.538h-3.84v4.538h-3.31V5.996zM108.376 12.002v-.034c0-1.74-1.228-3.224-3.054-3.224-1.826 0-3.037 1.467-3.037 3.19v.035c0 1.723 1.245 3.224 3.071 3.224 1.808 0 3.02-1.467 3.02-3.19zm-9.47 0v-.034c0-3.43 2.764-6.21 6.45-6.21 3.685 0 6.416 2.747 6.416 6.176v.035c0 3.43-2.765 6.21-6.45 6.21-3.686 0-6.416-2.747-6.416-6.176zM118.364 11.934c1.16 0 1.894-.631 1.894-1.57v-.034c0-1.023-.734-1.552-1.911-1.552h-1.57v3.156h1.587zm-4.897-5.938h5.135c3.004 0 4.949 1.553 4.949 4.18v.035c0 2.832-2.167 4.317-5.119 4.317h-1.655v3.412h-3.31V5.996zM68.313 10.016a.933.933 0 0 0-.261-.666c-.174-.184-.41-.275-.71-.275-.28 0-.514.089-.702.267-.189.18-.258.423-.258.679 0 .229.064.449.191.66.127.21.3.465.552.668.328-.136.608-.314.84-.536.232-.222.347-.488.347-.797zm-1.858 3.629c-.272.114-.51.267-.71.47-.235.237-.344.485-.344.87 0 .204.023.32.108.485.085.165.196.305.331.42.135.115.288.203.46.263.17.06.303.074.49.074a1.6 1.6 0 0 0 .829-.202c.249-.13.444-.29.622-.523l-1.786-1.857zm4.202 4.295-.904-.896c-.323.333-.687.62-1.174.842a4.3 4.3 0 0 1-1.838.383c-.486 0-.963-.06-1.429-.182-.466-.122-.897-.37-1.257-.628-.36-.259-.643-.636-.861-1.018-.218-.381-.327-.832-.327-1.354 0-.357.061-.685.183-.985.121-.3.286-.565.494-.797.207-.231.448-.434.722-.608.273-.174.558-.337.838-.462a3.993 3.993 0 0 1-.767-1.043 2.712 2.712 0 0 1-.297-1.268c0-.482.075-.907.275-1.254.199-.346.456-.63.77-.855a3.187 3.187 0 0 1 1.063-.489 4.68 4.68 0 0 1 1.174-.152c.4 0 .793.053 1.182.16.389.107.736.272 1.04.497.304.224.542.53.729.871.185.342.278.75.278 1.222 0 .342-.04.667-.15.944-.11.276-.257.52-.456.742-.21.234-.379.428-.686.654a4.832 4.832 0 0 1-.718.452l1.174 1.172.987-1.452h2.759l-2.222 2.983 2.608 2.521h-3.19zM122.982 16.864h.15c.175 0 .317-.058.317-.2 0-.124-.091-.207-.292-.207a.779.779 0 0 0-.175.016v.391zm-.008.776h-.316v-1.367c.124-.025.299-.042.525-.042.258 0 .374.042.474.1a.38.38 0 0 1 .133.3c0 .15-.116.267-.283.317v.017c.134.05.209.15.25.333.042.208.067.291.101.342h-.342c-.042-.05-.067-.175-.109-.334-.024-.15-.108-.217-.283-.217h-.15v.55zm-.841-.718c0 .609.45 1.092 1.066 1.092.6 0 1.041-.483 1.041-1.083 0-.608-.441-1.1-1.049-1.1-.608 0-1.058.492-1.058 1.091zm2.457 0c0 .776-.608 1.384-1.399 1.384-.783 0-1.408-.608-1.408-1.384 0-.757.625-1.366 1.408-1.366.791 0 1.399.609 1.399 1.367z" fill="#5C5E65"/>
    </g>
    <defs>
        <clipPath id="m82wf1o3ha">
            <path fill="#fff" d="M0 0h124.591v24H0z"/>
        </clipPath>
    </defs>
</svg>
