<?xml version="1.0" encoding="UTF-8"?>
<svg width="16px" height="16px" viewBox="0 0 16 16" version="1.1" xmlns="http://www.w3.org/2000/svg" xmlns:xlink="http://www.w3.org/1999/xlink">
    <title>ico-pin</title>
    <defs>
        <path d="M8.06814021,2.95932748 C9.41658114,2.95932748 10.5103642,4.05303261 10.5103642,5.40155142 C10.5103642,6.75007023 9.41658114,7.84385324 8.06814021,7.84385324 C6.7196214,7.84385324 5.62591627,6.75007023 5.62591627,5.40155142 C5.62591627,4.05303261 6.7196214,2.95932748 8.06814021,2.95932748 M8.06814021,-5.68434189e-14 C11.0516874,-5.68434189e-14 13.4696138,2.41800418 13.4696138,5.40155142 C13.4696138,6.49151846 13.1467356,7.50695717 12.5914723,8.35527175 L8.09329449,15.7407407 L3.61474174,8.45970486 C3.51116528,8.30948005 3.41599954,8.15458262 3.32830999,7.99407805 L3.32083379,7.9809947 L3.32176832,7.9809947 C2.90458102,7.2148404 2.66666667,6.3356865 2.66666667,5.40155142 C2.66666667,2.41800418 5.08459297,-5.68434189e-14 8.06814021,-5.68434189e-14" id="path-1"></path>
    </defs>
    <g id="Icons" stroke="none" stroke-width="1" fill="none" fill-rule="evenodd">
        <g id="Dark" transform="translate(-222.000000, -425.000000)">
            <g id="ico-pin" transform="translate(222.000000, 425.000000)">
                <rect id="background-copy" fill-opacity="0" fill="#000000" fill-rule="nonzero" transform="translate(8.000000, 8.000000) rotate(90.000000) translate(-8.000000, -8.000000) " x="0" y="0" width="16" height="16"></rect>
                <mask id="mask-2" fill="white">
                    <use xlink:href="#path-1"></use>
                </mask>
                <use id="Mask" fill="#474B55" xlink:href="#path-1"></use>
            </g>
        </g>
    </g>
</svg>