<?xml version="1.0" encoding="UTF-8"?>
<svg width="16px" height="16px" viewBox="0 0 16 16" version="1.1" xmlns="http://www.w3.org/2000/svg" xmlns:xlink="http://www.w3.org/1999/xlink">
    <title>ico-phone</title>
    <defs>
        <path d="M3.03328419,0 C3.20501619,0 3.37391433,0.0133049296 3.53714474,0.0390925739 C3.78215229,0.0761669843 4.0163102,0.141196696 4.23783719,0.229397915 L5.03884834,4.90017565 C4.62372814,5.23900288 4.1073986,5.47363307 3.53714474,5.56131106 C3.9916961,6.77071421 4.7382971,7.85409426 5.69776158,8.73999327 C6.65738799,9.62581754 7.83109239,10.3150577 9.14098406,10.7346115 C9.2359589,10.2083193 9.49019674,9.73150951 9.8571413,9.34828269 L14.9166363,10.0877527 C15.012178,10.29226 15.0826196,10.5085024 15.1226985,10.7346115 C15.1507943,10.885301 15.1651255,11.0412229 15.1651255,11.1999103 C15.1651255,12.7463468 13.8070582,14 12.1318413,14 C5.43218829,14 0,8.98523751 0,2.80023919 C0,1.253728 1.35814828,0 3.03328419,0" id="path-1"></path>
    </defs>
    <g id="Home-Page" stroke="none" stroke-width="1" fill="none" fill-rule="evenodd">
        <g id="LOL-icons" transform="translate(-279.000000, -346.000000)">
            <g id="ico-phone" transform="translate(279.000000, 346.000000)">
                <path d="M10.4217333,0 C12.028,0 12.8309333,0 13.6956,0.273333333 C14.6396,0.616933333 15.3830667,1.3604 15.7266667,2.3044 C16,3.16893333 16,3.97213333 16,5.57826667 L16,10.4217333 C16,12.028 16,12.8309333 15.7266667,13.6956 C15.3830667,14.6396 14.6396,15.3830667 13.6956,15.7265333 C12.8309333,16 12.028,16 10.4217333,16 L5.57826667,16 C3.972,16 3.16893333,16 2.3044,15.7265333 C1.3604,15.3830667 0.616933333,14.6396 0.273333333,13.6956 C0,12.8309333 0,12.028 0,10.4217333 L0,5.57826667 C0,3.97213333 0,3.16893333 0.273333333,2.3044 C0.616933333,1.3604 1.3604,0.616933333 2.3044,0.273333333 C3.16893333,0 3.972,0 5.57826667,0 L10.4217333,0 Z" id="background" fill-opacity="0" fill="#000000"></path>
                <g id="iconography/icn_call" transform="translate(0.000000, 1.000000)">
                    <mask id="mask-2" fill="white">
                        <use xlink:href="#path-1"></use>
                    </mask>
                    <use id="Mask" fill="#221E1F" xlink:href="#path-1"></use>
                    <g id="Group" mask="url(#mask-2)" fill="#474B55">
                        <g id="colors/03_medium_gray">
                            <rect id="Rectangle-Copy" x="0" y="0" width="15.1651255" height="14"></rect>
                        </g>
                    </g>
                </g>
            </g>
        </g>
    </g>
</svg>