<?xml version="1.0" encoding="UTF-8"?>
<svg width="16px" height="16px" viewBox="0 0 16 16" version="1.1" xmlns="http://www.w3.org/2000/svg" xmlns:xlink="http://www.w3.org/1999/xlink">
    <title>ico-web</title>
    <defs>
        <path d="M8,1 C4.13979793,1 1,4.13979953 1,8 C1,11.8602151 4.13979793,15 8,15 C11.8602005,15 15,11.8602151 15,8 C15,4.13979953 11.8602005,1 8,1 Z M7.51162792,2.05813953 L7.51162792,4.25072674 L5.81758723,4.25072674 C6.21428049,3.13283 6.79282723,2.31413116 7.51162792,2.05813953 Z M8.48837211,2.05813953 C9.2071728,2.31413116 9.78571955,3.13283 10.1824128,4.25072674 L8.48837211,4.25072674 L8.48837211,2.05813953 Z M5.7463663,2.41424418 C5.38853281,2.92026604 5.08249444,3.54123604 4.84084305,4.25072674 L3.284157,4.25072674 C3.92696863,3.44227395 4.77280793,2.80631744 5.7463663,2.41424418 Z M10.2536337,2.41424418 C11.2271921,2.80631744 12.073033,3.44227395 12.715843,4.25072674 L11.159157,4.25072674 C10.9175056,3.54123604 10.6114672,2.92026604 10.2536337,2.41424418 Z M2.65334305,5.22747092 L4.56104654,5.22747092 C4.39734584,5.93400697 4.29630002,6.70336231 4.2659884,7.50654068 L1.99709305,7.50654068 C2.06314863,6.68976603 2.29507491,5.91889185 2.65334305,5.22747092 Z M5.53270351,5.22747092 L7.51162792,5.22747092 L7.51162792,7.50654068 L5.24273258,7.50654068 C5.27206909,6.70690627 5.37036863,5.93073487 5.53270351,5.22747092 Z M8.48837211,5.22747092 L10.4672965,5.22747092 C10.6296314,5.93073487 10.7279309,6.70690627 10.7572675,7.50654068 L8.48837211,7.50654068 L8.48837211,5.22747092 Z M11.4389535,5.22747092 L13.346657,5.22747092 C13.7049251,5.91889185 13.9368514,6.68976603 14.002907,7.50654068 L11.7340116,7.50654068 C11.7037,6.70336231 11.6026542,5.93400697 11.4389535,5.22747092 Z M1.99709305,8.48328487 L4.2659884,8.48328487 C4.29543072,9.28821975 4.39761282,10.0545732 4.56104654,10.7623546 L2.64825584,10.7623546 C2.29151794,10.0706732 2.06175677,9.29985928 1.99709305,8.48328487 Z M5.24273258,8.48328487 L7.51162792,8.48328487 L7.51162792,10.7623546 L5.53270351,10.7623546 C5.37061607,10.058643 5.27172723,9.28320579 5.24273258,8.48328487 Z M8.48837211,8.48328487 L10.7572675,8.48328487 C10.7282728,9.28320579 10.629384,10.058643 10.4672965,10.7623546 L8.48837211,10.7623546 L8.48837211,8.48328487 Z M11.7340116,8.48328487 L14.002907,8.48328487 C13.9382433,9.29985928 13.7084821,10.0706732 13.3517442,10.7623546 L11.4389535,10.7623546 C11.6023872,10.0545732 11.7045693,9.28821975 11.7340116,8.48328487 Z M3.27906979,11.7390988 L4.83575584,11.7390988 C5.07794933,12.4523174 5.38673886,13.0779546 5.7463663,13.5857639 C4.77006491,13.1925756 3.9225391,12.5507895 3.27906979,11.7390988 Z M5.81250002,11.7390988 L7.51162792,11.7390988 L7.51162792,13.9367732 C6.79156234,13.680329 6.20923397,12.8600267 5.81250002,11.7390988 Z M8.48837211,11.7390988 L10.1875,11.7390988 C9.79076606,12.8600267 9.20843769,13.680329 8.48837211,13.9367732 L8.48837211,11.7390988 Z M11.1642442,11.7390988 L12.7209302,11.7390988 C12.0774609,12.5507895 11.2299335,13.1925756 10.2536337,13.5857639 C10.6132612,13.0779546 10.9220507,12.4523174 11.1642442,11.7390988 Z" id="path-1"></path>
    </defs>
    <g id="Icons" stroke="none" stroke-width="1" fill="none" fill-rule="evenodd">
        <g id="Dark" transform="translate(-119.000000, -451.000000)">
            <g id="ico-web" transform="translate(119.000000, 451.000000)">
                <rect id="background-copy-8" fill-opacity="0" fill="#008BBF" fill-rule="nonzero" transform="translate(8.000000, 8.000000) rotate(90.000000) translate(-8.000000, -8.000000) " x="0" y="0" width="16" height="16"></rect>
                <mask id="mask-2" fill="white">
                    <use xlink:href="#path-1"></use>
                </mask>
                <use id="Shape" fill="#008BBF" fill-rule="nonzero" xlink:href="#path-1"></use>
            </g>
        </g>
    </g>
</svg>