<?xml version="1.0" encoding="UTF-8"?>
<svg width="16px" height="16px" viewBox="0 0 16 16" version="1.1" xmlns="http://www.w3.org/2000/svg" xmlns:xlink="http://www.w3.org/1999/xlink">
    <title>ico-arrow-right</title>
    <g id="Home-Page" stroke="none" stroke-width="1" fill="none" fill-rule="evenodd">
        <g id="LOL-icons" transform="translate(-40.000000, -441.000000)" fill-rule="nonzero">
            <g id="ico-arrow-right" transform="translate(40.000000, 441.000000)">
                <rect id="background" fill-opacity="0" fill="#000000" transform="translate(8.000000, 8.000000) rotate(90.000000) translate(-8.000000, -8.000000) " x="0" y="0" width="16" height="16"></rect>
                <path d="M11.4063944,3.34318352 C11.5882839,3.34959794 11.7677264,3.42540087 11.9016093,3.56907191 L11.9016093,3.56907191 L19.1229235,11.3183308 C19.4160108,11.6328456 19.4160108,12.1204482 19.1229235,12.4349629 L19.1229235,12.4349629 L19.0874777,12.4704087 C18.8001356,12.7381746 18.3501316,12.722305 18.0823657,12.4349629 L18.0823657,12.4349629 L11.3407215,5.20035077 L4.59907733,12.4349629 C4.33131141,12.722305 3.88130747,12.7381746 3.59396539,12.4704087 L3.55851961,12.4349629 L3.55851961,12.4349629 C3.26543225,12.1204482 3.26543225,11.6328456 3.55851961,11.3183308 L10.7798337,3.56907193 C10.92993,3.4080022 11.1372886,3.33223367 11.3411607,3.3439087 L11.4063944,3.34318352 Z" id="path-1" fill="#A8ABAC" transform="translate(11.340722, 8.002017) rotate(90.000000) translate(-11.340722, -8.002017) "></path>
            </g>
        </g>
    </g>
</svg>