<svg width="24" height="24" viewBox="0 0 24 24" fill="none" xmlns="http://www.w3.org/2000/svg">
<path fill-rule="evenodd" clip-rule="evenodd" d="M8 1.99988H14H16C16.2652 1.99988 16.5196 2.10523 16.7071 2.29277L20.7071 6.29277C20.8946 6.48031 21 6.73466 21 6.99988V8.99988V18.9999C21 20.6567 19.6569 21.9999 18 21.9999H8C6.34315 21.9999 5 20.6567 5 18.9999H4C2.89543 18.9999 2 18.1044 2 16.9999V11.9999C2 10.8953 2.89543 9.99988 4 9.99988H5V4.99988C5 3.34302 6.34315 1.99988 8 1.99988ZM7 10.9999H5H4C3.44772 10.9999 3 11.4476 3 11.9999V16.9999C3 17.5522 3.44772 17.9999 4 17.9999H5H7H16C16.5523 17.9999 17 17.5522 17 16.9999V11.9999C17 11.4476 16.5523 10.9999 16 10.9999H7ZM7 18.9999H16C17.1046 18.9999 18 18.1044 18 16.9999V11.9999C18 10.8953 17.1046 9.99988 16 9.99988H7V4.99988C7 4.44759 7.44772 3.99988 8 3.99988H14V6.99988L14.0055 7.14914C14.0818 8.184 14.9456 8.99988 16 8.99988H19V18.9999C19 19.5522 18.5523 19.9999 18 19.9999H8C7.44772 19.9999 7 19.5522 7 18.9999ZM16 4.41488L18.585 6.99988H16V4.41488ZM3.72253 12.3549V16.6449H5.30053C6.15253 16.6449 6.93253 16.3029 6.93253 15.3669C6.93253 14.9889 6.75253 14.5509 6.26053 14.4009V14.3889C6.58453 14.2029 6.75853 13.8369 6.75853 13.4769C6.75853 12.7389 6.15853 12.3549 5.30053 12.3549H3.72253ZM5.31253 14.0169H4.77253V13.2549H5.29453C5.57653 13.2549 5.69053 13.4229 5.69053 13.6209C5.69053 13.8249 5.57653 14.0169 5.31253 14.0169ZM5.40253 15.7449H4.77253V14.8569H5.40853C5.71453 14.8569 5.85853 15.0549 5.85853 15.2949C5.85853 15.5349 5.70853 15.7449 5.40253 15.7449ZM7.54578 16.6449L7.89978 12.3549H9.03978L9.66378 14.1669C9.75978 14.4429 9.87978 14.8749 9.87978 14.8749H9.89178C9.89178 14.8749 10.0118 14.4429 10.1078 14.1669L10.7318 12.3549H11.8718L12.2198 16.6449H11.1698L11.0378 14.7129C11.0138 14.3889 11.0378 13.9929 11.0378 13.9929H11.0258C11.0258 13.9929 10.8818 14.4429 10.7858 14.7129L10.3358 15.9549H9.43578L8.98578 14.7129C8.88978 14.4429 8.74578 13.9929 8.74578 13.9929H8.73378C8.73378 13.9929 8.75778 14.3889 8.73378 14.7129L8.60178 16.6449H7.54578ZM13.0975 16.6449V12.3549H14.8795C15.7135 12.3549 16.2775 12.9669 16.2775 13.8309C16.2775 14.6949 15.7135 15.3189 14.8795 15.3189H14.1475V16.6449H13.0975ZM14.1475 14.4189H14.6635C15.0295 14.4189 15.2095 14.1729 15.2095 13.8309C15.2095 13.4889 15.0295 13.2549 14.6815 13.2549H14.1475V14.4189Z" fill="#474B55"/>
</svg>
