<svg width="24" height="24" viewBox="0 0 24 24" fill="none" xmlns="http://www.w3.org/2000/svg">
<path fill-rule="evenodd" clip-rule="evenodd" d="M8 1.99988H14H16C16.2652 1.99988 16.5196 2.10523 16.7071 2.29277L20.7071 6.29277C20.8946 6.48031 21 6.73466 21 6.99988V8.99988V18.9999C21 20.6567 19.6569 21.9999 18 21.9999H8C6.34315 21.9999 5 20.6567 5 18.9999H4C2.89543 18.9999 2 18.1044 2 16.9999V11.9999C2 10.8953 2.89543 9.99988 4 9.99988H5V4.99988C5 3.34302 6.34315 1.99988 8 1.99988ZM7 10.9999H5H4C3.44772 10.9999 3 11.4476 3 11.9999V16.9999C3 17.5522 3.44772 17.9999 4 17.9999H5H7H16C16.5523 17.9999 17 17.5522 17 16.9999V11.9999C17 11.4476 16.5523 10.9999 16 10.9999H7ZM7 18.9999H16C17.1046 18.9999 18 18.1044 18 16.9999V11.9999C18 10.8953 17.1046 9.99988 16 9.99988H7V4.99988C7 4.44759 7.44772 3.99988 8 3.99988H14V6.99988L14.0055 7.14914C14.0818 8.184 14.9456 8.99988 16 8.99988H19V18.9999C19 19.5522 18.5523 19.9999 18 19.9999H8C7.44772 19.9999 7 19.5522 7 18.9999ZM16 4.41488L18.585 6.99988H16V4.41488ZM7.83985 14.4751C7.83985 13.3459 8.71019 12.4645 9.90002 12.4645C11.0899 12.4645 11.9602 13.3459 11.9602 14.4751C11.9602 15.6319 11.0899 16.5353 9.90002 16.5353C8.71019 16.5353 7.83985 15.6319 7.83985 14.4751ZM8.83689 14.4751C8.83689 15.1471 9.31061 15.6539 9.90002 15.6539C10.4894 15.6539 10.9632 15.1471 10.9632 14.4751C10.9632 13.8306 10.4894 13.3459 9.90002 13.3459C9.31061 13.3459 8.83689 13.8306 8.83689 14.4751ZM12.3479 14.4916C12.3479 13.3459 13.2293 12.4645 14.4136 12.4645C15.3886 12.4645 15.8899 13.0209 15.8899 13.0209L15.4437 13.748C15.4437 13.748 15.003 13.3459 14.4577 13.3459C13.703 13.3459 13.345 13.9022 13.345 14.4696C13.345 15.0535 13.7305 15.6539 14.4577 15.6539C15.0526 15.6539 15.5043 15.1692 15.5043 15.1692L16 15.8742C16 15.8742 15.4437 16.5353 14.4136 16.5353C13.1797 16.5353 12.3479 15.6594 12.3479 14.4916ZM4 12.5306V16.4692H5.39915C6.63856 16.4692 7.43178 15.731 7.43178 14.4916C7.43178 13.2522 6.63856 12.5306 5.39915 12.5306H4ZM5.36059 15.6429H4.96398V13.3569H5.36059C6.01059 13.3569 6.43474 13.7425 6.43474 14.4916C6.43474 15.2463 6.02712 15.6429 5.36059 15.6429Z" fill="#474B55"/>
</svg>
