<svg width="24" height="24" viewBox="0 0 24 24" fill="none" xmlns="http://www.w3.org/2000/svg">
<path fill-rule="evenodd" clip-rule="evenodd" d="M8 1.99988H14H16C16.2652 1.99988 16.5196 2.10523 16.7071 2.29277L20.7071 6.29277C20.8946 6.48031 21 6.73466 21 6.99988V8.99988V18.9999C21 20.6567 19.6569 21.9999 18 21.9999H8C6.34315 21.9999 5 20.6567 5 18.9999H4C2.89543 18.9999 2 18.1044 2 16.9999V11.9999C2 10.8953 2.89543 9.99988 4 9.99988H5V4.99988C5 3.34302 6.34315 1.99988 8 1.99988ZM7 10.9999H5H4C3.44772 10.9999 3 11.4476 3 11.9999V16.9999C3 17.5522 3.44772 17.9999 4 17.9999H5H7H16C16.5523 17.9999 17 17.5522 17 16.9999V11.9999C17 11.4476 16.5523 10.9999 16 10.9999H7ZM7 18.9999H16C17.1046 18.9999 18 18.1044 18 16.9999V11.9999C18 10.8953 17.1046 9.99988 16 9.99988H7V4.99988C7 4.44759 7.44772 3.99988 8 3.99988H14V6.99988L14.0055 7.14914C14.0818 8.184 14.9456 8.99988 16 8.99988H19V18.9999C19 19.5522 18.5523 19.9999 18 19.9999H8C7.44772 19.9999 7 19.5522 7 18.9999ZM16 4.41488L18.585 6.99988H16V4.41488ZM6.92464 14.481C6.92464 13.6209 7.58753 12.9496 8.49375 12.9496C9.39998 12.9496 10.0629 13.6209 10.0629 14.481C10.0629 15.3621 9.39998 16.0501 8.49375 16.0501C7.58753 16.0501 6.92464 15.3621 6.92464 14.481ZM7.68402 14.481C7.68402 14.9928 8.04484 15.3788 8.49375 15.3788C8.94267 15.3788 9.30348 14.9928 9.30348 14.481C9.30348 13.9901 8.94267 13.6209 8.49375 13.6209C8.04484 13.6209 7.68402 13.9901 7.68402 14.481ZM11.9313 12.9496C11.0293 12.9496 10.358 13.6209 10.358 14.4936C10.358 15.383 10.9915 16.0501 11.9313 16.0501C12.7159 16.0501 13.1396 15.5467 13.1396 15.5467L12.762 15.0096C12.762 15.0096 12.418 15.3788 11.9649 15.3788C11.4111 15.3788 11.1174 14.9215 11.1174 14.4768C11.1174 14.0447 11.3901 13.6209 11.9649 13.6209C12.3803 13.6209 12.7159 13.9272 12.7159 13.9272L13.0557 13.3734C13.0557 13.3734 12.6739 12.9496 11.9313 12.9496ZM14.2085 14.5104L13.2981 15.9998H14.112L14.4561 15.3705C14.5609 15.1817 14.6407 14.9971 14.6407 14.9971H14.649C14.649 14.9971 14.7288 15.1817 14.8337 15.3705L15.1777 15.9998H15.9958L15.0812 14.5104L16 13H15.1651L14.8337 13.6167C14.7288 13.8097 14.649 14.0027 14.649 14.0027H14.6407C14.6407 14.0027 14.5567 13.8055 14.4561 13.6167L14.1288 13H13.2939L14.2085 14.5104ZM4 13V15.9998H5.06566C6.00964 15.9998 6.61379 15.4376 6.61379 14.4936C6.61379 13.5496 6.00964 13 5.06566 13H4ZM5.03629 15.3705H4.73421V13.6293H5.03629C5.53136 13.6293 5.85441 13.923 5.85441 14.4936C5.85441 15.0684 5.54394 15.3705 5.03629 15.3705Z" fill="#474B55"/>
</svg>
