<svg width="24" height="24" viewBox="0 0 24 24" fill="none" xmlns="http://www.w3.org/2000/svg">
<path fill-rule="evenodd" clip-rule="evenodd" d="M8 1.99988H14H16C16.2652 1.99988 16.5196 2.10523 16.7071 2.29277L20.7071 6.29277C20.8946 6.48031 21 6.73466 21 6.99988V8.99988V18.9999C21 20.6567 19.6569 21.9999 18 21.9999H8C6.34315 21.9999 5 20.6567 5 18.9999H4C2.89543 18.9999 2 18.1044 2 16.9999V11.9999C2 10.8953 2.89543 9.99988 4 9.99988H5V4.99988C5 3.34302 6.34315 1.99988 8 1.99988ZM7 10.9999H5H4C3.44772 10.9999 3 11.4476 3 11.9999V16.9999C3 17.5522 3.44772 17.9999 4 17.9999H5H7H16C16.5523 17.9999 17 17.5522 17 16.9999V11.9999C17 11.4476 16.5523 10.9999 16 10.9999H7ZM7 18.9999H16C17.1046 18.9999 18 18.1044 18 16.9999V11.9999C18 10.8953 17.1046 9.99988 16 9.99988H7V4.99988C7 4.44759 7.44772 3.99988 8 3.99988H14V6.99988L14.0055 7.14914C14.0818 8.184 14.9456 8.99988 16 8.99988H19V18.9999C19 19.5522 18.5523 19.9999 18 19.9999H8C7.44772 19.9999 7 19.5522 7 18.9999ZM16 4.41488L18.585 6.99988H16V4.41488ZM7.34629 12.188C5.98231 12.188 5 13.1891 5 14.4905C5 15.9546 6.05114 16.8118 7.19613 16.8118C7.94069 16.8118 8.3724 16.4238 8.3724 16.4238H8.38492C8.38492 16.4238 8.37866 16.5177 8.37866 16.6115V16.7367H9.29215V14.2089H7.69041V15.1412H8.32235V15.4853C8.32235 15.4853 7.94069 15.8107 7.41512 15.8107C6.72061 15.8107 6.13248 15.3039 6.13248 14.453C6.13248 13.7897 6.51414 13.1891 7.45266 13.1891C8.08459 13.1891 8.54134 13.602 8.54134 13.602L9.06691 12.7824C9.06691 12.7824 8.49128 12.188 7.34629 12.188ZM10.1149 16.7367V12.2631H11.2099V16.7367H10.1149ZM12.2596 16.7367V12.2631H15.0001V13.2016H13.3545V14.1401H14.7185V15.0787H13.3545V16.7367H12.2596Z" fill="#474B55"/>
</svg>
