<svg width="24" height="24" viewBox="0 0 24 24" fill="none" xmlns="http://www.w3.org/2000/svg">
<path fill-rule="evenodd" clip-rule="evenodd" d="M14 1.99988H8C6.34315 1.99988 5 3.34302 5 4.99988V9.99988H4C2.89543 9.99988 2 10.8953 2 11.9999V16.9999C2 18.1044 2.89543 18.9999 4 18.9999H5C5 20.6567 6.34315 21.9999 8 21.9999H18C19.6569 21.9999 21 20.6567 21 18.9999V8.99988V6.99988C21 6.73466 20.8946 6.48031 20.7071 6.29277L16.7071 2.29277C16.5196 2.10523 16.2652 1.99988 16 1.99988H14ZM7 18.9999C7 19.5522 7.44772 19.9999 8 19.9999H18C18.5523 19.9999 19 19.5522 19 18.9999V8.99988H16C14.9456 8.99988 14.0818 8.184 14.0055 7.14914L14 6.99988V3.99988H8C7.44772 3.99988 7 4.44759 7 4.99988V9.99988H16C17.1046 9.99988 18 10.8953 18 11.9999V16.9999C18 18.1044 17.1046 18.9999 16 18.9999H7ZM5 10.9999H4C3.44772 10.9999 3 11.4476 3 11.9999V16.9999C3 17.5522 3.44772 17.9999 4 17.9999H5H7H16C16.5523 17.9999 17 17.5522 17 16.9999V11.9999C17 11.4476 16.5523 10.9999 16 10.9999H7H5ZM18.585 6.99988L16 4.41488V6.99988H18.585Z" fill="#474B55"/>
<path fill-rule="evenodd" clip-rule="evenodd" d="M14.5033 12.7257C13.4566 12.7257 12.7027 13.494 12.7027 14.4927C12.7027 15.6162 13.5094 16.274 14.3881 16.274C14.9595 16.274 15.2908 15.9763 15.2908 15.9763H15.3004C15.3004 15.9763 15.2956 16.0484 15.2956 16.1204V16.2164H15.9966V14.2766H14.7674V14.992H15.2523V15.2561C15.2523 15.2561 14.9595 15.5058 14.5561 15.5058C14.0232 15.5058 13.5718 15.1169 13.5718 14.4639C13.5718 13.9549 13.8647 13.494 14.5849 13.494C15.0699 13.494 15.4204 13.8109 15.4204 13.8109L15.8237 13.1819C15.8237 13.1819 15.382 12.7257 14.5033 12.7257ZM10.1103 12.7833V16.2164H12.3286V15.4962H10.9506V14.848H11.9973V14.1278H10.9506V13.5036H12.2614V12.7833H10.1103ZM7.06718 16.2164V12.7833H8.49323C9.16064 12.7833 9.61198 13.2731 9.61198 13.9645C9.61198 14.6559 9.16064 15.1553 8.49323 15.1553H7.90744V16.2164H7.06718ZM7.90744 14.4351H8.32037C8.61326 14.4351 8.75731 14.2382 8.75731 13.9645C8.75731 13.6908 8.61327 13.5036 8.33478 13.5036H7.90744V14.4351ZM4.00293 14.9104V15.1601C4.00293 15.9043 4.57431 16.274 5.15049 16.274C5.72667 16.274 6.30285 15.9139 6.30285 15.1601V12.7833H4.5407V13.5036H5.46259V15.1409C5.46259 15.3906 5.33775 15.5058 5.16009 15.5058C5.06406 15.5058 4.96803 15.4722 4.91042 15.381C4.8672 15.3185 4.84319 15.2225 4.84319 15.0929V14.9104H4.00293Z" fill="#474B55"/>
</svg>
