<svg width="24" height="24" viewBox="0 0 24 24" fill="none" xmlns="http://www.w3.org/2000/svg">
<path fill-rule="evenodd" clip-rule="evenodd" d="M8 1.99988H14H16C16.2652 1.99988 16.5196 2.10523 16.7071 2.29277L20.7071 6.29277C20.8946 6.48031 21 6.73466 21 6.99988V8.99988V18.9999C21 20.6567 19.6569 21.9999 18 21.9999H8C6.34315 21.9999 5 20.6567 5 18.9999H4C2.89543 18.9999 2 18.1044 2 16.9999V11.9999C2 10.8953 2.89543 9.99988 4 9.99988H5V4.99988C5 3.34302 6.34315 1.99988 8 1.99988ZM7 10.9999H5H4C3.44772 10.9999 3 11.4476 3 11.9999V16.9999C3 17.5522 3.44772 17.9999 4 17.9999H5H7H16C16.5523 17.9999 17 17.5522 17 16.9999V11.9999C17 11.4476 16.5523 10.9999 16 10.9999H7ZM7 18.9999H16C17.1046 18.9999 18 18.1044 18 16.9999V11.9999C18 10.8953 17.1046 9.99988 16 9.99988H7V4.99988C7 4.44759 7.44772 3.99988 8 3.99988H14V6.99988L14.0055 7.14914C14.0818 8.184 14.9456 8.99988 16 8.99988H19V18.9999C19 19.5522 18.5523 19.9999 18 19.9999H8C7.44772 19.9999 7 19.5522 7 18.9999ZM16 4.41488L18.585 6.99988H16V4.41488ZM11.614 14.4909C11.614 13.2429 12.556 12.2829 13.864 12.2829C14.962 12.2829 15.514 12.8529 15.514 12.8529L15.01 13.6389C15.01 13.6389 14.572 13.2429 13.966 13.2429C13.066 13.2429 12.7 13.8189 12.7 14.4549C12.7 15.2709 13.264 15.7569 13.93 15.7569C14.434 15.7569 14.8 15.4449 14.8 15.4449V15.1149H14.194V14.2209H15.73V16.6449H14.854V16.5249C14.854 16.4349 14.86 16.3449 14.86 16.3449H14.848C14.848 16.3449 14.434 16.7169 13.72 16.7169C12.622 16.7169 11.614 15.8949 11.614 14.4909ZM8.09912 16.6449V12.3549H9.88112C10.7151 12.3549 11.2791 12.9669 11.2791 13.8309C11.2791 14.6949 10.7151 15.3189 9.88112 15.3189H9.14912V16.6449H8.09912ZM9.14912 14.4189H9.66512C10.0311 14.4189 10.2111 14.1729 10.2111 13.8309C10.2111 13.4889 10.0311 13.2549 9.68312 13.2549H9.14912V14.4189ZM4.27002 15.0129V15.3249C4.27002 16.2549 4.98402 16.7169 5.70402 16.7169C6.42402 16.7169 7.14402 16.2669 7.14402 15.3249V12.3549H4.94202V13.2549H6.09402V15.3009C6.09402 15.6129 5.93802 15.7569 5.71602 15.7569C5.59602 15.7569 5.47602 15.7149 5.40402 15.6009C5.35002 15.5229 5.32002 15.4029 5.32002 15.2409V15.0129H4.27002Z" fill="#474B55"/>
</svg>
