<svg width="24" height="24" viewBox="0 0 24 24" fill="none" xmlns="http://www.w3.org/2000/svg">
<path fill-rule="evenodd" clip-rule="evenodd" d="M8 1.99988H14H16C16.2652 1.99988 16.5196 2.10523 16.7071 2.29277L20.7071 6.29277C20.8946 6.48031 21 6.73466 21 6.99988V8.99988V18.9999C21 20.6567 19.6569 21.9999 18 21.9999H8C6.34315 21.9999 5 20.6567 5 18.9999H4C2.89543 18.9999 2 18.1044 2 16.9999V11.9999C2 10.8953 2.89543 9.99988 4 9.99988H5V4.99988C5 3.34302 6.34315 1.99988 8 1.99988ZM7 10.9999H5H4C3.44772 10.9999 3 11.4476 3 11.9999V16.9999C3 17.5522 3.44772 17.9999 4 17.9999H5H7H16C16.5523 17.9999 17 17.5522 17 16.9999V11.9999C17 11.4476 16.5523 10.9999 16 10.9999H7ZM7 18.9999H16C17.1046 18.9999 18 18.1044 18 16.9999V11.9999C18 10.8953 17.1046 9.99988 16 9.99988H7V4.99988C7 4.44759 7.44772 3.99988 8 3.99988H14V6.99988L14.0055 7.14914C14.0818 8.184 14.9456 8.99988 16 8.99988H19V18.9999C19 19.5522 18.5523 19.9999 18 19.9999H8C7.44772 19.9999 7 19.5522 7 18.9999ZM16 4.41488L18.585 6.99988H16V4.41488ZM10.5828 14.4908C10.5828 13.2428 11.5428 12.2828 12.8328 12.2828C13.8948 12.2828 14.4408 12.8888 14.4408 12.8888L13.9548 13.6808C13.9548 13.6808 13.4748 13.2428 12.8808 13.2428C12.0588 13.2428 11.6688 13.8488 11.6688 14.4668C11.6688 15.1028 12.0888 15.7568 12.8808 15.7568C13.5288 15.7568 14.0208 15.2288 14.0208 15.2288L14.5608 15.9968C14.5608 15.9968 13.9548 16.7168 12.8328 16.7168C11.4888 16.7168 10.5828 15.7628 10.5828 14.4908ZM8.82007 16.6449V12.3549H9.87007V16.6449H8.82007ZM5.43921 12.3549V16.6449H8.24121V15.7449H6.48921V12.3549H5.43921Z" fill="#474B55"/>
</svg>
