<svg width="24" height="24" viewBox="0 0 24 24" fill="none" xmlns="http://www.w3.org/2000/svg">
<path fill-rule="evenodd" clip-rule="evenodd" d="M8 1.99988H14H16C16.2652 1.99988 16.5196 2.10523 16.7071 2.29277L20.7071 6.29277C20.8946 6.48031 21 6.73466 21 6.99988V8.99988V18.9999C21 20.6567 19.6569 21.9999 18 21.9999H8C6.34315 21.9999 5 20.6567 5 18.9999H4C2.89543 18.9999 2 18.1044 2 16.9999V11.9999C2 10.8953 2.89543 9.99988 4 9.99988H5V4.99988C5 3.34302 6.34315 1.99988 8 1.99988ZM7 10.9999H5H4C3.44772 10.9999 3 11.4476 3 11.9999V16.9999C3 17.5522 3.44772 17.9999 4 17.9999H5H7H16C16.5523 17.9999 17 17.5522 17 16.9999V11.9999C17 11.4476 16.5523 10.9999 16 10.9999H7ZM7 18.9999H16C17.1046 18.9999 18 18.1044 18 16.9999V11.9999C18 10.8953 17.1046 9.99988 16 9.99988H7V4.99988C7 4.44759 7.44772 3.99988 8 3.99988H14V6.99988L14.0055 7.14914C14.0818 8.184 14.9456 8.99988 16 8.99988H19V18.9999C19 19.5522 18.5523 19.9999 18 19.9999H8C7.44772 19.9999 7 19.5522 7 18.9999ZM16 4.41488L18.585 6.99988H16V4.41488ZM5.767 16.7899V15.4639H6.499C7.333 15.4639 7.897 14.8399 7.897 13.9759C7.897 13.1119 7.333 12.4999 6.499 12.4999H4.717V16.7899H5.767ZM6.283 14.5639H5.767V13.3999H6.301C6.649 13.3999 6.829 13.6339 6.829 13.9759C6.829 14.3179 6.649 14.5639 6.283 14.5639ZM12.259 14.6359C12.259 15.9859 11.395 16.7899 10.045 16.7899H8.521V12.4999H10.045C11.395 12.4999 12.259 13.2859 12.259 14.6359ZM10.003 15.8899H9.571V13.3999H10.003C10.711 13.3999 11.173 13.8199 11.173 14.6359C11.173 15.4579 10.729 15.8899 10.003 15.8899ZM14.047 15.1999V16.7899H12.997V12.4999H15.625V13.3999H14.047V14.2999H15.355V15.1999H14.047Z" fill="#474B55"/>
</svg>
