<svg width="24" height="24" viewBox="0 0 24 24" fill="none" xmlns="http://www.w3.org/2000/svg">
<path fill-rule="evenodd" clip-rule="evenodd" d="M8 1.99988H14H16C16.2652 1.99988 16.5196 2.10523 16.7071 2.29277L20.7071 6.29277C20.8946 6.48031 21 6.73466 21 6.99988V8.99988V18.9999C21 20.6567 19.6569 21.9999 18 21.9999H8C6.34315 21.9999 5 20.6567 5 18.9999H4C2.89543 18.9999 2 18.1044 2 16.9999V11.9999C2 10.8953 2.89543 9.99988 4 9.99988H5V4.99988C5 3.34302 6.34315 1.99988 8 1.99988ZM7 10.9999H5H4C3.44772 10.9999 3 11.4476 3 11.9999V16.9999C3 17.5522 3.44772 17.9999 4 17.9999H5H7H16C16.5523 17.9999 17 17.5522 17 16.9999V11.9999C17 11.4476 16.5523 10.9999 16 10.9999H7ZM7 18.9999H16C17.1046 18.9999 18 18.1044 18 16.9999V11.9999C18 10.8953 17.1046 9.99988 16 9.99988H7V4.99988C7 4.44759 7.44772 3.99988 8 3.99988H14V6.99988L14.0055 7.14914C14.0818 8.184 14.9456 8.99988 16 8.99988H19V18.9999C19 19.5522 18.5523 19.9999 18 19.9999H8C7.44772 19.9999 7 19.5522 7 18.9999ZM16 4.41488L18.585 6.99988H16V4.41488ZM12.0168 14.4909C12.0168 13.2429 12.9588 12.2829 14.2668 12.2829C15.3648 12.2829 15.9168 12.8529 15.9168 12.8529L15.4128 13.6389C15.4128 13.6389 14.9748 13.2429 14.3688 13.2429C13.4688 13.2429 13.1028 13.8189 13.1028 14.4549C13.1028 15.2709 13.6668 15.7569 14.3328 15.7569C14.8368 15.7569 15.2028 15.4449 15.2028 15.4449V15.1149H14.5968V14.2209H16.1328V16.6449H15.2568V16.5249C15.2568 16.4349 15.2628 16.3449 15.2628 16.3449H15.2508C15.2508 16.3449 14.8368 16.7169 14.1228 16.7169C13.0248 16.7169 12.0168 15.8949 12.0168 14.4909ZM7.66992 16.6449V12.3549H8.73192L9.91992 14.3589C10.0879 14.6409 10.2799 15.0909 10.2799 15.0909H10.2919C10.2919 15.0909 10.2439 14.6289 10.2439 14.3589V12.3549H11.2939V16.6449H10.2379L9.04392 14.6469C8.87592 14.3649 8.68392 13.9149 8.68392 13.9149H8.67192C8.67192 13.9149 8.71992 14.3769 8.71992 14.6469V16.6449H7.66992ZM3.86719 12.3549V16.6449H4.91719V15.3189H5.64919C6.48319 15.3189 7.04719 14.6949 7.04719 13.8309C7.04719 12.9669 6.48319 12.3549 5.64919 12.3549H3.86719ZM5.43319 14.4189H4.91719V13.2549H5.45119C5.79919 13.2549 5.97919 13.4889 5.97919 13.8309C5.97919 14.1729 5.79919 14.4189 5.43319 14.4189Z" fill="#474B55"/>
</svg>
