<svg width="24" height="24" viewBox="0 0 24 24" fill="none" xmlns="http://www.w3.org/2000/svg">
<path fill-rule="evenodd" clip-rule="evenodd" d="M8 1.99988H14H16C16.2652 1.99988 16.5196 2.10523 16.7071 2.29277L20.7071 6.29277C20.8946 6.48031 21 6.73466 21 6.99988V8.99988V18.9999C21 20.6567 19.6569 21.9999 18 21.9999H8C6.34315 21.9999 5 20.6567 5 18.9999H4C2.89543 18.9999 2 18.1044 2 16.9999V11.9999C2 10.8953 2.89543 9.99988 4 9.99988H5V4.99988C5 3.34302 6.34315 1.99988 8 1.99988ZM7 10.9999H5H4C3.44772 10.9999 3 11.4476 3 11.9999V16.9999C3 17.5522 3.44772 17.9999 4 17.9999H5H7H16C16.5523 17.9999 17 17.5522 17 16.9999V11.9999C17 11.4476 16.5523 10.9999 16 10.9999H7ZM7 18.9999H16C17.1046 18.9999 18 18.1044 18 16.9999V11.9999C18 10.8953 17.1046 9.99988 16 9.99988H7V4.99988C7 4.44759 7.44772 3.99988 8 3.99988H14V6.99988L14.0055 7.14914C14.0818 8.184 14.9456 8.99988 16 8.99988H19V18.9999C19 19.5522 18.5523 19.9999 18 19.9999H8C7.44772 19.9999 7 19.5522 7 18.9999ZM16 4.41488L18.585 6.99988H16V4.41488ZM4.55713 12.3338V16.666H5.61745V15.3269H6.35665C7.19884 15.3269 7.76839 14.6968 7.76839 13.8243C7.76839 12.9518 7.19884 12.3338 6.35665 12.3338H4.55713ZM6.13852 14.4181H5.61745V13.2426H6.1567C6.50812 13.2426 6.68989 13.4789 6.68989 13.8243C6.68989 14.1697 6.50812 14.4181 6.13852 14.4181ZM8.39758 16.666V12.3338H10.1971C11.0393 12.3338 11.6088 12.9518 11.6088 13.8243C11.6088 14.6968 11.0393 15.3269 10.1971 15.3269H9.4579V16.666H8.39758ZM9.4579 14.4181H9.97898C10.3486 14.4181 10.5303 14.1697 10.5303 13.8243C10.5303 13.4789 10.3486 13.2426 9.99715 13.2426H9.4579V14.4181ZM13.0678 16.666V13.2426H11.753V12.3338H15.4429V13.2426H14.1281V16.666H13.0678Z" fill="#474B55"/>
</svg>
