<svg width="24" height="24" viewBox="0 0 24 24" fill="none" xmlns="http://www.w3.org/2000/svg">
<path fill-rule="evenodd" clip-rule="evenodd" d="M8 1.99988H14H16C16.2652 1.99988 16.5196 2.10523 16.7071 2.29277L20.7071 6.29277C20.8946 6.48031 21 6.73466 21 6.99988V8.99988V18.9999C21 20.6567 19.6569 21.9999 18 21.9999H8C6.34315 21.9999 5 20.6567 5 18.9999H4C2.89543 18.9999 2 18.1044 2 16.9999V11.9999C2 10.8953 2.89543 9.99988 4 9.99988H5V4.99988C5 3.34302 6.34315 1.99988 8 1.99988ZM7 10.9999H5H4C3.44772 10.9999 3 11.4476 3 11.9999V16.9999C3 17.5522 3.44772 17.9999 4 17.9999H5H7H16C16.5523 17.9999 17 17.5522 17 16.9999V11.9999C17 11.4476 16.5523 10.9999 16 10.9999H7ZM7 18.9999H16C17.1046 18.9999 18 18.1044 18 16.9999V11.9999C18 10.8953 17.1046 9.99988 16 9.99988H7V4.99988C7 4.44759 7.44772 3.99988 8 3.99988H14V6.99988L14.0055 7.14914C14.0818 8.184 14.9456 8.99988 16 8.99988H19V18.9999C19 19.5522 18.5523 19.9999 18 19.9999H8C7.44772 19.9999 7 19.5522 7 18.9999ZM16 4.41488L18.585 6.99988H16V4.41488ZM3.9893 12.7718V16.228H4.83524V15.1597H5.42498C6.09689 15.1597 6.55128 14.657 6.55128 13.9609C6.55128 13.2648 6.09689 12.7718 5.42498 12.7718H3.9893ZM5.25096 14.4346H4.83524V13.4969H5.26546C5.54583 13.4969 5.69084 13.6854 5.69084 13.9609C5.69084 14.2364 5.54583 14.4346 5.25096 14.4346ZM7.05326 16.228V12.7718H8.48894C9.16086 12.7718 9.61525 13.2648 9.61525 13.9609C9.61525 14.657 9.16086 15.1597 8.48894 15.1597H7.8992V16.228H7.05326ZM7.8992 14.4346H8.31492C8.60979 14.4346 8.75481 14.2364 8.75481 13.9609C8.75481 13.6854 8.60979 13.4969 8.32942 13.4969H7.8992V14.4346ZM10.7792 13.4969V16.228H11.6251V13.4969H12.6741V12.7718H9.73022V13.4969H10.7792ZM13.882 14.512L12.8331 16.228H13.7708L14.1672 15.5029C14.2881 15.2854 14.3799 15.0727 14.3799 15.0727H14.3896C14.3896 15.0727 14.4814 15.2854 14.6023 15.5029L14.9987 16.228H15.9413L14.8875 14.512L15.9461 12.7718H14.9842L14.6023 13.4823C14.4814 13.7047 14.3896 13.9271 14.3896 13.9271H14.3799C14.3799 13.9271 14.2832 13.6999 14.1672 13.4823L13.7902 12.7718H12.8282L13.882 14.512Z" fill="#474B55"/>
</svg>
