<svg width="24" height="24" viewBox="0 0 24 24" fill="none" xmlns="http://www.w3.org/2000/svg">
<path fill-rule="evenodd" clip-rule="evenodd" d="M8 1.99988H14H16C16.2652 1.99988 16.5196 2.10523 16.7071 2.29277L20.7071 6.29277C20.8946 6.48031 21 6.73466 21 6.99988V8.99988V18.9999C21 20.6567 19.6569 21.9999 18 21.9999H8C6.34315 21.9999 5 20.6567 5 18.9999H4C2.89543 18.9999 2 18.1044 2 16.9999V11.9999C2 10.8953 2.89543 9.99988 4 9.99988H5V4.99988C5 3.34302 6.34315 1.99988 8 1.99988ZM8 19.9999C7.44772 19.9999 7 19.5522 7 18.9999H16C17.1046 18.9999 18 18.1044 18 16.9999V11.9999C18 10.8953 17.1046 9.99988 16 9.99988H7V4.99988C7 4.44759 7.44772 3.99988 8 3.99988H14V6.99988L14.0055 7.14914C14.0818 8.184 14.9456 8.99988 16 8.99988H19V18.9999C19 19.5522 18.5523 19.9999 18 19.9999H8ZM4 10.9999H5H7H16C16.5523 10.9999 17 11.4476 17 11.9999V16.9999C17 17.5522 16.5523 17.9999 16 17.9999H7H5H4C3.44772 17.9999 3 17.5522 3 16.9999V11.9999C3 11.4476 3.44772 10.9999 4 10.9999ZM16 4.41488L18.585 6.99988H16V4.41488ZM4.78076 16.6449V12.3549H6.27476C6.71276 12.3549 6.92276 12.3849 7.10876 12.4569C7.59476 12.6429 7.90076 13.0809 7.90076 13.7049C7.90076 14.1609 7.68476 14.6589 7.25876 14.8749V14.8869C7.25876 14.8869 7.31876 14.9649 7.42076 15.1449L8.25476 16.6449H7.08476L6.32276 15.1989H5.83076V16.6449H4.78076ZM5.83076 14.2989H6.28676C6.62276 14.2989 6.83276 14.1129 6.83276 13.7709C6.83276 13.4469 6.71276 13.2549 6.18476 13.2549H5.83076V14.2989ZM9.7102 13.2549V16.6449H10.7602V13.2549H12.0622V12.3549H8.4082V13.2549H9.7102ZM12.5913 12.3549V16.6449H13.6413V15.0549H14.9493V14.1549H13.6413V13.2549H15.2193V12.3549H12.5913Z" fill="#474B55"/>
</svg>
