<svg width="24" height="24" viewBox="0 0 24 24" fill="none" xmlns="http://www.w3.org/2000/svg">
<path fill-rule="evenodd" clip-rule="evenodd" d="M14 1.99988H8C6.34315 1.99988 5 3.34302 5 4.99988V9.99988H4C2.89543 9.99988 2 10.8953 2 11.9999V16.9999C2 18.1044 2.89543 18.9999 4 18.9999H5C5 20.6567 6.34315 21.9999 8 21.9999H18C19.6569 21.9999 21 20.6567 21 18.9999V8.99988V6.99988C21 6.73466 20.8946 6.48031 20.7071 6.29277L16.7071 2.29277C16.5196 2.10523 16.2652 1.99988 16 1.99988H14ZM7 18.9999C7 19.5522 7.44772 19.9999 8 19.9999H18C18.5523 19.9999 19 19.5522 19 18.9999V8.99988H16C14.9456 8.99988 14.0818 8.184 14.0055 7.14914L14 6.99988V3.99988H8C7.44772 3.99988 7 4.44759 7 4.99988V9.99988H16C17.1046 9.99988 18 10.8953 18 11.9999V16.9999C18 18.1044 17.1046 18.9999 16 18.9999H7ZM5 10.9999H4C3.44772 10.9999 3 11.4476 3 11.9999V16.9999C3 17.5522 3.44772 17.9999 4 17.9999H5H7H16C16.5523 17.9999 17 17.5522 17 16.9999V11.9999C17 11.4476 16.5523 10.9999 16 10.9999H7H5ZM18.585 6.99988L16 4.41488V6.99988H18.585Z" fill="#474B55"/>
<path fill-rule="evenodd" clip-rule="evenodd" d="M6.86816 13.2549V16.6449H7.91816V13.2549H9.22016V12.3549H5.56616V13.2549H6.86816ZM9.74927 16.6449V12.3549H10.7993V16.6449H9.74927ZM11.8059 16.6449V12.3549H14.4339V13.2549H12.8559V14.1549H14.1639V15.0549H12.8559V16.6449H11.8059Z" fill="#474B55"/>
</svg>
