<svg width="24" height="24" viewBox="0 0 24 24" fill="none" xmlns="http://www.w3.org/2000/svg">
<path fill-rule="evenodd" clip-rule="evenodd" d="M8 1.99988H14H16C16.2652 1.99988 16.5196 2.10523 16.7071 2.29277L20.7071 6.29277C20.8946 6.48031 21 6.73466 21 6.99988V8.99988V18.9999C21 20.6567 19.6569 21.9999 18 21.9999H8C6.34315 21.9999 5 20.6567 5 18.9999H4C2.89543 18.9999 2 18.1044 2 16.9999V11.9999C2 10.8953 2.89543 9.99988 4 9.99988H5V4.99988C5 3.34302 6.34315 1.99988 8 1.99988ZM7 10.9999H5H4C3.44772 10.9999 3 11.4476 3 11.9999V16.9999C3 17.5522 3.44772 17.9999 4 17.9999H5H7H16C16.5523 17.9999 17 17.5522 17 16.9999V11.9999C17 11.4476 16.5523 10.9999 16 10.9999H7ZM7 18.9999H16C17.1046 18.9999 18 18.1044 18 16.9999V11.9999C18 10.8953 17.1046 9.99988 16 9.99988H7V4.99988C7 4.44759 7.44772 3.99988 8 3.99988H14V6.99988L14.0055 7.14914C14.0818 8.184 14.9456 8.99988 16 8.99988H19V18.9999C19 19.5522 18.5523 19.9999 18 19.9999H8C7.44772 19.9999 7 19.5522 7 18.9999ZM16 4.41488L18.585 6.99988H16V4.41488ZM3.83179 12.5624L4.7748 16.4374H5.84246L6.33023 14.4809C6.38984 14.2316 6.4061 14.0257 6.4061 14.0257H6.41694C6.41694 14.0257 6.4332 14.2316 6.49282 14.4809L6.98058 16.4374H8.0374L9.01835 12.5624H8.0374L7.50628 14.9849C7.45751 15.2234 7.45751 15.3914 7.45751 15.3914H7.44667C7.44667 15.3914 7.44125 15.2234 7.38163 14.9849L6.80173 12.5624H6.03757L5.44141 14.9849C5.38179 15.2234 5.37638 15.3914 5.37638 15.3914H5.36554C5.36554 15.3914 5.36554 15.2234 5.31676 14.9849L4.82899 12.5624H3.83179ZM11.6606 16.4374L11.4221 15.6245H10.2135L9.98049 16.4374H9.00496L10.3219 12.5624H11.3191L12.6361 16.4374H11.6606ZM10.8259 13.4458H10.8151C10.8151 13.4458 10.7284 13.8685 10.6579 14.1124L10.4357 14.8657H11.1999L10.9831 14.1124C10.9127 13.8685 10.8259 13.4458 10.8259 13.4458ZM13.816 16.4374L12.4448 12.5624H13.4746L14.1574 14.7682C14.2333 15.012 14.3038 15.3914 14.3038 15.3914H14.3146C14.3146 15.3914 14.3851 15.012 14.4609 14.7682L15.1546 12.5624H16.1681L14.8024 16.4374H13.816Z" fill="#474B55"/>
</svg>
