<svg width="24" height="24" viewBox="0 0 24 24" fill="none" xmlns="http://www.w3.org/2000/svg">
<path fill-rule="evenodd" clip-rule="evenodd" d="M8 1.99988H14H16C16.2652 1.99988 16.5196 2.10523 16.7071 2.29277L20.7071 6.29277C20.8946 6.48031 21 6.73466 21 6.99988V8.99988V18.9999C21 20.6567 19.6569 21.9999 18 21.9999H8C6.34315 21.9999 5 20.6567 5 18.9999H4C2.89543 18.9999 2 18.1044 2 16.9999V11.9999C2 10.8953 2.89543 9.99988 4 9.99988H5V4.99988C5 3.34302 6.34315 1.99988 8 1.99988ZM7 10.9999H5H4C3.44772 10.9999 3 11.4476 3 11.9999V16.9999C3 17.5522 3.44772 17.9999 4 17.9999H5H7H16C16.5523 17.9999 17 17.5522 17 16.9999V11.9999C17 11.4476 16.5523 10.9999 16 10.9999H7ZM7 18.9999H16C17.1046 18.9999 18 18.1044 18 16.9999V11.9999C18 10.8953 17.1046 9.99988 16 9.99988H7V4.99988C7 4.44759 7.44772 3.99988 8 3.99988H14V6.99988L14.0055 7.14914C14.0818 8.184 14.9456 8.99988 16 8.99988H19V18.9999C19 19.5522 18.5523 19.9999 18 19.9999H8C7.44772 19.9999 7 19.5522 7 18.9999ZM16 4.41488L18.585 6.99988H16V4.41488ZM12.2239 16.1049L12.7759 15.3069C12.7759 15.3069 13.2619 15.7509 13.8019 15.7509C14.0179 15.7509 14.2519 15.6669 14.2519 15.4089C14.2519 15.2134 13.968 15.0955 13.6179 14.95C13.0546 14.7161 12.3199 14.4109 12.3199 13.5969C12.3199 12.8049 12.9859 12.2829 13.8379 12.2829C14.7619 12.2829 15.2179 12.7689 15.2179 12.7689L14.7739 13.6269C14.7739 13.6269 14.3419 13.2489 13.8259 13.2489C13.6099 13.2489 13.3699 13.3449 13.3699 13.5849C13.3699 13.7938 13.6591 13.9075 14.0137 14.047C14.5757 14.2679 15.3019 14.5535 15.3019 15.3849C15.3019 16.0989 14.7559 16.7169 13.7899 16.7169C12.7819 16.7169 12.2239 16.1049 12.2239 16.1049ZM9.16089 16.6449V12.3549H10.2109V15.7449H11.9629V16.6449H9.16089ZM6.00624 14.5149L4.70424 16.6449H5.86824L6.36024 15.7449C6.51024 15.4749 6.62424 15.2109 6.62424 15.2109H6.63624C6.63624 15.2109 6.75024 15.4749 6.90024 15.7449L7.39224 16.6449H8.56224L7.25424 14.5149L8.56824 12.3549H7.37424L6.90024 13.2369C6.75024 13.5129 6.63624 13.7889 6.63624 13.7889H6.62424C6.62424 13.7889 6.50424 13.5069 6.36024 13.2369L5.89224 12.3549H4.69824L6.00624 14.5149Z" fill="#474B55"/>
</svg>
