<svg width="24" height="24" viewBox="0 0 24 24" fill="none" xmlns="http://www.w3.org/2000/svg">
<path fill-rule="evenodd" clip-rule="evenodd" d="M8 1.99988H14H16C16.2652 1.99988 16.5196 2.10523 16.7071 2.29277L20.7071 6.29277C20.8946 6.48031 21 6.73466 21 6.99988V8.99988V18.9999C21 20.6567 19.6569 21.9999 18 21.9999H8C6.34315 21.9999 5 20.6567 5 18.9999H4C2.89543 18.9999 2 18.1044 2 16.9999V11.9999C2 10.8953 2.89543 9.99988 4 9.99988H5V4.99988C5 3.34302 6.34315 1.99988 8 1.99988ZM7 10.9999H5H4C3.44772 10.9999 3 11.4476 3 11.9999V16.9999C3 17.5522 3.44772 17.9999 4 17.9999H5H7H16C16.5523 17.9999 17 17.5522 17 16.9999V11.9999C17 11.4476 16.5523 10.9999 16 10.9999H7ZM7 18.9999H16C17.1046 18.9999 18 18.1044 18 16.9999V11.9999C18 10.8953 17.1046 9.99988 16 9.99988H7V4.99988C7 4.44759 7.44772 3.99988 8 3.99988H14V6.99988L14.0055 7.14914C14.0818 8.184 14.9456 8.99988 16 8.99988H19V18.9999C19 19.5522 18.5523 19.9999 18 19.9999H8C7.44772 19.9999 7 19.5522 7 18.9999ZM16 4.41488L18.585 6.99988H16V4.41488ZM10.5264 15.1309L10.0948 15.7549C10.0948 15.7549 10.5311 16.2334 11.3193 16.2334C12.0746 16.2334 12.5015 15.7502 12.5015 15.1919C12.5015 14.5418 11.9337 14.3185 11.4943 14.1457C11.217 14.0367 10.9909 13.9478 10.9909 13.7844C10.9909 13.5968 11.1785 13.5217 11.3474 13.5217C11.7509 13.5217 12.0887 13.8173 12.0887 13.8173L12.4359 13.1464C12.4359 13.1464 12.0793 12.7664 11.3568 12.7664C10.6906 12.7664 10.1699 13.1745 10.1699 13.7938C10.1699 14.4303 10.7444 14.6689 11.1848 14.8519C11.4586 14.9656 11.6805 15.0578 11.6805 15.2106C11.6805 15.4124 11.4976 15.4781 11.3287 15.4781C10.9064 15.4781 10.5264 15.1309 10.5264 15.1309ZM7.49832 12.8227V16.1771H9.68926V15.4734H8.31934V12.8227H7.49832ZM4.07159 16.1769L5.08965 14.5114L4.06689 12.8224H5.00051L5.36645 13.5121C5.47905 13.7232 5.57288 13.9437 5.57288 13.9437H5.58226C5.58226 13.9437 5.6714 13.7279 5.78869 13.5121L6.15932 12.8224H7.09293L6.06549 14.5114L7.08824 16.1769H6.17339L5.78869 15.4731C5.6714 15.262 5.58226 15.0556 5.58226 15.0556H5.57288C5.57288 15.0556 5.48374 15.262 5.36645 15.4731L4.98174 16.1769H4.07159ZM13.9295 14.5116L12.9115 16.1771H13.8216L14.2063 15.4734C14.3236 15.2623 14.4128 15.0559 14.4128 15.0559H14.4221C14.4221 15.0559 14.5113 15.2623 14.6286 15.4734L15.0133 16.1771H15.9281L14.9054 14.5116L15.9328 12.8227H14.9992L14.6286 13.5123C14.5113 13.7282 14.4221 13.944 14.4221 13.944H14.4128C14.4128 13.944 14.3189 13.7235 14.2063 13.5123L13.8404 12.8227H12.9068L13.9295 14.5116Z" fill="#474B55"/>
</svg>
