<?xml version="1.0" encoding="UTF-8"?>
<svg width="16px" height="16px" viewBox="0 0 16 16" version="1.1" xmlns="http://www.w3.org/2000/svg" xmlns:xlink="http://www.w3.org/1999/xlink">
    <title>ico_doc</title>
    <defs>
        <path d="M10.869575,7.98628073 C10.7032131,9.18680293 11.5022113,10.3188972 12.741128,10.6380697 L12.741128,11.3672922 C12.741128,13.2151511 11.152046,14.7131367 9.19181389,14.7131367 C7.2315818,14.7131367 5.64249973,13.2151511 5.64249973,11.3672922 L5.64249973,8.19302949 C8.08610448,7.86210267 9.89956522,5.88749139 9.89712632,3.56032172 L9.89712632,0.643431635 C9.89712632,0.288074156 9.59153361,0 9.2145659,0 L7.00762056,0 L7.00762056,1.28686327 L8.53200548,1.28686327 L8.53200548,3.56032172 C8.38299257,5.32181545 6.82311024,6.67968136 4.9485633,6.67968136 C3.07401637,6.67968136 1.51413404,5.32181545 1.36512112,3.56032172 L1.36512112,1.28686327 L2.88950605,1.28686327 L2.88950605,0 L0.682560706,0 C0.305592998,0 0,0.288074156 0,0.643431635 L0,3.56032172 C-0.000841220004,5.89456981 1.82473779,7.8718028 4.27737889,8.19302949 L4.27737889,11.3672922 C4.27737889,13.9258661 6.47764639,16 9.19181389,16 C11.9059814,16 14.1062489,13.9258661 14.1062489,11.3672922 L14.1062489,10.6380697 C15.3536808,10.3168683 16.1539163,9.1722343 15.9750792,7.96494818 C15.7962421,6.75766206 14.6939909,5.86346112 13.4009364,5.8766756 C12.1166186,5.88513185 11.0359369,6.78575853 10.869575,7.98628073 Z M13.5714432,9.42857143 C13.1669869,9.42857143 12.8023559,9.18493281 12.6475772,8.81126388 C12.4927984,8.43759495 12.5783529,8.00748341 12.8643467,7.7214896 C13.1503406,7.43549578 13.5804521,7.34994128 13.954121,7.50472001 C14.32779,7.65949875 14.5714286,8.02412971 14.5714286,8.42858604 C14.5714286,8.98086272 14.1237199,9.42857143 13.5714432,9.42857143 L13.5714432,9.42857143 Z" id="path-1"></path>
    </defs>
    <g id="Icons" stroke="none" stroke-width="1" fill="none" fill-rule="evenodd">
        <g id="Gray" transform="translate(-377.000000, -308.000000)">
            <g id="ico_doc" transform="translate(377.000000, 308.000000)">
                <mask id="mask-2" fill="white">
                    <use xlink:href="#path-1"></use>
                </mask>
                <use id="Shape" fill="#A8ABAC" fill-rule="nonzero" xlink:href="#path-1"></use>
                <g id="Group" mask="url(#mask-2)" fill="#A8ABAC">
                    <g id="colors/03_medium_gray">
                        <rect id="Rectangle" x="0" y="0" width="16" height="16"></rect>
                    </g>
                </g>
            </g>
        </g>
    </g>
</svg>