<?xml version="1.0" encoding="UTF-8"?>
<svg width="16px" height="16px" viewBox="0 0 16 16" version="1.1" xmlns="http://www.w3.org/2000/svg" xmlns:xlink="http://www.w3.org/1999/xlink">
    <title>ico_eye</title>
    <defs>
        <path d="M8,4.5 C12,4.5 15.21,7.5 15.345,7.635 C15.4443654,7.72939698 15.5006256,7.86044426 15.5006256,7.9975 C15.5006256,8.11497634 15.4592916,8.22803832 15.3849077,8.31738959 L15.345,8.36 C15.21,8.5 12,11.5 8,11.5 C4,11.5 0.79,8.5 0.655,8.365 C0.555634592,8.27060302 0.499374433,8.13955574 0.499374433,8.0025 C0.499374433,7.88502366 0.540708427,7.77196168 0.615092275,7.68261041 L0.655,7.64 C0.79,7.5 4,4.5 8,4.5 Z M8,5.5 C6.61928813,5.5 5.5,6.61928813 5.5,8 C5.5,9.38071187 6.61928813,10.5 8,10.5 C9.38071187,10.5 10.5,9.38071187 10.5,8 C10.5,6.61928813 9.38071187,5.5 8,5.5 Z M5.08,6.075 C3.88321831,6.54369436 2.76526254,7.19288436 1.765,8 C2.76493337,8.80887978 3.88290633,9.459766 5.08,9.93 C4.30857117,8.76077869 4.30857117,7.24422131 5.08,6.075 Z M10.915,6.075 C11.6598278,7.20390334 11.6855116,8.65660153 10.9920512,9.80783554 L10.9153744,9.9295 L10.92,9.925 C12.0247216,9.49235906 13.0622778,8.90592301 14.0020986,8.18344377 L14.235,8 C13.2332075,7.19244429 12.1135359,6.5432371 10.915,6.075 Z M8,7 C8.55228475,7 9,7.44771525 9,8 C9,8.55228475 8.55228475,9 8,9 C7.44771525,9 7,8.55228475 7,8 C7,7.44771525 7.44771525,7 8,7 Z" id="path-1"></path>
    </defs>
    <g id="Icons" stroke="none" stroke-width="1" fill="none" fill-rule="evenodd">
        <g id="Gray" transform="translate(-377.000000, -507.000000)">
            <g id="ico_eye" transform="translate(377.000000, 507.000000)">
                <g id="ico_eye">
                    <mask id="mask-2" fill="white">
                        <use xlink:href="#path-1"></use>
                    </mask>
                    <use id="Mask" fill="#000000" fill-rule="nonzero" xlink:href="#path-1"></use>
                    <g id="Group" mask="url(#mask-2)" fill="#A8ABAC">
                        <g id="colors/03_medium_gray">
                            <rect id="Rectangle" x="0" y="0" width="16" height="16"></rect>
                        </g>
                    </g>
                </g>
                <rect id="Rectangle" fill="#D8D8D8" opacity="0" x="0" y="0" width="16" height="16"></rect>
            </g>
        </g>
    </g>
</svg>