<?xml version="1.0" encoding="UTF-8"?>
<svg width="32px" height="32px" viewBox="0 0 32 32" version="1.1" xmlns="http://www.w3.org/2000/svg" xmlns:xlink="http://www.w3.org/1999/xlink">
    <title>ico_pill</title>
    <defs>
        <path d="M21,0 C22.0041541,0 22.8181818,0.788458744 22.8181818,1.76107189 L22.8181818,4.40267974 L24.1818182,4.40267974 C25.1859723,4.40267974 26,5.19113848 26,6.16375163 L26,8.3650915 C26,9.33770465 25.1859723,10.1261634 24.1818182,10.1261634 L23.6021435,10.1260126 C23.6315281,10.253463 23.6470588,10.386234 23.6470588,10.5226435 L23.6470588,30.2467464 C23.6470588,31.2150416 22.8644977,32 21.8991597,32 L10.1008403,32 C9.13550229,32 8.35294118,31.2150416 8.35294118,30.2467464 L8.35294118,10.5226435 C8.35294118,10.386234 8.3684719,10.253463 8.39785646,10.1260126 L7.81818182,10.1261634 C6.81402773,10.1261634 6,9.33770465 6,8.3650915 L6,6.16375163 C6,5.32941134 6.59902557,4.63058632 7.40323185,4.44875061 C7.67986516,4.41803669 8.14030568,4.40267974 8.7845534,4.40267974 L8.72727273,1.76107189 C8.72727273,0.788458744 9.54130045,0 10.5454545,0 L21,0 Z M21.3422196,10.8077761 L10.3888728,10.8077761 C10.1648222,10.8077761 9.98319328,10.9915552 9.98319328,11.2182582 L9.98319328,29.6899517 C9.98319328,29.9166547 10.1648222,30.1004338 10.3888728,30.1004338 L21.3422196,30.1004338 C21.5662703,30.1004338 21.7478992,29.9166547 21.7478992,29.6899517 L21.7478992,11.2182582 C21.7478992,10.9915552 21.5662703,10.8077761 21.3422196,10.8077761 Z M18.6203209,14.0310238 C19.4472713,14.0310238 20.1176471,14.7990754 20.1176471,15.746515 L20.1176471,23.0373526 C20.1176471,23.9847923 19.4472713,24.7528438 18.6203209,24.7528438 L13.3796791,24.7528438 C12.5527287,24.7528438 11.8823529,23.9847923 11.8823529,23.0373526 L11.8823529,15.746515 C11.8823529,14.7990754 12.5527287,14.0310238 13.3796791,14.0310238 L18.6203209,14.0310238 Z M18.1122995,15.9022682 L13.9946524,15.9022682 C13.8322157,15.9022682 13.7005348,16.0675814 13.7005348,16.2715057 L13.7005348,22.5485426 C13.7005348,22.7524668 13.8322157,22.9177801 13.9946524,22.9177801 L18.1122995,22.9177801 C18.2747362,22.9177801 18.4064171,22.7524668 18.4064171,22.5485426 L18.4064171,16.2715057 C18.4064171,16.0675814 18.2747362,15.9022682 18.1122995,15.9022682 Z M20.7678019,1.75387797 L10.7987616,1.75387797 C10.5593812,1.75387797 10.3653251,1.93863984 10.3653251,2.16655514 L10.363565,5.88064967 L8.19814241,5.88064967 C7.95876203,5.88064967 7.76470588,6.06541154 7.76470588,6.29332684 L7.76470588,8.3567127 C7.76470588,8.584628 7.95876203,8.76938987 8.19814241,8.76938987 L23.8018576,8.76938987 C24.041238,8.76938987 24.2352941,8.584628 24.2352941,8.3567127 L24.2352941,6.29332684 C24.2352941,6.06541154 24.041238,5.88064967 23.8018576,5.88064967 L21.2029985,5.88064967 L21.2012384,2.16655514 C21.2012384,1.93863984 21.0071822,1.75387797 20.7678019,1.75387797 Z" id="path-1"></path>
    </defs>
    <g id="ico_pill" stroke="none" stroke-width="1" fill="none" fill-rule="evenodd">
        <mask id="mask-2" fill="white">
            <use xlink:href="#path-1"></use>
        </mask>
        <use id="Combined-Shape" fill="#D8D8D8" fill-rule="nonzero" xlink:href="#path-1"></use>
        <g id="Group" mask="url(#mask-2)" fill="#A8ABAC">
            <g id="colors/03_medium_gray">
                <rect id="Rectangle" x="0" y="0" width="32" height="32"></rect>
            </g>
        </g>
        <rect id="Rectangle" fill-opacity="0" fill="#FFFFFF" mask="url(#mask-2)" x="0" y="0" width="32" height="32"></rect>
    </g>
</svg>