<?xml version="1.0" encoding="UTF-8"?>
<svg width="16px" height="16px" viewBox="0 0 16 16" version="1.1" xmlns="http://www.w3.org/2000/svg" xmlns:xlink="http://www.w3.org/1999/xlink">
    <title>ico-account</title>
    <defs>
        <path d="M9.34742656,7.5 C11.5765956,7.5 12.4510742,10.7083264 11.7788885,11.4311223 C11.1067027,12.1539181 0.959930723,12.2245128 0.215510091,11.4311223 C-0.528910541,10.6377317 0.758163526,7.5 2.49848921,7.5 L9.34742656,7.5 L9.34742656,7.5 Z M5.92295788,0 C7.5620688,0 8.89083073,1.38017688 8.89083073,3.08271134 C8.89083073,4.7852458 7.5620688,6.16542268 5.92295788,6.16542268 C4.28384697,6.16542268 2.95508503,4.7852458 2.95508503,3.08271134 C2.95508503,1.38017688 4.28384697,0 5.92295788,0 Z" id="path-1"></path>
    </defs>
    <g id="Home-Page" stroke="none" stroke-width="1" fill="none" fill-rule="evenodd">
        <g id="LOL-icons" transform="translate(-40.000000, -292.000000)">
            <g id="ico-account" transform="translate(40.000000, 292.000000)">
                <rect id="background" fill-opacity="0" fill="#000000" x="0" y="0" width="16" height="16"></rect>
                <g id="iconography/_nav/user" transform="translate(2.000000, 2.000000)">
                    <mask id="mask-2" fill="white">
                        <use xlink:href="#path-1"></use>
                    </mask>
                    <use id="Combined-Shape" fill="#757575" xlink:href="#path-1"></use>
                    <g id="Group" mask="url(#mask-2)" fill="#A8ABAC">
                        <g id="colors/03_medium_gray">
                            <rect id="Rectangle-Copy-2" x="0" y="0" width="12.5" height="12"></rect>
                        </g>
                    </g>
                </g>
            </g>
        </g>
    </g>
</svg>
