<svg width="41" height="40" viewBox="0 0 41 40" fill="none" xmlns="http://www.w3.org/2000/svg">
    <path fill-rule="evenodd" clip-rule="evenodd" d="M20.5 36.667a2.77 2.77 0 0 0 1.214-.33c10.24-5.174 13.786-7.44 13.786-13.411V10.448c0-1.343-.91-1.577-2.043-1.869-.385-.099-.796-.204-1.205-.363-.323-.124-.717-.27-1.163-.437-2.406-.895-6.333-2.356-8.958-3.994-.462-.289-1.1-.452-1.631-.452-.55 0-1.115.163-1.63.452-2.262 1.745-6.33 3.237-8.693 4.103-.334.122-.633.232-.888.328-.434.163-.909.27-1.37.374-1.256.281-2.419.542-2.419 1.858v12.478c0 5.97 3.546 8.203 13.767 13.412.456.242.93.329 1.233.329zm0-3.334c.221 0 .59-.069.944-.263 7.965-4.14 10.723-5.953 10.723-10.73v-9.982c0-1.074-.709-1.261-1.59-1.495-.299-.079-.618-.163-.936-.29-.252-.1-.558-.217-.905-.35-1.871-.716-4.926-1.885-6.968-3.195a2.495 2.495 0 0 0-1.268-.361c-.428 0-.867.13-1.268.361-1.76 1.396-4.924 2.59-6.761 3.283-.26.097-.492.185-.69.262-.338.13-.708.216-1.067.299-.976.225-1.88.434-1.88 1.486v9.982c0 4.777 2.757 6.563 10.707 10.73.354.194.723.263.959.263zm0-20c.855 0 1.56.515 1.655 1.178l.012.156v3.666h3.666c.737 0 1.334.747 1.334 1.667 0 .855-.515 1.56-1.178 1.655l-.156.012h-3.666v3.666c0 .737-.747 1.334-1.667 1.334-.855 0-1.56-.515-1.655-1.178l-.012-.156v-3.666h-3.666c-.737 0-1.334-.747-1.334-1.667 0-.855.515-1.56 1.178-1.655l.156-.012h3.666v-3.666c0-.737.747-1.334 1.667-1.334z" fill="#A8ABAC"/>
</svg>
