<?xml version="1.0" encoding="UTF-8"?>
<svg width="16px" height="16px" viewBox="0 0 16 16" version="1.1" xmlns="http://www.w3.org/2000/svg" xmlns:xlink="http://www.w3.org/1999/xlink">
    <title>ico_phone</title>
    <defs>
        <path d="M12.5,0 L3.5,0 C2.67157288,0 2,0.596953667 2,1.33333333 L2,14.6666667 C2,15.4030463 2.67157288,16 3.5,16 L12.5,16 C13.3284271,16 14,15.4030463 14,14.6666667 L14,1.33333333 C14,0.596953667 13.3284271,0 12.5,0 Z M2.92307692,3.14285714 L13.0769231,3.14285714 L13.0769231,12.5714286 L2.92307692,12.5714286 L2.92307692,3.14285714 Z M3.24038462,0.857142857 L12.7596154,0.857142857 C12.9348596,0.857142857 13.0769231,1.01704116 13.0769231,1.21428571 L13.0769231,2.28571429 L2.92307692,2.28571429 L2.92307692,1.21428571 C2.92307692,1.01704116 3.06514042,0.857142857 3.24038462,0.857142857 Z M13.0769231,13.4285714 L13.0769231,14.5 C13.0769231,14.6972446 12.9348596,14.8571429 12.7596154,14.8571429 L3.24038462,14.8571429 C3.06514042,14.8571429 2.92307692,14.6972446 2.92307692,14.5 L2.92307692,13.4285714 L13.0769231,13.4285714 Z M5.48746433,4.57142857 L5.48746433,5.1459211 L4.78390206,5.1459211 L4.78390206,6.16085791 C4.85267725,6.94723904 5.57262294,7.55342918 6.43779845,7.55342918 C7.30297396,7.55342918 8.02291965,6.94723904 8.09169484,6.16085791 L8.09169484,6.16085791 L8.09169484,5.1459211 L7.38813256,5.1459211 L7.38813256,4.57142857 L8.40672272,4.57142857 C8.58070782,4.57142857 8.72175061,4.70003311 8.72175061,4.85867484 L8.72175061,4.85867484 L8.72175061,6.16085791 C8.72287626,7.19977294 7.88589438,8.08129583 6.7580768,8.22903102 L6.7580768,8.22903102 L6.7580768,9.6461126 C6.7580768,10.4710496 7.49149929,11.1397932 8.39622179,11.1397932 C9.30094429,11.1397932 10.0343668,10.4710496 10.0343668,9.6461126 L10.0343668,9.6461126 L10.0343668,9.32056683 C9.46255904,9.17807911 9.09379067,8.67267988 9.17057309,8.13673247 C9.24735552,7.60078506 9.74613167,7.19871958 10.3388937,7.19494447 C10.9356881,7.18904514 11.4444194,7.58824199 11.5269596,8.12720901 C11.6094998,8.66617603 11.2401604,9.17717335 10.6644226,9.32056683 L10.6644226,9.32056683 L10.6644226,9.6461126 C10.6644226,10.7883331 9.64891449,11.7142857 8.39622179,11.7142857 C7.1435291,11.7142857 6.12802103,10.7883331 6.12802103,9.6461126 L6.12802103,9.6461126 L6.12802103,8.22903102 C4.99603283,8.08562625 4.1534579,7.20293295 4.15384615,6.16085791 L4.15384615,6.16085791 L4.15384615,4.85867484 C4.15384615,4.70003311 4.29488908,4.57142857 4.46887417,4.57142857 L4.46887417,4.57142857 L5.48746433,4.57142857 Z M10.6197543,7.786322 C10.4074927,7.70442849 10.1631689,7.74969542 10.0007109,7.9010149 C9.83825289,8.05233438 9.78965388,8.27990663 9.87757553,8.47761506 C9.96549718,8.67532348 10.1726248,8.8042328 10.4023752,8.8042328 C10.7160945,8.8042328 10.9704142,8.56734989 10.9704142,8.27514001 C10.9704142,8.06114195 10.8320159,7.86821551 10.6197543,7.786322 Z" id="path-1"></path>
    </defs>
    <g id="Icons" stroke="none" stroke-width="1" fill="none" fill-rule="evenodd">
        <g id="Gray" transform="translate(-377.000000, -464.000000)">
            <g id="ico_phone" transform="translate(377.000000, 464.000000)">
                <g id="ico_phone">
                    <mask id="mask-2" fill="white">
                        <use xlink:href="#path-1"></use>
                    </mask>
                    <use id="Shape" fill="#D8D8D8" fill-rule="nonzero" xlink:href="#path-1"></use>
                    <g id="Group" mask="url(#mask-2)" fill="#A8ABAC">
                        <g id="colors/03_medium_gray">
                            <rect id="Rectangle" x="0" y="0" width="16" height="16"></rect>
                        </g>
                    </g>
                </g>
                <rect id="Rectangle" fill="#D8D8D8" opacity="0" x="0" y="0" width="16" height="16"></rect>
            </g>
        </g>
    </g>
</svg>