<?xml version="1.0" encoding="UTF-8"?>
<svg width="48px" height="48px" viewBox="0 0 48 48" version="1.1" xmlns="http://www.w3.org/2000/svg" xmlns:xlink="http://www.w3.org/1999/xlink">
    <!-- Generator: Sketch 51.3 (57544) - http://www.bohemiancoding.com/sketch -->
    <title>account_settings</title>
    <desc>Created with Sketch.</desc>
    <defs></defs>
    <g id="account_settings" stroke="none" stroke-width="1" fill="none" fill-rule="evenodd">
        <path d="M12.6695236,27.9529748 C13.6082587,30.6489711 15.4709678,32.9321674 18,34.3923048 C23.7395115,37.7060133 31.0785963,35.7395115 34.3923048,30 C37.7060133,24.2604885 35.7395115,16.9214037 30,13.6076952 C24.2604885,10.2939867 16.9214037,12.2604885 13.6076952,18 C13.3315528,18.4782926 12.7199624,18.6421678 12.2416698,18.3660254 C11.7633771,18.089883 11.599502,17.4782926 11.8756443,17 C15.7416376,10.3039033 24.3039033,8.0096511 31,11.8756443 C37.6960967,15.7416376 39.9903489,24.3039033 36.1243557,31 C32.2583624,37.6960967 23.6960967,39.9903489 17,36.1243557 C14.0592709,34.4265249 11.8878575,31.770095 10.7899804,28.6370725 L8.41333319,29.5021014 L10.2949608,23.7592512 L15.4278041,26.9490428 L12.6695205,27.9529759 Z" id="Combined-Shape" fill="#003863" fill-rule="nonzero"></path>
        <path d="M18.082398,23.0033461 C18.235225,22.0892282 18.5947315,21.2451117 19.1112437,20.5206706 C19.0903356,20.5029327 19.0699843,20.4841979 19.0502525,20.4644661 L18.3431458,19.7573593 C17.9526215,19.366835 17.9526215,18.73367 18.3431458,18.3431458 C18.73367,17.9526215 19.366835,17.9526215 19.7573593,18.3431458 L20.4644661,19.0502525 C20.4841979,19.0699843 20.5029327,19.0903356 20.5206706,19.1112437 C21.2451117,18.5947315 22.0892282,18.235225 23.0033461,18.082398 C23.0011299,18.0552249 23,18.0277444 23,18 L23,17 C23,16.4477153 23.4477153,16 24,16 C24.5522847,16 25,16.4477153 25,17 L25,18 C25,18.0277444 24.9988701,18.0552249 24.9966539,18.082398 C25.9107718,18.235225 26.7548883,18.5947315 27.4793294,19.1112437 C27.4970673,19.0903356 27.5158021,19.0699843 27.5355339,19.0502525 L28.2426407,18.3431458 C28.633165,17.9526215 29.26633,17.9526215 29.6568542,18.3431458 C30.0473785,18.73367 30.0473785,19.366835 29.6568542,19.7573593 L28.9497475,20.4644661 C28.9300157,20.4841979 28.9096644,20.5029327 28.8887563,20.5206706 C29.4052685,21.2451117 29.764775,22.0892282 29.917602,23.0033461 C29.9447751,23.0011299 29.9722556,23 30,23 L31,23 C31.5522847,23 32,23.4477153 32,24 C32,24.5522847 31.5522847,25 31,25 L30,25 C29.9722556,25 29.9447751,24.9988701 29.917602,24.9966539 C29.764775,25.9107718 29.4052685,26.7548883 28.8887563,27.4793294 C28.9096644,27.4970673 28.9300157,27.5158021 28.9497475,27.5355339 L29.6568542,28.2426407 C30.0473785,28.633165 30.0473785,29.26633 29.6568542,29.6568542 C29.26633,30.0473785 28.633165,30.0473785 28.2426407,29.6568542 L27.5355339,28.9497475 C27.5158021,28.9300157 27.4970673,28.9096644 27.4793294,28.8887563 C26.7548883,29.4052685 25.9107718,29.764775 24.9966539,29.917602 C24.9988701,29.9447751 25,29.9722556 25,30 L25,31 C25,31.5522847 24.5522847,32 24,32 C23.4477153,32 23,31.5522847 23,31 L23,30 C23,29.9722556 23.0011299,29.9447751 23.0033461,29.917602 C22.0892282,29.764775 21.2451117,29.4052685 20.5206706,28.8887563 C20.5029327,28.9096644 20.4841979,28.9300157 20.4644661,28.9497475 L19.7573593,29.6568542 C19.366835,30.0473785 18.73367,30.0473785 18.3431458,29.6568542 C17.9526215,29.26633 17.9526215,28.633165 18.3431458,28.2426407 L19.0502525,27.5355339 C19.0699843,27.5158021 19.0903356,27.4970673 19.1112437,27.4793294 C18.5947315,26.7548883 18.235225,25.9107718 18.082398,24.9966539 C18.0552249,24.9988701 18.0277444,25 18,25 L17,25 C16.4477153,25 16,24.5522847 16,24 C16,23.4477153 16.4477153,23 17,23 L18,23 C18.0277444,23 18.0552249,23.0011299 18.082398,23.0033461 Z M24,27 C25.6568542,27 27,25.6568542 27,24 C27,22.3431458 25.6568542,21 24,21 C22.3431458,21 21,22.3431458 21,24 C21,25.6568542 22.3431458,27 24,27 Z M24,25 C23.4477153,25 23,24.5522847 23,24 C23,23.4477153 23.4477153,23 24,23 C24.5522847,23 25,23.4477153 25,24 C25,24.5522847 24.5522847,25 24,25 Z" id="Combined-Shape-Copy" fill="#008BBF"></path>
    </g>
</svg>