<svg width="16" height="16" viewBox="0 0 16 16" fill="none" xmlns="http://www.w3.org/2000/svg">
<path fill-rule="evenodd" clip-rule="evenodd" d="M6.25806 4.1398L6.19526 4.19526L2.86192 7.5286C2.6216 7.76892 2.60312 8.14707 2.80647 8.4086L2.86192 8.4714L6.19526 11.8047C6.45561 12.0651 6.87772 12.0651 7.13807 11.8047C7.37839 11.5644 7.39688 11.1863 7.19353 10.9247L7.13807 10.8619L4.94333 8.66667H12.6667C13.0349 8.66667 13.3333 8.36819 13.3333 8C13.3333 7.63181 13.0349 7.33333 12.6667 7.33333H4.94333L7.13807 5.13807C7.37839 4.89775 7.39688 4.51959 7.19353 4.25807L7.13807 4.19526C6.89774 3.95494 6.51959 3.93645 6.25806 4.1398Z" fill="#008BBF"/>
</svg>
