<?xml version="1.0" encoding="UTF-8"?>
<svg width="200px" height="183px" viewBox="0 0 200 183" version="1.1" xmlns="http://www.w3.org/2000/svg" xmlns:xlink="http://www.w3.org/1999/xlink">
    <!-- Generator: Sketch 59.1 (86144) - https://sketch.com -->
    <title>blue-elephant@2x</title>
    <desc>Created with Sketch.</desc>
    <g id="Errors" stroke="none" stroke-width="1" fill="none" fill-rule="evenodd">
        <g id="Maintenance-2" transform="translate(-412.000000, -218.000000)">
            <g id="blue-elephant" transform="translate(412.000000, 218.000000)">
                <g id="Group" transform="translate(0.000000, 0.418552)">
                    <path d="M118.823529,9.53587278 C120.352941,9.06496548 146.352941,-5.06225345 160,2.00135602 C173.647059,9.06496548 203.411765,42.3816568 199.411765,79.5833333 C196.352941,84.4101331 191.529412,78.5237919 193.294118,87.7064842 C193.529412,91.7091963 193.529412,93.9460059 193.529412,93.9460059 C193.529412,93.9460059 174.352941,105.718688 171.529412,113.017751 C168.705882,120.316815 164,144.097633 151.529412,144.333087 C151.529412,144.333087 134.705882,152.809418 121.411765,115.490015 L111.411765,58.5102318 L118.823529,9.53587278 Z" id="Path" fill="#008BC0" fill-rule="nonzero"></path>
                    <path d="M78.4705882,115.372288 C65.1764706,152.691691 48.3529412,144.21536 48.3529412,144.21536 C36,143.979906 31.1764706,120.199088 28.3529412,112.900025 C25.5294118,105.600962 6.35294118,93.8282791 6.35294118,93.8282791 C6.35294118,93.8282791 6.35294118,91.7091963 6.58823529,87.5887574 C8.35294118,78.5237919 3.52941176,84.2924063 0.470588235,79.4656065 C-3.52941176,42.3816568 26.3529412,9.06496548 40,2.00135602 C53.6470588,-5.06225345 79.6470588,9.06496548 81.1764706,9.53587278 L92.2352941,58.0393245 L78.4705882,115.372288 Z" id="Path" fill="#008BC0" fill-rule="nonzero"></path>
                    <path d="M110.823529,16.7172091 C112.117647,16.2463018 134.470588,4.12043886 146.235294,10.2422337 C158,16.3640286 183.529412,44.9716469 180.117647,76.9933432 C177.529412,81.1137821 173.411765,76.1692554 174.941176,83.9392258 C175.176471,87.4710306 175.176471,89.2369329 175.176471,89.2369329 C175.176471,89.2369329 158.705882,99.3614398 156.235294,105.600962 C153.882353,111.95821 149.764706,132.324951 139.058824,132.560404 C139.058824,132.560404 124.588235,139.859467 113.176471,107.720044 L104.588235,58.7456854 L110.823529,16.7172091 Z" id="Path" fill="#F9F9F9" fill-rule="nonzero" opacity="0.21"></path>
                    <path d="M86.1176471,16.7172091 C84.8235294,16.2463018 62.4705882,4.12043886 50.7058824,10.2422337 C38.9411765,16.3640286 13.4117647,44.9716469 16.8235294,76.9933432 C19.4117647,81.1137821 23.5294118,76.1692554 22,83.9392258 C21.7647059,87.4710306 21.7647059,89.2369329 21.7647059,89.2369329 C21.7647059,89.2369329 38.2352941,99.3614398 40.7058824,105.600962 C43.0588235,111.95821 47.1764706,132.324951 57.8823529,132.560404 C57.8823529,132.560404 72.3529412,139.859467 83.7647059,107.720044 L92.3529412,58.7456854 L86.1176471,16.7172091 Z" id="Path" fill="#F9F9F9" fill-rule="nonzero" opacity="0.21"></path>
                    <g opacity="0.32" transform="translate(116.470588, 9.418146)" fill="#0A4377" fill-rule="nonzero" id="Path">
                        <path d="M0.588235294,0.706360947 C6.82352941,3.76725838 12.1176471,8.59405819 16.4705882,14.1272189 C20.8235294,19.6603797 24.1176471,26.0176282 26.3529412,32.7280572 C27.4117647,36.1421351 28.2352941,39.556213 28.8235294,42.9702909 C29.2941176,46.5020957 29.6470588,50.0339004 29.6470588,53.4479783 C29.6470588,60.5115878 28.8235294,67.4574704 27.1764706,74.2856262 L27.0588235,73.4615385 C27.8823529,75.109714 28.3529412,76.7578895 28.8235294,78.4060651 C29.2941176,80.0542406 29.5294118,81.820143 29.6470588,83.5860454 C29.7647059,85.3519477 29.6470588,87.0001233 29.4117647,88.7660256 C29.1764706,90.4142012 28.5882353,92.0623767 28,93.7105523 C28.3529412,92.0623767 28.5882353,90.4142012 28.5882353,88.7660256 C28.5882353,87.1178501 28.4705882,85.4696746 28.2352941,83.821499 C28,82.1733235 27.5294118,80.6428748 26.9411765,79.112426 C26.3529412,77.5819773 25.7647059,76.0515286 24.9411765,74.7565335 L24.7058824,74.4033531 L24.8235294,73.9324458 C25.8823529,67.2220168 26.4705882,60.3938609 26.2352941,53.683432 C26.1176471,46.973003 25.0588235,40.262574 23.1764706,33.7875986 C21.1764706,27.4303501 18.3529412,21.1908284 14.5882353,15.6576677 C10.8235294,9.88905325 6.23529412,4.70907298 0.588235294,0.706360947 Z"></path>
                    </g>
                    <path d="M143.411765,105.012327 C140.941176,112.311391 136.352941,109.839127 131.882353,104.54142 C131.764706,104.305966 131.529412,104.18824 131.411765,103.952786 L131.411765,115.019107 C96.8235294,141.62537 70.2352941,115.019107 70.2352941,115.019107 L72.4705882,109.603674 C70.8235294,107.720044 69.1764706,105.718688 67.7647059,103.481879 C63.6470588,107.955498 59.7647059,109.36822 57.5294118,102.540064 C53.7647059,90.8851085 56,83.4683185 58,79.7010602 C56.9411765,74.6388067 56.3529412,69.2233728 56.3529412,63.5724852 C56.3529412,30.844428 76,4.3558925 100.235294,4.3558925 C124.470588,4.3558925 144.117647,30.844428 144.117647,63.5724852 C144.117647,69.8120069 143.411765,75.816075 142,81.4669625 C144.235294,84.6455868 147.764706,92.1801036 143.411765,105.012327 Z" id="Path" fill="#008BC0" fill-rule="nonzero"></path>
                    <path d="M132,104.54142 C131.882353,104.776874 131.647059,105.012327 131.529412,105.247781 L131.529412,103.952786 C131.647059,104.18824 131.764706,104.305966 132,104.54142 Z" id="Path" fill="#008BC0" fill-rule="nonzero"></path>
                    <g opacity="0.25" transform="translate(64.490950, 109.485947)" fill="#043949" fill-rule="nonzero" id="Path">
                        <path d="M10.4502262,0 C9.39140271,2.47226331 8.33257919,4.8267998 7.39140271,7.18133629 C6.45022624,9.53587278 5.62669683,11.8904093 4.92081448,14.2449458 C4.21493213,16.5994822 3.50904977,19.0717456 2.92081448,21.5440089 C2.21493213,24.0162722 1.86199095,26.4885355 1.03846154,29.0785256 C0.685520362,27.7835306 0.450226244,26.4885355 0.214932127,25.1935404 C0.0972850679,23.8985454 -0.020361991,22.4858235 0.0972850679,21.1908284 C0.214932127,18.4831114 0.685520362,15.8931213 1.50904977,13.3031312 C2.33257919,10.713141 3.50904977,8.24087771 4.92081448,6.00406805 C6.45022624,3.64953156 8.21493213,1.53044872 10.4502262,0 Z"></path>
                    </g>
                    <g opacity="0.25" transform="translate(125.882353, 110.663215)" fill="#043949" fill-rule="nonzero" id="Path">
                        <path d="M0.941176471,0 C3.17647059,1.53044872 4.94117647,3.64953156 6.35294118,5.88634122 C7.76470588,8.12315089 8.94117647,10.5954142 9.76470588,13.1854043 C10.5882353,15.7753945 11.0588235,18.4831114 11.1764706,21.0731016 C11.2941176,22.3680966 11.1764706,23.7808185 11.0588235,25.0758136 C10.9411765,26.3708087 10.5882353,27.7835306 10.2352941,28.9607988 C9.52941176,26.3708087 9.05882353,23.8985454 8.35294118,21.4262821 C7.76470588,18.9540187 7.05882353,16.5994822 6.35294118,14.1272189 C5.64705882,11.7726824 4.82352941,9.41814596 3.88235294,7.06360947 C2.94117647,4.8267998 2,2.47226331 0.941176471,0 Z"></path>
                    </g>
                    <path d="M81.1764706,81.3492357 L82.8235294,101.009615 C82.8235294,101.009615 49.4117647,127.733605 75.6470588,164.346647 C75.6470588,164.346647 56.7058824,155.281681 52.7058824,127.733605 C48.5882353,100.185528 75.7647059,81.1137821 81.1764706,81.3492357 Z" id="Path" fill="#EDF2F4" fill-rule="nonzero"></path>
                    <path d="M120.470588,81.2315089 L118.823529,102.069157 C118.823529,102.069157 154.117647,130.323595 126.470588,169.173447 C126.470588,169.173447 146.470588,159.637574 150.705882,130.441321 C154.941176,101.245069 126.235294,80.9960552 120.470588,81.2315089 Z" id="Path" fill="#EDF2F4" fill-rule="nonzero"></path>
                    <path d="M92.1176471,76.5224359 L111.411765,76.5224359 C111.411765,76.5224359 100.588235,163.640286 142.470588,171.527983 L135.647059,181.29931 C135.647059,181.29931 68.2352941,163.640286 92.1176471,76.5224359 Z" id="Path" fill="#008BC0" fill-rule="nonzero"></path>
                    <g opacity="0.22" transform="translate(82.352941, 69.458826)" fill="#083C66" fill-rule="nonzero" id="Path">
                        <path d="M0.470588235,7.06360947 C2.58823529,5.06225345 5.17647059,3.53180473 8,2.47226331 C10.7058824,1.41272189 13.7647059,0.824087771 16.7058824,0.824087771 C19.6470588,0.824087771 22.7058824,1.29499507 25.4117647,2.47226331 C26.8235294,2.94317061 28.1176471,3.76725838 29.4117647,4.47361933 C30.1176471,4.8267998 30.5882353,5.2977071 31.1764706,5.7686144 C31.7647059,6.2395217 32.3529412,6.59270217 32.9411765,7.06360947 C31.6470588,6.35724852 30.4705882,5.65088757 29.0588235,4.94452663 C27.7647059,4.3558925 26.4705882,3.64953156 25.0588235,3.29635108 C22.3529412,2.35453649 19.5294118,2.00135602 16.5882353,1.88362919 C13.7647059,1.88362919 10.9411765,2.35453649 8.11764706,3.17862426 C7.41176471,3.41407791 6.70588235,3.64953156 6.11764706,3.88498521 C5.41176471,4.23816568 4.82352941,4.47361933 4.11764706,4.70907298 C2.94117647,5.53316075 1.64705882,6.35724852 0.470588235,7.06360947 Z"></path>
                    </g>
                    <ellipse id="Oval" fill="#008BC0" fill-rule="nonzero" transform="translate(139.178000, 176.457323) rotate(-59.999272) translate(-139.178000, -176.457323) " cx="139.178" cy="176.457323" rx="6.00291892" ry="2.82394646"></ellipse>
                    <g transform="translate(72.941176, 38.849852)" id="Path">
                        <path d="M13.2941176,7.29906312 C13.5294118,8.94723866 12.2352941,10.3599606 10.5882353,10.5954142 C8.94117647,10.8308679 7.52941176,9.53587278 7.29411765,7.88769724" stroke="#000000" stroke-width="1.505"></path>
                        <g opacity="0.4" fill="#083F7C" fill-rule="nonzero">
                            <path d="M16.3529412,0.941814596 C13.8823529,2.11908284 11.4117647,3.06089744 8.82352941,3.76725838 C6.23529412,4.47361933 3.64705882,5.17998028 0.941176471,5.53316075 C3.41176471,4.3558925 5.88235294,3.41407791 8.47058824,2.70771696 C11.0588235,1.88362919 13.6470588,1.29499507 16.3529412,0.941814596 Z"></path>
                        </g>
                    </g>
                    <ellipse id="Oval" fill="#0D478C" fill-rule="nonzero" opacity="0.68" transform="translate(138.738941, 176.235761) rotate(-59.999272) translate(-138.738941, -176.235761) " cx="138.738941" cy="176.235761" rx="5.17898887" ry="2.70628192"></ellipse>
                    <path d="M114.470588,45.9134615 C114.235294,47.5616371 115.529412,48.974359 117.176471,49.2098126 C118.823529,49.4452663 120.235294,48.1502712 120.470588,46.5020957" id="Path" stroke="#000000" stroke-width="1.505"></path>
                    <g opacity="0.4" transform="translate(110.588235, 38.849852)" fill="#083F7C" fill-rule="nonzero" id="Path">
                        <path d="M0.941176471,0.706360947 C3.64705882,1.05954142 6.23529412,1.64817554 8.82352941,2.47226331 C11.4117647,3.29635108 13.8823529,4.12043886 16.3529412,5.2977071 C13.6470588,4.94452663 11.0588235,4.3558925 8.47058824,3.53180473 C5.76470588,2.82544379 3.29411765,1.88362919 0.941176471,0.706360947 Z"></path>
                    </g>
                    <polyline id="Path" stroke="#083F7C" stroke-width="2.2941" opacity="0.4" stroke-linecap="round" stroke-linejoin="round" points="167.882353 153.162599 177.411765 152.338511 168.235294 164.699827 177.882353 163.404832"></polyline>
                    <polyline id="Path" stroke="#083F7C" stroke-width="1.9735" opacity="0.4" stroke-linecap="round" stroke-linejoin="round" points="177.294118 133.502219 186.117647 132.678131 177.764706 142.920365 186.588235 142.684911"></polyline>
                    <polyline id="Path" stroke="#083F7C" stroke-width="1.3854" opacity="0.4" stroke-linecap="round" stroke-linejoin="round" points="152.588235 168.349359 159.529412 167.054364 152.705882 176.237056 160.235294 175.530695"></polyline>
                </g>
            </g>
        </g>
    </g>
</svg>