<?xml version="1.0" encoding="UTF-8"?>
<svg width="128px" height="128px" viewBox="0 0 128 128" version="1.1" xmlns="http://www.w3.org/2000/svg" xmlns:xlink="http://www.w3.org/1999/xlink">
    <!-- Generator: Sketch 51.3 (57544) - http://www.bohemiancoding.com/sketch -->
    <title>check</title>
    <desc>Created with Sketch.</desc>
    <defs></defs>
    <g id="check" stroke="none" stroke-width="1" fill="none" fill-rule="evenodd">
        <path d="M76.9061392,38.5832588 C77.6445082,38.9588953 77.938561,39.8619751 77.5629245,40.6003441 C77.187288,41.3387131 76.2842082,41.6327659 75.5458392,41.2571294 C71.9999532,39.4532018 68.0698645,38.5 64,38.5 C49.9167389,38.5 38.5,49.9167389 38.5,64 C38.5,78.0832611 49.9167389,89.5 64,89.5 C78.0832611,89.5 89.5,78.0832611 89.5,64 C89.5,61.3933399 89.1093186,58.8410319 88.3498651,56.4038313 C88.1034082,55.6129138 88.5447806,54.7719557 89.3356981,54.5254987 C90.1266156,54.2790418 90.9675738,54.7204142 91.2140307,55.5113317 C92.0632664,58.236657 92.5,61.0898224 92.5,64 C92.5,79.7401154 79.7401154,92.5 64,92.5 C48.2598846,92.5 35.5,79.7401154 35.5,64 C35.5,48.2598846 48.2598846,35.5 64,35.5 C68.5454029,35.5 72.9412437,36.5661651 76.9061392,38.5832588 Z M85.1256937,40.0805143 C86.1857964,38.8071925 88.0774107,38.6343443 89.3507324,39.694447 C90.6240542,40.7545497 90.7969024,42.6461639 89.7367997,43.9194857 L65.147162,73.454852 C64.0186237,74.8103739 61.9698442,74.9045004 60.7217696,73.6581665 L50.8801605,63.8302839 C49.7077704,62.6595288 49.7064448,60.7600344 50.8771998,59.5876442 C52.0479548,58.415254 53.9474493,58.4139285 55.1198395,59.5846835 L62.6374605,67.0918194 L85.1256937,40.0805143 Z" id="Combined-Shape" fill="#003863" fill-rule="nonzero"></path>
    </g>
</svg>