<svg width="96" height="97" viewBox="0 0 96 97" fill="none" xmlns="http://www.w3.org/2000/svg">
<path fill-rule="evenodd" clip-rule="evenodd" d="M12.6279 47.6847C13.7211 40.0555 10.3592 32.1493 14.2826 25.5065C19.3593 16.9108 26.5436 6.97195 36.5566 7.16973C46.5384 7.36691 49.9854 20.3936 57.964 26.3693C68.7846 34.4734 89.9949 34.2188 90.6516 47.6847C91.2998 60.974 70.6944 63.0041 60.1494 71.176C51.9492 77.5308 46.8804 88.4301 36.5566 89.606C25.4781 90.8679 12.3784 86.8976 6.86865 77.2449C1.69065 68.1734 11.1477 58.0143 12.6279 47.6847Z" fill="url(#paint0_linear_1584_105132)"/>
<g filter="url(#filter0_d_1584_105132)">
<path fill-rule="evenodd" clip-rule="evenodd" d="M70.5786 76.1169C72.2186 75.8864 73.37 74.3584 73.1406 72.7257L65.789 20.4164C65.5595 18.7838 64.0304 17.625 62.3905 17.8554L56.0211 18.7506L52.2215 19.2846L33.1939 21.9588L29.8848 22.4238L23.0249 23.3879C21.3849 23.6184 20.2418 25.1527 20.4713 26.7854L27.8229 79.0947C28.0523 80.7273 29.573 81.8798 31.213 81.6494L70.5786 76.1169Z" fill="#25567A"/>
<path fill-rule="evenodd" clip-rule="evenodd" d="M32.3852 77.1776L68.2148 72.1421L61.215 22.3366L25.3855 27.3721L32.3852 77.1776Z" fill="white"/>
<path fill-rule="evenodd" clip-rule="evenodd" d="M29.6787 38.9555L46.8434 36.5431L46.6633 35.2619L29.4986 37.6743L29.6787 38.9555Z" fill="#A8ABAC"/>
<path fill-rule="evenodd" clip-rule="evenodd" d="M30.0498 41.5961L41.339 40.0095L41.1589 38.7283L29.8697 40.3149L30.0498 41.5961Z" fill="#A8ABAC"/>
<rect x="51.3293" y="33.9131" width="6.66667" height="6.66667" rx="1" transform="rotate(-8 51.3293 33.9131)" fill="#D8D8D8"/>
<path d="M55.0057 38.7822L51.6593 36.2604L52.6049 35.0055L54.6965 36.5816L58.4791 31.5619L59.7341 32.5075L55.0057 38.7822Z" fill="#529535"/>
<path fill-rule="evenodd" clip-rule="evenodd" d="M31.0664 48.829L49.5514 46.2311L49.3713 44.9499L30.8863 47.5478L31.0664 48.829Z" fill="#A8ABAC"/>
<path fill-rule="evenodd" clip-rule="evenodd" d="M31.4375 51.4696L44.3446 49.6556L44.1646 48.3744L31.2574 50.1884L31.4375 51.4696Z" fill="#A8ABAC"/>
<rect x="52.7173" y="43.7866" width="6.66667" height="6.66667" rx="1" transform="rotate(-8 52.7173 43.7866)" fill="#D8D8D8"/>
<path d="M56.3937 48.6557L53.0472 46.134L53.9929 44.879L56.0844 46.4551L59.8671 41.4354L61.122 42.3811L56.3937 48.6557Z" fill="#529535"/>
<path fill-rule="evenodd" clip-rule="evenodd" d="M32.4541 58.703L47.6382 56.569L47.4581 55.2878L32.274 57.4218L32.4541 58.703Z" fill="#A8ABAC"/>
<path fill-rule="evenodd" clip-rule="evenodd" d="M32.8252 61.3436L41.4075 60.1375L41.2275 58.8563L32.6451 60.0624L32.8252 61.3436Z" fill="#A8ABAC"/>
<rect x="54.105" y="53.6606" width="6.66667" height="6.66667" rx="1" transform="rotate(-8 54.105 53.6606)" fill="#D8D8D8"/>
<path d="M57.7814 58.5298L54.4349 56.008L55.3806 54.7531L57.4721 56.3292L61.2548 51.3094L62.5097 52.2551L57.7814 58.5298Z" fill="#529535"/>
<path fill-rule="evenodd" clip-rule="evenodd" d="M33.8418 68.577L49.1488 66.4258L48.9687 65.1446L33.6617 67.2958L33.8418 68.577Z" fill="#A8ABAC"/>
<path fill-rule="evenodd" clip-rule="evenodd" d="M34.2129 71.2177L51.2638 68.8213L51.0837 67.5401L34.0328 69.9365L34.2129 71.2177Z" fill="#A8ABAC"/>
<rect x="55.4927" y="63.5347" width="6.66667" height="6.66667" rx="1" transform="rotate(-8 55.4927 63.5347)" fill="#D8D8D8"/>
<path d="M59.1691 68.4038L55.8226 65.882L56.7682 64.6271L58.8598 66.2032L62.6424 61.1834L63.8974 62.1291L59.1691 68.4038Z" fill="#529535"/>
<path fill-rule="evenodd" clip-rule="evenodd" d="M42.693 19.6676C41.8178 19.7906 41.0085 19.181 40.8854 18.3057C40.7624 17.4305 41.3724 16.6213 42.2476 16.4983C43.1229 16.3753 43.9321 16.985 44.0551 17.8602C44.1781 18.7356 43.5683 19.5445 42.693 19.6676ZM46.4363 17.1836C45.975 15.1399 44.0157 13.758 41.9041 14.0548C39.7926 14.3515 38.2898 16.22 38.41 18.3116C35.6667 20.2009 34.0677 23.5337 34.5628 27.0565L52.5449 24.5293C52.0498 21.0065 49.5941 18.2436 46.4363 17.1836Z" fill="#008BBF"/>
</g>
<defs>
<filter id="filter0_d_1584_105132" x="17.4419" y="12.0146" width="58.7278" height="73.6641" filterUnits="userSpaceOnUse" color-interpolation-filters="sRGB">
<feFlood flood-opacity="0" result="BackgroundImageFix"/>
<feColorMatrix in="SourceAlpha" type="matrix" values="0 0 0 0 0 0 0 0 0 0 0 0 0 0 0 0 0 0 127 0" result="hardAlpha"/>
<feOffset dy="1"/>
<feGaussianBlur stdDeviation="1.5"/>
<feColorMatrix type="matrix" values="0 0 0 0 0 0 0 0 0 0 0 0 0 0 0 0 0 0 0.396614 0"/>
<feBlend mode="normal" in2="BackgroundImageFix" result="effect1_dropShadow_1584_105132"/>
<feBlend mode="normal" in="SourceGraphic" in2="effect1_dropShadow_1584_105132" result="shape"/>
</filter>
<linearGradient id="paint0_linear_1584_105132" x1="-8.2734" y1="63.4706" x2="76.5466" y2="91.3928" gradientUnits="userSpaceOnUse">
<stop stop-color="#93CB5D" stop-opacity="0.2"/>
<stop offset="1" stop-color="#008BBF" stop-opacity="0.196551"/>
</linearGradient>
</defs>
</svg>
