<svg width="24" height="24" viewBox="0 0 24 24" fill="none" xmlns="http://www.w3.org/2000/svg">
<path fill-rule="evenodd" clip-rule="evenodd" d="M12 1.99988C17.5228 1.99988 22 6.47703 22 11.9999C22 17.5227 17.5228 21.9999 12 21.9999C6.47715 21.9999 2 17.5227 2 11.9999C2 6.47703 6.47715 1.99988 12 1.99988ZM12 3.99988C7.58172 3.99988 4 7.5816 4 11.9999C4 16.4182 7.58172 19.9999 12 19.9999C16.4183 19.9999 20 16.4182 20 11.9999C20 7.5816 16.4183 3.99988 12 3.99988ZM12 5.99988C12.5128 5.99988 12.9355 6.38592 12.9933 6.88326L13 6.99988V11.5849L15.7071 14.2928C16.0676 14.6533 16.0953 15.2205 15.7903 15.6128L15.7071 15.707C15.3466 16.0675 14.7794 16.0952 14.3871 15.7902L14.2929 15.707L11.2929 12.707C11.1366 12.5507 11.0374 12.348 11.0087 12.1313L11 11.9999V6.99988C11 6.44759 11.4477 5.99988 12 5.99988Z" fill="#609042"/>
</svg>
