<svg width="96" height="96" viewBox="0 0 96 96" fill="none" xmlns="http://www.w3.org/2000/svg">
<path fill-rule="evenodd" clip-rule="evenodd" d="M12.6279 47.1847C13.7211 39.5555 10.3592 31.6493 14.2826 25.0065C19.3593 16.4108 26.5436 6.47195 36.5566 6.66973C46.5384 6.86691 49.9854 19.8936 57.964 25.8693C68.7846 33.9734 89.9949 33.7188 90.6516 47.1847C91.2998 60.474 70.6944 62.5041 60.1494 70.676C51.9492 77.0308 46.8804 87.9301 36.5566 89.106C25.4781 90.3679 12.3784 86.3976 6.86865 76.7449C1.69065 67.6734 11.1477 57.5143 12.6279 47.1847Z" fill="url(#paint0_linear_1584_105153)"/>
<g filter="url(#filter0_d_1584_105153)">
<mask id="mask0_1584_105153" style="mask-type:luminance" maskUnits="userSpaceOnUse" x="6" y="37" width="30" height="29">
<path fill-rule="evenodd" clip-rule="evenodd" d="M6.66675 37.3335H36.0001V65.3335H6.66675V37.3335Z" fill="white"/>
</mask>
<g mask="url(#mask0_1584_105153)">
<path fill-rule="evenodd" clip-rule="evenodd" d="M31.3589 65.3333C31.906 65.3333 32.3479 64.8878 32.3479 64.3418C32.3479 61.603 32.3523 54.8805 32.3523 52.1329C32.3523 52.0936 32.3523 52.0543 32.3479 52.015H34.6979C35.1399 52.015 35.5206 51.8141 35.7744 51.4428C36.0195 51.0802 36.0676 50.6521 35.9057 50.2372C35.7 49.7217 35.3981 49.2718 35.013 48.9267L22.7993 37.941C21.8934 37.1285 20.7907 37.1285 19.8804 37.9366L7.65796 48.9136C7.26849 49.2587 6.97092 49.7086 6.76086 50.2241C6.59895 50.639 6.64708 51.0627 6.89652 51.434C7.14596 51.801 7.52668 52.0019 7.96867 52.0019H10.3143C10.3099 52.0412 10.3099 52.0849 10.3099 52.1242C10.3099 54.8674 10.3055 61.5986 10.3011 64.3331C10.3011 64.8747 10.7519 65.3202 11.2945 65.3246C22.7818 65.329 19.8585 65.3246 31.3589 65.3333Z" fill="#008BBF"/>
</g>
<path fill-rule="evenodd" clip-rule="evenodd" d="M21.3335 65.3248L32.272 65.3335C32.8685 65.3335 33.3553 64.8879 33.3553 64.3419C33.3553 61.6031 33.3601 54.8805 33.3601 52.1329C33.3601 52.0936 33.3601 52.0542 33.3553 52.0149H35.9134C36.3954 52.0149 36.8106 51.814 37.0874 51.4427C37.3547 51.0801 37.4072 50.6521 37.2306 50.2371C37.0063 49.7216 36.677 49.2717 36.257 48.9266L22.937 37.9407C22.4407 37.5388 21.8919 37.3335 21.3478 37.3335L21.3335 65.3248Z" fill="#008BBF"/>
<path fill-rule="evenodd" clip-rule="evenodd" d="M17.3335 63.9953L26.657 64L26.6652 54.0053C26.6661 52.9005 25.771 52.0042 24.6662 52.0037L19.3386 52.001C18.2339 52.0004 17.338 52.8955 17.3376 54.0002L17.3335 63.9953Z" fill="white"/>
</g>
<g filter="url(#filter1_d_1584_105153)">
<mask id="mask1_1584_105153" style="mask-type:luminance" maskUnits="userSpaceOnUse" x="58" y="37" width="30" height="29">
<path fill-rule="evenodd" clip-rule="evenodd" d="M58.6667 37.3335H88.0001V65.3335H58.6667V37.3335Z" fill="white"/>
</mask>
<g mask="url(#mask1_1584_105153)">
<path fill-rule="evenodd" clip-rule="evenodd" d="M83.3589 65.3333C83.9059 65.3333 84.3479 64.8878 84.3479 64.3418C84.3479 61.603 84.3523 54.8805 84.3523 52.1329C84.3523 52.0936 84.3523 52.0543 84.3479 52.015H86.6979C87.1399 52.015 87.5206 51.8141 87.7744 51.4428C88.0195 51.0802 88.0676 50.6521 87.9057 50.2372C87.7 49.7217 87.3981 49.2718 87.013 48.9267L74.7993 37.941C73.8934 37.1285 72.7906 37.1285 71.8804 37.9366L59.658 48.9136C59.2685 49.2587 58.9709 49.7086 58.7609 50.2241C58.5989 50.639 58.6471 51.0627 58.8965 51.434C59.146 51.801 59.5267 52.0019 59.9687 52.0019H62.3143C62.3099 52.0412 62.3099 52.0849 62.3099 52.1242C62.3099 54.8674 62.3055 61.5986 62.3011 64.3331C62.3011 64.8747 62.7519 65.3202 63.2945 65.3246C74.7818 65.329 71.8585 65.3246 83.3589 65.3333Z" fill="#008BBF"/>
</g>
<path fill-rule="evenodd" clip-rule="evenodd" d="M73.3335 65.3248L84.272 65.3335C84.8685 65.3335 85.3553 64.8879 85.3553 64.3419C85.3553 61.6031 85.3601 54.8805 85.3601 52.1329C85.3601 52.0936 85.3601 52.0542 85.3553 52.0149H87.9134C88.3954 52.0149 88.8106 51.814 89.0874 51.4427C89.3547 51.0801 89.4072 50.6521 89.2306 50.2371C89.0063 49.7216 88.677 49.2717 88.257 48.9266L74.937 37.9407C74.4407 37.5388 73.8919 37.3335 73.3478 37.3335L73.3335 65.3248Z" fill="#008BBF"/>
<path fill-rule="evenodd" clip-rule="evenodd" d="M69.3335 63.9953L78.657 64L78.6652 54.0053C78.6661 52.9005 77.771 52.0042 76.6662 52.0037L71.3386 52.001C70.2339 52.0004 69.338 52.8955 69.3376 54.0002L69.3335 63.9953Z" fill="white"/>
</g>
<g filter="url(#filter2_d_1584_105153)">
<mask id="mask2_1584_105153" style="mask-type:luminance" maskUnits="userSpaceOnUse" x="22" y="24" width="52" height="48">
<path fill-rule="evenodd" clip-rule="evenodd" d="M22.6667 24H73.3334V72H22.6667V24Z" fill="white"/>
</mask>
<g mask="url(#mask2_1584_105153)">
<path fill-rule="evenodd" clip-rule="evenodd" d="M65.3169 72C66.2617 72 67.0252 71.2362 67.0252 70.3002C67.0252 65.6051 67.0327 54.0808 67.0327 49.3707C67.0327 49.3033 67.0327 49.236 67.0252 49.1686H71.0842C71.8476 49.1686 72.5052 48.8241 72.9436 48.1876C73.3669 47.5661 73.4501 46.8322 73.1704 46.1209C72.8152 45.2373 72.2936 44.466 71.6284 43.8744L50.532 25.0416C48.9674 23.6488 47.0626 23.6488 45.4904 25.0341L24.3788 43.8519C23.7061 44.4435 23.1921 45.2148 22.8293 46.0984C22.5496 46.8098 22.6328 47.5361 23.0636 48.1726C23.4945 48.8016 24.1521 49.1461 24.9155 49.1461H28.967C28.9594 49.2135 28.9594 49.2884 28.9594 49.3558C28.9594 54.0583 28.9519 65.5976 28.9443 70.2852C28.9443 71.2138 29.7229 71.9776 30.6601 71.9851C50.5018 71.9925 45.4526 71.9851 65.3169 72Z" fill="#25567A"/>
</g>
<path fill-rule="evenodd" clip-rule="evenodd" d="M48 71.985L64.4077 72C65.3026 72 66.0328 71.2362 66.0328 70.3002C66.0328 65.605 66.0399 54.0805 66.0399 49.3704C66.0399 49.303 66.0399 49.2356 66.0328 49.1682H69.8698C70.5928 49.1682 71.2157 48.8237 71.6309 48.1872C72.0317 47.5657 72.1105 46.8318 71.8456 46.1204C71.5092 45.2368 71.0152 44.4655 70.3852 43.8739L50.4053 25.0409C49.6608 24.352 48.8376 24 48.0215 24L48 71.985Z" fill="#25567A"/>
<path fill-rule="evenodd" clip-rule="evenodd" d="M40 70.6587L54.6512 70.6665L54.6651 52.6748C54.666 51.57 53.7709 50.6738 52.6662 50.6732L42.008 50.6676C40.9033 50.667 40.0074 51.5621 40.0069 52.6668L40 70.6587Z" fill="white"/>
</g>
<defs>
<filter id="filter0_d_1584_105153" x="3.66675" y="35.3335" width="36.6667" height="34" filterUnits="userSpaceOnUse" color-interpolation-filters="sRGB">
<feFlood flood-opacity="0" result="BackgroundImageFix"/>
<feColorMatrix in="SourceAlpha" type="matrix" values="0 0 0 0 0 0 0 0 0 0 0 0 0 0 0 0 0 0 127 0" result="hardAlpha"/>
<feOffset dy="1"/>
<feGaussianBlur stdDeviation="1.5"/>
<feColorMatrix type="matrix" values="0 0 0 0 0 0 0 0 0 0 0 0 0 0 0 0 0 0 0.396614 0"/>
<feBlend mode="normal" in2="BackgroundImageFix" result="effect1_dropShadow_1584_105153"/>
<feBlend mode="normal" in="SourceGraphic" in2="effect1_dropShadow_1584_105153" result="shape"/>
</filter>
<filter id="filter1_d_1584_105153" x="55.6667" y="35.3335" width="36.6667" height="34" filterUnits="userSpaceOnUse" color-interpolation-filters="sRGB">
<feFlood flood-opacity="0" result="BackgroundImageFix"/>
<feColorMatrix in="SourceAlpha" type="matrix" values="0 0 0 0 0 0 0 0 0 0 0 0 0 0 0 0 0 0 127 0" result="hardAlpha"/>
<feOffset dy="1"/>
<feGaussianBlur stdDeviation="1.5"/>
<feColorMatrix type="matrix" values="0 0 0 0 0 0 0 0 0 0 0 0 0 0 0 0 0 0 0.396614 0"/>
<feBlend mode="normal" in2="BackgroundImageFix" result="effect1_dropShadow_1584_105153"/>
<feBlend mode="normal" in="SourceGraphic" in2="effect1_dropShadow_1584_105153" result="shape"/>
</filter>
<filter id="filter2_d_1584_105153" x="19.6667" y="22" width="56.6667" height="54" filterUnits="userSpaceOnUse" color-interpolation-filters="sRGB">
<feFlood flood-opacity="0" result="BackgroundImageFix"/>
<feColorMatrix in="SourceAlpha" type="matrix" values="0 0 0 0 0 0 0 0 0 0 0 0 0 0 0 0 0 0 127 0" result="hardAlpha"/>
<feOffset dy="1"/>
<feGaussianBlur stdDeviation="1.5"/>
<feColorMatrix type="matrix" values="0 0 0 0 0 0 0 0 0 0 0 0 0 0 0 0 0 0 0.396614 0"/>
<feBlend mode="normal" in2="BackgroundImageFix" result="effect1_dropShadow_1584_105153"/>
<feBlend mode="normal" in="SourceGraphic" in2="effect1_dropShadow_1584_105153" result="shape"/>
</filter>
<linearGradient id="paint0_linear_1584_105153" x1="-8.2734" y1="62.9706" x2="76.5466" y2="90.8928" gradientUnits="userSpaceOnUse">
<stop stop-color="#93CB5D" stop-opacity="0.2"/>
<stop offset="1" stop-color="#008BBF" stop-opacity="0.196551"/>
</linearGradient>
</defs>
</svg>
