<svg width="20" height="20" viewBox="0 0 20 20" fill="none" xmlns="http://www.w3.org/2000/svg">
    <path fill-rule="evenodd" clip-rule="evenodd" d="M18.333 6.667a2.5 2.5 0 0 0-2.5-2.5H4.167a2.5 2.5 0 0 0-2.5 2.5v6.666a2.5 2.5 0 0 0 2.5 2.5h11.666a2.5 2.5 0 0 0 2.5-2.5V6.667zm-15 6.666V8.75h13.334v4.583l-.006.098a.833.833 0 0 1-.828.736H4.167l-.097-.006a.833.833 0 0 1-.737-.828zm0-5.833h13.334v-.833a.833.833 0 0 0-.736-.828l-.098-.006H4.167a.833.833 0 0 0-.828.737l-.006.097V7.5zm1.834 3.333a1 1 0 0 0-1 1v.5a1 1 0 0 0 1 1H6.5a1 1 0 0 0 1-1v-.5a1 1 0 0 0-1-1H5.167z" fill="#A8ABAC"/>
</svg>
