<?xml version="1.0" encoding="UTF-8"?>
<svg width="48px" height="48px" viewBox="0 0 48 48" version="1.1" xmlns="http://www.w3.org/2000/svg" xmlns:xlink="http://www.w3.org/1999/xlink">
    <!-- Generator: Sketch 54.1 (76490) - https://sketchapp.com -->
    <title>cvs</title>
    <desc>Created with Sketch.</desc>
    <g id="Page-1" stroke="none" stroke-width="1" fill="none" fill-rule="evenodd">
        <g id="graphics-/-icons-/-cvs">
            <path d="M30,14.252035 C33.4504544,15.1401206 36,18.2723211 36,22 L36,40 C36,42.209139 34.209139,44 32,44 L16,44 C13.790861,44 12,42.209139 12,40 L12,22 C12,18.2723211 14.5495456,15.1401206 18,14.252035 L18,11 L30,11 L30,14.252035 Z M16,19 C14.8954305,19 14,19.8954305 14,21 L14,39 C14,40.1045695 14.8954305,41 16,41 L32,41 C33.1045695,41 34,40.1045695 34,39 L34,21 C34,19.8954305 33.1045695,19 32,19 L16,19 Z" id="Combined-Shape" fill="#003863"></path>
            <path d="M18,5 L30,5 C31.1045695,5 32,5.8954305 32,7 L32,9 C32,9.55228475 31.5522847,10 31,10 L17,10 C16.4477153,10 16,9.55228475 16,9 L16,7 C16,5.8954305 16.8954305,5 18,5 Z" id="Rectangle" fill="#008BBF"></path>
            <path d="M26.4789066,30.868597 L28.6260421,28 L32.3,28 L28.2989826,33.3025531 L32.5594482,39 L29,39 L26.4724786,35.7232211 L24,39 L20.3925781,39 L24.6315947,33.3366263 L21.2865671,29 L19,29 L19,33 L16,33 L16,21 L19,21 L23,21 C25.209139,21 27,22.790861 27,25 C27,26.5726002 26.0924879,27.9332395 24.7725996,28.5867822 L26.4789066,30.868597 Z M19,24 L19,26 L23,26 C23.5522847,26 24,25.5522847 24,25 C24,24.4477153 23.5522847,24 23,24 L19,24 Z" id="Combined-Shape" fill="#008BBF"></path>
        </g>
    </g>
</svg>