<svg width="24" height="24" viewBox="0 0 24 24" fill="none" xmlns="http://www.w3.org/2000/svg">
<g id="Delivery">
<path id="Union" fill-rule="evenodd" clip-rule="evenodd" d="M14 7H4V15H4.17071C4.58254 13.8348 5.69378 13 7 13C8.30622 13 9.41746 13.8348 9.82929 15H14L14 12V8L14 7ZM3 17H4.17071C4.58254 18.1652 5.69378 19 7 19C8.30622 19 9.41746 18.1652 9.82929 17H14H14.1707C14.5825 18.1652 15.6938 19 17 19C18.3062 19 19.4175 18.1652 19.8293 17H21C21.5523 17 22 16.5523 22 16V15V13V12.2361C22 12.0808 21.9639 11.9277 21.8944 11.7889L20.5528 9.10557C20.214 8.428 19.5215 8 18.7639 8H16V7C16 5.89543 15.1046 5 14 5H4C2.89543 5 2 5.89543 2 7V16C2 16.5523 2.44772 17 3 17ZM19.7639 12H16V10H18.7639L19.7639 12ZM18.5 16C18.5 16.8284 17.8284 17.5 17 17.5C16.1716 17.5 15.5 16.8284 15.5 16C15.5 15.1716 16.1716 14.5 17 14.5C17.8284 14.5 18.5 15.1716 18.5 16ZM7 17.5C7.82843 17.5 8.5 16.8284 8.5 16C8.5 15.1716 7.82843 14.5 7 14.5C6.17157 14.5 5.5 15.1716 5.5 16C5.5 16.8284 6.17157 17.5 7 17.5ZM6 9C5.44772 9 5 9.44772 5 10C5 10.5523 5.44772 11 6 11H12C12.5523 11 13 10.5523 13 10C13 9.44772 12.5523 9 12 9H6Z" fill="#A8ABAC"/>
</g>
</svg>
