<svg xmlns="http://www.w3.org/2000/svg" width="16" height="16" viewBox="0 0 16 16" fill="none">
<path fill-rule="evenodd" clip-rule="evenodd" d="M14.6667 10.5C15.094 10.5 15.4463 10.8217 15.4944 11.2361L15.5 11.3333V13C15.5 14.3314 14.4592 15.4197 13.1469 15.4958L13 15.5H3C1.6686 15.5 0.580283 14.4592 0.504244 13.1469L0.5 13V11.3333C0.5 10.8731 0.873096 10.5 1.33333 10.5C1.7607 10.5 2.11292 10.8217 2.16106 11.2361L2.16667 11.3333V13C2.16667 13.4274 2.48837 13.7796 2.90282 13.8277L3 13.8333H13C13.4274 13.8333 13.7796 13.5116 13.8277 13.0972L13.8333 13V11.3333C13.8333 10.8731 14.2064 10.5 14.6667 10.5ZM8 0.5C8.42736 0.5 8.77959 0.8217 8.82773 1.23615L8.83333 1.33333V9.32L10.7441 7.41074C11.0695 7.08531 11.5972 7.08531 11.9226 7.41074C12.223 7.71115 12.2461 8.18384 11.9919 8.51075L11.9226 8.58926L8.58926 11.9226L8.49609 12.0031L8.40339 12.0628L8.35258 12.0886L8.26012 12.1252L8.16896 12.1495L8.07151 12.1636L8 12.1667L7.90282 12.1611L7.80892 12.1447L7.71532 12.1168L7.64732 12.0886L7.56608 12.045L7.48925 11.9919C7.45859 11.9677 7.43398 11.9458 7.41074 11.9226L4.07741 8.58926C3.75197 8.26382 3.75197 7.73618 4.07741 7.41074C4.37781 7.11034 4.85051 7.08723 5.17742 7.34142L5.25592 7.41074L7.16667 9.32083V1.33333C7.16667 0.873096 7.53976 0.5 8 0.5Z" fill="#474B55"/>
</svg>