<svg width="16" height="16" viewBox="0 0 16 16" fill="none" xmlns="http://www.w3.org/2000/svg">
<path fill-rule="evenodd" clip-rule="evenodd" d="M9.3335 1.33334H5.3335C4.22893 1.33334 3.3335 2.22877 3.3335 3.33334V12.6667C3.3335 13.7712 4.22893 14.6667 5.3335 14.6667H12.0002C13.1047 14.6667 14.0002 13.7712 14.0002 12.6667V6.00001V4.66668C14.0002 4.48987 13.9299 4.3203 13.8049 4.19527L11.1382 1.52861C11.0132 1.40358 10.8436 1.33334 10.6668 1.33334H9.3335ZM9.3335 2.66668H5.3335C4.96531 2.66668 4.66683 2.96515 4.66683 3.33334V12.6667C4.66683 13.0349 4.96531 13.3333 5.3335 13.3333H12.0002C12.3684 13.3333 12.6668 13.0349 12.6668 12.6667V6.00001H10.6668C9.96392 6.00001 9.38805 5.45609 9.33715 4.76618L9.3335 4.66668V2.66668ZM12.3902 4.66668L10.6668 2.94334V4.66668H12.3902Z" fill="#008BBF"/>
</svg>
