<svg width="16" height="16" viewBox="0 0 16 16" fill="none" xmlns="http://www.w3.org/2000/svg">
<path d="M4.64982 14.6666H11.3518C12.6629 14.6666 13.3351 13.9983 13.3351 12.6879V7.09247H8.72293C7.91762 7.09247 7.53827 6.719 7.53827 5.92621V1.33325H4.64982C3.3387 1.33325 2.6665 2.00156 2.6665 3.31196V12.6879C2.6665 14.0048 3.3387 14.6666 4.64982 14.6666ZM8.76952 6.2276H13.2619C13.222 5.95897 13.029 5.70344 12.7228 5.3955L9.26202 1.92948C8.96252 1.62809 8.68965 1.43808 8.42344 1.39877V5.88034C8.42344 6.10966 8.53658 6.2276 8.76952 6.2276ZM5.54164 9.805C5.28874 9.805 5.10239 9.62154 5.10239 9.38567C5.10239 9.15635 5.28874 8.97289 5.54164 8.97289H10.48C10.7262 8.97289 10.9126 9.15635 10.9126 9.38567C10.9126 9.62154 10.7262 9.805 10.48 9.805H5.54164ZM5.54164 12.1441C5.28874 12.1441 5.10239 11.9672 5.10239 11.7313C5.10239 11.4954 5.28874 11.312 5.54164 11.312H10.48C10.7262 11.312 10.9126 11.4954 10.9126 11.7313C10.9126 11.9672 10.7262 12.1441 10.48 12.1441H5.54164Z" fill="#008BBF"/>
</svg>
