<svg xmlns="http://www.w3.org/2000/svg" width="17" height="18" viewBox="0 0 17 18" fill="none">
<path fill-rule="evenodd" clip-rule="evenodd" d="M5.6665 0.666687H10.6665H12.3332C12.5542 0.666687 12.7661 0.754484 12.9224 0.910765L16.2558 4.2441C16.412 4.40038 16.4998 4.61234 16.4998 4.83335V6.50002V14.8334C16.4998 16.2141 15.3805 17.3334 13.9998 17.3334H5.6665C4.28579 17.3334 3.1665 16.2141 3.1665 14.8334L2.33317 14.8334C1.4127 14.8334 0.666504 14.0872 0.666504 13.1667V9.00002C0.666504 8.07955 1.4127 7.33335 2.33317 7.33335H3.1665V3.16669C3.1665 1.78598 4.28579 0.666687 5.6665 0.666687ZM4.83317 8.16669H3.1665H2.33317C1.87293 8.16669 1.49984 8.53978 1.49984 9.00002V13.1667C1.49984 13.6269 1.87293 14 2.33317 14H3.1665H4.83317H12.3332C12.7934 14 13.1665 13.6269 13.1665 13.1667V9.00002C13.1665 8.53978 12.7934 8.16669 12.3332 8.16669H4.83317ZM4.83317 14.8334H12.3332C13.2536 14.8334 13.9998 14.0872 13.9998 13.1667V9.00002C13.9998 8.07955 13.2536 7.33335 12.3332 7.33335H4.83317V3.16669C4.83317 2.70645 5.20627 2.33335 5.6665 2.33335H10.6665V4.83335L10.6711 4.95774C10.7347 5.82012 11.4545 6.50002 12.3332 6.50002H14.8332V14.8334C14.8332 15.2936 14.4601 15.6667 13.9998 15.6667H5.6665C5.20627 15.6667 4.83317 15.2936 4.83317 14.8334ZM12.3332 2.67919L14.4873 4.83335H12.3332V2.67919ZM3.80567 12.9917V11.8867H4.41567C5.11067 11.8867 5.58067 11.3667 5.58067 10.6467C5.58067 9.92669 5.11067 9.41669 4.41567 9.41669H2.93067V12.9917H3.80567ZM4.23567 11.1367H3.80567V10.1667H4.25067C4.54067 10.1667 4.69067 10.3617 4.69067 10.6467C4.69067 10.9317 4.54067 11.1367 4.23567 11.1367ZM9.21567 11.1967C9.21567 12.3217 8.49567 12.9917 7.37067 12.9917H6.10067V9.41669H7.37067C8.49567 9.41669 9.21567 10.0717 9.21567 11.1967ZM7.33567 12.2417H6.97567V10.1667H7.33567C7.92567 10.1667 8.31067 10.5167 8.31067 11.1967C8.31067 11.8817 7.94067 12.2417 7.33567 12.2417ZM10.7057 11.6667V12.9917H9.83067V9.41669H12.0207V10.1667H10.7057V10.9167H11.7957V11.6667H10.7057Z" fill="#A8ABAC"/>
</svg>