<svg width="136" height="24" viewBox="0 0 136 24" fill="none" xmlns="http://www.w3.org/2000/svg">
    <g clip-path="url(#p21mdq9y7a)">
        <path d="M132.706 23.506h-.149a1090.015 1090.015 0 0 0-64.825-1.942c-21.535 0-43.335.655-64.823 1.942h-.162c-.61 0-1.184-.23-1.599-.643-.424-.431-.666-1-.666-1.628V2.765c0-1.278 1-2.279 2.265-2.279.058 0 .104.008.162.008A1084.485 1084.485 0 0 0 67.732 2.44c21.523 0 43.335-.655 64.825-1.947.045 0 .103-.008.149-.008 1.276 0 2.266 1.001 2.266 2.278v18.471c0 1.272-.99 2.27-2.266 2.27z" fill="#FFF200"/>
        <path d="M132.706.98h-.126a1079.634 1079.634 0 0 1-64.847 1.956c-21.536 0-43.358-.656-64.859-1.955h-.126a1.76 1.76 0 0 0-1.77 1.783v18.471c0 1.002.781 1.787 1.77 1.787.046 0 .092 0 .126-.011 21.5-1.287 43.323-1.942 64.859-1.942 21.534 0 43.358.655 64.847 1.942a.505.505 0 0 0 .126.011c.989 0 1.783-.785 1.783-1.787V2.764a1.75 1.75 0 0 0-.518-1.266 1.774 1.774 0 0 0-1.265-.517zm0-.981a2.734 2.734 0 0 1 2.759 2.765v18.471A2.73 2.73 0 0 1 132.706 24h-.183a1079.2 1079.2 0 0 0-64.79-1.953c-21.616 0-43.22.655-64.79 1.953h-.195C1.218 24 0 22.795 0 21.235V2.764C0 1.21 1.218-.001 2.748-.001c.07 0 .126.004.195.004 21.57 1.3 43.174 1.944 64.79 1.944 21.604 0 43.207-.644 64.79-1.944.069 0 .126-.004.183-.004z" fill="#C8C7C7"/>
        <path d="M105.674 11.961h-1.139V9.013h.771c.734 0 1.217.08 1.494.362.229.23.344.587.344 1.081 0 1.042-.414 1.505-1.47 1.505zm3.219 2.594-.783-1.252c1.093-.445 1.829-1.457 1.829-3.007 0-1.185-.471-2.1-1.426-2.634-.678-.39-1.668-.539-3.023-.539h-3.656v9.76h2.701v-3.236h.726l1.078 1.741c.38.61.714.967 1.058 1.237.403.282.898.432 1.553.432.529 0 1.15-.173 1.472-.357l.173-1.771c-.184.115-.46.224-.771.224-.402 0-.632-.143-.931-.598zm19.407.431-.114 1.898h-6.679V7.123h2.703v7.863h4.09zm-31.596 0h4.199l-.127 1.898h-6.773V7.123h6.543v1.89h-3.842v1.978h3.152v1.879h-3.151v2.116zm-6.322-7.863h2.209v9.761h-1.703l-3.945-4.68c-.172-.189-.345-.442-.414-.645v5.325H84.31V7.123h1.643l3.98 4.685c.184.211.356.464.448.679V7.123zm-11.199 7.863h4.198l-.126 1.898H76.48V7.123h6.545v1.89h-3.842v1.978h3.14v1.879h-3.14v2.116zm-7.623-3.117h3.69v5.015h-1.586l-.322-.494c-.62.397-1.575.678-2.54.678-3.174 0-4.439-2.22-4.439-5.053 0-3.226 1.725-5.084 4.703-5.084 2.184 0 3.599 1.053 4 3.03l-2.803.472c-.196-.937-.576-1.437-1.358-1.437-1 0-1.667 1.046-1.667 2.896 0 2.048.712 3.118 2.207 3.118.403 0 .864-.104 1.151-.242v-1.346H71.56V11.87zm43.105 1.427.678-2.368c.173-.58.288-1.104.311-1.46h.023c.023.396.196.92.38 1.483l.745 2.345h-2.137zm-.573-6.173-.529 1.89-2.565 7.871h2.634l.529-1.783h3.251l.587 1.783h2.818l-3.508-9.761h-3.217zm12.105.15h.012c.435 0 .792.377.792.848 0 .472-.357.84-.792.84-.448 0-.805-.368-.805-.84 0-.47.357-.849.793-.849zm0 1.843c.55 0 .988-.437.988-.995a.98.98 0 0 0-.976-.998h-.012a.98.98 0 0 0-.977.998.98.98 0 0 0 .977.995zm-.184-1.414c.035 0 .069-.012.139-.012.195 0 .264.098.264.202 0 .132-.126.184-.264.184h-.139v-.374zm0 .512h.127c.138 0 .207.057.241.195.024.15.046.253.081.287h.182c-.023-.034-.046-.103-.079-.276-.011-.16-.08-.252-.184-.264v-.012c.127-.04.217-.12.217-.27 0-.109-.033-.184-.101-.236-.07-.045-.173-.08-.345-.08-.139 0-.219.011-.311.023v1.115h.172v-.482zM56.947 11.96h-1.15V9.013h.782c.736 0 1.207.08 1.494.362.23.23.357.587.357 1.081 0 1.042-.414 1.505-1.483 1.505zm3.219 2.594-.781-1.252c1.091-.445 1.839-1.457 1.839-3.007 0-1.185-.483-2.1-1.438-2.634-.689-.39-1.666-.539-3.023-.539h-3.657v9.76h2.69v-3.236h.726l1.08 1.741c.39.61.713.967 1.07 1.237.402.282.897.432 1.563.432.517 0 1.138-.173 1.46-.357l.173-1.771c-.184.115-.46.224-.77.224-.403 0-.633-.143-.932-.598zm-14.027-1.26.69-2.367c.161-.58.288-1.104.3-1.46h.034c.023.396.184.92.367 1.483l.759 2.345h-2.15zm-.575-6.172-.53 1.89-2.563 7.871h2.645l.517-1.783h3.254l.586 1.783h2.83l-3.52-9.761h-3.22zm-7.577 7.863h4.105l-.126 1.898h-6.68V7.123h2.701v7.863zm-7.646 0h4.093l-.115 1.898h-6.68V7.123h2.702v7.863zm-8.29.012c-1.08 0-1.678-.874-1.678-2.983 0-2.122.598-3.013 1.678-3.013 1.081 0 1.678.89 1.678 3.013 0 2.109-.597 2.983-1.678 2.983zm0-8.067c-2.943 0-4.553 2.082-4.553 5.084 0 2.983 1.61 5.053 4.553 5.053 2.943 0 4.554-2.07 4.554-5.053 0-3.002-1.61-5.084-4.554-5.084zm-10.394 8.067h-.815V9.012h.585c1.645 0 2.587.466 2.587 2.903 0 1.932-.333 3.082-2.357 3.082zm-.55-7.875H7.15v1.89h.988v7.87h3.255c3.15 0 5.461-1.08 5.461-4.784 0-4.035-2.057-4.976-5.748-4.976z" fill="#231F20"/>
    </g>
    <defs>
        <clipPath id="p21mdq9y7a">
            <path fill="#fff" d="M0 0h135.466v24H0z"/>
        </clipPath>
    </defs>
</svg>
