<svg width="168" height="56" viewBox="0 0 168 56" fill="none" xmlns="http://www.w3.org/2000/svg">
<g filter="url(#filter0_d_3457_13013)">
<rect x="8" y="6" width="152" height="40" rx="8" fill="#E6F4F9" shape-rendering="crispEdges"/>
<path fill-rule="evenodd" clip-rule="evenodd" d="M37.3333 28C37.6752 28 37.957 28.2574 37.9955 28.5889L38 28.6667V30C38 31.0651 37.1674 31.9358 36.1175 31.9966L36 32H28C26.9349 32 26.0642 31.1674 26.0034 30.1175L26 30V28.6667C26 28.2985 26.2985 28 26.6667 28C27.0086 28 27.2903 28.2574 27.3288 28.5889L27.3333 28.6667V30C27.3333 30.3419 27.5907 30.6237 27.9223 30.6622L28 30.6667H36C36.3419 30.6667 36.6237 30.4093 36.6622 30.0777L36.6667 30V28.6667C36.6667 28.2985 36.9651 28 37.3333 28ZM32 20C32.3419 20 32.6237 20.2574 32.6622 20.5889L32.6667 20.6667V27.056L34.1953 25.5286C34.4556 25.2682 34.8777 25.2682 35.1381 25.5286C35.3784 25.7689 35.3969 26.1471 35.1935 26.4086L35.1381 26.4714L32.4714 29.1381L32.3969 29.2024L32.3227 29.2502L32.2821 29.2709L32.2081 29.3002L32.1352 29.3196L32.0572 29.3309L32 29.3333L31.9223 29.3288L31.8471 29.3157L31.7723 29.2934L31.7179 29.2709L31.6529 29.236L31.5914 29.1935C31.5669 29.1742 31.5472 29.1567 31.5286 29.1381L28.8619 26.4714C28.6016 26.2111 28.6016 25.7889 28.8619 25.5286C29.1023 25.2883 29.4804 25.2698 29.7419 25.4731L29.8047 25.5286L31.3333 27.0567V20.6667C31.3333 20.2985 31.6318 20 32 20Z" fill="#008BBF"/>
<path d="M47.26 31V21.06H50.648C53.714 21.06 55.716 22.88 55.716 26.016C55.716 29.152 53.714 31 50.648 31H47.26ZM49.066 29.446H50.55C52.566 29.446 53.854 28.256 53.854 26.016C53.854 23.804 52.538 22.614 50.55 22.614H49.066V29.446ZM56.7976 27.43C56.7976 25.246 58.5476 23.692 60.7176 23.692C62.9016 23.692 64.6516 25.246 64.6516 27.43C64.6516 29.628 62.9016 31.168 60.7316 31.168C58.5476 31.168 56.7976 29.628 56.7976 27.43ZM58.6036 27.43C58.6036 28.76 59.5696 29.656 60.7316 29.656C61.8796 29.656 62.8456 28.76 62.8456 27.43C62.8456 26.114 61.8796 25.204 60.7316 25.204C59.5696 25.204 58.6036 26.114 58.6036 27.43ZM67.4796 31L65.2956 23.86H67.1716L68.4176 28.55C68.5156 28.928 68.5576 29.306 68.5576 29.306H68.5856C68.5856 29.306 68.6556 28.928 68.7536 28.55L70.0696 23.874H71.6516L72.9676 28.55C73.0656 28.928 73.1216 29.306 73.1216 29.306H73.1496C73.1496 29.306 73.2056 28.928 73.3036 28.55L74.5496 23.86H76.3976L74.2276 31H72.2536L71.0496 26.926C70.9376 26.548 70.8676 26.156 70.8676 26.156H70.8396C70.8396 26.156 70.7836 26.548 70.6716 26.926L69.4676 31H67.4796ZM77.5777 31V23.86H79.2857V24.686C79.2857 24.952 79.2577 25.176 79.2577 25.176H79.2857C79.5937 24.574 80.3777 23.692 81.8197 23.692C83.4017 23.692 84.2977 24.518 84.2977 26.408V31H82.5337V26.772C82.5337 25.904 82.3097 25.316 81.3997 25.316C80.4477 25.316 79.7477 25.918 79.4817 26.772C79.3837 27.066 79.3557 27.388 79.3557 27.724V31H77.5777ZM86.0656 28.774V21.06H87.8296V28.508C87.8296 29.292 88.0956 29.488 88.5576 29.488C88.6976 29.488 88.8236 29.474 88.8236 29.474V31.028C88.8236 31.028 88.5576 31.07 88.2636 31.07C87.2836 31.07 86.0656 30.818 86.0656 28.774ZM89.6101 27.43C89.6101 25.246 91.3601 23.692 93.5301 23.692C95.7141 23.692 97.4641 25.246 97.4641 27.43C97.4641 29.628 95.7141 31.168 93.5441 31.168C91.3601 31.168 89.6101 29.628 89.6101 27.43ZM91.4161 27.43C91.4161 28.76 92.3821 29.656 93.5441 29.656C94.6921 29.656 95.6581 28.76 95.6581 27.43C95.6581 26.114 94.6921 25.204 93.5441 25.204C92.3821 25.204 91.4161 26.114 91.4161 27.43ZM98.2901 28.942C98.2901 26.674 101.356 26.52 102.518 26.52H102.756V26.422C102.756 25.484 102.168 25.162 101.384 25.162C100.362 25.162 99.4241 25.848 99.4241 25.848L98.7521 24.574C98.7521 24.574 99.8581 23.692 101.552 23.692C103.428 23.692 104.52 24.728 104.52 26.534V31H102.882V30.412C102.882 30.132 102.91 29.908 102.91 29.908H102.882C102.896 29.908 102.336 31.168 100.712 31.168C99.4381 31.168 98.2901 30.37 98.2901 28.942ZM100.082 28.858C100.082 29.334 100.432 29.782 101.16 29.782C102.098 29.782 102.77 28.774 102.77 27.906V27.738H102.462C101.552 27.738 100.082 27.864 100.082 28.858ZM105.881 27.43C105.881 25.162 107.225 23.692 109.115 23.692C110.683 23.692 111.173 24.602 111.173 24.602H111.201C111.201 24.602 111.187 24.42 111.187 24.196V21.06H112.965V31H111.285V30.412C111.285 30.146 111.313 29.95 111.313 29.95H111.285C111.285 29.95 110.683 31.168 109.045 31.168C107.113 31.168 105.881 29.642 105.881 27.43ZM107.673 27.43C107.673 28.788 108.401 29.67 109.451 29.67C110.375 29.67 111.243 28.998 111.243 27.416C111.243 26.31 110.655 25.218 109.465 25.218C108.485 25.218 107.673 26.016 107.673 27.43ZM118.614 31V21.06H122.45C124.312 21.06 125.614 22.362 125.614 24.294C125.614 26.226 124.312 27.57 122.45 27.57H120.42V31H118.614ZM120.42 26.002H122.114C123.164 26.002 123.78 25.33 123.78 24.294C123.78 23.272 123.164 22.614 122.142 22.614H120.42V26.002ZM127.213 31V21.06H130.601C133.667 21.06 135.669 22.88 135.669 26.016C135.669 29.152 133.667 31 130.601 31H127.213ZM129.019 29.446H130.503C132.519 29.446 133.807 28.256 133.807 26.016C133.807 23.804 132.491 22.614 130.503 22.614H129.019V29.446ZM137.563 31V21.06H143.275V22.614H139.369V25.428H142.659V26.982H139.369V31H137.563Z" fill="#008BBF"/>
</g>
<defs>
<filter id="filter0_d_3457_13013" x="0" y="0" width="168" height="56" filterUnits="userSpaceOnUse" color-interpolation-filters="sRGB">
<feFlood flood-opacity="0" result="BackgroundImageFix"/>
<feColorMatrix in="SourceAlpha" type="matrix" values="0 0 0 0 0 0 0 0 0 0 0 0 0 0 0 0 0 0 127 0" result="hardAlpha"/>
<feOffset dy="2"/>
<feGaussianBlur stdDeviation="4"/>
<feComposite in2="hardAlpha" operator="out"/>
<feColorMatrix type="matrix" values="0 0 0 0 0 0 0 0 0 0 0 0 0 0 0 0 0 0 0.23 0"/>
<feBlend mode="normal" in2="BackgroundImageFix" result="effect1_dropShadow_3457_13013"/>
<feBlend mode="normal" in="SourceGraphic" in2="effect1_dropShadow_3457_13013" result="shape"/>
</filter>
</defs>
</svg>
