<svg width="16" height="16" viewBox="0 0 16 16" fill="none" xmlns="http://www.w3.org/2000/svg">
<path fill-rule="evenodd" clip-rule="evenodd" d="M13.3333 10C13.6752 10 13.957 10.2574 13.9955 10.5889L14 10.6667V12C14 13.0651 13.1674 13.9358 12.1175 13.9966L12 14H4C2.93488 14 2.06423 13.1674 2.0034 12.1175L2 12V10.6667C2 10.2985 2.29848 10 2.66667 10C3.00856 10 3.29034 10.2574 3.32885 10.5889L3.33333 10.6667V12C3.33333 12.3419 3.59069 12.6237 3.92225 12.6622L4 12.6667H12C12.3419 12.6667 12.6237 12.4093 12.6622 12.0777L12.6667 12V10.6667C12.6667 10.2985 12.9651 10 13.3333 10ZM8 2C8.34189 2 8.62367 2.25736 8.66218 2.58892L8.66667 2.66667V9.056L10.1953 7.5286C10.4556 7.26825 10.8777 7.26825 11.1381 7.5286C11.3784 7.76892 11.3969 8.14707 11.1935 8.4086L11.1381 8.4714L8.4714 11.1381L8.39687 11.2024L8.32271 11.2502L8.28207 11.2709L8.20809 11.3002L8.13516 11.3196L8.05721 11.3309L8 11.3333L7.92225 11.3288L7.84714 11.3157L7.77226 11.2934L7.71785 11.2709L7.65286 11.236L7.5914 11.1935C7.56687 11.1742 7.54719 11.1567 7.5286 11.1381L4.86193 8.4714C4.60158 8.21105 4.60158 7.78894 4.86193 7.5286C5.10225 7.28827 5.48041 7.26979 5.74193 7.47314L5.80474 7.5286L7.33333 9.05667V2.66667C7.33333 2.29848 7.63181 2 8 2Z" fill="#008BBF"/>
</svg>
