<svg width="152" height="40" viewBox="0 0 152 40" fill="none" xmlns="http://www.w3.org/2000/svg">
<rect width="152" height="40" rx="8" fill="white"/>
<path fill-rule="evenodd" clip-rule="evenodd" d="M29.3333 22C29.6752 22 29.957 22.2574 29.9955 22.5889L30 22.6667V24C30 25.0651 29.1674 25.9358 28.1175 25.9966L28 26H20C18.9349 26 18.0642 25.1674 18.0034 24.1175L18 24V22.6667C18 22.2985 18.2985 22 18.6667 22C19.0086 22 19.2903 22.2574 19.3288 22.5889L19.3333 22.6667V24C19.3333 24.3419 19.5907 24.6237 19.9223 24.6622L20 24.6667H28C28.3419 24.6667 28.6237 24.4093 28.6622 24.0777L28.6667 24V22.6667C28.6667 22.2985 28.9651 22 29.3333 22ZM24 14C24.3419 14 24.6237 14.2574 24.6622 14.5889L24.6667 14.6667V21.056L26.1953 19.5286C26.4556 19.2682 26.8777 19.2682 27.1381 19.5286C27.3784 19.7689 27.3969 20.1471 27.1935 20.4086L27.1381 20.4714L24.4714 23.1381L24.3969 23.2024L24.3227 23.2502L24.2821 23.2709L24.2081 23.3002L24.1352 23.3196L24.0572 23.3309L24 23.3333L23.9223 23.3288L23.8471 23.3157L23.7723 23.2934L23.7179 23.2709L23.6529 23.236L23.5914 23.1935C23.5669 23.1742 23.5472 23.1567 23.5286 23.1381L20.8619 20.4714C20.6016 20.2111 20.6016 19.7889 20.8619 19.5286C21.1023 19.2883 21.4804 19.2698 21.7419 19.4731L21.8047 19.5286L23.3333 21.0567V14.6667C23.3333 14.2985 23.6318 14 24 14Z" fill="#008BBF"/>
<path d="M39.26 25V15.06H42.648C45.714 15.06 47.716 16.88 47.716 20.016C47.716 23.152 45.714 25 42.648 25H39.26ZM41.066 23.446H42.55C44.566 23.446 45.854 22.256 45.854 20.016C45.854 17.804 44.538 16.614 42.55 16.614H41.066V23.446ZM48.7976 21.43C48.7976 19.246 50.5476 17.692 52.7176 17.692C54.9016 17.692 56.6516 19.246 56.6516 21.43C56.6516 23.628 54.9016 25.168 52.7316 25.168C50.5476 25.168 48.7976 23.628 48.7976 21.43ZM50.6036 21.43C50.6036 22.76 51.5696 23.656 52.7316 23.656C53.8796 23.656 54.8456 22.76 54.8456 21.43C54.8456 20.114 53.8796 19.204 52.7316 19.204C51.5696 19.204 50.6036 20.114 50.6036 21.43ZM59.4796 25L57.2956 17.86H59.1716L60.4176 22.55C60.5156 22.928 60.5576 23.306 60.5576 23.306H60.5856C60.5856 23.306 60.6556 22.928 60.7536 22.55L62.0696 17.874H63.6516L64.9676 22.55C65.0656 22.928 65.1216 23.306 65.1216 23.306H65.1496C65.1496 23.306 65.2056 22.928 65.3036 22.55L66.5496 17.86H68.3976L66.2276 25H64.2536L63.0496 20.926C62.9376 20.548 62.8676 20.156 62.8676 20.156H62.8396C62.8396 20.156 62.7836 20.548 62.6716 20.926L61.4676 25H59.4796ZM69.5777 25V17.86H71.2857V18.686C71.2857 18.952 71.2577 19.176 71.2577 19.176H71.2857C71.5937 18.574 72.3777 17.692 73.8197 17.692C75.4017 17.692 76.2977 18.518 76.2977 20.408V25H74.5337V20.772C74.5337 19.904 74.3097 19.316 73.3997 19.316C72.4477 19.316 71.7477 19.918 71.4817 20.772C71.3837 21.066 71.3557 21.388 71.3557 21.724V25H69.5777ZM78.0656 22.774V15.06H79.8296V22.508C79.8296 23.292 80.0956 23.488 80.5576 23.488C80.6976 23.488 80.8236 23.474 80.8236 23.474V25.028C80.8236 25.028 80.5576 25.07 80.2636 25.07C79.2836 25.07 78.0656 24.818 78.0656 22.774ZM81.6101 21.43C81.6101 19.246 83.3601 17.692 85.5301 17.692C87.7141 17.692 89.4641 19.246 89.4641 21.43C89.4641 23.628 87.7141 25.168 85.5441 25.168C83.3601 25.168 81.6101 23.628 81.6101 21.43ZM83.4161 21.43C83.4161 22.76 84.3821 23.656 85.5441 23.656C86.6921 23.656 87.6581 22.76 87.6581 21.43C87.6581 20.114 86.6921 19.204 85.5441 19.204C84.3821 19.204 83.4161 20.114 83.4161 21.43ZM90.2901 22.942C90.2901 20.674 93.3561 20.52 94.5181 20.52H94.7561V20.422C94.7561 19.484 94.1681 19.162 93.3841 19.162C92.3621 19.162 91.4241 19.848 91.4241 19.848L90.7521 18.574C90.7521 18.574 91.8581 17.692 93.5521 17.692C95.4281 17.692 96.5201 18.728 96.5201 20.534V25H94.8821V24.412C94.8821 24.132 94.9101 23.908 94.9101 23.908H94.8821C94.8961 23.908 94.3361 25.168 92.7121 25.168C91.4381 25.168 90.2901 24.37 90.2901 22.942ZM92.0821 22.858C92.0821 23.334 92.4321 23.782 93.1601 23.782C94.0981 23.782 94.7701 22.774 94.7701 21.906V21.738H94.4621C93.5521 21.738 92.0821 21.864 92.0821 22.858ZM97.8806 21.43C97.8806 19.162 99.2246 17.692 101.115 17.692C102.683 17.692 103.173 18.602 103.173 18.602H103.201C103.201 18.602 103.187 18.42 103.187 18.196V15.06H104.965V25H103.285V24.412C103.285 24.146 103.313 23.95 103.313 23.95H103.285C103.285 23.95 102.683 25.168 101.045 25.168C99.1126 25.168 97.8806 23.642 97.8806 21.43ZM99.6726 21.43C99.6726 22.788 100.401 23.67 101.451 23.67C102.375 23.67 103.243 22.998 103.243 21.416C103.243 20.31 102.655 19.218 101.465 19.218C100.485 19.218 99.6726 20.016 99.6726 21.43ZM110.614 25V15.06H114.45C116.312 15.06 117.614 16.362 117.614 18.294C117.614 20.226 116.312 21.57 114.45 21.57H112.42V25H110.614ZM112.42 20.002H114.114C115.164 20.002 115.78 19.33 115.78 18.294C115.78 17.272 115.164 16.614 114.142 16.614H112.42V20.002ZM119.213 25V15.06H122.601C125.667 15.06 127.669 16.88 127.669 20.016C127.669 23.152 125.667 25 122.601 25H119.213ZM121.019 23.446H122.503C124.519 23.446 125.807 22.256 125.807 20.016C125.807 17.804 124.491 16.614 122.503 16.614H121.019V23.446ZM129.563 25V15.06H135.275V16.614H131.369V19.428H134.659V20.982H131.369V25H129.563Z" fill="#008BBF"/>
</svg>
