<svg width="96" height="97" viewBox="0 0 96 97" fill="none" xmlns="http://www.w3.org/2000/svg">
<path fill-rule="evenodd" clip-rule="evenodd" d="M51.6403 8.52354C62.2455 7.89574 68.1233 19.9673 75.2421 27.692C81.7813 34.7877 91.5028 41.2902 90.6091 50.8088C89.7346 60.1219 78.0609 63.4603 71.2666 70.0317C64.5561 76.5219 61.07 88.6419 51.6403 88.4987C42.212 88.3556 39.8647 75.3485 32.6132 69.4449C23.7526 62.2312 5.88828 62.0814 5.34528 50.8088C4.80819 39.659 22.3943 37.9398 30.7289 30.3271C38.4692 23.2573 41.076 9.14892 51.6403 8.52354Z" fill="url(#paint0_linear_1584_105124)"/>
<g filter="url(#filter0_d_1584_105124)">
<path fill-rule="evenodd" clip-rule="evenodd" d="M65.1685 80.5029C66.8183 80.6472 68.284 79.4174 68.4277 77.775L73.0315 25.1525C73.1752 23.5102 71.946 22.0371 70.2962 21.8928L63.8888 21.3322L60.0664 20.9978L40.9249 19.3231L37.5959 19.0319L30.695 18.4281C29.0453 18.2838 27.5863 19.5217 27.4426 21.164L22.8387 73.7865C22.695 75.4289 23.9175 76.8939 25.5673 77.0382L65.1685 80.5029Z" fill="#25567A"/>
<path fill-rule="evenodd" clip-rule="evenodd" d="M27.7154 72.945L63.7594 76.0984L68.1429 25.9947L32.0989 22.8413L27.7154 72.945Z" fill="white"/>
<path fill-rule="evenodd" clip-rule="evenodd" d="M48.8754 38.6545L60.2321 39.6481L60.3448 38.3593L48.9881 37.3657L48.8754 38.6545Z" fill="#A8ABAC"/>
<path fill-rule="evenodd" clip-rule="evenodd" d="M48.2716 45.5554L61.256 46.6914L61.3687 45.4025L48.3844 44.2666L48.2716 45.5554Z" fill="#A8ABAC"/>
<path fill-rule="evenodd" clip-rule="evenodd" d="M32.2364 51.5515L57.314 53.7455L57.4268 52.4567L32.3492 50.2626L32.2364 51.5515Z" fill="#A8ABAC"/>
<path fill-rule="evenodd" clip-rule="evenodd" d="M37.3654 44.5693C37.3173 45.1195 37.7243 45.6045 38.2744 45.6526L40.9514 45.8868C41.5016 45.935 41.9866 45.528 42.0348 44.9778L42.3394 41.4961L45.8284 41.8014C46.3786 41.8495 46.8636 41.4425 46.9118 40.8923L47.1466 38.208C47.1948 37.6578 46.7878 37.1728 46.2376 37.1246L42.7485 36.8194L43.0538 33.3303C43.1019 32.7801 42.6949 32.2951 42.1447 32.247L39.4678 32.0128C38.9176 31.9646 38.4326 32.3716 38.3844 32.9218L38.0792 36.4109L34.5901 36.1056C34.0399 36.0575 33.5549 36.4645 33.5068 37.0146L33.2719 39.699C33.2238 40.2492 33.6308 40.7342 34.181 40.7823L37.67 41.0876L37.3654 44.5693Z" fill="#529535"/>
<path fill-rule="evenodd" clip-rule="evenodd" d="M31.6322 58.4597L60.0093 60.9424L60.122 59.6535L31.7449 57.1708L31.6322 58.4597Z" fill="#A8ABAC"/>
<path fill-rule="evenodd" clip-rule="evenodd" d="M50.8648 18.9851C49.9844 18.9081 49.3329 18.1321 49.41 17.2515C49.487 16.3711 50.2634 15.7199 51.1438 15.7969C52.0244 15.8739 52.6756 16.6501 52.5986 17.5305C52.5216 18.4111 51.7454 19.0621 50.8648 18.9851ZM55.071 17.4068C55.0813 15.3118 53.483 13.5245 51.3588 13.3387C49.2346 13.1528 47.3501 14.6354 46.9966 16.7004C43.8986 17.9242 41.5909 20.8119 41.2809 24.3557L59.3706 25.9384C59.6806 22.3945 57.9094 19.15 55.071 17.4068Z" fill="#008BBF"/>
</g>
<defs>
<filter id="filter0_d_1584_105124" x="19.8271" y="11.3228" width="56.2158" height="73.1919" filterUnits="userSpaceOnUse" color-interpolation-filters="sRGB">
<feFlood flood-opacity="0" result="BackgroundImageFix"/>
<feColorMatrix in="SourceAlpha" type="matrix" values="0 0 0 0 0 0 0 0 0 0 0 0 0 0 0 0 0 0 127 0" result="hardAlpha"/>
<feOffset dy="1"/>
<feGaussianBlur stdDeviation="1.5"/>
<feColorMatrix type="matrix" values="0 0 0 0 0 0 0 0 0 0 0 0 0 0 0 0 0 0 0.404018 0"/>
<feBlend mode="normal" in2="BackgroundImageFix" result="effect1_dropShadow_1584_105124"/>
<feBlend mode="normal" in="SourceGraphic" in2="effect1_dropShadow_1584_105124" result="shape"/>
</filter>
<linearGradient id="paint0_linear_1584_105124" x1="32.5465" y1="-4.25623" x2="8.35822" y2="76.6482" gradientUnits="userSpaceOnUse">
<stop stop-color="#93CB5D" stop-opacity="0.2"/>
<stop offset="1" stop-color="#008BBF" stop-opacity="0.196551"/>
</linearGradient>
</defs>
</svg>
