<svg width="97" height="32" viewBox="0 0 97 32" fill="none" xmlns="http://www.w3.org/2000/svg">
    <g clip-path="url(#2mvswoaq7a)">
        <path d="M13.811 2.064C6.157 2.09-.026 8.315.001 15.97c.01 2.994.968 5.762 2.59 8.022l.086-2.123c-.01-2.582.925-4.045 1.957-4.83a3.745 3.745 0 1 1 4.346.238c.953.93 1.89 2.47 2.178 4.594.683.156 1.23.67 1.43 1.336.275-.265.623-.471.971-.614a2.884 2.884 0 0 1 1.539-5.492c.432-.473.82-.821 1.195-1.072a5.089 5.089 0 1 1 6.125-.283c1.558.915 2.499 4.235 3.066 7.721a13.788 13.788 0 0 0 2.232-7.59C27.689 8.22 21.464 2.037 13.81 2.063z" fill="#EE2722"/>
        <path d="M12.05 25.216v-.019l-.009.01.01.01z" fill="#BF2329"/>
        <path d="M9.396 25.2a1.95 1.95 0 0 1 1.76-3.33c-.286-2.124-1.224-3.665-2.178-4.594a3.744 3.744 0 1 0-4.346-.238c-1.03.785-1.965 2.248-1.956 4.83L2.59 23.99l-.005.14a13.914 13.914 0 0 0 5.318 4.456c.32-1.394.798-2.771 1.494-3.387z" fill="#fff"/>
        <path d="M22.418 15.745a5.088 5.088 0 0 0-3.268-9.004 5.088 5.088 0 0 0-2.858 9.287c-.374.25-.763.6-1.195 1.072a2.885 2.885 0 0 1 .915 5.457c.779.292 1.58.906 1.593 1.78l.017 5.074c3.284-.924 6.052-3.149 7.861-5.945-.006-.04.007.04 0 0-.566-3.486-1.507-6.806-3.066-7.721z" fill="#F68B11"/>
        <path d="M16.012 22.557a2.886 2.886 0 1 0-2.453.035c-.348.142-.696.35-.97.614a1.944 1.944 0 0 1-.538 1.992v.018c.554.606 1.4 1.954 1.7 4.712h.156a13.869 13.869 0 0 0 3.716-.517l-.017-5.073c-.014-.875-.815-1.49-1.594-1.781z" fill="#fff"/>
        <path d="m12.041 25.206.01-.008a1.944 1.944 0 0 0 .537-1.992 1.954 1.954 0 0 0-1.872-1.385 1.95 1.95 0 0 0-1.32 3.379c-.696.616-1.173 1.993-1.494 3.388a13.81 13.81 0 0 0 5.848 1.34c-.3-2.758-1.146-4.106-1.699-4.712l-.01-.01z" fill="#F68B11"/>
        <path d="M88.135 31.146s-.05-3.713-.054-4.714c-.004-1-1.262-.699-1.262-.699l-.01-2.924s.891-.042.888-.817c-.003-.779-1.41-.478-1.41-.478l-.032 9.626-3.037.011-1.617-4.028-.03-8.703s.703-1.188 5.255-1.203c4.556-.016 5.488 1.758 5.494 3.35.006 1.593-.288 2.15-1.066 2.782 1.04-.004 1.634 1.253 1.634 1.253l.022 6.528-4.775.016zm-9.664.032-1.268-2.227-2.777.01-.005-1.26.883-2.298.927-.004-.675-1.701-.52.002-2.38 7.49-.849.002-.054-5.148-1.818.006 2.97-8.505 4.853-.016 4.86 13.634-4.147.015zm-15.146.044-.046-13.656 4.887-.016.031 9.21 3.001-.01.015 4.441-7.888.03zm-8.576.029-.047-13.642 4.888-.016.031 9.15 3.002-.01.016 4.491-7.89.027zM45.947 32c-3.408.012-4.56-1.354-4.56-1.354l2.728-3.601c2.857 1.36 4.478-.829 4.472-2.717-.007-1.889-1.674-2.548-1.674-2.548-.88-.63-2.852.009-2.852.009l-2.678-3.325s1.403-1.523 4.845-1.534c3.446-.013 7.526 2.122 7.545 7.64.02 5.517-4.42 7.418-7.826 7.43zm-7.888-.69-1.852.006-.017-4.891s2.037-.264 2.03-2.301c-.008-2.519-2.674-1.992-2.674-1.992l.032 9.181-4.742.016-.08-12.736s.552-.912 2.035-.918l4.999-.017s5.261 1.115 5.28 6.485c.019 5.369-5.011 7.167-5.011 7.167zM38.465.228l.014 4.051-2.768.01.003 1.078 3.348-.012.015 4.59-3.143.01.019 5.501-5.003.017L30.898.254l7.567-.026zm4.698-.04 5.418-.019 5.427 15.247-4.631.015-1.415-2.499-3.102.01-.005-1.405.899-2.566 1.121-.004-.751-1.9-.581.002-2.66 8.376-4.753.016-.005-1.254L43.163.187zM53.981.15l4.2-.014 2.423 3.893.621-.002L63.3.129l4.507-.015L69.7 15.337l-4.507.015-.81-6.785-.452.001-2.632 5.013-.661.002-2.705-5.077-.58.003-.844 6.864-1.446.005L52.6 9.226 53.98.15zM75.065.075l.052 15.248-5.006.017L70.06.092l5.006-.017zm5.742-.016.067 10.737 3.349-.012.014 4.515-8.27.028L75.908.076l4.898-.017zm.653-.01 5.21-.017 1.248 2.251.538-.002 1.2-2.264 5.418-.018-4.037 7.072.028 8.197-5.665.02-.028-8.034-3.913-6.34V.05z" fill="#fff"/>
        <path d="M91.253 23.349c.778-.631 1.072-1.189 1.065-2.782-.005-1.592-.938-3.366-5.493-3.35-4.552.015-5.255 1.203-5.255 1.203l.03 8.703 1.617 4.028 3.036-.011.032-9.626s1.408-.3 1.41.478c.004.775-.888.817-.888.817l.011 2.924s1.258-.3 1.262.7c.003 1 .053 4.713.053 4.713l4.776-.016-.022-6.528s-.594-1.257-1.634-1.253zM59.62 26.744l-.031-9.151-4.888.016.047 13.641 7.89-.026-.016-4.49-3.002.01zM37.79 17.658l-4.998.017c-1.484.005-2.036.918-2.036.918l.08 12.736 4.742-.016-.032-9.18s2.666-.528 2.674 1.99c.007 2.038-2.03 2.302-2.03 2.302l.017 4.891 1.852-.006s5.03-1.798 5.01-7.167c-.018-5.37-5.28-6.485-5.28-6.485z" fill="#F68B11"/>
        <path d="M46.228 16.93c-3.442.011-4.845 1.534-4.845 1.534l2.678 3.325s1.972-.638 2.852-.01c0 0 1.667.66 1.674 2.549.006 1.888-1.615 4.077-4.472 2.717l-2.728 3.601s1.152 1.366 4.56 1.354c3.406-.012 7.845-1.913 7.826-7.43-.02-5.518-4.1-7.653-7.545-7.64zM68.198 26.76l-.032-9.21-4.887.016.047 13.656 7.887-.03-.014-4.442-3.001.01z" fill="#F68B11"/>
        <path d="m77.758 17.529-4.854.016-2.968 8.505 1.817-.006.054 5.148.85-.002 2.38-7.49.52-.002.674 1.701-.926.004-.884 2.298.005 1.26 2.777-.01 1.268 2.227 4.148-.015-4.861-13.634z" fill="#F68B11"/>
        <path d="m38.13 15.461 4.754-.016 2.659-8.376.58-.002.752 1.9-1.121.004-.899 2.566.005 1.406 3.102-.01 1.415 2.498 4.631-.015L48.581.169l-5.418.019-5.038 14.02.005 1.253zM35.953 15.456l-.019-5.501 3.143-.01-.015-4.59-3.348.012-.003-1.078 2.768-.01-.014-4.05-7.567.025.052 15.22 5.003-.018zM85.4 15.288l5.665-.02-.028-8.197 4.038-7.072-5.419.018-1.2 2.264-.538.002L86.67.032 81.46.05l-.001.864 3.913 6.34.028 8.034zM70.11 15.34l5.006-.017L75.064.075 70.06.092l.052 15.248z" fill="#EE2722"/>
        <path d="m75.966 15.327 8.271-.028-.015-4.515-3.348.012L80.807.059l-4.899.017.058 15.251zM55.062 15.378l1.446-.004.845-6.865.58-.003 2.704 5.077.66-.002 2.633-5.013h.451l.81 6.784 4.508-.015L67.807.114 63.3.129l-2.075 3.898-.62.002L58.18.136 53.981.15 52.6 9.226l2.462 6.152z" fill="#EE2722"/>
        <path d="M95.087 29.319v.393h.243c.214 0 .507.035.507-.179 0-.2-.168-.214-.357-.214h-.393zm.957 1.35h-.26l-.404-.728h-.293v.728h-.229V29.09h.664c.287 0 .543.086.543.418 0 .31-.21.425-.42.433l.399.728zm-1.821-.8c0 .66.535 1.175 1.178 1.175a1.174 1.174 0 1 0 0-2.35c-.642 0-1.178.51-1.178 1.175zm-.229 0c0-.783.621-1.404 1.407-1.404s1.407.621 1.407 1.404c0 .782-.621 1.403-1.407 1.403a1.395 1.395 0 0 1-1.407-1.403zM24.034 27.725v.393h.243c.215 0 .507.036.507-.178 0-.2-.168-.215-.357-.215h-.393zm.957 1.35h-.26l-.404-.728h-.293v.728h-.229v-1.578h.665c.286 0 .543.085.543.418 0 .31-.211.425-.421.432l.4.728zm-1.82-.8c0 .66.535 1.175 1.177 1.175a1.174 1.174 0 1 0 0-2.35c-.642 0-1.178.512-1.178 1.175zm-.23 0c0-.782.622-1.403 1.407-1.403.786 0 1.408.621 1.408 1.403 0 .783-.622 1.404-1.408 1.404a1.395 1.395 0 0 1-1.407-1.404z" fill="#F68B11"/>
    </g>
    <defs>
        <clipPath id="2mvswoaq7a">
            <path fill="#fff" d="M0 0h96.81v32H0z"/>
        </clipPath>
    </defs>
</svg>
