<svg xmlns="http://www.w3.org/2000/svg" width="13" height="12" viewBox="0 0 13 12" fill="none">
<path fill-rule="evenodd" clip-rule="evenodd" d="M1.46 0.719999C1.46 0.322354 1.78236 0 2.18 0C2.57765 0 2.9 0.322355 2.9 0.72V6.6684C3.46759 6.94927 3.86 7.55189 3.86 8.24999C3.86 8.94809 3.46759 9.55071 2.9 9.83158V11.28C2.9 11.6776 2.57765 12 2.18 12C1.78236 12 1.46 11.6776 1.46 11.28V9.83158C0.892413 9.55071 0.5 8.94809 0.5 8.24999C0.5 7.55189 0.892413 6.94927 1.46 6.6684V0.719999ZM5.78 0.719999C5.78 0.322354 6.10236 0 6.5 0C6.89764 0 7.22 0.322355 7.22 0.72V1.66841C7.78759 1.94927 8.18 2.5519 8.18 3.25C8.18 3.94809 7.78759 4.55072 7.22 4.83159V11.28C7.22 11.6776 6.89764 12 6.5 12C6.10236 12 5.78 11.6776 5.78 11.28V4.83159C5.21241 4.55072 4.82 3.94809 4.82 3.25C4.82 2.5519 5.21241 1.94927 5.78 1.66841V0.719999ZM10.82 0C10.4224 0 10.1 0.322354 10.1 0.719999V5.1684C9.53241 5.44927 9.14 6.05189 9.14 6.74999C9.14 7.44809 9.53241 8.05072 10.1 8.33158V11.28C10.1 11.6776 10.4224 12 10.82 12C11.2176 12 11.54 11.6776 11.54 11.28V8.33158C12.1076 8.05072 12.5 7.44809 12.5 6.74999C12.5 6.05189 12.1076 5.44927 11.54 5.1684V0.720001C11.54 0.322355 11.2176 0 10.82 0ZM2.18 8.99999C2.57765 8.99999 2.9 8.6642 2.9 8.24999C2.9 7.83578 2.57765 7.49999 2.18 7.49999C1.78235 7.49999 1.46 7.83578 1.46 8.24999C1.46 8.6642 1.78235 8.99999 2.18 8.99999ZM7.22 3.25C7.22 3.66421 6.89765 3.99999 6.5 3.99999C6.10236 3.99999 5.78 3.66421 5.78 3.25C5.78 2.83578 6.10236 2.5 6.5 2.5C6.89765 2.5 7.22 2.83578 7.22 3.25ZM10.82 7.49999C11.2176 7.49999 11.54 7.1642 11.54 6.74999C11.54 6.33578 11.2176 5.99999 10.82 5.99999C10.4224 5.99999 10.1 6.33578 10.1 6.74999C10.1 7.1642 10.4224 7.49999 10.82 7.49999Z" fill="black"/>
<mask id="mask0_750_42126" style="mask-type:luminance" maskUnits="userSpaceOnUse" x="0" y="0" width="13" height="12">
<path fill-rule="evenodd" clip-rule="evenodd" d="M1.46 0.719999C1.46 0.322354 1.78236 0 2.18 0C2.57765 0 2.9 0.322355 2.9 0.72V6.6684C3.46759 6.94927 3.86 7.55189 3.86 8.24999C3.86 8.94809 3.46759 9.55071 2.9 9.83158V11.28C2.9 11.6776 2.57765 12 2.18 12C1.78236 12 1.46 11.6776 1.46 11.28V9.83158C0.892413 9.55071 0.5 8.94809 0.5 8.24999C0.5 7.55189 0.892413 6.94927 1.46 6.6684V0.719999ZM5.78 0.719999C5.78 0.322354 6.10236 0 6.5 0C6.89764 0 7.22 0.322355 7.22 0.72V1.66841C7.78759 1.94927 8.18 2.5519 8.18 3.25C8.18 3.94809 7.78759 4.55072 7.22 4.83159V11.28C7.22 11.6776 6.89764 12 6.5 12C6.10236 12 5.78 11.6776 5.78 11.28V4.83159C5.21241 4.55072 4.82 3.94809 4.82 3.25C4.82 2.5519 5.21241 1.94927 5.78 1.66841V0.719999ZM10.82 0C10.4224 0 10.1 0.322354 10.1 0.719999V5.1684C9.53241 5.44927 9.14 6.05189 9.14 6.74999C9.14 7.44809 9.53241 8.05072 10.1 8.33158V11.28C10.1 11.6776 10.4224 12 10.82 12C11.2176 12 11.54 11.6776 11.54 11.28V8.33158C12.1076 8.05072 12.5 7.44809 12.5 6.74999C12.5 6.05189 12.1076 5.44927 11.54 5.1684V0.720001C11.54 0.322355 11.2176 0 10.82 0ZM2.18 8.99999C2.57765 8.99999 2.9 8.6642 2.9 8.24999C2.9 7.83578 2.57765 7.49999 2.18 7.49999C1.78235 7.49999 1.46 7.83578 1.46 8.24999C1.46 8.6642 1.78235 8.99999 2.18 8.99999ZM7.22 3.25C7.22 3.66421 6.89765 3.99999 6.5 3.99999C6.10236 3.99999 5.78 3.66421 5.78 3.25C5.78 2.83578 6.10236 2.5 6.5 2.5C6.89765 2.5 7.22 2.83578 7.22 3.25ZM10.82 7.49999C11.2176 7.49999 11.54 7.1642 11.54 6.74999C11.54 6.33578 11.2176 5.99999 10.82 5.99999C10.4224 5.99999 10.1 6.33578 10.1 6.74999C10.1 7.1642 10.4224 7.49999 10.82 7.49999Z" fill="white"/>
</mask>
<g mask="url(#mask0_750_42126)">
<rect x="0.5" width="12.5" height="12" fill="#474B55"/>
</g>
</svg>