<svg width="160" height="160" viewBox="0 0 160 160" xmlns="http://www.w3.org/2000/svg" xmlns:xlink="http://www.w3.org/1999/xlink">
    <defs>
        <filter x="-37.5%" y="-37.5%" width="175%" height="175%" filterUnits="objectBoundingBox" id="b">
            <feOffset in="SourceAlpha" result="shadowOffsetOuter1"/>
            <feGaussianBlur stdDeviation="4" in="shadowOffsetOuter1" result="shadowBlurOuter1"/>
            <feColorMatrix values="0 0 0 0 0 0 0 0 0 0 0 0 0 0 0 0 0 0 0.228693182 0" in="shadowBlurOuter1"/>
        </filter>
        <filter x="-56.3%" y="-56.3%" width="212.5%" height="212.5%" filterUnits="objectBoundingBox" id="d">
            <feOffset in="SourceAlpha" result="shadowOffsetOuter1"/>
            <feGaussianBlur stdDeviation="4" in="shadowOffsetOuter1" result="shadowBlurOuter1"/>
            <feColorMatrix values="0 0 0 0 0 0 0 0 0 0 0 0 0 0 0 0 0 0 0.228693182 0" in="shadowBlurOuter1"/>
        </filter>
        <filter x="-16.4%" y="-187.5%" width="132.8%" height="625%" filterUnits="objectBoundingBox" id="f">
            <feOffset dy="2" in="SourceAlpha" result="shadowOffsetOuter1"/>
            <feGaussianBlur stdDeviation="2" in="shadowOffsetOuter1" result="shadowBlurOuter1"/>
            <feColorMatrix values="0 0 0 0 0 0 0 0 0 0.219607843 0 0 0 0 0.388235294 0 0 0 0.25 0" in="shadowBlurOuter1"/>
        </filter>
        <filter x="-10%" y="-15%" width="120%" height="130%" filterUnits="objectBoundingBox" id="h">
            <feOffset in="SourceAlpha" result="shadowOffsetOuter1"/>
            <feGaussianBlur stdDeviation="4" in="shadowOffsetOuter1" result="shadowBlurOuter1"/>
            <feColorMatrix values="0 0 0 0 0 0 0 0 0 0.219607843 0 0 0 0 0.388235294 0 0 0 0.25 0" in="shadowBlurOuter1"/>
        </filter>
        <filter x="-37.5%" y="-37.5%" width="175%" height="175%" filterUnits="objectBoundingBox" id="j">
            <feOffset in="SourceAlpha" result="shadowOffsetOuter1"/>
            <feGaussianBlur stdDeviation="4" in="shadowOffsetOuter1" result="shadowBlurOuter1"/>
            <feColorMatrix values="0 0 0 0 0 0 0 0 0 0 0 0 0 0 0 0 0 0 0.228693182 0" in="shadowBlurOuter1"/>
        </filter>
        <filter x="-28.1%" y="-28.1%" width="156.3%" height="156.3%" filterUnits="objectBoundingBox" id="l">
            <feOffset in="SourceAlpha" result="shadowOffsetOuter1"/>
            <feGaussianBlur stdDeviation="4" in="shadowOffsetOuter1" result="shadowBlurOuter1"/>
            <feColorMatrix values="0 0 0 0 0 0 0 0 0 0 0 0 0 0 0 0 0 0 0.228693182 0" in="shadowBlurOuter1"/>
        </filter>
        <path d="M120 79.333h18.667A6.667 6.667 0 0 1 145.333 86v18.667a6.667 6.667 0 0 1-6.666 6.666H120a6.667 6.667 0 0 1-6.667-6.666V86A6.667 6.667 0 0 1 120 79.333z" id="c"/>
        <path d="M4 0h13.333a4 4 0 0 1 4 4v13.333a4 4 0 0 1-4 4H4a4 4 0 0 1-4-4V4a4 4 0 0 1 4-4z" id="e"/>
        <path d="M40 94.667h40a1.333 1.333 0 1 1 0 2.666H40a1.333 1.333 0 1 1 0-2.666z" id="g"/>
        <path d="M8 0h104a8 8 0 0 1 8 8v64a8 8 0 0 1-8 8H8a8 8 0 0 1-8-8V8a8 8 0 0 1 8-8z" id="i"/>
        <path d="M6.667 0h18.666A6.667 6.667 0 0 1 32 6.667v18.666A6.667 6.667 0 0 1 25.333 32H6.667A6.667 6.667 0 0 1 0 25.333V6.667A6.667 6.667 0 0 1 6.667 0z" id="k"/>
        <path d="M6.667 0H36a6.667 6.667 0 0 1 6.667 6.667V36A6.667 6.667 0 0 1 36 42.667H6.667A6.667 6.667 0 0 1 0 36V6.667A6.667 6.667 0 0 1 6.667 0z" id="m"/>
        <linearGradient x1="81.891%" y1="0%" x2="50%" y2="100%" id="a">
            <stop stop-color="#93CB5D" stop-opacity=".204" offset="0%"/>
            <stop stop-color="#008BBF" stop-opacity=".197" offset="100%"/>
        </linearGradient>
    </defs>
    <g fill="none" fill-rule="evenodd">
        <path d="M83.029 151.692C125.126 183.147 160 118.08 160 76.619c0-41.461-11.274-85.48-76.971-75.072C17.332 11.956-14.138 33.002 6.058 76.619c20.196 43.617 34.874 43.617 76.971 75.073z" fill="url(#a)"/>
        <g fill-rule="nonzero" transform="translate(9.333 13.333)">
            <use fill="#000" filter="url(#b)" xlink:href="#c"/>
            <use fill="#FFF" xlink:href="#c"/>
        </g>
        <path d="M138.667 99.778c.283 0 .623.087.87.24 1.659 1.036 4.295 1.94 5.398 2.364.814.315 1.64.24 1.725 1.047l.007.143v6.655c0 3.184-1.892 4.393-7.353 7.153-.243.13-.496.176-.647.176-.162 0-.415-.047-.658-.176-5.335-2.719-7.26-3.917-7.34-6.952l-.002-.201v-6.655c0-.96 1.16-.867 2.02-1.19 1.103-.415 3.734-1.302 5.11-2.363.275-.154.576-.241.87-.241zm0 1.778c-.228 0-.463.07-.677.192-1.07.85-3.117 1.559-3.974 1.891-.669.258-1.572.184-1.572.952v5.324c0 2.547 1.471 3.5 5.711 5.722.19.104.386.14.512.14.118 0 .314-.036.503-.14 4.248-2.207 5.719-3.175 5.719-5.722v-5.324c0-.768-.679-.686-1.347-.952-.858-.34-2.908-1.062-4.199-1.89a1.33 1.33 0 0 0-.676-.193zm0 3.555c.456 0 .831.275.883.628l.006.083v1.955h1.955c.393 0 .711.399.711.89 0 .456-.274.831-.628.883l-.083.006h-1.956v1.955c0 .393-.397.711-.888.711-.456 0-.832-.274-.883-.628l-.006-.083v-1.956h-1.956c-.393 0-.71-.397-.71-.888 0-.456.274-.832.627-.883l.083-.006h1.955v-1.956c0-.393.399-.71.89-.71z" opacity=".65" fill="#F7911D"/>
        <g fill-rule="nonzero">
            <g transform="translate(9.333 20.667)">
                <use fill="#000" filter="url(#d)" xlink:href="#e"/>
                <use fill="#FFF" xlink:href="#e"/>
            </g>
            <path d="m16.821 26.315.05.035c-.767-.627-1.344-1.11-1.989-1.922.645.813 1.222 1.295 1.989 1.922.933.669 5.465 3.955 7.571 9.314.702-2.499.622-4.014-.562-6.084-1.517-2.65-5.799-3.473-7.875-4.582-.748-.398-.98-.706-1.163-.621-.006.007-.015.01-.019.019-.127.338.478.752.87 2.266.755 2.92-.186 5.891 5.782 8.623 2.503 1.145 2.86 2.87 2.458 4.182a2.56 2.56 0 0 1 .644.895c.436-1.327-.082-2.746-.345-3.464-.663-1.805-2.724-6.435-7.41-10.583z" fill="#82C341" opacity=".85"/>
        </g>
        <g transform="translate(20 31.333)">
            <path fill="#BFCDD8" d="M49.333 80h21.334l2.666 14.667H46.667z"/>
            <use fill="#000" filter="url(#f)" xlink:href="#g"/>
            <use fill="#D9E1E8" xlink:href="#g"/>
            <use fill="#000" filter="url(#h)" xlink:href="#i"/>
            <use fill="#D9E1E8" xlink:href="#i"/>
            <path d="M8 0h104a8 8 0 0 1 8 8v58.667H0V8a8 8 0 0 1 8-8z" fill="#26567A"/>
            <circle fill="#597D99" cx="60" cy="73.333" r="3.333"/>
        </g>
        <path fill="#F2F5F7" d="M26.666 38h106.667v53.333H26.666z"/>
        <g transform="translate(82.667 46)">
            <rect fill="#FFF" width="42.667" height="37.333" rx="1"/>
            <path d="M21.333 5.333c7.364 0 13.334 5.97 13.334 13.334C34.667 26.03 28.697 32 21.333 32 13.97 32 8 26.03 8 18.667c0-7.364 5.97-13.334 13.333-13.334zm0 5.334a8 8 0 1 0 0 16 8 8 0 0 0 0-16z" fill="#26567A"/>
            <path d="M21.333 5.333v5.334a8 8 0 1 0 7.562 5.382l5.042-1.744c.473 1.367.73 2.834.73 4.362C34.667 26.03 28.697 32 21.333 32 13.97 32 8 26.03 8 18.667c0-7.364 5.97-13.334 13.333-13.334z" fill="#D9E1E8"/>
        </g>
        <g fill-rule="nonzero" transform="translate(90.667 13.333)">
            <use fill="#000" filter="url(#j)" xlink:href="#k"/>
            <use fill="#FFF" xlink:href="#k"/>
        </g>
        <path d="M114.667 35.556A2.667 2.667 0 0 1 112 38.222h-8.889a2.667 2.667 0 0 1-2.667-2.666V23.11a2.667 2.667 0 0 1 2.667-2.667h7.111c.236 0 .462.094.629.26l3.555 3.556c.167.167.26.393.26.629zm-6.224-13.335-5.332.001a.889.889 0 0 0-.889.89v12.444c0 .49.398.888.89.888H112c.49 0 .889-.398.889-.888v-8.89h-2.667a1.778 1.778 0 0 1-1.773-1.644l-.005-.133V22.22zm4.076 2.667-2.298-2.298.001 2.299h2.297z" fill="#597D99"/>
        <g transform="translate(37.333 64.667)">
            <rect fill="#FFF" width="42.667" height="18.667" rx="1"/>
            <g transform="translate(3.333 1.333)">
                <path stroke="#597D99" stroke-width="2" stroke-linecap="round" stroke-linejoin="round" d="M1.947 15.63 10 7.333l9.333 4L26 4.667l2.667 2L34 1.333"/>
                <ellipse fill="#597D99" cx="1.387" cy="15.889" rx="1.387" ry="1.444"/>
                <circle fill="#597D99" cx="10" cy="7.333" r="1.333"/>
                <circle fill="#597D99" cx="19.333" cy="11.333" r="1.333"/>
                <circle fill="#597D99" cx="26" cy="4.667" r="1.333"/>
                <circle fill="#597D99" cx="28.667" cy="6.667" r="1.333"/>
                <circle fill="#597D99" cx="34" cy="1.333" r="1.333"/>
            </g>
        </g>
        <g transform="translate(37.333 46)">
            <rect fill="#FFF" width="42.667" height="16" rx="1"/>
            <rect fill="#597D99" x="16" y="4.667" width="24" height="2.667" rx="1.333"/>
            <rect fill="#597D99" x="16" y="10" width="8" height="1.333" rx=".667"/>
            <rect fill="#597D99" x="25.333" y="10" width="8" height="1.333" rx=".667"/>
            <path d="M8 3.556a4.444 4.444 0 0 1 2.367 8.207l-.052.031a4.35 4.35 0 0 1-.605.31l-.038.015a4.397 4.397 0 0 1-1.92.319l.248.006a4.512 4.512 0 0 1-1.014-.116 4.408 4.408 0 0 1-1.73-.831 4.47 4.47 0 0 1-.664-.644A4.444 4.444 0 0 1 8 3.556zm0 .888a3.556 3.556 0 0 0-2.752 5.808 1.2 1.2 0 0 1 .222-.082l1.368-.367a.755.755 0 0 1 .195-.025h1.934c.066 0 .132.008.195.025l1.368.367c.077.02.152.047.223.079A3.556 3.556 0 0 0 8 4.445zm0 .89a1.778 1.778 0 1 1 0 3.555 1.778 1.778 0 0 1 0-3.556z" fill="#597D99"/>
        </g>
        <g>
            <g fill-rule="nonzero" transform="translate(13.333 80)">
                <use fill="#000" filter="url(#l)" xlink:href="#m"/>
                <use fill="#FFF" xlink:href="#m"/>
            </g>
            <path d="M39.788 89.333c4.693 0 8.212 3.563 8.212 8.388 0 5.283-4.237 10.467-11.667 15.055-.516.323-1.127.557-1.673.557-.541 0-1.113-.22-1.665-.552-7.43-4.589-11.662-9.774-11.662-15.06 0-4.827 3.508-8.388 8.2-8.388 1.763 0 3.371.54 4.65 1.5l.268.213.212.183.223-.193c1.142-.945 2.565-1.53 4.15-1.67l.4-.026.352-.007zM34.05 100l-1.224 1.83c-.16.24-.415.398-.697.438l-.143.01-6.654.005c1.59 2.645 4.473 5.327 8.504 7.885l.557.347.282.152.266-.143c4.314-2.655 7.386-5.449 9.058-8.2h-4.65l-2.415 4.854c-.42.842-1.637.692-1.877-.166l-.03-.14-.977-6.872zm5.737-8c-1.729 0-3.148.728-4.038 1.983a1.339 1.339 0 0 1-2.185-.008C32.702 92.74 31.26 92 29.533 92 26.323 92 24 94.341 24 97.68c0 .852.158 1.72.467 2.595l6.997-.007 2.371-3.523c.482-.717 1.564-.518 1.79.267l.032.145.88 6.176 1.234-2.467a1 1 0 0 1 .755-.542l.14-.01h6.185c.32-.89.482-1.77.482-2.633 0-3.336-2.332-5.681-5.545-5.681z" fill="#C96574"/>
        </g>
    </g>
</svg>
