<?xml version="1.0" encoding="UTF-8"?>
<svg width="196px" height="47px" viewBox="0 0 196 47" version="1.1" xmlns="http://www.w3.org/2000/svg" xmlns:xlink="http://www.w3.org/1999/xlink">
    <!-- Generator: Sketch 54.1 (76490) - https://sketchapp.com -->
    <title>Healthfirst Logo@2x</title>
    <desc>Created with Sketch.</desc>
    <defs>
        <polygon id="path-1" points="0 0.038 0 47 14.6604994 47 29.3209987 47 29.3209987 0.038 2.71050543e-20 0.038"></polygon>
        <polygon id="path-3" points="0 47.005 195.201 47.005 195.201 0 0 0"></polygon>
        <polygon id="path-5" points="0 47.005 195.201 47.005 195.201 0 0 0"></polygon>
    </defs>
    <g id="Page-1" stroke="none" stroke-width="1" fill="none" fill-rule="evenodd">
        <g id="Healthfirst-Logo@2x" transform="translate(0.000000, -1.000000)">
            <path d="M141.607,12.9087 L146.956,12.9087 L146.956,8.9047 L141.607,8.9047 L141.607,12.9087 Z M141.686,38.4167 L146.911,38.4167 L146.911,18.7527 L141.686,18.7527 L141.686,38.4167 Z" id="Fill-1" fill="#FFFFFF" fill-rule="nonzero"></path>
            <g id="Group-28" transform="translate(0.000000, 0.004700)">
                <path d="M162.017,24.7852 C162.017,20.7102 165.837,18.5172 170.103,18.5172 C173.357,18.5172 174.833,18.8392 177.288,20.1952 L175.381,23.8922 C174.178,22.8712 171.833,22.5622 170.019,22.5622 C167.931,22.5622 167.047,23.4672 167.047,24.4432 C167.047,25.1642 167.37,25.9912 169.218,26.1442 L172.515,26.4442 C176.662,26.8232 178.75,28.8992 178.75,32.2212 C178.75,36.5622 174.808,38.6392 169.866,38.6392 C166.559,38.6392 164.322,38.6282 161.67,36.8382 L163.456,32.5982 C165.19,34.2212 168.334,34.4472 169.941,34.4472 C171.754,34.4472 173.642,33.8812 173.642,32.4102 C173.642,31.4292 173.08,30.7502 171.433,30.5972 L168.134,30.2972 C164.352,29.9562 162.017,28.4072 162.017,24.7852 Z" id="Fill-2" fill="#FFFFFF" fill-rule="nonzero"></path>
                <path d="M181.5946,11.9732 L181.5946,19.3112 L179.3826,19.3112 L179.3826,23.0472 L181.5946,23.0472 L181.5946,32.7892 C181.5946,35.5812 183.4016,38.4122 187.6656,38.4122 L190.5236,38.4122 L190.5236,34.2582 L188.6356,34.2582 C187.3846,34.2582 186.8256,33.6162 186.8256,32.4872 L186.8256,23.0472 L190.5236,23.0472 L190.5236,19.3112 L186.8256,19.3112 L186.8256,11.9732 L181.5946,11.9732 Z" id="Fill-4" fill="#FFFFFF" fill-rule="nonzero"></path>
                <path d="M161.1459,18.5176 C158.8959,18.5436 156.8779,19.4986 155.8779,20.6326 L155.8779,18.7486 L150.7669,18.7486 L150.7669,38.4126 L155.9999,38.4126 L155.9999,26.5606 C155.9999,24.0686 157.7459,22.8716 159.3559,22.8716 C159.9239,22.8716 160.4999,22.9436 161.0229,23.0096 L162.2279,18.5336 C162.0459,18.5176 161.8639,18.5136 161.6629,18.5136 C161.5069,18.5136 161.3369,18.5146 161.1459,18.5176" id="Fill-6" fill="#FFFFFF" fill-rule="nonzero"></path>
                <path d="M136.2196,8.877 C131.9526,8.877 130.1036,11.709 130.1036,14.502 L130.1036,19.312 L128.0086,19.312 C128.0176,20.759 128.0266,22.011 128.0266,22.832 L128.0266,23.047 L130.1036,23.047 L130.1036,38.412 L135.3306,38.412 L135.3306,23.047 L139.1926,23.047 L139.1926,19.312 L135.3306,19.312 L135.3306,14.802 C135.3306,13.673 135.8966,13.028 137.1446,13.028 L139.1926,13.028 L139.1926,8.877 L136.2196,8.877 Z" id="Fill-8" fill="#FFFFFF" fill-rule="nonzero"></path>
                <path d="M37.9769,38.4121 L37.9819,25.8641 C38.0049,22.3971 39.8459,20.5451 43.3149,20.5191 C46.7729,20.5471 48.4869,22.3501 48.5169,25.8641 L48.5169,38.4121 L51.0459042,38.4121 L51.0459,25.5171 C51.0479,23.3041 50.3409,21.4911 49.0419,20.2481 C47.7429,18.9971 45.8629,18.3251 43.5569,18.3271 C41.2999,18.3231 39.4379,19.0291 37.9819,20.4321 L37.9819,8.6161 L35.4549,8.6201 L35.4489,38.4121 L37.9769,38.4121 Z" id="Fill-10" fill="#FFFFFF" fill-rule="nonzero"></path>
                <path d="M84.7172,34.896 C83.3512,36.129 81.7582,36.284 79.9652,36.284 C76.4012,36.25 75.0692,34.957 75.0412,32.591 C75.0692,30.188 76.5332,29.061 79.8442,29.028 L85.742202,29.028 L85.7422,31.221 C85.7432,32.917 85.3752,34.308 84.7172,34.896 L84.7172,34.896 Z M85.7422,38.412 L88.2602,38.412 L88.2672,37.175 L88.2672,24.743 C88.2752,22.725 87.6482,21.097 86.3302,19.998 C85.0152,18.899 83.0562,18.343 80.4172,18.343 C77.1692,18.331 75.0092,19.029 73.2962,21.321 L73.1662,21.493 L75.0212,23.037 L75.1632,22.849 C76.4022,21.178 77.6632,20.565 80.4172,20.552 C84.4072,20.596 85.7052,22.026 85.7422,24.937 L85.7422,26.968 L79.5992,26.968 C77.4212,26.97 75.6572,27.473 74.4242,28.441 C73.1942,29.41 72.5142,30.854 72.5172,32.632 C72.5172,34.086 73.0232,35.769 74.0122,36.719 C75.3312,38.024 77.0092,38.505 79.9652,38.502 C82.5532,38.509 84.1652,38.044 85.7422,36.673 L85.7422,38.412 Z" id="Fill-12" fill="#FFFFFF" fill-rule="nonzero"></path>
                <path d="M112.6537,38.4121 L112.6537,25.8091 C112.6767,22.3441 114.5207,20.4881 117.9787,20.4621 C121.4457,20.4921 123.1607,22.2931 123.1857,25.8091 L123.1857,38.4121 L125.7157,38.4121 L125.7157,25.4591 C125.7157,23.2491 125.0137,21.4351 123.7127,20.1901 C122.4107,18.9451 120.5337,18.2721 118.2297,18.2721 C115.9717,18.2681 114.1137,18.9751 112.6537,20.3811 L112.6537,8.6241 L110.1277,8.6241 L110.1277,38.2061 L110.1277,38.4121 L112.6537,38.4121 Z" id="Fill-14" fill="#FFFFFF" fill-rule="nonzero"></path>
                <path d="M106.85,36.2466 L105.859,36.2466 C103.871,36.2146 103.096,35.2766 103.059,33.3746 L103.059,21.0216 L107.51,21.0216 L107.51,19.1066 L103.059,19.1066 L103.059,10.4746 L100.538,10.4746 L100.538,19.1066 L97.838,19.1066 L97.838,21.0216 L100.538,21.0216 L100.538,33.3406 C100.538,34.7946 100.959,36.0716 101.8,36.9896 C102.641,37.9056 103.892,38.4416 105.488,38.4376 L106.85,38.4376 L106.85,36.2466 Z" id="Fill-16" fill="#FFFFFF" fill-rule="nonzero"></path>
                <path d="M57.1498,23.6768 C57.9658,21.7498 59.8308,20.6018 62.0448,20.5968 C64.2578,20.6018 66.1248,21.7498 66.9408,23.6898 C67.4398,24.7678 67.4898,25.3388 67.6028,26.9908 L56.4858,26.9908 C56.6068,25.3238 56.7268,24.8528 57.1498,23.6768 L57.1498,23.6768 Z M67.7868,34.1048 C67.7748,34.1158 67.7568,34.1208 67.7438,34.1318 L67.7398,34.1338 L67.7128,34.1588 L67.7138,34.1588 C66.1528,35.6178 64.8368,36.1978 62.6598,36.2028 C58.6238,36.1728 56.5668,33.7758 56.4758,29.0888 L70.1448,29.0888 L70.1448,27.9418 C70.1478,24.9508 69.4008,22.5498 68.0058,20.8908 C66.6098,19.2308 64.5628,18.3398 62.0448,18.3438 C59.5228,18.3398 57.4748,19.2708 56.0828,21.0168 C54.6878,22.7528 53.9418,25.2718 53.9418,28.4218 C53.9418,31.6668 54.6848,34.1878 56.1468,35.9058 C57.6078,37.6238 59.7748,38.5018 62.5358,38.5008 L62.5648,38.5008 C65.5708,38.5008 67.4418,37.6348 69.2718,35.9718 L67.7868,34.1048 Z" id="Fill-18" fill="#FFFFFF" fill-rule="nonzero"></path>
                <path d="M26.7662,16.3218 C22.2922,8.5338 9.6622,6.1198 3.5372,2.8628 C1.3302,1.6928 0.6442,0.7858 0.1062,1.0378 C2.0492,3.5168 3.7802,4.9508 6.0912,6.8328 C8.8422,8.7998 22.2102,18.4518 28.4242,34.1978 C30.4952,26.8568 30.2572,22.4038 26.7662,16.3218 Z" id="Fill-20" fill="#FFFFFF" fill-rule="nonzero"></path>
                <g id="Group-24" transform="translate(0.000000, 1.000000)">
                    <g id="Fill-22-Clipped">
                        <mask id="mask-2" fill="white">
                            <use xlink:href="#path-1"></use>
                        </mask>
                        <g id="path-1"></g>
                        <path d="M28.8231,47 C30.1101,43.101 28.5851,38.931 27.8091,36.823 C25.8491,31.518 19.7741,17.919 5.9461,5.732 C5.9461,5.732 6.0001,5.771 6.0911,5.833 C3.7801,3.951 2.0501,2.517 0.1061,0.038 C0.0891,0.058 0.0631,0.067 0.0521,0.093 C-0.3299,1.085 1.4611,2.302 2.6171,6.752 C4.8431,15.329 2.0681,24.056 19.6711,32.084 C27.0491,35.446 28.1061,40.512 26.9211,44.37 C27.3921,44.799 27.8191,45.273 28.1761,45.804 C28.4321,46.181 28.6421,46.589 28.8231,47" id="Fill-22" fill="#FFFFFF" fill-rule="nonzero" mask="url(#mask-2)"></path>
                    </g>
                </g>
                <g id="Fill-25-Clipped" transform="translate(36.000000, 1.000000)">
                    <mask id="mask-4" fill="white">
                        <use xlink:href="#path-3"></use>
                    </mask>
                    <g id="path-3"></g>
                    <polygon id="Fill-25" fill="#FFFFFF" fill-rule="nonzero" mask="url(#mask-4)" points="56.709 37.412 59.239 37.412 59.239 7.624 56.709 7.624"></polygon>
                </g>
                <g id="Fill-27-Clipped" transform="translate(36.000000, 1.000000)">
                    <mask id="mask-6" fill="white">
                        <use xlink:href="#path-5"></use>
                    </mask>
                    <g id="path-3"></g>
                    <path d="M156.703,11.897 L157.12,11.897 C157.318,11.897 157.455,11.866 157.527,11.808 C157.6,11.748 157.634,11.67 157.634,11.571 C157.634,11.508 157.617,11.453 157.584,11.402 C157.548,11.354 157.5,11.315 157.437,11.291 C157.376,11.268 157.263,11.255 157.093,11.255 L156.703,11.255 L156.703,11.897 Z M156.361,13.092 L156.361,10.967 L157.092,10.967 C157.341,10.967 157.521,10.987 157.634,11.026 C157.744,11.066 157.833,11.134 157.899,11.231 C157.966,11.329 158,11.433 158,11.542 C158,11.698 157.945,11.835 157.833,11.948 C157.722,12.063 157.576,12.129 157.393,12.143 C157.466,12.173 157.527,12.21 157.573,12.254 C157.657,12.338 157.763,12.479 157.888,12.676 L158.145,13.092 L157.726,13.092 L157.539,12.757 C157.39,12.495 157.272,12.329 157.179,12.262 C157.118,12.213 157.028,12.189 156.905,12.189 L156.703,12.189 L156.703,13.092 L156.361,13.092 Z M157.227,10.353 C156.95,10.353 156.679,10.423 156.417,10.566 C156.156,10.709 155.949,10.91 155.802,11.175 C155.653,11.439 155.578,11.714 155.578,12 C155.578,12.285 155.653,12.558 155.797,12.818 C155.942,13.079 156.148,13.282 156.408,13.428 C156.67,13.573 156.943,13.646 157.227,13.646 C157.512,13.646 157.784,13.573 158.045,13.428 C158.308,13.282 158.51,13.079 158.655,12.818 C158.801,12.558 158.872,12.285 158.872,12 C158.872,11.714 158.799,11.439 158.651,11.175 C158.504,10.91 158.299,10.709 158.036,10.566 C157.772,10.423 157.503,10.353 157.227,10.353 L157.227,10.353 Z M157.227,10.026 C157.558,10.026 157.884,10.111 158.198,10.28 C158.515,10.45 158.759,10.694 158.936,11.01 C159.112,11.327 159.201,11.656 159.201,12 C159.201,12.34 159.112,12.667 158.939,12.982 C158.767,13.295 158.522,13.54 158.209,13.713 C157.897,13.886 157.568,13.974 157.227,13.974 C156.885,13.974 156.558,13.886 156.245,13.713 C155.932,13.54 155.688,13.295 155.513,12.982 C155.34,12.667 155.251,12.34 155.251,12 C155.251,11.656 155.34,11.327 155.517,11.01 C155.695,10.694 155.939,10.45 156.255,10.28 C156.572,10.111 156.896,10.026 157.227,10.026 L157.227,10.026 Z" id="Fill-27" fill="#FFFFFF" fill-rule="nonzero" mask="url(#mask-6)"></path>
                </g>
            </g>
        </g>
    </g>
</svg>