<svg width="24" height="24" viewBox="0 0 24 24" fill="none" xmlns="http://www.w3.org/2000/svg">
<circle cx="12" cy="12" r="12" fill="#D8D8D8"/>
<path fill-rule="evenodd" clip-rule="evenodd" d="M13.8133 13.3334C13.9372 13.3334 14.0605 13.3506 14.1796 13.3847L16.7437 14.1173C17.8819 14.4425 18.6667 15.4829 18.6667 16.6667V17.3334C18.6667 18.0698 18.0698 18.6667 17.3334 18.6667H6.66671C5.93033 18.6667 5.33337 18.0698 5.33337 17.3334V16.6667C5.33337 15.4829 6.11815 14.4425 7.25642 14.1173L9.82049 13.3847C9.93961 13.3506 10.0629 13.3334 10.1868 13.3334H13.8133ZM12 5.33337C13.841 5.33337 15.3334 6.82576 15.3334 8.66671C15.3334 10.5077 13.841 12 12 12C10.1591 12 8.66671 10.5077 8.66671 8.66671C8.66671 6.82576 10.1591 5.33337 12 5.33337Z" fill="#474B55"/>
</svg>
