<svg xmlns="http://www.w3.org/2000/svg" xmlns:xlink="http://www.w3.org/1999/xlink" width="12" height="12" viewBox="0 0 12 12">
    <defs>
        <path id="ve74w1in6a" d="M2.4 0c.136 0 .27.011.399.034.194.031.38.087.554.163L3.987 4.2c-.328.29-.737.492-1.188.567.36 1.036.95 1.965 1.71 2.724.759.76 1.688 1.35 2.724 1.71.075-.451.276-.86.567-1.188l4.003.634c.076.175.132.36.163.554.023.13.034.263.034.399 0 1.325-1.075 2.4-2.4 2.4C4.298 12 0 7.702 0 2.4 0 1.075 1.075 0 2.4 0"/>
    </defs>
    <g fill="none" fill-rule="evenodd">
        <g>
            <g>
                <g>
                    <g>
                        <g transform="translate(-81.000000, -374.000000) translate(24.000000, 242.000000) translate(0.000000, 66.000000) translate(57.000000, 64.000000) translate(0.000000, 2.000000)">
                            <mask id="ikcoh8chvb" fill="#fff">
                                <use xlink:href="#ve74w1in6a"/>
                            </mask>
                            <use fill="#221E1F" xlink:href="#ve74w1in6a"/>
                            <g fill="#008BBF" mask="url(#ikcoh8chvb)">
                                <path d="M0 0H12V12H0z"/>
                            </g>
                        </g>
                    </g>
                </g>
            </g>
        </g>
    </g>
</svg>
