<?xml version="1.0" encoding="UTF-8"?>
<svg width="24px" height="24px" viewBox="0 0 24 24" version="1.1" xmlns="http://www.w3.org/2000/svg" xmlns:xlink="http://www.w3.org/1999/xlink">
    <title>46034037-A8BB-4037-A7EE-82B188D30D65</title>
    <g id="Benefits" stroke="none" stroke-width="1" fill="none" fill-rule="evenodd">
        <g id="Desktop-/-My-Plan-/-Coverage-&amp;-Benefits-/-01_Default" transform="translate(-168.000000, -378.000000)" fill="#008BBF">
            <g id="Group-5" transform="translate(144.000000, 274.000000)">
                <g id="Icons-/-Outline-/-Payments-Circle" transform="translate(24.000000, 104.000000)">
                    <path d="M12,2 C17.5228475,2 22,6.4771525 22,12 C22,17.5228475 17.5228475,22 12,22 C6.4771525,22 2,17.5228475 2,12 C2,6.4771525 6.4771525,2 12,2 Z M12,4 C7.581722,4 4,7.581722 4,12 C4,16.418278 7.581722,20 12,20 C16.418278,20 20,16.418278 20,12 C20,7.581722 16.418278,4 12,4 Z M11.9938112,5.42135121 C12.2723053,5.42135121 12.4906447,5.60181537 12.5315276,5.8725116 L12.5384219,5.96596184 L12.5384219,6.77050026 C13.9883592,6.93553378 15.1351738,7.72926644 15.5084105,8.88439417 L15.5585353,9.06034038 C15.5956679,9.18411552 15.6204229,9.30789067 15.6204229,9.43166581 C15.6204229,9.85250129 15.3233626,10.1495616 14.9025271,10.1495616 C14.5064466,10.1495616 14.2712739,9.92676637 14.1351212,9.56781846 C13.9282399,8.85522729 13.42253,8.39877488 12.7071828,8.21828149 L12.5384219,8.18153687 L12.5384219,11.3254255 L12.7364621,11.362558 C14.7663744,11.7338834 15.8060856,12.686952 15.8060856,14.2836514 C15.8060856,15.9904222 14.4825283,17.0411689 12.734364,17.2694194 L12.5384219,17.2913873 L12.5384219,18.0959257 C12.5384219,18.4301186 12.3032491,18.6529139 11.9938112,18.6529139 C11.7153172,18.6529139 11.4969778,18.4724497 11.4560949,18.1927303 L11.4492006,18.0959257 L11.4492006,17.2790098 C9.84012378,17.1181021 8.5528623,16.2516761 8.21866942,14.9396596 C8.19391439,14.8158845 8.16915936,14.6921093 8.16915936,14.5683342 C8.16915936,14.1351212 8.45384219,13.8380609 8.88705518,13.8380609 C9.24600309,13.8380609 9.50593089,14.0361011 9.64208355,14.4445591 C9.81536875,15.1492522 10.3552484,15.6706481 11.2516592,15.8577961 L11.4492006,15.8927282 L11.4492006,12.5631769 L11.3254255,12.5260444 C9.38215575,12.0804538 8.36719959,11.1892728 8.36719959,9.6915936 C8.36719959,8.1421122 9.54939651,7.0517364 11.2506378,6.79625263 L11.4492006,6.77050026 L11.4492006,5.96596184 C11.4492006,5.64414647 11.6719959,5.42135121 11.9938112,5.42135121 Z M12.5384219,12.8354822 L12.5384219,15.8927282 C13.6895307,15.7689531 14.2588963,15.1748324 14.2588963,14.370294 C14.2588963,13.6946273 13.9190072,13.2492081 12.9709294,12.9514827 L12.7859722,12.8973698 L12.5384219,12.8354822 Z M11.4492006,8.18153687 C10.4837545,8.34244456 9.90201135,8.91181021 9.90201135,9.60495101 C9.90201135,10.2287777 10.3009524,10.658525 11.1692781,10.9545731 L11.362558,11.0159876 L11.4492006,11.0407427 L11.4492006,8.18153687 Z" id="Combined-Shape"></path>
                </g>
            </g>
        </g>
    </g>
</svg>