<svg width="24" height="24" viewBox="0 0 24 24" fill="none" xmlns="http://www.w3.org/2000/svg">
<g id="iconography/_care/providers">
<g id="Union">
<path d="M9.48906 7.90264C9.48906 7.90264 9.50189 7.90823 9.52336 7.91664C10.1926 8.1971 13.4462 9.57967 15.3772 12.3744C15.5529 10.8995 15.3358 10.0561 14.3538 9.01474C13.4507 8.05699 11.7391 7.77521 10.3099 7.53992C9.74912 7.44759 9.2318 7.36242 8.82386 7.24638C8.60577 7.18468 8.44705 7.12271 8.32832 7.07636C8.16326 7.01192 8.07549 6.97766 8.01294 7.01621C8.01175 7.01805 8.01025 7.01956 8.00877 7.02104C8.00649 7.02333 8.00426 7.02555 8.00338 7.02884C7.98235 7.12154 8.06126 7.20747 8.19282 7.35074C8.3493 7.52113 8.58026 7.77264 8.80616 8.21311C8.96389 8.52087 9.07984 8.83646 9.19574 9.15192C9.66834 10.4383 10.1402 11.7225 13.4411 12.4653C15.165 12.8526 15.5814 13.7844 15.4679 14.5627C15.5862 14.6279 15.6951 14.7054 15.7922 14.7938C15.8608 14.8573 15.9227 14.9264 15.9771 15C16.111 14.21 15.6254 13.4659 15.379 13.0894C14.7582 12.1429 12.9362 9.75347 9.48906 7.90264Z" fill="#A8ABAC"/>
<path fill-rule="evenodd" clip-rule="evenodd" d="M22 10.5C22 15.1944 17.5228 19 12 19C6.47715 19 2 15.1944 2 10.5C2 5.80558 6.47715 2 12 2C17.5228 2 22 5.80558 22 10.5ZM20 10.5C20 13.7974 16.7354 17 12 17C7.26461 17 4 13.7974 4 10.5C4 7.20259 7.26461 4 12 4C16.7354 4 20 7.20259 20 10.5Z" fill="#A8ABAC"/>
<path d="M21.9315 12.5C21.3493 16.7232 17.1248 20 12 20C6.87517 20 2.65074 16.7232 2.06847 12.5C2.02325 12.828 2 13.1617 2 13.5C2 18.1944 6.47715 22 12 22C17.5228 22 22 18.1944 22 13.5C22 13.1617 21.9767 12.828 21.9315 12.5Z" fill="#A8ABAC"/>
</g>
</g>
</svg>
