<svg width="20" height="20" viewBox="0 0 20 20" fill="none" xmlns="http://www.w3.org/2000/svg">
<g id="icon / outline / coin">
<g id="Union">
<path d="M7.48906 5.90264C7.48906 5.90264 7.50189 5.90823 7.52336 5.91664C8.19262 6.1971 11.4462 7.57967 13.3772 10.3744C13.5529 8.8995 13.3358 8.05615 12.3538 7.01474C11.4507 6.05699 9.73913 5.77521 8.30992 5.53992C7.74912 5.44759 7.2318 5.36242 6.82386 5.24638C6.60577 5.18468 6.44705 5.12271 6.32832 5.07636C6.16326 5.01192 6.07549 4.97766 6.01294 5.01621C6.01175 5.01805 6.01025 5.01956 6.00877 5.02104C6.00649 5.02333 6.00426 5.02555 6.00338 5.02884C5.98235 5.12154 6.06126 5.20747 6.19282 5.35074C6.3493 5.52113 6.58026 5.77264 6.80616 6.21311C6.96389 6.52087 7.07984 6.83646 7.19574 7.15192C7.66834 8.43827 8.14018 9.72252 11.4411 10.4653C13.165 10.8526 13.5814 11.7844 13.4679 12.5627C13.5862 12.6279 13.6951 12.7054 13.7922 12.7938C13.8608 12.8573 13.9227 12.9264 13.9771 13C14.111 12.21 13.6254 11.4659 13.379 11.0894C12.7582 10.1429 10.9362 7.75347 7.48906 5.90264Z" fill="#008BBF"/>
<path fill-rule="evenodd" clip-rule="evenodd" d="M20 8.5C20 13.1944 15.5228 17 10 17C4.47715 17 0 13.1944 0 8.5C0 3.80558 4.47715 0 10 0C15.5228 0 20 3.80558 20 8.5ZM18 8.5C18 11.7974 14.7354 15 10 15C5.26461 15 2 11.7974 2 8.5C2 5.20259 5.26461 2 10 2C14.7354 2 18 5.20259 18 8.5Z" fill="#008BBF"/>
<path d="M19.9315 10.5C19.3493 14.7232 15.1248 18 10 18C4.87517 18 0.650742 14.7232 0.0684743 10.5C0.0232529 10.828 0 11.1617 0 11.5C0 16.1944 4.47715 20 10 20C15.5228 20 20 16.1944 20 11.5C20 11.1617 19.9767 10.828 19.9315 10.5Z" fill="#008BBF"/>
</g>
</g>
</svg>
