<svg width="20" height="20" viewBox="0 0 20 20" fill="none" xmlns="http://www.w3.org/2000/svg">
    <path fill-rule="evenodd" clip-rule="evenodd" d="M13.333 1.667c.46 0 .834.373.834.833v.833h1.666a2.5 2.5 0 0 1 2.496 2.353l.004.147v10a2.5 2.5 0 0 1-2.353 2.496l-.147.004H4.167A2.5 2.5 0 0 1 1.67 15.98l-.004-.147v-10A2.5 2.5 0 0 1 4.02 3.338l.147-.005h1.666V2.5a.833.833 0 0 1 1.667 0v.833h5V2.5c0-.46.373-.833.833-.833zm3.334 9.166H3.333v5c0 .428.322.78.736.828l.098.006h11.666c.428 0 .78-.322.828-.737l.006-.097v-5zM5.833 5H4.167a.833.833 0 0 0-.828.736l-.006.097v3.334h13.334V5.833a.833.833 0 0 0-.737-.827L15.834 5h-1.666v.833a.833.833 0 1 1-1.667 0V5h-5v.833a.833.833 0 1 1-1.667 0V5z" fill="#AD122A"/>
</svg>
