<svg width="40" height="40" viewBox="0 0 40 40" fill="none" xmlns="http://www.w3.org/2000/svg">
    <path fill-rule="evenodd" clip-rule="evenodd" d="M13.75 6.25c.69 0 1.25.56 1.25 1.25v8.75h10V7.5c0-.69.56-1.25 1.25-1.25h5c.69 0 1.25.56 1.25 1.25v5h3.75c.69 0 1.25.56 1.25 1.25v12.5c0 .69-.56 1.25-1.25 1.25H32.5v5c0 .69-.56 1.25-1.25 1.25h-5c-.69 0-1.25-.56-1.25-1.25v-8.75H15v8.75c0 .69-.56 1.25-1.25 1.25h-5c-.69 0-1.25-.56-1.25-1.25v-5H3.75c-.69 0-1.25-.56-1.25-1.25v-12.5c0-.69.56-1.25 1.25-1.25H7.5v-5c0-.69.56-1.25 1.25-1.25h5zm-1.25 17.5v-15H10v22.5h2.5v-7.5zm2.5-2.5h10v-2.5H15v2.5zm12.5 2.5v7.5H30V8.75h-2.5v15zM7.5 15H5v10h2.5V15zM35 25h-2.5V15H35v10z" fill="#A8ABAC"/>
</svg>
