<svg xmlns="http://www.w3.org/2000/svg" width="24" height="24" viewBox="0 0 24 24">
    <g fill="none" fill-rule="evenodd">
        <g fill="#A8ABAC">
            <g>
                <g>
                    <g>
                        <g>
                            <path d="M20 15c.513 0 .936.386.993.883L21 16v2c0 1.598-1.249 2.904-2.824 2.995L18 21H6c-1.598 0-2.904-1.249-2.995-2.824L3 18v-2c0-.552.448-1 1-1 .513 0 .936.386.993.883L5 16v2c0 .513.386.936.883.993L6 19h12c.513 0 .936-.386.993-.883L19 18v-2c0-.552.448-1 1-1zM12 3c.513 0 .936.386.993.883L13 4v9.584l2.293-2.291c.39-.39 1.024-.39 1.414 0 .36.36.388.928.083 1.32l-.083.094-4 4-.112.097-.11.071-.062.031-.11.044-.11.03-.117.016L12 17l-.117-.007-.112-.02-.113-.033-.081-.034-.098-.052-.092-.064c-.037-.029-.066-.055-.094-.083l-4-4c-.39-.39-.39-1.024 0-1.414.36-.36.928-.388 1.32-.083l.094.083L11 13.585V4c0-.552.448-1 1-1z" transform="translate(-1088 -1336) translate(144 1192) translate(0 64) translate(0 64) translate(944 16)"/>
                        </g>
                    </g>
                </g>
            </g>
        </g>
    </g>
</svg>
