<svg xmlns="http://www.w3.org/2000/svg" width="16" height="17" viewBox="0 0 16 17">
    <g fill="none" fill-rule="evenodd">
        <g fill="#3E7128">
            <g>
                <g>
                    <g>
                        <path d="M10 1.333c1.473 0 2.667 1.194 2.667 2.667v9.724c0 .368-.299.667-.667.667-.177 0-.346-.07-.471-.196L8.47 11.138c-.26-.26-.682-.26-.942 0L4.47 14.195c-.26.26-.682.26-.942 0-.125-.125-.196-.294-.196-.471V4c0-1.473 1.194-2.667 2.667-2.667h4zm0 1.334H6c-.703 0-1.279.544-1.33 1.233l-.003.1v8.113l1.919-1.918c.75-.75 1.947-.78 2.732-.09l.096.09 1.92 1.919V4c0-.703-.545-1.279-1.234-1.33l-.1-.003z" transform="translate(-459.000000, -208.000000) translate(144.000000, 184.000000) translate(307.000000, 20.000000) translate(8.000000, 4.500000)"/>
                    </g>
                </g>
            </g>
        </g>
    </g>
</svg>
