<svg width="68" height="68" viewBox="0 0 68 68" fill="none" xmlns="http://www.w3.org/2000/svg">
<path fill-rule="evenodd" clip-rule="evenodd" d="M5.66669 7.33334C5.66669 10.4397 7.79131 13.0499 10.6667 13.79V17.3333H4.00002C2.15907 17.3333 0.666687 18.8257 0.666687 20.6667V30.6667C0.666687 32.0474 1.50615 33.232 2.70254 33.7381L2.7104 33.7414C3.10709 33.908 3.54281 34 4.00002 34H14V37.3333H4.00002C2.15907 37.3333 0.666687 38.8257 0.666687 40.6667V50.6667C0.666687 52.0474 1.50615 53.232 2.70254 53.7381L2.7104 53.7414C3.10709 53.908 3.54281 54 4.00002 54H14V60.2525C14 60.5177 13.8947 60.772 13.7071 60.9596L7.33335 67.3333H27.3334L20.9596 60.9596C20.772 60.772 20.6667 60.5177 20.6667 60.2525V54H47.3334V60.2525C47.3334 60.5177 47.228 60.772 47.0405 60.9596L40.6667 67.3333H60.6667L54.2929 60.9596C54.1054 60.772 54 60.5177 54 60.2525V54H64C65.841 54 67.3334 52.5076 67.3334 50.6667V40.6667C67.3334 39.0558 66.1908 37.7119 64.6718 37.4011C64.6167 37.3898 64.5611 37.3799 64.505 37.3713C64.3403 37.3463 64.1717 37.3333 64 37.3333H54V34H64C65.841 34 67.3334 32.5076 67.3334 30.6667V20.6667C67.3334 19.0558 66.1908 17.7119 64.6718 17.4011C64.6167 17.3898 64.5611 17.3799 64.505 17.3713C64.3403 17.3463 64.1717 17.3333 64 17.3333H59V13.79C61.8754 13.0499 64 10.4397 64 7.33334C64 3.65144 61.0153 0.666672 57.3334 0.666672C53.6515 0.666672 50.6667 3.65144 50.6667 7.33334C50.6667 10.4397 52.7913 13.0499 55.6667 13.79V17.3333H14V13.79C16.8754 13.0499 19 10.4397 19 7.33334C19 3.65144 16.0153 0.666672 12.3334 0.666672C8.65146 0.666672 5.66669 3.65144 5.66669 7.33334ZM47.3334 34H20.6667V37.3333H47.3334V34ZM15.6667 7.33334C15.6667 9.17429 14.1743 10.6667 12.3334 10.6667C10.4924 10.6667 9.00002 9.17429 9.00002 7.33334C9.00002 5.49239 10.4924 4.00001 12.3334 4.00001C14.1743 4.00001 15.6667 5.49239 15.6667 7.33334ZM57.3334 10.6667C59.1743 10.6667 60.6667 9.17429 60.6667 7.33334C60.6667 5.49239 59.1743 4.00001 57.3334 4.00001C55.4924 4.00001 54 5.49239 54 7.33334C54 9.17429 55.4924 10.6667 57.3334 10.6667ZM12.4518 44L9.11843 47.3333H18.5465L21.8799 44H12.4518ZM27.1167 47.3333H36.5448L39.8781 44H30.45L27.1167 47.3333ZM48.4483 44L45.1149 47.3333H54.543L57.8764 44H48.4483ZM9.11843 27.3333L12.4518 24H21.8799L18.5465 27.3333H9.11843ZM36.5448 27.3333H27.1167L30.45 24H39.8781L36.5448 27.3333ZM45.1149 27.3333L48.4483 24H57.8764L54.543 27.3333H45.1149Z" fill="#D8D8D8"/>
</svg>