<svg width="80" height="80" viewBox="0 0 80 80" fill="none" xmlns="http://www.w3.org/2000/svg">
<path fill-rule="evenodd" clip-rule="evenodd" d="M40 6.66675C49.2048 6.66675 56.6667 14.1287 56.6667 23.3334V33.3334H60C63.6819 33.3334 66.6667 36.3182 66.6667 40.0001V66.6668C66.6667 70.3486 63.6819 73.3334 60 73.3334H20C16.3181 73.3334 13.3334 70.3486 13.3334 66.6668V40.0001C13.3334 36.3182 16.3181 33.3334 20 33.3334H23.3334V23.3334C23.3334 14.1287 30.7953 6.66675 40 6.66675ZM40 46.6667C37.2386 46.6667 35 48.9053 35 51.6667C35 53.3324 35.8145 54.8078 37.0669 55.7165L37.4554 55.9717L35 63.3334H45L42.548 55.9698C44.016 55.0986 45 53.4976 45 51.6667C45 48.9053 42.7615 46.6667 40 46.6667ZM40 13.3334C34.6744 13.3334 30.3212 17.4965 30.017 22.7458L30 23.3334V33.3334H50V23.3334C50 18.0078 45.837 13.6545 40.5876 13.3504L40 13.3334Z" fill="#D8D8D8"/>
</svg>
