<svg width="16" height="16" viewBox="0 0 16 16" fill="none" xmlns="http://www.w3.org/2000/svg">
    <path fill-rule="evenodd" clip-rule="evenodd" d="M8 1.333A4.667 4.667 0 0 1 12.666 6c0 .61-.196 1.37-.59 2.277l-.156.347c-.139.295-.296.604-.473.928l-.221.396c-.077.134-.157.27-.24.41l-.258.422-.276.438a37.42 37.42 0 0 1-.295.45l-.314.466-.163.237-.341.486-.36.5-.378.513-.396.528-.205.269-.406-.535-.387-.52a56.15 56.15 0 0 1-.187-.255l-.36-.5-.34-.486-.164-.237-.313-.465a36.82 36.82 0 0 1-.295-.451l-.277-.438a28.481 28.481 0 0 1-.131-.213l-.25-.416-.117-.203-.22-.396a17.114 17.114 0 0 1-.473-.928l-.157-.347C3.53 7.37 3.333 6.61 3.333 6A4.667 4.667 0 0 1 8 1.333zM8 4a2 2 0 1 0 0 4 2 2 0 0 0 0-4z" fill="#A8ABAC"/>
</svg>
