<svg width="24" height="24" viewBox="0 0 24 24" fill="none" xmlns="http://www.w3.org/2000/svg">
<path fill-rule="evenodd" clip-rule="evenodd" d="M14 2H8C6.34315 2 5 3.34315 5 5V19C5 20.6569 6.34315 22 8 22H18C19.6569 22 21 20.6569 21 19V9V7C21 6.73478 20.8946 6.48043 20.7071 6.29289L16.7071 2.29289C16.5196 2.10536 16.2652 2 16 2H14ZM14 4H8C7.44772 4 7 4.44772 7 5V19C7 19.5523 7.44772 20 8 20H18C18.5523 20 19 19.5523 19 19V9H16C14.9456 9 14.0818 8.18412 14.0055 7.14926L14 7V4ZM18.585 7L16 4.415V7H18.585Z" fill="#A8ABAC"/>
</svg>
