<svg xmlns="http://www.w3.org/2000/svg" width="80" height="80" viewBox="0 0 80 80">
    <g fill="none" fill-rule="evenodd">
        <g fill="#F7911D">
            <g>
                <g>
                    <path d="M40.447 8.008c.194.097.35.254.447.448l28.382 56.763c.247.494.047 1.095-.447 1.342-.139.07-.292.106-.447.106H11.618c-.552 0-1-.448-1-1 0-.156.036-.309.106-.448L39.106 8.456c.247-.494.847-.695 1.341-.448zm1.886 45.325h-4.666c-.553 0-1 .448-1 1V59c0 .552.447 1 1 1h4.666c.553 0 1-.448 1-1v-4.667c0-.552-.447-1-1-1zm0-26.666h-4.666c-.553 0-1 .447-1 1v18c0 .552.447 1 1 1h4.666c.553 0 1-.448 1-1v-18c0-.553-.447-1-1-1z" transform="translate(-600 -276) translate(400 236) translate(200 40)"/>
                </g>
            </g>
        </g>
    </g>
</svg>
