<svg xmlns="http://www.w3.org/2000/svg" width="20" height="20" viewBox="0 0 20 20">
    <g fill="none" fill-rule="evenodd">
        <g fill="#474B55">
            <g>
                <g>
                    <path d="M11.6 4.229l.023.023 4.701 4.856c.236.243.324.577.263.887l.004.02c.047.267-.016.549-.187.775l-.08.093-4.701 4.856-.023.023c-.366.354-.934.373-1.321.062l-.093-.085-.131-.136c-.347-.358-.374-.91-.08-1.298l.08-.093 3.05-3.152H4.329c-.553 0-1-.448-1-1v-.154c0-.552.447-1 1-1h8.753l-3.027-3.127c-.376-.388-.376-1.004 0-1.391l.131-.136c.384-.397 1.017-.407 1.414-.023z" transform="translate(-708 -678) translate(452 360) matrix(-1 0 0 1 276 318)"/>
                </g>
            </g>
        </g>
    </g>
</svg>
