<svg xmlns="http://www.w3.org/2000/svg" width="41" height="40" viewBox="0 0 41 40">
    <g fill="none" fill-rule="evenodd">
        <g fill="#A8ABAC">
            <g>
                <g>
                    <g>
                        <g>
                            <path d="M9.044 9.816c.093.466-.176.92-.612 1.07l-.123.033-1.346.27c-.608.121-1.08.589-1.217 1.183l-.028.165-.659 5.57C6.38 16.951 8.108 16.25 10 16.25c3.87 0 7.055 2.93 7.457 6.694.793-.288 1.65-.444 2.543-.444.893 0 1.749.156 2.543.442.402-3.762 3.587-6.692 7.457-6.692 1.903 0 3.64.709 4.962 1.876l-.676-5.592-.028-.164c-.125-.54-.527-.974-1.054-1.14l-.162-.04-1.35-.27-.124-.034c-.436-.15-.705-.604-.612-1.07.093-.465.516-.78.977-.752l.126.017 1.35.27.227.053c1.268.344 2.231 1.384 2.476 2.675l.036.23 1.2 9.935c.08.393.13.798.146 1.211l.022.183.006.127c0 .069-.01.137-.025.202l-.018.343c-.286 3.88-3.525 6.94-7.479 6.94-3.437 0-6.334-2.312-7.22-5.466l.02.076c-.797-.543-1.762-.86-2.8-.86-1.038 0-2.003.317-2.802.858l-.016.058C16.253 29.002 13.39 31.25 10 31.25c-4.142 0-7.5-3.358-7.5-7.5 0-.612.073-1.208.212-1.777l1.144-9.656c.165-1.4 1.166-2.549 2.512-2.914l.227-.053 1.346-.27c.508-.1 1.002.228 1.103.736zM30 18.75c-2.761 0-5 2.239-5 5s2.239 5 5 5 5-2.239 5-5-2.239-5-5-5zm-20 0c-2.761 0-5 2.239-5 5s2.239 5 5 5 5-2.239 5-5-2.239-5-5-5z" transform="translate(-790 -800) translate(485 784) translate(219) translate(86.33 16)"/>
                        </g>
                    </g>
                </g>
            </g>
        </g>
    </g>
</svg>
