<svg xmlns="http://www.w3.org/2000/svg" width="40" height="40" viewBox="0 0 40 40">
    <g fill="none" fill-rule="evenodd">
        <g fill="#A8ABAC">
            <g>
                <g>
                    <g>
                        <path d="M32.5 7.5c2.761 0 5 2.239 5 5v15c0 2.761-2.239 5-5 5h-25c-2.761 0-5-2.239-5-5v-15c0-2.761 2.239-5 5-5h25zm2.5 15H5v5c0 1.318 1.02 2.398 2.313 2.493L7.5 30h25c1.318 0 2.398-1.02 2.493-2.313L35 27.5v-5zm-21.481 2.425c.918 0 1.412.669 1.412 1.512l-.018.307h-2.2c.05.556.48.843.956.843.307 0 .576-.125.743-.226l.13-.087.046-.037.306.57-.089.07-.152.1c-.219.13-.577.285-1.04.285-1.057 0-1.713-.762-1.713-1.668 0-.982.669-1.669 1.619-1.669zm11.068 0c.976 0 1.757.694 1.757 1.669 0 .981-.782 1.668-1.75 1.668-.975 0-1.757-.687-1.757-1.668 0-.975.782-1.669 1.75-1.669zm-8.068-.794v.919h.725v.631h-.725v1.238c0 .525.412.6.631.6l.105-.006.039-.007v.694l-.093.012-.151.007-.173-.007c-.435-.035-1.061-.223-1.143-1.014l-.009-.18v-1.337h-.412v-.631h.43v-.919h.776zm-8.213-.381l1.682 2.563.057.09.113.202.198.395h.013l-.037-.47-.007-.218V23.75h.8v4.438h-.8L8.644 25.63l-.057-.09-.114-.202-.198-.395h-.013l.037.47.007.217v2.556H7.5V23.75h.806zM18.431 25l.556 2.094.048.232.015.105h.012l.037-.175.038-.162.588-2.088h.706l.588 2.088.069.337h.012l.048-.254.577-2.177h.825l-.969 3.188H20.7l-.56-1.903-.049-.208-.01-.052h-.012l-.034.18-.041.164-.538 1.819h-.887L17.594 25h.837zm10.325-.044l.054.002.09.01v.782l-.113-.01c-.023-.002-.048-.002-.075-.002-.337 0-.718.193-.868.668-.034.104-.053.217-.062.336l-.007.183v1.262h-.794V25h.763v.55l-.013.225h.013c.143-.456.525-.819 1.012-.819zm1.475-1.206v2.375h.394L31.394 25h.881l-1.006 1.425v.012l1.131 1.75h-.912l-.844-1.393h-.413v1.393h-.794V23.75h.794zm-5.637 1.85c-.519 0-.95.406-.95.994 0 .593.431.993.95.993.512 0 .944-.4.944-.993 0-.588-.432-.994-.944-.994zM13.5 25.537c-.361 0-.623.198-.73.532l-.032.131h1.393c-.012-.431-.281-.662-.631-.662zM32.5 10h-25c-1.318 0-2.398 1.02-2.493 2.313L5 12.5V20h30v-7.5c0-1.318-1.02-2.398-2.313-2.493L32.5 10zm-18.76 1.25c2.16 0 3.74 1.6 3.74 3.65 0 2.1-1.58 3.74-3.74 3.74S10 17 10 14.9c0-2.05 1.58-3.65 3.74-3.65zm14.36 0c1.278 0 2.108.527 2.47.82l.176.155.034.035-.81 1.32-.091-.076-.153-.113c-.31-.217-.886-.541-1.546-.541-1.37 0-2.02 1.01-2.02 2.04 0 1.06.7 2.15 2.02 2.15.608 0 1.133-.278 1.476-.522l.2-.154.187-.166.037-.038.9 1.28-.12.125-.149.134-.096.08-.235.171c-.483.327-1.252.69-2.28.69-2.24 0-3.75-1.59-3.75-3.71 0-2.08 1.6-3.68 3.75-3.68zm-4.14.12v1.5h-2.17v5.65h-1.75v-5.65h-2.17v-1.5h6.09zm-10.22 1.48c-1.07 0-1.93.88-1.93 2.05 0 1.22.86 2.14 1.93 2.14 1.07 0 1.93-.92 1.93-2.14 0-1.17-.86-2.05-1.93-2.05z" transform="translate(-571.000000, -1250.000000) translate(485.000000, 784.000000) translate(0.000000, 450.000000) translate(86.000000, 16.000000)"/>
                    </g>
                </g>
            </g>
        </g>
    </g>
</svg>
