<svg xmlns="http://www.w3.org/2000/svg" width="16" height="16" viewBox="0 0 16 16">
    <g fill="none" fill-rule="evenodd">
        <g fill="#474B55">
            <g>
                <g>
                    <path d="M8 1.333c.212 0 .467.066.652.181 1.245.777 3.222 1.454 4.049 1.773.604.233 1.217.18 1.291.766L14 4.18V9.17c0 2.388-1.418 3.295-5.515 5.365-.182.097-.371.132-.485.132-.121 0-.311-.035-.493-.132-3.981-2.029-5.43-2.929-5.504-5.18L2 9.17V4.18c0-.51.434-.624.916-.733l.243-.055c.122-.03.243-.063.356-.105.827-.312 2.8-.977 3.833-1.773.206-.115.432-.18.652-.18zm0 1.334c-.171 0-.347.052-.507.144-.803.637-2.338 1.169-2.981 1.418-.501.194-1.179.138-1.179.714v3.993c0 1.91 1.104 2.625 4.284 4.292.141.078.289.105.383.105.088 0 .236-.027.378-.105 3.185-1.656 4.289-2.381 4.289-4.292V4.943c0-.576-.51-.514-1.01-.714-.644-.254-2.182-.797-3.15-1.418-.143-.092-.342-.144-.507-.144zm0 2.666c.342 0 .624.206.662.471l.005.063v1.466h1.466c.295 0 .534.299.534.667 0 .342-.206.624-.471.662l-.063.005H8.666v1.466c0 .295-.298.534-.666.534-.342 0-.624-.206-.662-.471l-.005-.063V8.666H5.867c-.295 0-.534-.298-.534-.666 0-.342.206-.624.471-.662l.063-.005h1.466V5.867c0-.295.299-.534.667-.534z" transform="translate(-152 -24) translate(144) translate(8 24)"/>
                </g>
            </g>
        </g>
    </g>
</svg>
