<svg xmlns="http://www.w3.org/2000/svg" width="40" height="40" viewBox="0 0 40 40">
    <g fill="none" fill-rule="evenodd">
        <g fill="#A8ABAC">
            <g>
                <g>
                    <g>
                        <path d="M32.5 3.75c1.997 0 3.63 1.561 3.744 3.53l.006.22v25c0 1.997-1.561 3.63-3.53 3.744l-.22.006h-25c-1.997 0-3.63-1.561-3.744-3.53l-.006-.22v-25c0-1.997 1.561-3.63 3.53-3.744l.22-.006h25zm-13.75 17.5H6.25V32.5c0 .641.483 1.17 1.104 1.242l.146.008h11.25v-12.5zm15 0h-12.5v12.5H32.5c.641 0 1.17-.483 1.242-1.104l.008-.146V21.25zm-23.018 2.714l1.768 1.768 1.768-1.768c.488-.488 1.28-.488 1.768 0 .488.489.488 1.28 0 1.768L14.269 27.5l1.767 1.769c.488.488.488 1.28 0 1.768-.489.488-1.28.488-1.768 0L12.5 29.268l-1.768 1.768c-.488.488-1.28.488-1.768 0-.488-.489-.488-1.28 0-1.768l1.768-1.768-1.768-1.768c-.488-.488-.488-1.28 0-1.768.489-.488 1.28-.488 1.768 0zM31.25 28.75c.69 0 1.25.56 1.25 1.25s-.56 1.25-1.25 1.25h-7.5c-.69 0-1.25-.56-1.25-1.25s.56-1.25 1.25-1.25h7.5zm0-5c.69 0 1.25.56 1.25 1.25s-.56 1.25-1.25 1.25h-7.5c-.69 0-1.25-.56-1.25-1.25s.56-1.25 1.25-1.25h7.5zm-12.5-17.5H7.5c-.641 0-1.17.483-1.242 1.104L6.25 7.5v11.25h12.5V6.25zm13.75 0H21.25v12.5h12.5V7.5c0-.641-.483-1.17-1.104-1.242L32.5 6.25zm-20 1.25c.69 0 1.25.56 1.25 1.25v2.499l2.5.001c.69 0 1.25.56 1.25 1.25s-.56 1.25-1.25 1.25h-2.5v2.5c0 .69-.56 1.25-1.25 1.25s-1.25-.56-1.25-1.25v-2.5h-2.5c-.69 0-1.25-.56-1.25-1.25s.56-1.25 1.25-1.25h2.5v-2.5c0-.69.56-1.25 1.25-1.25zm18.75 3.75c.69 0 1.25.56 1.25 1.25s-.56 1.25-1.25 1.25h-7.5c-.69 0-1.25-.56-1.25-1.25s.56-1.25 1.25-1.25h7.5z" transform="translate(-571 -1100) translate(485 784) translate(0 300) translate(86 16)"/>
                    </g>
                </g>
            </g>
        </g>
    </g>
</svg>
