<svg xmlns="http://www.w3.org/2000/svg" width="16" height="16" viewBox="0 0 16 16">
    <g fill="none" fill-rule="evenodd">
        <g fill="#474B55">
            <g>
                <g>
                    <g>
                        <path d="M6 1.333c2.577 0 4.667 2.09 4.667 4.667 0 1.056-.351 2.03-.943 2.812l.013-.017 4.734 4.734c.26.26.26.682 0 .942-.24.24-.618.26-.88.056l-.062-.056-4.734-4.734.017-.013c-.782.592-1.756.943-2.812.943-2.577 0-4.667-2.09-4.667-4.667S3.423 1.333 6 1.333zm0 1.334C4.16 2.667 2.667 4.159 2.667 6c0 1.84 1.492 3.333 3.333 3.333 1.84 0 3.333-1.492 3.333-3.333 0-1.84-1.492-3.333-3.333-3.333z" transform="translate(-244 -24) translate(144) translate(92) translate(8 24)"/>
                    </g>
                </g>
            </g>
        </g>
    </g>
</svg>
