<svg xmlns="http://www.w3.org/2000/svg" width="40" height="40" viewBox="0 0 40 40">
    <g fill="none" fill-rule="evenodd">
        <g fill="#A8ABAC">
            <g>
                <g>
                    <g>
                        <path d="M13.55 3.777c1.124 0 2.102.75 2.404 1.816l.047.192.747 3.723c.173.86-.118 1.707-.702 2.279l3.415 11.1c.86 2.793 1.085 5.74.664 8.628l-.093.577-.407 2.31c-.303 1.717-1.746 2.988-3.467 3.091l-.226.007h-7.94c-1.792 0-3.322-1.265-3.675-3l-.038-.22-.318-2.228c-.408-2.86-.222-5.77.544-8.55l.173-.594L8.1 11.786c-.463-.454-.75-1.086-.75-1.786 0-.11.007-.22.021-.33l.027-.162.748-3.723c.222-1.103 1.149-1.913 2.254-2l.197-.008h2.953zM32.5 17.5c1.318 0 2.398 1.02 2.493 2.313L35 20v2.5c0 .292-.05.573-.142.834.788.638 1.313 1.59 1.384 2.666l.008.25v7.5c0 1.997-1.561 3.63-3.53 3.744l-.22.006H25c-1.997 0-3.63-1.561-3.744-3.53l-.006-.22v-7.5c0-1.178.543-2.23 1.393-2.917-.07-.195-.115-.402-.134-.616L22.5 22.5V20c0-1.318 1.02-2.398 2.313-2.493L25 17.5h7.5zm-18.85-5h-3.154L7.068 23.644c-.69 2.244-.947 4.597-.758 6.93l.057.584.069.54.318 2.229c.081.568.537 1.002 1.096 1.065l.142.008h7.94c.556 0 1.039-.366 1.196-.887l.035-.146.407-2.31c.441-2.5.322-5.067-.347-7.513l-.151-.523L13.65 12.5zM32.5 25H25c-.641 0-1.17.483-1.242 1.104l-.008.146v7.5c0 .641.483 1.17 1.104 1.242L25 35h7.5c.641 0 1.17-.483 1.242-1.104l.008-.146v-7.5c0-.69-.56-1.25-1.25-1.25zm-20.427-2.5c1.381 0 2.5 2.239 2.5 5s-1.119 5-2.5 5c-1.38 0-2.5-2.239-2.5-5s1.12-5 2.5-5zM32.5 20H25v2.5h7.5V20zM13.55 6.277h-2.953L9.85 10h4.447l-.747-3.723z" transform="translate(-791.000000, -1250.000000) translate(485.000000, 784.000000) translate(220.000000, 450.000000) translate(86.000000, 16.000000)"/>
                    </g>
                </g>
            </g>
        </g>
    </g>
</svg>
