<svg xmlns="http://www.w3.org/2000/svg" width="40" height="40" viewBox="0 0 40 40">
    <g fill="none" fill-rule="evenodd">
        <g fill="#A8ABAC">
            <g>
                <g>
                    <g>
                        <path d="M19.688 3.75c3.279 0 5.937 2.658 5.937 5.938 0 .468-.055.927-.16 1.37l.222.087.462.196 4.084-2.209c.642-.347 1.398.138 1.384.837l-.01.125-.713 4.799c.196.24.377.483.545.729l.243.373.15.254 1.605.001c1.084 0 1.984.788 2.158 1.823l.023.185.007.18v5c0 1.147-.884 2.088-2.008 2.18l-.18.007h-1.604l-.113.193c-.557.912-1.268 1.752-2.107 2.5l-.367.314-.275.218.612.873c.808 1.154.63 2.704-.36 3.647l-.163.144-.167.126c-1.215.85-2.868.608-3.79-.523l-.127-.167-1.127-1.611-.362.094c-.873.208-1.774.345-2.691.405l-.553.028-.555.009c-1.115 0-2.212-.11-3.273-.326l-.527-.116-.362-.093-1.127 1.61c-.81 1.156-2.333 1.517-3.559.904l-.181-.1-.177-.114c-1.214-.85-1.551-2.487-.804-3.74l.114-.177.61-.874-.169-.132c-2.312-1.86-3.741-4.355-3.955-7.067l-.021-.355-.007-.358c0-1.606.42-3.125 1.176-4.492C5.836 15.455 5 14.008 5 12.187c0-.517.42-.937.938-.937.517 0 .937.42.937.938 0 1.17.506 2.045 1.603 2.704 1.346-1.65 3.226-2.98 5.433-3.835-.106-.442-.161-.901-.161-1.37 0-3.279 2.658-5.937 5.938-5.937zm9.788 7.922l-2.849 1.544c-.266.143-.585.15-.857.018-.331-.162-.672-.31-1.022-.444-.143.238-.303.462-.48.675.28.115.56.244.839.384.463.232.65.795.419 1.258-.232.463-.795.65-1.258.419-1.4-.7-2.787-1.079-4.167-1.142l-.413-.009c-1.517 0-3.041.381-4.581 1.151-.463.232-1.026.044-1.258-.42-.232-.462-.044-1.025.42-1.257.278-.14.558-.268.837-.386-.176-.213-.336-.437-.48-.671-3.861 1.477-6.501 4.594-6.501 8.146 0 2.68 1.505 5.189 4.096 6.912.402.268.53.79.315 1.208l-.067.11-1.141 1.63c-.297.425-.194 1.01.23 1.306.385.27.904.21 1.218-.122l.087-.108 1.408-2.007.069-.11c.226-.362.668-.526 1.075-.398 1.347.421 2.79.641 4.273.641 1.482 0 2.925-.22 4.272-.641.362-.113.751.003.992.284l.083.113.043.07 1.434 2.048c.296.424.881.527 1.305.23.386-.27.506-.777.302-1.186l-.071-.12-1.142-1.63c-.302-.43-.19-1.026.248-1.318 1.457-.969 2.589-2.203 3.288-3.586.14-.276.405-.462.706-.505l.13-.009h2.16c.147 0 .271-.103.304-.24l.008-.073v-5c0-.147-.103-.271-.241-.304l-.072-.008h-2.159c-.353 0-.676-.2-.836-.515-.323-.639-.74-1.247-1.24-1.814-.152-.173-.235-.394-.234-.621l.01-.137.498-3.366zm-9.784 5.515c.182 0 .325.119.352.296l.004.061v.527c.95.108 1.7.628 1.945 1.384l.032.115c.025.081.04.162.04.243 0 .276-.194.47-.47.47-.258 0-.412-.146-.502-.38-.135-.467-.466-.766-.934-.884l-.11-.024v2.058l.129.024c1.329.243 2.01.867 2.01 1.913 0 1.117-.867 1.805-2.012 1.955l-.128.014v.527c0 .219-.154.364-.356.364-.183 0-.326-.118-.352-.3l-.005-.064v-.535c-1.053-.105-1.896-.673-2.115-1.532-.016-.08-.032-.162-.032-.243 0-.283.186-.478.47-.478.235 0 .405.13.494.397.113.461.467.803 1.054.925l.129.023v-2.18l-.081-.024c-1.272-.292-1.937-.875-1.937-1.856 0-1.014.774-1.728 1.888-1.895l.13-.017v-.527c0-.21.146-.357.357-.357zm.356 4.855v2.001c.754-.08 1.127-.47 1.127-.997 0-.442-.223-.733-.844-.928l-.12-.036-.163-.04zm-.713-3.047c-.632.105-1.013.478-1.013.932 0 .408.261.69.83.883l.183.057v-1.872zm8.79-1.808c.518 0 .938.42.938.938s-.42.938-.938.938-.938-.42-.938-.938.42-.938.938-.938zM19.687 5.626c-2.243 0-4.062 1.819-4.062 4.063 0 .177.011.352.034.525l.046.275.08.333.041.132.092.252.07.165.127.255.057.1.066.111.154.228.163.211c.06.073.123.144.19.213l.182.18.096.083.058-.011c.508-.095 1.025-.163 1.55-.201l.526-.03.53-.009c.534 0 1.062.03 1.581.087l.517.068.566.096.096-.081c.126-.117.244-.241.354-.372l.237-.312.11-.171.132-.229.106-.216.102-.244.085-.249.06-.22.042-.187.041-.257.025-.261.009-.264c0-2.244-1.819-4.063-4.063-4.063z" transform="translate(-791 -1100) translate(485 784) translate(220 300) translate(86 16)"/>
                    </g>
                </g>
            </g>
        </g>
    </g>
</svg>
