<svg xmlns="http://www.w3.org/2000/svg" width="16" height="16" viewBox="0 0 16 16">
    <g fill="none" fill-rule="evenodd">
        <g fill="#3E7128">
            <g>
                <g>
                    <g>
                        <path d="M8 12.667c-1.575 0-2.968-.78-3.813-1.976L4 10.667c-1.473 0-2.667-1.194-2.667-2.667 0-1.473 1.194-2.667 2.667-2.667l.168.006C5.009 4.127 6.412 3.333 8 3.333l.084.001c.292-1.148 1.338-2 2.583-2 1.472 0 2.666 1.193 2.666 2.666 0 .892-.437 1.681-1.11 2.165l.052-.037c.252.572.392 1.205.392 1.872s-.14 1.3-.392 1.874l.042.031c.619.488 1.016 1.245 1.016 2.095 0 1.473-1.194 2.667-2.666 2.667-1.19 0-2.197-.78-2.541-1.855l-.042-.147-.084.002zm2.667-2c-.737 0-1.334.597-1.334 1.333s.597 1.333 1.334 1.333c.736 0 1.333-.597 1.333-1.333s-.597-1.333-1.333-1.333zM8 4.667c-.996 0-1.89.436-2.5 1.128l-.025-.017C6.193 6.256 6.667 7.073 6.667 8c0 .932-.478 1.752-1.202 2.229l.036-.024c.609.691 1.503 1.128 2.499 1.128l.085-.002c.296-1.148 1.34-1.998 2.582-1.998.144 0 .285.012.422.034l-.045-.007c.186-.415.29-.875.29-1.36 0-.485-.104-.945-.29-1.36L11 6.645c-.11.014-.221.02-.334.02-1.19 0-2.197-.778-2.541-1.854l-.041-.143L8 4.667zm-4 2c-.736 0-1.333.597-1.333 1.333S3.264 9.333 4 9.333 5.333 8.736 5.333 8 4.736 6.667 4 6.667zm6.667-4c-.737 0-1.334.597-1.334 1.333s.597 1.333 1.334 1.333C11.403 5.333 12 4.736 12 4s-.597-1.333-1.333-1.333z" transform="translate(-349 -24) translate(144) translate(197) translate(8 24)"/>
                    </g>
                </g>
            </g>
        </g>
    </g>
</svg>
