<svg xmlns="http://www.w3.org/2000/svg" width="25" height="24" viewBox="0 0 25 24">
    <g fill="none" fill-rule="evenodd">
        <g fill="#474B55">
            <g>
                <g>
                    <path d="M19.071 4.929c.39.39.39 1.024 0 1.414L13.414 12l5.657 5.657c.39.39.39 1.024 0 1.414-.39.39-1.024.39-1.414 0L12 13.414l-5.657 5.657c-.39.39-1.024.39-1.414 0-.39-.39-.39-1.024 0-1.414L10.586 12 4.929 6.343c-.39-.39-.39-1.024 0-1.414.39-.39 1.024-.39 1.414 0L12 10.586l5.657-5.657c.39-.39 1.024-.39 1.414 0z" transform="translate(-728 -16) translate(-.5) translate(729 16)"/>
                </g>
            </g>
        </g>
    </g>
</svg>
