<svg xmlns="http://www.w3.org/2000/svg" width="20" height="21" viewBox="0 0 20 21">
    <g fill="none" fill-rule="evenodd">
        <g fill="#3E7128">
            <g>
                <g>
                    <g>
                        <path d="M10 1.667c.265 0 .584.081.815.225 1.556.971 4.028 1.818 5.061 2.216.761.294 1.533.225 1.617.975l.007.14v6.24c0 2.985-1.773 4.119-6.893 6.706-.228.121-.465.164-.607.164-.152 0-.389-.043-.616-.164-4.997-2.547-6.804-3.67-6.881-6.51l-.003-.196v-6.24c0-.899 1.088-.812 1.894-1.115 1.034-.39 3.5-1.22 4.79-2.216.259-.144.541-.225.816-.225zm0 1.666c-.214 0-.434.066-.634.181-1.004.796-2.922 1.461-3.726 1.773-.627.242-1.473.172-1.473.892v4.991c0 2.388 1.379 3.281 5.354 5.365.177.097.361.132.479.132.11 0 .295-.035.472-.132 3.982-2.07 5.361-2.977 5.361-5.365V6.18c0-.72-.636-.644-1.263-.893-.804-.319-2.726-.996-3.936-1.773-.18-.115-.428-.18-.634-.18zm0 3.334c.427 0 .78.257.828.589l.005.077v1.834h1.834c.368 0 .666.373.666.833 0 .427-.257.78-.589.828l-.077.005h-1.834v1.834c0 .368-.373.666-.833.666-.427 0-.78-.257-.828-.589l-.005-.077v-1.834H7.333c-.368 0-.666-.373-.666-.833 0-.427.257-.78.589-.828l.077-.005h1.834V7.333c0-.368.373-.666.833-.666z" transform="translate(-478 -211) translate(1 56) translate(455 142) translate(22 13.173)"/>
                    </g>
                </g>
            </g>
        </g>
    </g>
</svg>
