<svg xmlns="http://www.w3.org/2000/svg" width="20" height="20" viewBox="0 0 20 20">
    <g fill="none" fill-rule="evenodd">
        <g fill="#474B55">
            <g>
                <g>
                    <g>
                        <path d="M13.333 1.667c1.841 0 3.334 1.492 3.334 3.333 0 1.09-.524 2.059-1.334 2.667l.01-.008c.316.716.49 1.508.49 2.341 0 .833-.174 1.625-.489 2.342l.093.072c.75.612 1.23 1.543 1.23 2.586 0 1.84-1.493 3.333-3.334 3.333-1.584 0-2.91-1.105-3.25-2.587l.022.085-.105.002c-1.985 0-3.739-.991-4.792-2.506l-.025.001c-.06.004-.122.005-.183.005-1.84 0-3.333-1.492-3.333-3.333 0-1.84 1.492-3.333 3.333-3.333.072 0 .144.002.215.006h-.007C6.262 5.158 8.015 4.167 10 4.167h.106l.013-.053c.388-1.411 1.68-2.447 3.214-2.447zm0 11.666c-.92 0-1.666.747-1.666 1.667s.746 1.667 1.666 1.667c.92 0 1.667-.747 1.667-1.667s-.746-1.667-1.667-1.667zM10.096 5.8l.01.037L10 5.833c-1.244 0-2.362.546-3.125 1.41l-.013-.008c.887.598 1.471 1.614 1.471 2.765s-.584 2.167-1.471 2.765l.014-.009c.762.865 1.88 1.41 3.124 1.41l.106-.003-.009.034c.36-1.453 1.672-2.53 3.236-2.53.171 0 .34.013.503.037l-.032-.004c.233-.518.363-1.094.363-1.7 0-.606-.13-1.182-.362-1.701l-.108.015c-.12.013-.24.02-.364.02-1.565 0-2.879-1.08-3.237-2.535zM5 8.333c-.92 0-1.667.747-1.667 1.667S4.08 11.667 5 11.667 6.667 10.92 6.667 10 5.92 8.333 5 8.333zm8.333-5c-.92 0-1.666.747-1.666 1.667s.746 1.667 1.666 1.667C14.253 6.667 15 5.92 15 5s-.746-1.667-1.667-1.667z" transform="translate(-478 -393) translate(1 56) translate(455 323) translate(22 14)"/>
                    </g>
                </g>
            </g>
        </g>
    </g>
</svg>
