<svg xmlns="http://www.w3.org/2000/svg" width="40" height="40" viewBox="0 0 40 40">
    <g fill="none" fill-rule="evenodd">
        <g fill="#A8ABAC">
            <g>
                <g>
                    <g>
                        <g>
                            <path d="M7.5 2.5c.69 0 1.25.56 1.25 1.25 0 .641-.483 1.17-1.104 1.242L7.5 5H5v3.75c0 4.732 3.756 8.586 8.45 8.745l.3.005c4.732 0 8.586-3.756 8.745-8.45l.005-.3V5H20c-.641 0-1.17-.483-1.242-1.104l-.008-.146c0-.641.483-1.17 1.104-1.242L20 2.5h3.75c.641 0 1.17.483 1.242 1.104L25 3.75v5c0 5.79-4.375 10.56-10 11.181v6.944C15 31.362 18.638 35 23.125 35c4.39 0 7.966-3.481 8.12-7.834l.005-.291v-.783c-2.157-.555-3.75-2.512-3.75-4.842 0-2.761 2.239-5 5-5s5 2.239 5 5c0 2.33-1.594 4.288-3.75 4.843v.782c0 5.868-4.757 10.625-10.625 10.625-5.761 0-10.452-4.586-10.62-10.306l-.005-.319-.001-6.944c-5.517-.61-9.83-5.21-9.994-10.85L2.5 8.75v-5c0-.641.483-1.17 1.104-1.242L3.75 2.5H7.5zm25 16.25c-1.38 0-2.5 1.12-2.5 2.5s1.12 2.5 2.5 2.5 2.5-1.12 2.5-2.5-1.12-2.5-2.5-2.5z" transform="translate(-571 -800) translate(485 784) translate(86 16)"/>
                        </g>
                    </g>
                </g>
            </g>
        </g>
    </g>
</svg>
