<svg xmlns="http://www.w3.org/2000/svg" width="16" height="16" viewBox="0 0 16 16">
    <g fill="none" fill-rule="evenodd">
        <g fill="#474B55">
            <g>
                <g>
                    <g>
                        <path d="M9.813 9.333c.124 0 .247.018.367.052l2.564.732c1.138.325 1.923 1.366 1.923 2.55v.666c0 .737-.597 1.334-1.334 1.334H2.667c-.737 0-1.334-.597-1.334-1.334v-.666c0-1.184.785-2.225 1.923-2.55l2.564-.732c.12-.034.243-.052.367-.052h3.626zM8 1.333c1.84 0 3.333 1.493 3.333 3.334C11.333 6.507 9.841 8 8 8 6.16 8 4.667 6.508 4.667 4.667c0-1.841 1.492-3.334 3.333-3.334z" transform="translate(-1178 -24) translate(1174) translate(0 20) translate(4 4)"/>
                    </g>
                </g>
            </g>
        </g>
    </g>
</svg>
