<svg xmlns="http://www.w3.org/2000/svg" width="20" height="20" viewBox="0 0 20 20">
    <g fill="none" fill-rule="evenodd">
        <g fill="#3E7128">
            <g>
                <g>
                    <g>
                        <path d="M16.667 4.167c.92 0 1.666.746 1.666 1.666v8.334c0 .92-.746 1.666-1.666 1.666H3.333c-.92 0-1.666-.746-1.666-1.666V5.833c0-.92.746-1.666 1.666-1.666h13.334zm-1.525 1.667H4.858c-.251.71-.814 1.273-1.524 1.524v5.284c.71.251 1.272.814 1.523 1.523h10.286c.25-.709.813-1.271 1.522-1.522V7.357c-.71-.251-1.272-.814-1.523-1.523zM10 6.875c1.726 0 3.125 1.4 3.125 3.125 0 1.726-1.4 3.125-3.125 3.125-1.726 0-3.125-1.4-3.125-3.125 0-1.726 1.4-3.125 3.125-3.125zm0 1.458c-.92 0-1.667.747-1.667 1.667S9.08 11.667 10 11.667s1.667-.747 1.667-1.667S10.92 8.333 10 8.333z" transform="translate(-70 -256) translate(0 56) translate(48 186) translate(22 14)"/>
                    </g>
                </g>
            </g>
        </g>
    </g>
</svg>
