<?xml version="1.0" encoding="UTF-8"?>
<svg width="16px" height="16px" viewBox="0 0 16 16" version="1.1" xmlns="http://www.w3.org/2000/svg" xmlns:xlink="http://www.w3.org/1999/xlink">
    <title>ic0-leaf</title>
    <g id="Home-Page" stroke="none" stroke-width="1" fill="none" fill-rule="evenodd">
        <g id="LOL-icons" transform="translate(-116.000000, -292.000000)">
            <g id="ic0-leaf" transform="translate(116.000000, 292.000000)">
                <path d="M10.4217333,0 C12.028,0 12.8309333,0 13.6956,0.273333333 C14.6396,0.616933333 15.3830667,1.3604 15.7266667,2.3044 C16,3.16893333 16,3.97213333 16,5.57826667 L16,10.4217333 C16,12.028 16,12.8309333 15.7266667,13.6956 C15.3830667,14.6396 14.6396,15.3830667 13.6956,15.7265333 C12.8309333,16 12.028,16 10.4217333,16 L5.57826667,16 C3.972,16 3.16893333,16 2.3044,15.7265333 C1.3604,15.3830667 0.616933333,14.6396 0.273333333,13.6956 C0,12.8309333 0,12.028 0,10.4217333 L0,5.57826667 C0,3.97213333 0,3.16893333 0.273333333,2.3044 C0.616933333,1.3604 1.3604,0.616933333 2.3044,0.273333333 C3.16893333,0 3.972,0 5.57826667,0 L10.4217333,0 Z" id="background" fill-opacity="0" fill="#000000"></path>
                <path d="M4.99917404,2.83044879 C4.99917404,2.83044879 5.01684681,2.84282693 5.04672221,2.8619931 L5.04672221,2.8619931 C5.9724388,3.48928571 10.4672136,6.56984746 12.5568084,11.5941778 C13.2531997,9.25191269 13.1732515,7.83042211 11.9992745,5.89024719 C10.4962474,3.40583303 6.24889143,2.63718995 4.18959281,1.59582832 C3.4477572,1.2220881 3.21716962,0.933797028 3.03581332,1.01325675 L3.03581332,1.01325675 C3.0299224,1.02004477 3.02150679,1.02283984 3.01771977,1.03122503 C2.88896101,1.34786605 3.49109757,1.7359809 3.87989854,3.15627359 C4.62846663,5.89344155 3.69559678,8.67852492 9.61471278,11.240003 C12.0973163,12.3133083 12.4516133,13.9296549 12.0527136,15.1602824 C12.2118536,15.2963507 12.3531323,15.4501233 12.4734939,15.6182739 C12.5582236,15.7389652 12.6311803,15.8667361 12.6914581,16 C13.124441,14.7557964 12.6110891,13.4253452 12.3502053,12.7521336 C11.6925257,11.0591223 9.6483752,6.71918383 4.99917404,2.83044879 Z" id="shape" fill="#529535" fill-rule="nonzero"></path>
            </g>
        </g>
    </g>
</svg>
