<svg xmlns="http://www.w3.org/2000/svg" xmlns:xlink="http://www.w3.org/1999/xlink" width="16" height="16" viewBox="0 0 16 16">
    <defs>
        <path id="9y713lassa" d="M5.401 2.96c1.349 0 2.443 1.093 2.443 2.442 0 1.348-1.094 2.442-2.443 2.442-1.348 0-2.442-1.094-2.442-2.442 0-1.349 1.094-2.443 2.442-2.443m0-2.959c2.984 0 5.402 2.418 5.402 5.402 0 1.09-.323 2.105-.878 2.953l-4.498 7.386L.948 8.46C.844 8.31.75 8.155.662 7.994l-.008-.013h.001C.238 7.215 0 6.336 0 5.401 0 2.419 2.418 0 5.401 0"/>
    </defs>
    <g fill="none" fill-rule="evenodd">
        <g>
            <g>
                <g>
                    <g transform="translate(-160 -880) translate(144 744) translate(16 136) translate(2.667)">
                        <mask id="uydi130h1b" fill="#fff">
                            <use xlink:href="#9y713lassa"/>
                        </mask>
                        <use fill="#231F20" xlink:href="#9y713lassa"/>
                        <g fill="#008BBF" mask="url(#uydi130h1b)">
                            <path d="M0 0H16V16H0z" transform="translate(-2.667)"/>
                        </g>
                    </g>
                </g>
            </g>
        </g>
    </g>
</svg>
