<svg width="24" height="24" viewBox="0 0 24 24" fill="none" xmlns="http://www.w3.org/2000/svg">
    <path fill-rule="evenodd" clip-rule="evenodd" d="M15.84 3C19.362 3 22 5.672 22 9.29c0 3.963-3.178 7.85-8.75 11.292-.387.243-.845.418-1.255.418-.406 0-.835-.166-1.249-.415C5.174 17.145 2 13.255 2 9.291 2 5.67 4.63 3 8.15 3c1.322 0 2.528.404 3.487 1.125l.201.16.159.137.167-.145c.857-.709 1.924-1.147 3.113-1.252l.3-.02.264-.005zm-4.308 8.049-.908 1.363a.75.75 0 0 1-.517.325l-.106.008-4.937.004c1.18 1.968 3.318 3.966 6.31 5.87l.413.258.209.113.197-.106c3.201-1.977 5.481-4.056 6.722-6.104l-3.451-.001-1.792 3.614c-.311.627-1.215.515-1.393-.123l-.022-.106-.725-5.115zM15.841 5c-1.296 0-2.36.55-3.028 1.498a1 1 0 0 1-1.64-.006C10.527 5.559 9.445 5 8.15 5 5.742 5 4 6.768 4 9.29c0 .644.118 1.299.35 1.96l5.248-.005 1.778-2.662c.361-.54 1.173-.39 1.343.203l.024.109.66 4.665.925-1.864a.75.75 0 0 1 .567-.409L15 11.28h4.638c.24-.672.362-1.337.362-1.99C20 6.77 18.25 5 15.84 5z" fill="#A8ABAC"/>
</svg>
