<svg width="16" height="16" xmlns="http://www.w3.org/2000/svg">
    <path d="M10.56 2c2.347 0 4.107 1.781 4.107 4.194 0 2.641-2.119 5.233-5.834 7.527-.258.162-.563.279-.836.279-.27 0-.557-.11-.833-.276-3.715-2.295-5.83-4.887-5.83-7.53C1.333 3.78 3.086 2 5.433 2c.88 0 1.685.27 2.324.75l.134.106.106.092.112-.096a3.74 3.74 0 0 1 2.075-.836l.2-.012L10.56 2zM7.689 7.366l-.606.908a.5.5 0 0 1-.344.218l-.07.005-3.292.002c.786 1.313 2.212 2.644 4.206 3.913l.276.173.14.075.13-.07c2.135-1.319 3.655-2.705 4.482-4.07h-2.3l-1.195 2.408a.5.5 0 0 1-.929-.082l-.014-.07-.484-3.41zm2.873-4.033c-.865 0-1.574.367-2.02.999a.667.667 0 0 1-1.092-.004c-.431-.622-1.152-.995-2.016-.995-1.605 0-2.766 1.18-2.766 2.86 0 .43.078.866.233 1.307L6.4 7.497l1.185-1.775a.5.5 0 0 1 .896.135l.015.073.44 3.11.617-1.243a.5.5 0 0 1 .378-.272L10 7.52h3.092c.16-.448.241-.891.241-1.326 0-1.68-1.166-2.86-2.772-2.86z" fill="#3E7128" fill-rule="evenodd"/>
</svg>
