<svg width="20" height="20" viewBox="0 0 20 20" fill="none" xmlns="http://www.w3.org/2000/svg">
<path fill-rule="evenodd" clip-rule="evenodd" d="M10 1.66666C14.6024 1.66666 18.3333 5.39762 18.3333 9.99999C18.3333 14.6024 14.6024 18.3333 10 18.3333C5.39763 18.3333 1.66667 14.6024 1.66667 9.99999C1.66667 5.39762 5.39763 1.66666 10 1.66666ZM9.99981 10.9817L5.60492 15.3769C6.80207 16.3566 8.33239 16.9444 10 16.9444C11.6676 16.9444 13.1979 16.3566 14.3951 15.3769L9.99981 10.9817ZM3.05556 9.99999C3.05556 11.6676 3.64336 13.1979 4.62307 14.3951L9.01787 9.99979L4.62307 5.6049C3.64336 6.80206 3.05556 8.33238 3.05556 9.99999ZM15.3769 5.6049L10.9818 9.99979L15.3769 14.3951C16.3567 13.1979 16.9444 11.6676 16.9444 9.99999C16.9444 8.33238 16.3567 6.80206 15.3769 5.6049ZM10 3.05555C8.33239 3.05555 6.80207 3.64334 5.60492 4.62305L9.99981 9.01785L14.3951 4.62305C13.1979 3.64334 11.6676 3.05555 10 3.05555Z" fill="#474B55"/>
<mask id="mask0_5893_10066" style="mask-type:luminance" maskUnits="userSpaceOnUse" x="1" y="1" width="18" height="18">
<path fill-rule="evenodd" clip-rule="evenodd" d="M10 1.66666C14.6024 1.66666 18.3333 5.39762 18.3333 9.99999C18.3333 14.6024 14.6024 18.3333 10 18.3333C5.39763 18.3333 1.66667 14.6024 1.66667 9.99999C1.66667 5.39762 5.39763 1.66666 10 1.66666ZM9.99981 10.9817L5.60492 15.3769C6.80207 16.3566 8.33239 16.9444 10 16.9444C11.6676 16.9444 13.1979 16.3566 14.3951 15.3769L9.99981 10.9817ZM3.05556 9.99999C3.05556 11.6676 3.64336 13.1979 4.62307 14.3951L9.01787 9.99979L4.62307 5.6049C3.64336 6.80206 3.05556 8.33238 3.05556 9.99999ZM15.3769 5.6049L10.9818 9.99979L15.3769 14.3951C16.3567 13.1979 16.9444 11.6676 16.9444 9.99999C16.9444 8.33238 16.3567 6.80206 15.3769 5.6049ZM10 3.05555C8.33239 3.05555 6.80207 3.64334 5.60492 4.62305L9.99981 9.01785L14.3951 4.62305C13.1979 3.64334 11.6676 3.05555 10 3.05555Z" fill="white"/>
</mask>
<g mask="url(#mask0_5893_10066)">
</g>
</svg>
