<svg width="24" height="24" viewBox="0 0 24 24" fill="none" xmlns="http://www.w3.org/2000/svg">
<path fill-rule="evenodd" clip-rule="evenodd" d="M12 2C17.5228 2 22 6.47715 22 12C22 17.5228 17.5228 22 12 22C6.47715 22 2 17.5228 2 12C2 6.47715 6.47715 2 12 2ZM12 4C7.58172 4 4 7.58172 4 12C4 16.4183 7.58172 20 12 20C16.4183 20 20 16.4183 20 12C20 7.58172 16.4183 4 12 4ZM17.7071 8.29289C17.3166 7.90237 16.6834 7.90237 16.2929 8.29289L10 14.585L7.70711 12.2929L7.6129 12.2097C7.22061 11.9047 6.65338 11.9324 6.29289 12.2929C5.90237 12.6834 5.90237 13.3166 6.29289 13.7071L9.29289 16.7071L9.3871 16.7903C9.77939 17.0953 10.3466 17.0676 10.7071 16.7071L17.7071 9.70711L17.7903 9.6129C18.0953 9.22061 18.0676 8.65338 17.7071 8.29289Z" fill="white"/>
</svg>
