<svg width="24" height="24" viewBox="0 0 24 24" fill="none" xmlns="http://www.w3.org/2000/svg">
<path fill-rule="evenodd" clip-rule="evenodd" d="M12 2C17.5228 2 22 6.47715 22 12C22 17.5228 17.5228 22 12 22C6.47715 22 2 17.5228 2 12C2 6.47715 6.47715 2 12 2ZM11.9998 13.1781L6.7259 18.4523C8.16248 19.628 9.99887 20.3333 12 20.3333C14.0011 20.3333 15.8375 19.628 17.2741 18.4523L11.9998 13.1781ZM3.66667 12C3.66667 14.0011 4.37202 15.8375 5.54768 17.2741L10.8214 11.9998L5.54768 6.7259C4.37202 8.16248 3.66667 9.99887 3.66667 12ZM18.4523 6.7259L13.1781 11.9998L18.4523 17.2741C19.628 15.8375 20.3333 14.0011 20.3333 12C20.3333 9.99887 19.628 8.16248 18.4523 6.7259ZM12 3.66667C9.99887 3.66667 8.16248 4.37202 6.7259 5.54768L11.9998 10.8214L17.2741 5.54768C15.8375 4.37202 14.0011 3.66667 12 3.66667Z" fill="white"/>
<mask id="mask0_5492_7453" style="mask-type:luminance" maskUnits="userSpaceOnUse" x="2" y="2" width="20" height="20">
<path fill-rule="evenodd" clip-rule="evenodd" d="M12 2C17.5228 2 22 6.47715 22 12C22 17.5228 17.5228 22 12 22C6.47715 22 2 17.5228 2 12C2 6.47715 6.47715 2 12 2ZM11.9998 13.1781L6.7259 18.4523C8.16248 19.628 9.99887 20.3333 12 20.3333C14.0011 20.3333 15.8375 19.628 17.2741 18.4523L11.9998 13.1781ZM3.66667 12C3.66667 14.0011 4.37202 15.8375 5.54768 17.2741L10.8214 11.9998L5.54768 6.7259C4.37202 8.16248 3.66667 9.99887 3.66667 12ZM18.4523 6.7259L13.1781 11.9998L18.4523 17.2741C19.628 15.8375 20.3333 14.0011 20.3333 12C20.3333 9.99887 19.628 8.16248 18.4523 6.7259ZM12 3.66667C9.99887 3.66667 8.16248 4.37202 6.7259 5.54768L11.9998 10.8214L17.2741 5.54768C15.8375 4.37202 14.0011 3.66667 12 3.66667Z" fill="white"/>
</mask>
<g mask="url(#mask0_5492_7453)">
</g>
</svg>
