<svg width="40" height="40" viewBox="0 0 40 40" fill="none" xmlns="http://www.w3.org/2000/svg">
    <path d="M11.633 8.319a.557.557 0 0 0-.01.807.6.6 0 0 0 .827.01 11.496 11.496 0 0 1 7.74-2.982c2.98 0 5.695 1.129 7.742 2.982a.6.6 0 0 0 .826-.01.557.557 0 0 0-.01-.807A12.646 12.646 0 0 0 20.192 5a12.647 12.647 0 0 0-8.558 3.319z" fill="#A8ABAC"/>
    <path d="M26.31 11.573a.55.55 0 0 0-.012-.803 9.195 9.195 0 0 0-6.107-2.309c-2.342 0-4.48.872-6.107 2.31a.55.55 0 0 0-.012.802.61.61 0 0 0 .83.015 8.046 8.046 0 0 1 5.289-1.973c2.023 0 3.872.744 5.29 1.973a.61.61 0 0 0 .83-.015z" fill="#A8ABAC"/>
    <path fill-rule="evenodd" clip-rule="evenodd" d="M12.5 30a2.5 2.5 0 1 0 0-5 2.5 2.5 0 0 0 0 5zm0-1.25a1.25 1.25 0 1 0 0-2.5 1.25 1.25 0 0 0 0 2.5z" fill="#A8ABAC"/>
    <path d="M21.875 25a.625.625 0 0 0-.625.625v3.75a.625.625 0 1 0 1.25 0v-3.75a.625.625 0 0 0-.625-.625zM25 25.625a.625.625 0 1 1 1.25 0v3.75a.625.625 0 1 1-1.25 0v-3.75zM29.375 25a.625.625 0 0 0-.625.625v3.75a.625.625 0 1 0 1.25 0v-3.75a.625.625 0 0 0-.625-.625z" fill="#A8ABAC"/>
    <path fill-rule="evenodd" clip-rule="evenodd" d="M7.5 11.25a1.25 1.25 0 1 1 2.5 0v10h20v-10a1.25 1.25 0 1 1 2.5 0v10c0 .07-.006.14-.017.207A3.752 3.752 0 0 1 35 25v5a3.75 3.75 0 0 1-3.75 3.75H30c0 .69-.56 1.25-1.25 1.25h-2.5c-.69 0-1.25-.56-1.25-1.25H15c0 .69-.56 1.25-1.25 1.25h-2.5c-.69 0-1.25-.56-1.25-1.25H8.75A3.75 3.75 0 0 1 5 30v-5a3.751 3.751 0 0 1 2.517-3.543 1.259 1.259 0 0 1-.017-.207v-10zm23.75 20c.69 0 1.25-.56 1.25-1.25v-5c0-.69-.56-1.25-1.25-1.25H8.75c-.69 0-1.25.56-1.25 1.25v5c0 .69.56 1.25 1.25 1.25h22.5z" fill="#A8ABAC"/>
    <path fill-rule="evenodd" clip-rule="evenodd" d="M20.19 20a2.308 2.308 0 1 0 0-4.615 2.308 2.308 0 0 0 0 4.615zm0-1.154a1.154 1.154 0 1 0 0-2.307 1.154 1.154 0 0 0 0 2.307z" fill="#A8ABAC"/>
    <path d="M23.843 13.226c.247.202.245.57.02.795-.226.225-.59.222-.84.026a4.595 4.595 0 0 0-2.832-.97c-1.067 0-2.05.362-2.831.97-.252.196-.615.2-.84-.026-.226-.225-.228-.593.019-.795a5.745 5.745 0 0 1 3.652-1.303c1.386 0 2.657.489 3.652 1.303z" fill="#A8ABAC"/>
</svg>
