<?xml version="1.0" encoding="UTF-8"?>
<svg width="24px" height="24px" viewBox="0 0 24 24" version="1.1" xmlns="http://www.w3.org/2000/svg" xmlns:xlink="http://www.w3.org/1999/xlink">
    <!-- Generator: Sketch 51.3 (57544) - http://www.bohemiancoding.com/sketch -->
    <title>key_red</title>
    <desc>Created with Sketch.</desc>
    <defs></defs>
    <g id="key_red" stroke="none" stroke-width="1" fill="none" fill-rule="evenodd">
        <path d="M14.2501046,8.27993505 C15.0224576,8.27993505 15.6490649,8.90654239 15.6490649,9.67889542 C15.6490649,10.4512484 15.0224576,11.0778558 14.2501046,11.0778558 C13.4777516,11.0778558 12.8511442,10.4512484 12.8511442,9.67889542 C12.8511442,8.90654239 13.4777516,8.27993505 14.2501046,8.27993505 M14.2501046,5.9645 C12.1990088,5.9645 10.5357092,7.62779966 10.5357092,9.67889542 C10.5357092,10.0544049 10.5871593,10.4206994 10.6908276,10.7624207 L5.27396896,16.1785115 L4.9645,18.9645 L7.44101958,18.9645 L8.83324594,17.5715057 L8.83324594,16.0241609 L10.3813586,16.0241609 L10.8451781,15.5595735 L10.8451781,14.0122287 L12.3932908,14.0122287 L13.1665793,13.2381724 C13.5083006,13.3418407 13.8745951,13.3932908 14.2501046,13.3932908 C16.3012003,13.3932908 17.9645,11.7299912 17.9645,9.67889542 C17.9645,7.62779966 16.3012003,5.9645 14.2501046,5.9645" id="Fill-10" fill="#AD122A"></path>
    </g>
</svg>