<?xml version="1.0" encoding="UTF-8"?>
<svg width="40px" height="40px" viewBox="0 0 40 40" version="1.1" xmlns="http://www.w3.org/2000/svg" xmlns:xlink="http://www.w3.org/1999/xlink">
    <!-- Generator: Sketch 51.3 (57544) - http://www.bohemiancoding.com/sketch -->
    <title>key_large</title>
    <desc>Created with Sketch.</desc>
    <defs></defs>
    <g id="key_large" stroke="none" stroke-width="1" fill="none" fill-rule="evenodd">
        <g id="Group" transform="translate(1.000000, 1.000000)">
            <path d="M22.2856046,15.3154351 C23.0579576,15.3154351 23.6845649,15.9420424 23.6845649,16.7143954 C23.6845649,17.4867484 23.0579576,18.1133558 22.2856046,18.1133558 C21.5132516,18.1133558 20.8866442,17.4867484 20.8866442,16.7143954 C20.8866442,15.9420424 21.5132516,15.3154351 22.2856046,15.3154351 M22.2856046,13 C20.2345088,13 18.5712092,14.6632997 18.5712092,16.7143954 C18.5712092,17.0899049 18.6226593,17.4561994 18.7263276,17.7979207 L13.309469,23.2140115 L13,26 L15.4765196,26 L16.8687459,24.6070057 L16.8687459,23.0596609 L18.4168586,23.0596609 L18.8806781,22.5950735 L18.8806781,21.0477287 L20.4287908,21.0477287 L21.2020793,20.2736724 C21.5438006,20.3773407 21.9100951,20.4287908 22.2856046,20.4287908 C24.3367003,20.4287908 26,18.7654912 26,16.7143954 C26,14.6632997 24.3367003,13 22.2856046,13" id="Fill-10" fill="#474B55"></path>
            <rect id="Rectangle-13" stroke="#DEDEDE" x="0.5" y="0.5" width="37" height="37" rx="18.5"></rect>
        </g>
    </g>
</svg>