<svg width="198" height="48" viewBox="0 0 198 48" fill="none" xmlns="http://www.w3.org/2000/svg">
<path fill-rule="evenodd" clip-rule="evenodd" d="M6.28611 6.0316C6.1962 5.97081 6.14301 5.93156 6.14301 5.93156C20.1348 18.2644 26.2867 32.0283 28.266 37.3976C29.0511 39.5326 30.596 43.752 29.293 47.698C29.1116 47.2753 28.892 46.8701 28.637 46.4873C28.2748 45.9541 27.8496 45.4664 27.3707 45.0348C28.5711 41.132 27.5049 36.0058 20.0335 32.6019C5.72815 26.0782 4.72136 19.0972 3.71294 12.1048C3.46563 10.39 3.21823 8.6745 2.77455 6.96489C2.13891 4.51792 1.31379 3.03701 0.754764 2.03368C0.284739 1.19008 0.00282967 0.684111 0.179823 0.225432C0.186734 0.209307 0.198766 0.199701 0.21112 0.189837C0.219141 0.183433 0.227297 0.176921 0.234276 0.168447C0.551726 0.0218745 0.919299 0.269857 1.61058 0.73623C2.10782 1.07169 2.77255 1.52015 3.70658 2.01604C5.45308 2.94674 7.72253 3.80876 10.1827 4.74323C16.4525 7.12472 23.9612 9.97677 27.2098 15.6355C30.7429 21.7887 30.9835 26.2968 28.8877 33.7252C22.5991 17.7908 9.07206 8.02102 6.28611 6.0316ZM1.04347 1.15619C2.42758 2.77331 3.76103 3.95227 5.33762 5.25407C3.75976 3.95227 2.42758 2.77457 1.04347 1.15619Z" fill="white"/>
<rect x="143.476" y="18.1036" width="5.31863" height="19.8815" fill="white"/>
<rect x="143.476" y="8.09955" width="5.44527" height="4.05229" fill="white"/>
<path d="M174.718 25.8815L171.38 25.5776C169.511 25.4218 169.184 24.5835 169.184 23.8566C169.184 22.8689 170.078 21.9571 172.19 21.9571C174.029 21.9571 176.401 22.2724 177.618 23.3045L179.548 19.5637C177.065 18.191 175.572 17.8668 172.278 17.8668C167.958 17.8668 164.094 20.0854 164.094 24.2086C164.094 27.8747 166.457 29.4412 170.285 29.7881L173.621 30.0908C175.289 30.2453 175.859 30.9329 175.859 31.927C175.859 33.4137 173.948 33.9873 172.112 33.9873C170.486 33.9873 167.3 33.7594 165.551 32.1169L163.738 36.401C166.421 38.2131 168.688 38.222 172.033 38.222C177.034 38.222 181.024 36.1211 181.024 31.7282C181.028 28.366 178.913 26.2652 174.718 25.8815Z" fill="white"/>
<path d="M189.191 11.2704H183.872V18.6152H181.593V22.4142H183.872V32.2917C183.872 35.1232 185.692 37.9902 189.988 37.9902H192.863V33.8113H190.989C189.748 33.8113 189.191 33.1591 189.191 32.0106V22.4142H192.863V18.7418H189.191V11.2704Z" fill="white"/>
<path d="M163.933 17.8453C163.772 17.8453 163.593 17.8453 163.394 17.8453C161.052 17.8719 158.952 18.8381 157.913 19.9854V18.1087H152.721V37.9902H158.039V25.9904C158.039 23.4678 159.858 22.2572 161.533 22.2572C162.113 22.2689 162.692 22.3155 163.267 22.3965L164.522 17.8681C164.333 17.8554 164.143 17.8453 163.933 17.8453Z" fill="white"/>
<path d="M131.826 13.7626V18.6152H129.655C129.664 20.0804 129.673 21.3467 129.673 22.1774V22.4142H131.826V37.9902H137.018V22.4142H140.944V18.6152H137.018V14.0678C137.018 12.9281 137.593 12.2785 138.86 12.2785H141.07V8.10461H138.046C133.708 8.10461 131.826 10.9513 131.826 13.7626Z" fill="white"/>
<path d="M44.1712 17.6578C41.8741 17.6578 39.9783 18.3695 38.4967 19.7891V7.85132H35.9641V37.9902H38.6234V25.2901C38.6462 21.7823 40.5039 19.9081 44.0053 19.8815C47.4953 19.9107 49.2264 21.7342 49.2555 25.2901V37.9902H51.7882V24.9469C51.7882 22.7067 51.0702 20.8718 49.7494 19.6131C48.4286 18.3543 46.5177 17.6566 44.1712 17.6578Z" fill="white"/>
<path fill-rule="evenodd" clip-rule="evenodd" d="M81.5105 17.6819C84.1824 17.6819 86.1643 18.2467 87.4964 19.3573C88.8286 20.4704 89.5365 24.1592 89.5365 24.1592V36.7466L89.4099 37.9902H86.8772V36.2388C85.3107 37.628 83.6797 38.0966 81.0596 38.0902C78.0749 38.0928 76.3691 37.6052 75.0357 36.2844C74.0226 35.3245 73.5161 33.62 73.5161 32.1498C73.5123 30.3491 74.1974 28.8877 75.446 27.9076C76.6946 26.9274 78.4789 26.4184 80.6835 26.4665H86.8785V24.3568C86.8696 21.41 85.5564 19.9638 81.5181 19.9183C78.7321 19.9322 77.4518 20.5514 76.1994 22.2433L76.0551 22.4332L74.1771 20.8705L74.3037 20.6971C76.0386 18.3771 78.2243 17.6705 81.5105 17.6819ZM85.8338 34.4254C86.4986 33.8303 86.8709 32.4234 86.8709 30.7075V28.4876H80.9001C77.5494 28.5205 76.0677 29.6602 76.0399 32.0928C76.0677 34.4887 77.4151 35.7956 81.0217 35.8311C82.8376 35.8311 84.4509 35.674 85.8338 34.4254Z" fill="white"/>
<path d="M119.846 17.6021C117.567 17.5962 115.693 18.3075 114.224 19.7359V7.85132H111.564V37.9902H114.097V25.2293C114.12 21.7228 115.983 19.8461 119.478 19.8208C122.978 19.8486 124.71 21.6721 124.734 25.2293V37.9902H127.394V24.8772C127.394 22.6384 126.686 20.8034 125.368 19.5434C124.049 18.2834 122.169 17.6021 119.846 17.6021Z" fill="white"/>
<path d="M104.346 9.75085H101.94V18.4886H99.1544V20.3881H101.94V32.8134C101.94 34.3267 102.363 35.6551 103.207 36.6124C104.05 37.5698 105.306 38.1169 106.907 38.1169H108.272V35.8374H107.215C105.178 35.8058 104.384 34.8522 104.346 32.9249V20.3881H108.905V18.4886H104.346V9.75085Z" fill="white"/>
<path fill-rule="evenodd" clip-rule="evenodd" d="M56.8131 20.2615C58.2339 18.4797 60.3246 17.5313 62.8991 17.5313C65.4697 17.5287 67.5617 18.443 68.9851 20.1361C70.4085 21.8292 71.1683 24.2821 71.1683 27.3353V28.4902H57.1778C57.2715 33.2896 59.3774 35.7437 63.5095 35.7741C65.7395 35.7691 67.0856 35.1739 68.685 33.6821L68.7128 33.6568C68.7188 33.6514 68.7262 33.6477 68.7337 33.644C68.742 33.6399 68.7505 33.6356 68.7572 33.629L70.2768 35.5348C68.4102 37.2304 66.5005 38.1169 63.4309 38.1169H63.4005C60.5829 38.1169 58.3681 37.2165 56.8776 35.4626C55.3872 33.7087 54.6273 31.1343 54.6273 27.8228C54.6273 24.6063 55.3922 22.0432 56.8131 20.2615ZM57.9642 23.1133C57.5361 24.3024 57.4184 24.7798 57.2917 26.4665H68.5419C68.4279 24.7937 68.3785 24.2175 67.872 23.1247C67.0476 21.1631 65.157 19.993 62.9181 19.9968C60.6792 20.0006 58.7898 21.1631 57.9642 23.1133Z" fill="white"/>
<rect x="93.9624" y="7.84625" width="2.53267" height="30.1389" fill="white"/>
<path fill-rule="evenodd" clip-rule="evenodd" d="M195.806 12.4558C195.874 12.4828 195.937 12.5219 195.991 12.571C196.114 12.7035 196.222 12.8482 196.314 13.0028L196.576 13.4232H196.283L196.072 13.0953C195.97 12.9102 195.834 12.7458 195.671 12.6102C195.58 12.5552 195.473 12.5296 195.367 12.5368H195.143V13.4182H194.763V11.2654H195.503C195.688 11.2569 195.873 11.2769 196.052 11.3249C196.162 11.363 196.257 11.4359 196.322 11.5326C196.387 11.6248 196.423 11.7348 196.424 11.8479C196.425 12.0023 196.364 12.1506 196.255 12.2595C196.136 12.3794 195.975 12.4496 195.806 12.4558ZM195.143 12.1569H195.554C195.692 12.1695 195.83 12.139 195.95 12.0695C196.021 12.0139 196.061 11.927 196.057 11.8365C196.058 11.7769 196.04 11.7185 196.007 11.6694C195.97 11.6195 195.92 11.5815 195.862 11.5605C195.752 11.5305 195.637 11.5181 195.523 11.5237H195.143V12.1569Z" fill="white"/>
<path fill-rule="evenodd" clip-rule="evenodd" d="M196.662 10.5359C196.977 10.7029 197.237 10.9581 197.408 11.2704L197.412 11.2742C197.766 11.8925 197.766 12.6517 197.412 13.27C197.241 13.5821 196.984 13.8387 196.671 14.0095C196.055 14.3608 195.299 14.3608 194.683 14.0095C194.372 13.8373 194.115 13.581 193.942 13.27C193.771 12.9665 193.681 12.6243 193.679 12.2759C193.68 11.9241 193.773 11.5787 193.949 11.2742C194.12 10.9599 194.38 10.7031 194.696 10.5359C195.306 10.1915 196.052 10.1915 196.662 10.5359ZM196.505 13.7157C196.766 13.5741 196.981 13.3605 197.123 13.1003V13.1041C197.268 12.8504 197.344 12.5639 197.345 12.2721C197.344 11.9789 197.266 11.6911 197.118 11.4376C196.976 11.1757 196.76 10.9613 196.497 10.8209C195.989 10.5323 195.366 10.5323 194.858 10.8209C194.596 10.9624 194.38 11.1765 194.236 11.4376C194.089 11.6911 194.011 11.9789 194.01 12.2721C194.011 12.5625 194.087 12.8477 194.23 13.1003C194.375 13.3596 194.59 13.5728 194.85 13.7157C195.363 14.0111 195.993 14.0111 196.505 13.7157Z" fill="white"/>
</svg>
