<?xml version="1.0" encoding="UTF-8"?>
<svg width="128px" height="128px" viewBox="0 0 128 128" version="1.1" xmlns="http://www.w3.org/2000/svg" xmlns:xlink="http://www.w3.org/1999/xlink">
    <!-- Generator: Sketch 51.3 (57544) - http://www.bohemiancoding.com/sketch -->
    <title>mail</title>
    <desc>Created with Sketch.</desc>
    <defs></defs>
    <g id="mail" stroke="none" stroke-width="1" fill="none" fill-rule="evenodd">
        <path d="M76,70 L110,70 L110,50 L76,50 L76,70 Z M76.1277704,45 L109.87223,45 C111.655267,45 112.30184,45.1856512 112.953691,45.5342654 C113.605543,45.8828796 114.11712,46.3944567 114.465735,47.0463086 C114.814349,47.6981604 115,48.3447329 115,50.1277704 L115,69.8722296 C115,71.6552671 114.814349,72.3018396 114.465735,72.9536914 C114.11712,73.6055433 113.605543,74.1171204 112.953691,74.4657346 C112.30184,74.8143488 111.655267,75 109.87223,75 L76.1277704,75 C74.3447329,75 73.6981604,74.8143488 73.0463086,74.4657346 C72.3944567,74.1171204 71.8828796,73.6055433 71.5342654,72.9536914 C71.1856512,72.3018396 71,71.6552671 71,69.8722296 L71,50.1277704 C71,48.3447329 71.1856512,47.6981604 71.5342654,47.0463086 C71.8828796,46.3944567 72.3944567,45.8828796 73.0463086,45.5342654 C73.6981604,45.1856512 74.3447329,45 76.1277704,45 Z M93.3131221,59.2182893 L79.1877426,50 L76,50 C76,51.4378601 76,52.1567901 76,52.1567901 C76,52.1567901 81.1752472,55.837662 91.5257415,63.1994059 C92.6051987,63.9414094 94.0210455,63.9414094 95.1005027,63.1994059 C105.033501,55.837662 110,52.1567901 110,52.1567901 C110,52.1567901 110,51.4378601 110,50 L106.812525,50 L93.3131221,59.2182893 Z" id="Combined-Shape" fill="#474B55" fill-rule="nonzero"></path>
        <path d="M62,57 L38,57" id="Line-4" stroke="#A8ABAC" stroke-width="3" stroke-linecap="round"></path>
        <path d="M93,83 L33,83" id="Line-4-Copy-2" stroke="#A8ABAC" stroke-width="3" stroke-linecap="round"></path>
        <path d="M61,70 L13,70" id="Line-4-Copy" stroke="#A8ABAC" stroke-width="3" stroke-linecap="round"></path>
    </g>
</svg>