<?xml version="1.0" encoding="UTF-8"?>
<svg width="128px" height="128px" viewBox="0 0 128 128" version="1.1" xmlns="http://www.w3.org/2000/svg" xmlns:xlink="http://www.w3.org/1999/xlink">
    <!-- Generator: Sketch 51.3 (57544) - http://www.bohemiancoding.com/sketch -->
    <title>mail_2</title>
    <desc>Created with Sketch.</desc>
    <defs></defs>
    <g id="mail_2" stroke="none" stroke-width="1" fill="none" fill-rule="evenodd">
        <path d="M47,74 L81,74 L81,54 L47,54 L47,74 Z M47.1277704,49 L80.8722296,49 C82.6552671,49 83.3018396,49.1856512 83.9536914,49.5342654 C84.6055433,49.8828796 85.1171204,50.3944567 85.4657346,51.0463086 C85.8143488,51.6981604 86,52.3447329 86,54.1277704 L86,73.8722296 C86,75.6552671 85.8143488,76.3018396 85.4657346,76.9536914 C85.1171204,77.6055433 84.6055433,78.1171204 83.9536914,78.4657346 C83.3018396,78.8143488 82.6552671,79 80.8722296,79 L47.1277704,79 C45.3447329,79 44.6981604,78.8143488 44.0463086,78.4657346 C43.3944567,78.1171204 42.8828796,77.6055433 42.5342654,76.9536914 C42.1856512,76.3018396 42,75.6552671 42,73.8722296 L42,54.1277704 C42,52.3447329 42.1856512,51.6981604 42.5342654,51.0463086 C42.8828796,50.3944567 43.3944567,49.8828796 44.0463086,49.5342654 C44.6981604,49.1856512 45.3447329,49 47.1277704,49 Z M64.3131221,63.2182893 L50.1877426,54 L47,54 C47,55.4378601 47,56.1567901 47,56.1567901 C47,56.1567901 52.1752472,59.837662 62.5257415,67.1994059 C63.6051987,67.9414094 65.0210455,67.9414094 66.1005027,67.1994059 C76.0335009,59.837662 81,56.1567901 81,56.1567901 C81,56.1567901 81,55.4378601 81,54 L77.8125251,54 L64.3131221,63.2182893 Z" id="Combined-Shape" fill="#474B55" fill-rule="nonzero"></path>
    </g>
</svg>