<?xml version="1.0" encoding="utf-8"?>
<!-- Generator: Adobe Illustrator 22.1.0, SVG Export Plug-In . SVG Version: 6.00 Build 0)  -->
<svg version="1.1" id="Layer_1" xmlns="http://www.w3.org/2000/svg" xmlns:xlink="http://www.w3.org/1999/xlink" x="0px" y="0px"
	 viewBox="0 0 39 51" style="enable-background:new 0 0 39 51;" xml:space="preserve" width="39px" height="52px">
<style type="text/css">
	.st0{fill:#FFFFFF;}
</style>
<title>graphics / icons / account_settings copy</title>
<desc>Created with Sketch.</desc>
<path id="Combined-Shape" class="st0" d="M5,6h29v40H5V6z M9,9v13h21V9H9z M9,26h21v-2H9V26z M9,30h21v-2H9V30z M9,34h21v-2H9V34z
	 M16.7,41.7l1.4-1.4c0.2-0.2,0.6-0.2,0.9,0c0,0,0.1,0.1,0.1,0.2c0.6,1.2,2,1.7,3.2,1.1c0.3-0.2,0.6-0.4,0.8-0.7l0.3-0.4
	c0.1-0.2,0.4-0.2,0.5-0.1l0.1,0.1c0.6,1.3,2.2,1.8,3.5,1.2c0.3-0.1,0.5-0.3,0.7-0.5l1.4-1.4c0.4-0.4,0.4-1,0-1.4s-1-0.4-1.4,0
	l-1.4,1.4c0,0-0.1,0.1-0.2,0.1c-0.3,0.2-0.7,0-0.8-0.3c-0.2-0.3-0.4-0.6-0.7-0.8c-1.1-0.8-2.5-0.6-3.3,0.5l-0.3,0.4l-0.1,0.1
	c-0.2,0.1-0.4,0-0.5-0.2c-0.1-0.3-0.3-0.5-0.5-0.7c-1-1-2.7-1-3.7,0l-1.4,1.4c-0.4,0.4-0.4,1,0,1.4C15.7,42.1,16.3,42.1,16.7,41.7z"
	/>
<path id="Combined-Shape_1_" class="st0" d="M10,10h19v11H10V10z M17,17.6c0,0,0.6,0.6,1.8,0.8V19h1v-0.7c1.1-0.2,1.8-0.9,1.8-1.7
	c0-1.7-2.9-1.6-2.9-2.3c0-0.3,0.4-0.4,0.7-0.4c0.8,0,1.4,0.5,1.4,0.5l0.6-1.1c0,0-0.5-0.5-1.6-0.6V12h-1v0.7c-1,0.2-1.7,0.8-1.7,1.6
	c0,1.6,2.9,1.7,2.9,2.3c0,0.3-0.3,0.4-0.7,0.4c-0.8,0-1.5-0.6-1.5-0.6L17,17.6z"/>
</svg>
