<svg width="161" height="160" viewBox="0 0 161 160" xmlns="http://www.w3.org/2000/svg" xmlns:xlink="http://www.w3.org/1999/xlink">
    <defs>
        <filter x="-26.3%" y="-14.8%" width="152.6%" height="129.5%" filterUnits="objectBoundingBox" id="b">
            <feOffset dy="2" in="SourceAlpha" result="shadowOffsetOuter1"/>
            <feGaussianBlur stdDeviation="5" in="shadowOffsetOuter1" result="shadowBlurOuter1"/>
            <feColorMatrix values="0 0 0 0 0 0 0 0 0 0 0 0 0 0 0 0 0 0 0.25 0" in="shadowBlurOuter1" result="shadowMatrixOuter1"/>
            <feMerge>
                <feMergeNode in="shadowMatrixOuter1"/>
                <feMergeNode in="SourceGraphic"/>
            </feMerge>
        </filter>
        <filter x="-18.3%" y="-55.3%" width="136.6%" height="230.6%" filterUnits="objectBoundingBox" id="e">
            <feOffset dy="2" in="SourceAlpha" result="shadowOffsetOuter1"/>
            <feGaussianBlur stdDeviation="4" in="shadowOffsetOuter1" result="shadowBlurOuter1"/>
            <feColorMatrix values="0 0 0 0 0.847058824 0 0 0 0 0.847058824 0 0 0 0 0.847058824 0 0 0 1 0" in="shadowBlurOuter1"/>
        </filter>
        <filter x="-18.3%" y="-55.3%" width="136.6%" height="230.6%" filterUnits="objectBoundingBox" id="g">
            <feOffset dy="2" in="SourceAlpha" result="shadowOffsetOuter1"/>
            <feGaussianBlur stdDeviation="4" in="shadowOffsetOuter1" result="shadowBlurOuter1"/>
            <feColorMatrix values="0 0 0 0 0.847058824 0 0 0 0 0.847058824 0 0 0 0 0.847058824 0 0 0 1 0" in="shadowBlurOuter1"/>
        </filter>
        <filter x="-18.3%" y="-55.3%" width="136.6%" height="230.6%" filterUnits="objectBoundingBox" id="i">
            <feOffset dy="2" in="SourceAlpha" result="shadowOffsetOuter1"/>
            <feGaussianBlur stdDeviation="4" in="shadowOffsetOuter1" result="shadowBlurOuter1"/>
            <feColorMatrix values="0 0 0 0 0.847058824 0 0 0 0 0.847058824 0 0 0 0 0.847058824 0 0 0 1 0" in="shadowBlurOuter1"/>
        </filter>
        <filter x="-22.8%" y="-39.3%" width="145.6%" height="178.6%" filterUnits="objectBoundingBox" id="l">
            <feOffset in="SourceAlpha" result="shadowOffsetOuter1"/>
            <feGaussianBlur stdDeviation="4" in="shadowOffsetOuter1" result="shadowBlurOuter1"/>
            <feColorMatrix values="0 0 0 0 0 0 0 0 0 0 0 0 0 0 0 0 0 0 0.228693182 0" in="shadowBlurOuter1"/>
        </filter>
        <filter x="-22.8%" y="-39.3%" width="145.6%" height="178.6%" filterUnits="objectBoundingBox" id="n">
            <feOffset in="SourceAlpha" result="shadowOffsetOuter1"/>
            <feGaussianBlur stdDeviation="4" in="shadowOffsetOuter1" result="shadowBlurOuter1"/>
            <feColorMatrix values="0 0 0 0 0 0 0 0 0 0 0 0 0 0 0 0 0 0 0.228693182 0" in="shadowBlurOuter1"/>
        </filter>
        <rect id="f" x="0" y="0" width="70.947" height="19.906" rx="4"/>
        <rect id="h" x="0" y="0" width="70.947" height="19.906" rx="4"/>
        <rect id="j" x="0" y="0" width="70.947" height="19.906" rx="4"/>
        <rect id="m" x="0" y="0" width="52.679" height="30.554" rx="4"/>
        <rect id="o" x="0" y="0" width="52.679" height="30.554" rx="4"/>
        <linearGradient x1="37.001%" y1="0%" x2="69.477%" y2="100%" id="a">
            <stop stop-color="#93CB5D" stop-opacity=".204" offset="0%"/>
            <stop stop-color="#008BBF" stop-opacity=".197" offset="100%"/>
        </linearGradient>
        <linearGradient x1="155.139%" y1="92.375%" x2="-1.52%" y2="28.417%" id="k">
            <stop stop-color="#82C341" offset="0%"/>
            <stop stop-color="#597D99" offset="100%"/>
        </linearGradient>
        <path d="m69.297 0 .231.003c4.45.123 8.019 3.788 8.019 8.291v129.388l-.003.232c-.123 4.473-3.768 8.062-8.247 8.062H8.25l-.231-.004C3.569 145.85 0 142.185 0 137.682V8.294l.003-.232C.125 3.589 3.771 0 8.25 0h61.047z" id="c"/>
    </defs>
    <g fill="none" fill-rule="evenodd">
        <path d="M83.35 151.692c40.74 31.455 74.489-33.611 74.489-75.073 0-41.461-10.91-85.48-74.488-75.072C19.773 11.956-10.682 33.002 8.863 76.619c19.544 43.617 33.749 43.617 74.488 75.073z" fill="url(#a)" transform="translate(.966)"/>
        <g filter="url(#b)" transform="translate(34.966 2)">
            <rect fill="#F2F5F7" width="87.446" height="155.929" rx="16"/>
            <g transform="translate(4.95 4.976)">
                <mask id="d" fill="#fff">
                    <use xlink:href="#c"/>
                </mask>
                <use fill="#F2F5F7" xlink:href="#c"/>
                <g mask="url(#d)">
                    <g transform="translate(3.3 88.747)">
                        <use fill="#000" filter="url(#e)" xlink:href="#f"/>
                        <use fill="#FFF" xlink:href="#f"/>
                        <path d="M3.3 3.318h13.199v13.27h-13.2z"/>
                        <path d="M13.75 6.082c.91 0 1.65.743 1.65 1.66v4.423c0 .916-.74 1.658-1.65 1.658h-7.7c-.911 0-1.65-.742-1.65-1.658V7.74c0-.916.739-1.659 1.65-1.659h7.7zm.55 3.041H5.5v3.042c0 .283.212.517.486.549l.064.004h7.7a.551.551 0 0 0 .546-.489l.003-.064V9.123zm-6.6 1.383c.303 0 .55.247.55.553v.553a.551.551 0 0 1-.55.553H6.6a.551.551 0 0 1-.55-.553v-.553c0-.306.246-.553.55-.553h1.1zm6.05-3.318h-7.7a.551.551 0 0 0-.547.489L5.5 7.74v.553h8.8v-.553a.552.552 0 0 0-.486-.55l-.065-.003z" fill="#26567A"/>
                        <rect fill="#26567A" x="19.799" y="6.635" width="26.399" height="3.318" rx="1.659"/>
                        <rect fill="#26567A" x="19.799" y="11.612" width="47.848" height="1.659" rx=".829"/>
                    </g>
                    <g transform="translate(3.3 111.97)">
                        <use fill="#000" filter="url(#g)" xlink:href="#h"/>
                        <use fill="#FFF" xlink:href="#h"/>
                        <path d="M6.364 4.976c.195 0 .354.16.354.356a.355.355 0 0 1-.313.353l-.041.002h-.707v1.067a2.482 2.482 0 0 0 2.39 2.487l.085.001a2.481 2.481 0 0 0 2.473-2.403l.002-.085V5.687H9.9a.354.354 0 0 1-.352-.314l-.002-.041c0-.182.137-.333.312-.353l.042-.003h1.06c.182 0 .331.138.351.314l.003.042v1.422a3.193 3.193 0 0 1-2.829 3.18v1.974a2.304 2.304 0 0 0 2.298 2.31c1.242 0 2.254-.99 2.297-2.227l.002-.083-.001-.223a1.421 1.421 0 0 1-1.06-1.377c0-.785.633-1.421 1.414-1.421.781 0 1.414.636 1.414 1.421 0 .663-.45 1.22-1.06 1.377v.223a3.013 3.013 0 0 1-3.006 3.021A3.013 3.013 0 0 1 7.78 12l-.002-.091V9.933a3.193 3.193 0 0 1-2.827-3.085l-.001-.094V5.332c0-.182.136-.333.312-.353l.041-.003h1.061zm7.071 4.621a.709.709 0 0 0-.707.711c0 .393.317.711.707.711.39 0 .707-.318.707-.71a.709.709 0 0 0-.707-.712z" fill="#26567A"/>
                        <rect fill="#26567A" x="19.799" y="6.635" width="26.399" height="3.318" rx="1.659"/>
                        <rect fill="#26567A" x="19.799" y="11.612" width="47.848" height="1.659" rx=".829"/>
                    </g>
                    <g transform="translate(3.3 135.193)">
                        <use fill="#000" filter="url(#i)" xlink:href="#j"/>
                        <use fill="#FFF" xlink:href="#j"/>
                        <path d="M12.1 4.424c.878 0 1.596.69 1.647 1.56l.002.098v1.66c.864 0 1.572.666 1.644 1.515l.006.143v4.423c0 .868-.663 1.58-1.507 1.653l-.143.006h-7.7a1.654 1.654 0 0 1-1.643-1.515l-.006-.144V9.4c0-.868.663-1.58 1.507-1.653l.143-.006V6.082c0-.883.687-1.605 1.553-1.656l.097-.002h4.4zM6.76 8.847h-.71c-.274 0-.5.2-.543.463L5.5 9.4v4.423c0 .275.2.503.46.546l.09.007h7.7c.273 0 .5-.2.542-.463l.007-.09V9.4c0-.275-.199-.503-.46-.546l-.09-.007h-.71a.388.388 0 0 0-.276.115 1.486 1.486 0 0 1-.905.43l-.147.008H8.089c-.395 0-.774-.158-1.053-.438a.388.388 0 0 0-.275-.115zm3.14 1.659a.55.55 0 0 1 .55.55l-.001.555h.548a.553.553 0 1 1 0 1.107l-.548-.001v.556a.55.55 0 1 1-1.1 0v-.556h-.546a.553.553 0 0 1 0-1.105l.546-.001v-.555a.55.55 0 0 1 .55-.55zm2.2-4.977H7.7a.551.551 0 0 0-.547.489l-.003.064v1.711c.249.068.478.2.664.387a.388.388 0 0 0 .198.106l.077.008h3.622a.388.388 0 0 0 .275-.114c.185-.187.414-.319.663-.387v-1.71a.552.552 0 0 0-.485-.55L12.1 5.53z" fill="#26567A"/>
                        <rect fill="#26567A" x="19.799" y="6.635" width="26.399" height="3.318" rx="1.659"/>
                        <rect fill="#26567A" x="19.799" y="11.612" width="47.848" height="1.659" rx=".829"/>
                    </g>
                </g>
            </g>
            <path d="M16 0h55.446c8.837 0 16 7.163 16 16v40.4H0V16C0 7.163 7.163 0 16 0z" fill="url(#k)"/>
            <path d="m58.056 22.849.104.073c-1.622-1.333-2.841-2.357-4.204-4.084 1.363 1.727 2.582 2.751 4.204 4.083 1.973 1.423 11.553 8.406 16.006 19.798 1.484-5.312 1.313-8.533-1.189-12.932-3.206-5.634-12.258-7.381-16.647-9.738-1.582-.847-2.073-1.501-2.46-1.32-.011.015-.03.02-.038.04-.27.718 1.01 1.598 1.838 4.817 1.596 6.205-.394 12.52 12.223 18.327 5.29 2.432 6.045 6.098 5.196 8.888.339.308.64.657.896 1.038.18.273.336.563.464.865.923-2.821-.17-5.837-.727-7.363-1.402-3.838-5.759-13.677-15.666-22.492z" fill-opacity=".5" fill="#FFF" fill-rule="nonzero"/>
            <path d="M10.725 13.27a2.482 2.482 0 0 1 2.474 2.489 2.482 2.482 0 0 1-2.474 2.488 2.482 2.482 0 0 1-2.475-2.488 2.482 2.482 0 0 1 2.475-2.488zm0 .83c-.912 0-1.65.743-1.65 1.659s.738 1.659 1.65 1.659c.91 0 1.65-.743 1.65-1.66 0-.915-.74-1.658-1.65-1.658zM77.547 13.27c.911 0 1.65.743 1.65 1.66v1.658c0 .916-.739 1.659-1.65 1.659h-1.65c-.911 0-1.65-.743-1.65-1.659V14.93c0-.916.739-1.658 1.65-1.658h1.65zm0 .83h-1.65a.827.827 0 0 0-.82.733l-.005.096v1.66c0 .424.318.775.729.823l.096.006h1.65c.423 0 .772-.32.82-.733l.005-.097V14.93a.828.828 0 0 0-.729-.823l-.096-.006z" fill="#F2F5F7" fill-rule="nonzero"/>
            <rect fill="#F2F5F7" x="8.25" y="25.712" width="26.399" height="1.659" rx=".829"/>
            <rect fill="#F2F5F7" x="8.25" y="44.788" width="19.799" height="1.659" rx=".829"/>
            <rect fill="#F2F5F7" x="8.25" y="48.106" width="19.799" height="1.659" rx=".829"/>
            <rect fill="#F2F5F7" x="8.25" y="31.517" width="41.248" height="9.953" rx="2"/>
            <path d="M74.247 0c7.29 0 13.2 5.941 13.2 13.27v129.388c0 7.33-5.91 13.27-13.2 13.27H13.199c-7.29 0-13.199-5.94-13.199-13.27V13.271C0 5.94 5.91 0 13.2 0h61.047zm0 4.976H63.522v1.977a3 3 0 0 1-3 3H26.924a3 3 0 0 1-3-3V4.976H13.199c-4.478 0-8.124 3.589-8.246 8.062l-.003.233v129.387c0 4.503 3.57 8.168 8.019 8.29l.23.004h61.048c4.479 0 8.124-3.588 8.246-8.062l.004-.232V13.271c0-4.504-3.57-8.168-8.02-8.291l-.23-.004z" fill="#26567A" fill-rule="nonzero"/>
        </g>
        <g transform="translate(43.394 62.054)">
            <g fill-rule="nonzero">
                <use fill="#000" filter="url(#l)" xlink:href="#m"/>
                <use fill="#FFF" xlink:href="#m"/>
            </g>
            <rect fill="#26567A" x="37.863" y="16.515" width="11.523" height="1.652" rx=".826"/>
            <rect fill="#26567A" x="3.292" y="16.515" width="19.754" height="1.652" rx=".826"/>
            <rect fill="#26567A" x="3.292" y="21.47" width="19.754" height="1.652" rx=".826"/>
            <rect fill="#26567A" x="37.863" y="21.47" width="11.523" height="1.652" rx=".826"/>
            <rect fill="#26567A" x="37.863" y="5.78" width="11.523" height="1.652" rx=".826"/>
            <path fill="#26567A" d="M0 12.387h52.679v1H0z"/>
            <g fill-rule="nonzero">
                <path d="m3.924 4.741.015.01c.287.206 1.679 1.214 2.326 2.859.215-.767.19-1.232-.173-1.867-.465-.814-1.78-1.065-2.418-1.406-.23-.122-.301-.217-.357-.19-.002.001-.005.002-.006.005-.04.104.146.23.267.696.232.896-.057 1.808 1.776 2.646.768.351.878.88.755 1.283a.827.827 0 0 1 .197.275c.134-.407-.025-.843-.105-1.063-.204-.554-.837-1.975-2.277-3.248zM3.4 4.248z" fill="#81C342"/>
                <path fill="#000" d="M18.054 5.998h1V8.05h-1zM18.054 4.965h1v1h-1zM21.269 6.8l-.344-.031c-.192-.016-.226-.103-.226-.178 0-.102.092-.196.31-.196.189 0 .433.033.558.14l.199-.387c-.256-.141-.41-.175-.748-.175-.445 0-.842.23-.842.655 0 .378.243.54.637.576l.343.03c.172.017.23.088.23.19 0 .154-.196.213-.385.213-.168 0-.495-.023-.675-.193l-.187.442c.276.187.51.188.854.188.514 0 .925-.217.925-.67 0-.347-.218-.564-.65-.604zM22.758 5.292h-.547v.758h-.235v.392h.235v1.02c0 .292.187.588.629.588h.296V7.62h-.193c-.128 0-.185-.067-.185-.186v-.99h.378v-.38h-.378v-.77z"/>
                <path d="M20.16 5.97h-.056c-.241.004-.457.103-.564.222v-.194h-.535V8.05h.548V6.812c0-.26.187-.386.36-.386.059.001.118.006.178.015l.129-.468a.88.88 0 0 0-.06-.002zM16.856 5.55v.5h-.224l.002.368v.024h.222V8.05h.534V6.442h.404V6.05h-.404v-.469c0-.118.059-.185.19-.185h.227v-.43h-.311c-.447 0-.64.293-.64.583zM7.837 5.952a.809.809 0 0 0-.584.22V4.939h-.26V8.05h.273V6.74c.003-.363.194-.556.554-.559.36.003.537.191.54.558V8.05h.26V6.704c0-.231-.073-.42-.209-.55-.136-.13-.332-.203-.574-.202zM12.295 6.127c-.137-.115-.341-.173-.616-.173-.338-.001-.563.072-.742.311l-.013.018.194.161.014-.02c.13-.174.261-.238.548-.24.415.006.55.155.551.459v.218h-.637c-.227-.005-.41.047-.54.149a.534.534 0 0 0-.198.437c0 .152.052.328.157.427.137.137.312.187.62.187.269 0 .437-.048.598-.192v.181h.26l.014-.128v-1.3s-.073-.38-.21-.495zm-.065 1.172c0 .177-.038.322-.106.383-.143.13-.309.145-.495.145-.372-.003-.51-.138-.513-.385.003-.252.155-.37.5-.373h.614v.23zM15.623 5.946a.79.79 0 0 0-.578.22V4.939h-.274V8.05h.26V6.733c.003-.362.195-.556.554-.558.36.003.539.19.541.558V8.05h.274V6.697c0-.231-.073-.42-.209-.55-.135-.13-.329-.201-.568-.201zM14.028 5.135h-.247v.902h-.287v.196h.287v1.283c0 .156.043.293.13.392a.487.487 0 0 0 .38.155h.141v-.235h-.109c-.209-.003-.29-.102-.295-.3V6.232h.47v-.196h-.47v-.902zM9.764 5.938c-.265 0-.48.098-.626.282-.146.184-.225.449-.225.78 0 .343.078.608.231.79.154.18.382.273.672.273h.003a.948.948 0 0 0 .704-.266l-.156-.197-.005.003-.003.003a.692.692 0 0 1-.532.216c-.425-.004-.642-.257-.652-.752h1.44v-.12c0-.315-.078-.568-.225-.743-.146-.174-.362-.269-.626-.269zm-.577.923c.013-.174.025-.224.07-.346a.536.536 0 0 1 .509-.322c.23 0 .425.12.51.323.052.113.057.172.069.345H9.187z" fill="#000"/>
                <path fill="#000" d="M12.96 4.939h1v3.11h-1z"/>
            </g>
        </g>
        <g fill-rule="nonzero" transform="translate(100.287 62.054)">
            <use fill="#000" filter="url(#n)" xlink:href="#o"/>
            <use fill="#FFF" xlink:href="#o"/>
        </g>
        <rect width="29.632" height="6.606" rx="2" transform="translate(116.75 68.66)" fill="#26567A"/>
        <path d="M108.518 67.834a4.122 4.122 0 0 1 4.116 4.129 4.122 4.122 0 0 1-4.116 4.129 4.122 4.122 0 0 1-4.115-4.13 4.122 4.122 0 0 1 4.115-4.128zm0 .826a3.298 3.298 0 0 0-3.292 3.303 3.298 3.298 0 0 0 3.292 3.303 3.298 3.298 0 0 0 3.292-3.303 3.298 3.298 0 0 0-3.292-3.303zm-.002.587c.114 0 .204.074.22.186l.004.038v.333c.596.068 1.068.396 1.222.872l.02.073a.537.537 0 0 1 .026.153.284.284 0 0 1-.295.297c-.163 0-.26-.092-.316-.24a.777.777 0 0 0-.588-.558l-.07-.015v1.298l.082.016c.836.153 1.263.546 1.263 1.206 0 .704-.544 1.138-1.264 1.233l-.08.009v.332c0 .138-.097.23-.224.23a.216.216 0 0 1-.222-.19l-.003-.04v-.338c-.662-.066-1.192-.424-1.33-.965a.791.791 0 0 1-.02-.154c0-.179.118-.301.296-.301.148 0 .255.082.31.25.072.291.294.506.663.584l.081.014v-1.375l-.05-.015c-.8-.184-1.218-.552-1.218-1.17 0-.64.487-1.09 1.187-1.196l.081-.01v-.333c0-.132.092-.224.225-.224zm.224 3.06v1.263c.473-.051.708-.296.708-.629 0-.278-.14-.462-.53-.585l-.076-.023-.102-.025zm-.449-1.92c-.397.066-.636.3-.636.587 0 .258.164.435.521.557l.08.026.035.01v-1.18z" fill="#529535"/>
        <g transform="translate(105.226 84.35)" fill="#26567A">
            <path d="M3.998 0c.39 0 .705.317.705.708v1.887c0 .391-.315.708-.705.708H.706A.707.707 0 0 1 0 2.595V.708C0 .317.316 0 .706 0h3.292zm.235 1.298H.47v1.297c0 .121.091.221.208.235l.028.001h3.292c.12 0 .22-.09.234-.208l.001-.028V1.298zm-2.822.59c.13 0 .235.105.235.235v.236c0 .13-.105.236-.235.236h-.47a.236.236 0 0 1-.235-.236v-.236c0-.13.105-.236.235-.236h.47zM3.998.471H.706C.585.472.486.563.472.68L.47.708v.236h3.763V.708c0-.121-.09-.22-.208-.235L3.998.472z"/>
            <rect x="7.996" y=".826" width="19.754" height="1.652" rx=".826"/>
        </g>
    </g>
</svg>
