<svg width="40" height="40" viewBox="0 0 40 40" fill="none" xmlns="http://www.w3.org/2000/svg">
    <path d="M40 0H0v40h40V0z" fill="#00833E"/>
    <path d="M30.421 27.617c-2.418 0-3.593.583-5.468 1.85H4.865v2.094H24.99l.014.012c2.32 1.493 3.205 1.879 5.418 1.835 2.903-.06 5.255-1.296 5.255-2.895.001-1.6-2.352-2.896-5.255-2.896zM10.917 14.56l-.316-3.115-2.102 3.358-2.093-3.325-.3 3.082h-1.24L5.7 8.257 8.508 12.7l2.8-4.437.843 6.296h-1.234zM16.952 14.699c-1.874 0-3.374-1.452-3.374-3.204 0-1.76 1.5-3.213 3.374-3.213 1.85 0 3.351 1.387 3.351 3.236-.001 1.744-1.542 3.18-3.35 3.18zm0-5.38c-1.177 0-2.15.941-2.15 2.141 0 1.152.949 2.207 2.093 2.207a2.15 2.15 0 0 0 2.174-2.158c0-1.249-.974-2.19-2.117-2.19zM27.782 14.56l-.316-3.115-2.1 3.358-2.095-3.325-.3 3.082h-1.24l.836-6.303 2.806 4.444 2.8-4.437.844 6.296h-1.235zM29.77 10.206l-.291-1.92h1.208l-.116 1.92h-.802zM31.823 12.995c.316.293.892.666 1.581.666.626 0 .957-.292.957-.738 0-1.297-2.726-1.095-2.726-2.97 0-1.095.982-1.678 2.004-1.678.948 0 1.622.585 1.744.715l-.56.86c-.315-.316-.762-.545-1.176-.545-.414 0-.811.178-.811.6 0 1.079 2.75.837 2.75 3.001 0 .949-.836 1.793-2.27 1.793-.885 0-1.76-.527-2.093-.877l.6-.827zM10.917 24.471l-.316-3.114-2.1 3.358-2.093-3.326-.3 3.082h-1.24l.835-6.303 2.807 4.445 2.8-4.437.843 6.295h-1.236zM13.486 24.463V18.34h3.651v1.037h-2.499V20.7h2.012v1.047h-2.012v1.67h2.75v1.047h-3.902zM23.637 24.471l-.535-1.127H20.32l-.537 1.127h-1.281l3.213-6.409 3.212 6.41h-1.29zm-1.93-4.04-.915 1.948h1.848l-.933-1.948zM26.059 24.463v-6.132h1.151v5.085l2.907.005v1.061l-4.058-.018zM31.915 22.905c.315.293.892.666 1.581.666.625 0 .957-.292.957-.738 0-1.297-2.726-1.095-2.726-2.97 0-1.095.982-1.678 2.004-1.678.948 0 1.622.585 1.744.715l-.56.86c-.315-.317-.762-.545-1.176-.545-.415 0-.812.178-.812.6 0 1.079 2.751.837 2.751 3.001 0 .949-.836 1.793-2.27 1.793-.886 0-1.76-.527-2.094-.877l.6-.827zM36.2 18.912a.715.715 0 0 1 1.428 0 .715.715 0 0 1-1.429 0zm1.282 0a.578.578 0 0 0-.567-.573.572.572 0 0 0-.57.573c0 .31.257.574.57.574a.579.579 0 0 0 .567-.574zm-.395.355-.255-.26-.04-.04v.3h-.15v-.766h.22c.172 0 .35.067.35.253 0 .129-.084.21-.217.238l.283.275h-.191zm-.23-.367c.142 0 .21-.058.21-.146 0-.075-.07-.125-.185-.125h-.09v.27h.065z" fill="#fff"/>
</svg>
