<svg width="125" height="24" viewBox="0 0 125 24" fill="none" xmlns="http://www.w3.org/2000/svg">
    <path d="M96.783 6.626a8.158 8.158 0 0 0-2.452-1.67 8.5 8.5 0 0 0-3.078-.573 8.783 8.783 0 0 0-3.13.573 6.62 6.62 0 0 0-2.453 1.67c-.678.678-1.2 1.565-1.565 2.504a8.857 8.857 0 0 0-.574 3.183 9.07 9.07 0 0 0 .574 3.183c.365.939.887 1.826 1.565 2.504.679.73 1.513 1.252 2.453 1.67.939.365 1.982.573 3.13.573s2.191-.208 3.078-.573A6.621 6.621 0 0 0 96.783 18c.679-.678 1.2-1.565 1.618-2.504.365-.94.574-2.035.574-3.183A9.073 9.073 0 0 0 98.4 9.13c-.365-.939-.94-1.774-1.618-2.504zm-.417 5.687c0 .783-.104 1.46-.365 2.14-.261.625-.626 1.251-1.044 1.72-.47.47-.991.888-1.617 1.149-1.252.521-2.87.521-4.122 0-.626-.261-1.148-.679-1.617-1.148-.47-.47-.783-1.044-1.044-1.722-.26-.678-.365-1.356-.365-2.139 0-.783.105-1.46.365-2.14a5.62 5.62 0 0 1 1.044-1.72c.47-.47.991-.836 1.617-1.149a5.252 5.252 0 0 1 2.035-.417c.73 0 1.46.156 2.035.417a4.38 4.38 0 0 1 1.617 1.148 4.14 4.14 0 0 1 1.044 1.722c.313.678.417 1.409.417 2.139zM111.131 4.957a1.145 1.145 0 0 0-.887-.366h-9.861c-.365 0-.678.105-.887.366-.26.26-.365.573-.365.939 0 .365.104.678.365.939.209.26.522.365.887.365h3.6v11.53c0 .366.104.679.365.94.261.26.574.417.939.417.366 0 .679-.157.94-.417.26-.261.365-.574.365-.94V7.148h3.6c.365 0 .678-.105.887-.365.261-.261.365-.574.365-.94.052-.313-.104-.626-.313-.886zM123.549 16.226c-.313-.052-.626.052-.887.313a6.365 6.365 0 0 1-1.513.887c-1.095.418-2.452.418-3.547-.104-.574-.261-1.096-.678-1.566-1.148-.469-.47-.782-1.044-1.043-1.722-.261-.626-.365-1.356-.365-2.087 0-.73.104-1.46.365-2.087a7.24 7.24 0 0 1 1.043-1.722c.47-.47.992-.886 1.566-1.147.573-.261 1.2-.418 1.878-.418.73 0 1.356.105 1.774.313.469.209.887.47 1.304.887.313.209.626.365.939.313.313 0 .574-.156.835-.365s.365-.522.365-.887c0-.156 0-.26-.052-.365-.052-.104-.104-.26-.156-.365-.053-.105-.157-.209-.314-.313a7.352 7.352 0 0 0-2.139-1.305c-.73-.26-1.565-.417-2.556-.417a7.24 7.24 0 0 0-2.974.626 8.605 8.605 0 0 0-2.4 1.67 7.801 7.801 0 0 0-1.565 2.504 8.482 8.482 0 0 0-.574 3.078c0 1.096.208 2.14.574 3.13.365.94.887 1.827 1.565 2.505.678.73 1.461 1.304 2.4 1.67.887.417 1.878.626 2.922.626.887 0 1.721-.157 2.504-.418.783-.313 1.565-.73 2.243-1.304.157-.157.209-.261.314-.47.052-.156.104-.313.104-.521 0-.366-.104-.679-.313-.887-.157-.313-.418-.418-.731-.47z" fill="#F2604A"/>
    <path d="M78.887 0H2.347A2.338 2.338 0 0 0 0 2.348v19.304A2.338 2.338 0 0 0 2.348 24h76.539a2.338 2.338 0 0 0 2.348-2.348V2.348A2.338 2.338 0 0 0 78.887 0z" fill="#194C64"/>
    <path d="M39.705 7.878c-.261 0-.418.052-.574.209-.157.156-.21.313-.21.574v9.6c0 .26.053.417.21.574.156.156.313.208.574.208.208 0 .417-.052.573-.208.157-.157.21-.313.21-.574v-9.6c0-.261-.053-.418-.21-.574-.156-.157-.313-.209-.573-.209zM39.705 3.965c-.313 0-.574.104-.783.313-.208.209-.313.47-.313.783 0 .313.105.574.313.782.21.209.47.313.783.313.313 0 .574-.104.783-.313.208-.208.313-.47.313-.782 0-.365-.105-.626-.313-.783-.261-.209-.47-.313-.783-.313zM35.791 17.478h-.574c-.626 0-1.148-.208-1.565-.678-.418-.417-.626-.991-.626-1.722V9.652h2.295a.67.67 0 0 0 .522-.209c.157-.104.209-.313.209-.47a.67.67 0 0 0-.209-.52c-.156-.105-.313-.21-.522-.21h-2.295v-3.13c0-.209-.052-.417-.209-.574-.156-.156-.365-.209-.574-.209-.209 0-.417.053-.574.21-.156.156-.208.364-.208.573v3.183h-1.305a.67.67 0 0 0-.521.208c-.157.105-.21.313-.21.522 0 .209.053.365.21.47.156.104.313.208.521.208h1.305v5.479c0 .782.156 1.46.47 2.034.312.574.782 1.044 1.356 1.41.574.364 1.2.52 1.93.52h.418c.26 0 .469-.051.626-.208.156-.156.26-.313.26-.574 0-.208-.052-.417-.208-.574-.105-.26-.313-.313-.522-.313zM27.026 7.878c-.261 0-.418.052-.575.157a.474.474 0 0 0-.208.417v.991a6.797 6.797 0 0 0-1.2-.939c-.835-.521-1.826-.73-2.87-.73-1.095 0-2.034.26-2.921.73a6.318 6.318 0 0 0-2.035 2.035c-.522.835-.73 1.826-.73 2.922 0 1.095.26 2.034.73 2.921.47.835 1.148 1.513 1.982 2.035.835.522 1.774.73 2.818.73.991 0 1.878-.208 2.66-.677a4.65 4.65 0 0 0 1.566-1.461v1.252c0 .209.052.417.209.574.156.156.365.208.573.208.21 0 .418-.052.574-.208.157-.157.21-.313.21-.574V8.452c0-.209-.053-.313-.21-.417a1.052 1.052 0 0 0-.573-.157zm-.783 5.948c-.052.678-.209 1.252-.522 1.826-.365.626-.835 1.148-1.46 1.513a4.09 4.09 0 0 1-2.14.574 4.04 4.04 0 0 1-2.087-.574 4.206 4.206 0 0 1-1.513-1.513 4.282 4.282 0 0 1-.574-2.191c0-.835.209-1.566.574-2.191a4.206 4.206 0 0 1 1.513-1.514 4.039 4.039 0 0 1 2.087-.574 4.23 4.23 0 0 1 2.14.574c.625.366 1.095.887 1.46 1.514.313.521.47 1.147.522 1.825v.731zM11.79 8.348c-.782-.418-1.617-.626-2.608-.626-.887 0-1.67.208-2.4.574-.522.26-.94.626-1.305 1.043v-.678c0-.26-.052-.417-.208-.574-.157-.156-.313-.209-.574-.209-.261 0-.418.053-.574.209-.157.157-.209.313-.209.574v9.6c0 .209.052.417.209.574.156.156.313.209.574.209.208 0 .417-.053.574-.21.156-.156.208-.312.208-.573v-6.052c0-.574.157-1.096.47-1.513.313-.47.73-.783 1.252-1.044.522-.26 1.148-.365 1.826-.365a4.5 4.5 0 0 1 1.878.417c.574.261.992.679 1.305 1.2.313.522.47 1.253.47 2.087v5.27c0 .209.051.417.208.574.157.156.365.209.574.209.209 0 .417-.053.574-.21.156-.156.208-.312.208-.573v-5.322c0-1.095-.208-2.087-.678-2.817-.417-.783-1.043-1.409-1.774-1.774zM75.653 13.357c-.574-.313-1.41-.574-2.4-.73-.731-.105-1.357-.262-1.722-.47-.418-.157-.73-.366-.887-.627a1.444 1.444 0 0 1-.261-.834c0-.47.209-.835.678-1.148.47-.313 1.044-.47 1.774-.47.574 0 1.096.105 1.565.261.47.209.835.47 1.2.887.157.157.313.26.522.313.209.052.417 0 .574-.104.209-.105.313-.261.313-.47.052-.208-.052-.365-.156-.574a4.353 4.353 0 0 0-1.618-1.252c-.678-.313-1.46-.47-2.348-.47-.73 0-1.408.105-2.034.366a3.019 3.019 0 0 0-1.461 1.043 2.736 2.736 0 0 0-.574 1.722c0 .73.313 1.409.939 1.93.626.522 1.67.94 3.026 1.148 1.043.157 1.826.418 2.296.73.47.314.678.731.678 1.2 0 .47-.261.888-.678 1.253-.47.365-1.2.522-2.192.522-.678 0-1.252-.105-1.774-.313-.521-.21-.991-.522-1.304-.887-.156-.157-.313-.261-.522-.261-.208-.052-.417.052-.574.156-.156.157-.26.313-.313.522-.052.209.052.365.209.574.47.522 1.148.939 1.93 1.2.783.26 1.566.417 2.4.417a6.42 6.42 0 0 0 2.296-.417c.678-.261 1.2-.626 1.565-1.148.365-.47.574-1.043.574-1.67 0-.521-.104-.99-.365-1.408a13.32 13.32 0 0 0-1.356-.992zM64.226 8.348c-.783-.418-1.617-.626-2.609-.626-.887 0-1.67.208-2.4.574-.521.26-.939.626-1.304 1.043v-.678c0-.26-.052-.417-.209-.574-.156-.156-.313-.209-.574-.209-.26 0-.417.053-.574.209-.156.157-.208.313-.208.574v9.6c0 .209.052.417.208.574.157.156.313.209.574.209.209 0 .418-.053.574-.21.157-.156.209-.312.209-.573v-6.052c0-.574.156-1.096.47-1.513.313-.47.73-.783 1.252-1.044.521-.26 1.147-.365 1.826-.365.678 0 1.304.157 1.878.417.574.261.991.679 1.304 1.2.313.522.47 1.253.47 2.087v5.27c0 .209.052.417.209.574.156.156.365.209.573.209.21 0 .418-.053.574-.21.157-.156.21-.312.21-.573v-5.322c0-1.095-.21-2.087-.68-2.817-.417-.783-1.043-1.409-1.773-1.774zM51.443 8.504c-.835-.47-1.826-.73-2.922-.73s-2.087.26-2.922.73-1.513 1.148-2.035 2.035c-.47.835-.73 1.826-.73 2.922 0 1.095.26 2.087.73 2.921.47.835 1.148 1.513 2.035 2.035.835.47 1.826.73 2.922.73s2.035-.26 2.922-.73c.835-.47 1.513-1.148 2.035-2.035.521-.834.73-1.826.73-2.921 0-1.096-.261-2.087-.73-2.922-.522-.887-1.2-1.565-2.035-2.035zm.678 7.148c-.365.626-.835 1.148-1.46 1.513a4.23 4.23 0 0 1-2.14.574 4.23 4.23 0 0 1-2.14-.574c-.625-.365-1.095-.887-1.46-1.513-.365-.626-.522-1.356-.522-2.191 0-.835.157-1.566.522-2.191.365-.627.835-1.148 1.46-1.514a4.23 4.23 0 0 1 2.14-.574 4.23 4.23 0 0 1 2.14.574c.625.366 1.095.887 1.46 1.514.365.626.522 1.356.522 2.19 0 .783-.157 1.514-.522 2.192z" fill="#fff"/>
</svg>
