<svg width="24" height="24" viewBox="0 0 24 24" fill="none" xmlns="http://www.w3.org/2000/svg">
    <path fill-rule="evenodd" clip-rule="evenodd" d="M8.13 2.266a1.5 1.5 0 0 1 1.443 1.09l.027.115.45 2.234a1.499 1.499 0 0 1-.422 1.367l2.049 6.66a11.81 11.81 0 0 1 .398 5.177l-.056.346-.244 1.386a2.25 2.25 0 0 1-2.08 1.855l-.136.004H4.795a2.25 2.25 0 0 1-2.205-1.8l-.022-.132-.191-1.337a12.597 12.597 0 0 1 .326-5.13l.104-.356L4.86 7.071a1.495 1.495 0 0 1-.437-1.269l.016-.097.449-2.234a1.5 1.5 0 0 1 1.352-1.2l.118-.005H8.13zM19.5 10.5a1.5 1.5 0 0 1 1.496 1.388L21 12v1.5c0 .175-.03.344-.085.5.473.383.788.954.83 1.6l.005.15v4.5a2.25 2.25 0 0 1-2.118 2.246l-.132.004H15a2.25 2.25 0 0 1-2.246-2.118l-.004-.132v-4.5c0-.707.326-1.338.836-1.75a1.475 1.475 0 0 1-.08-.37l-.006-.13V12a1.5 1.5 0 0 1 1.388-1.496L15 10.5h4.5zm-11.31-3H6.298L4.24 14.186a11.097 11.097 0 0 0-.455 4.159l.034.35.042.324.19 1.337a.75.75 0 0 0 .658.64l.085.004h4.764a.75.75 0 0 0 .718-.532l.02-.088.245-1.385a10.31 10.31 0 0 0-.208-4.509l-.09-.313L8.19 7.5zM19.5 15H15a.75.75 0 0 0-.745.662l-.005.088v4.5c0 .385.29.702.662.745L15 21h4.5a.75.75 0 0 0 .745-.663l.005-.087v-4.5a.75.75 0 0 0-.75-.75zM7.244 13.5c.829 0 1.5 1.343 1.5 3s-.671 3-1.5 3c-.828 0-1.5-1.343-1.5-3s.672-3 1.5-3zM19.5 12H15v1.5h4.5V12zM8.13 3.766H6.358L5.91 6h2.668L8.13 3.766z" fill="#A8ABAC"/>
</svg>
