<svg width="32" height="32" viewBox="0 0 32 32" fill="none" xmlns="http://www.w3.org/2000/svg">
    <path fill-rule="evenodd" clip-rule="evenodd" d="M26 6a4 4 0 0 1 4 4v12a4 4 0 0 1-4 4H6a4 4 0 0 1-4-4V10a4 4 0 0 1 4-4h20zm2 12H4v4a2 2 0 0 0 1.85 1.994L6 24h20a2 2 0 0 0 1.994-1.85L28 22v-4zm-17.185 1.94c.735 0 1.13.535 1.13 1.21l-.015.245h-1.76c.04.445.385.675.765.675.246 0 .461-.1.594-.181l.104-.07.037-.029.245.455-.07.057-.123.08a1.637 1.637 0 0 1-.832.228c-.845 0-1.37-.61-1.37-1.335 0-.785.535-1.335 1.295-1.335zm8.855 0c.78 0 1.405.555 1.405 1.335 0 .785-.625 1.335-1.4 1.335-.78 0-1.405-.55-1.405-1.335 0-.78.625-1.335 1.4-1.335zm-6.455-.635v.735h.58v.505h-.58v.99c0 .42.33.48.505.48l.084-.005.031-.005v.555l-.075.01-.12.005-.138-.005c-.348-.028-.85-.178-.915-.812l-.007-.143v-1.07h-.33v-.505h.345v-.735h.62zM6.645 19l1.345 2.05.046.073.09.16.159.317h.01l-.03-.376-.005-.174V19h.64v3.55h-.64l-1.345-2.045-.046-.073-.09-.16-.159-.317h-.01l.03.376.005.174v2.045H6V19h.645zm8.1 1 .445 1.675.038.186.012.084h.01l.029-.14.031-.13.47-1.67h.565l.47 1.67.055.27h.01l.039-.203L17.38 20h.66l-.775 2.55h-.705l-.449-1.522-.038-.167-.008-.041h-.01l-.027.144-.033.131-.43 1.455h-.71l-.78-2.55h.67zm8.26-.035.043.002.072.008v.625l-.09-.008a1.081 1.081 0 0 0-.06-.002c-.27 0-.575.155-.695.535a1.179 1.179 0 0 0-.05.268l-.005.147v1.01h-.635V20h.61v.44l-.01.18h.01c.115-.365.42-.655.81-.655zm1.18-.965v1.9h.315l.615-.9h.705l-.805 1.14v.01l.905 1.4h-.73l-.675-1.115h-.33v1.115h-.635V19h.635zm-4.51 1.48c-.415 0-.76.325-.76.795 0 .475.345.795.76.795.41 0 .755-.32.755-.795 0-.47-.345-.795-.755-.795zm-8.875-.05a.58.58 0 0 0-.584.425l-.026.105h1.115c-.01-.345-.225-.53-.505-.53zM26 8H6a2 2 0 0 0-1.995 1.85L4 10v6h24v-6a2 2 0 0 0-1.85-1.995L26 8zM10.992 9c1.728 0 2.992 1.28 2.992 2.92 0 1.68-1.264 2.992-2.992 2.992S8 13.6 8 11.92C8 10.28 9.264 9 10.992 9zM22.48 9c1.023 0 1.686.421 1.976.656l.141.124.027.028-.648 1.056-.073-.06-.122-.091c-.249-.173-.709-.433-1.237-.433-1.096 0-1.616.808-1.616 1.632 0 .848.56 1.72 1.616 1.72.486 0 .906-.223 1.18-.418l.162-.123.148-.133.03-.03.72 1.024-.096.1-.119.107-.077.063-.188.138a3.23 3.23 0 0 1-1.824.552c-1.792 0-3-1.272-3-2.968 0-1.664 1.28-2.944 3-2.944zm-3.312.096v1.2h-1.736v4.52h-1.4v-4.52h-1.736v-1.2h4.872zm-8.176 1.184c-.856 0-1.544.704-1.544 1.64 0 .976.688 1.712 1.544 1.712.856 0 1.544-.736 1.544-1.712 0-.936-.688-1.64-1.544-1.64z" fill="#A8ABAC"/>
</svg>
