<?xml version="1.0" encoding="UTF-8"?>
<svg width="24px" height="24px" viewBox="0 0 24 24" version="1.1" xmlns="http://www.w3.org/2000/svg" xmlns:xlink="http://www.w3.org/1999/xlink">
    <!-- Generator: Sketch 51.3 (57544) - http://www.bohemiancoding.com/sketch -->
    <title>password_show</title>
    <desc>Created with Sketch.</desc>
    <defs></defs>
    <g id="password_show" stroke="none" stroke-width="1" fill="none" fill-rule="evenodd">
        <path d="M13.2303171,10.2630735 C14.2736407,10.7328021 15,11.7815759 15,13 C15,14.6568542 13.6568542,16 12,16 C10.3431458,16 9,14.6568542 9,13 C9,11.7812384 9.72676178,10.732221 10.7705501,10.2626832 C8.6794208,10.5228764 6.92840238,11.4674249 5.51749487,13.0963289 L7.06912452,16 L3,12.6468643 C5.1869034,9.54895478 8.1408132,8 11.8617294,8 C15.5826456,8 18.6287358,9.54895478 21,12.6468643 L16.8270594,16 L18.3942033,13.0963289 C17.0334402,11.4682383 15.3121448,10.5238198 13.2303171,10.2630735 Z M12,14 C12.5522847,14 13,13.5522847 13,13 C13,12.4477153 12.5522847,12 12,12 C11.4477153,12 11,12.4477153 11,13 C11,13.5522847 11.4477153,14 12,14 Z" id="Combined-Shape" fill="#A8ABAC"></path>
    </g>
</svg>