<?xml version="1.0" encoding="UTF-8"?>
<svg width="48px" height="48px" viewBox="0 0 48 48" version="1.1" xmlns="http://www.w3.org/2000/svg" xmlns:xlink="http://www.w3.org/1999/xlink">
    <!-- Generator: Sketch 54.1 (76490) - https://sketchapp.com -->
    <title>password</title>
    <desc>Created with Sketch.</desc>
    <g id="Page-1" stroke="none" stroke-width="1" fill="none" fill-rule="evenodd">
        <g id="assets" transform="translate(-130.000000, -204.000000)">
            <g id="graphics-/-icons-/-one-pass" transform="translate(130.000000, 204.000000)">
                <path d="M18.3529412,20 L21.6470588,20 L21.6470588,26.9238754 L24,26.9238754 C25.1045695,26.9238754 26,27.8193059 26,28.9238754 L26,46 C26,47.1045695 25.1045695,48 24,48 L2,48 C0.8954305,48 3.68798443e-15,47.1045695 3.55271368e-15,46 L3.55271368e-15,28.9238754 C3.41744293e-15,27.8193059 0.8954305,26.9238754 2,26.9238754 L4.35294118,26.9238754 L4.35294118,17.9514995 C4.35294118,14.9392872 5.79309824,12.2652748 8.00701818,10.6412792 C8.00235393,10.7602739 8,10.8798621 8,11 C8,12.2590225 8.25852363,13.4576635 8.7253823,14.5457346 C8.04926589,15.4912492 7.64705882,16.66951 7.64705882,17.9514995 L7.64705882,26.9238754 L18.3529412,26.9238754 L18.3529412,20 Z M12,44 L16,44 L16,30.985 L12,30.985 L8,35 L10.0321932,37.0479371 C11.3440644,35.6826457 12,35 12,35 C12,35 12,38 12,44 Z" id="Combined-Shape" fill="#003863" fill-rule="nonzero"></path>
                <g id="Group" stroke-width="1" fill-rule="evenodd" transform="translate(11.000000, 5.000000)">
                    <rect id="Rectangle" fill="#008BBF" x="0" y="0" width="34" height="12" rx="6"></rect>
                    <path d="M6.29339853,9 L4.73594132,7.81233933 L6.15647922,6.01285347 L6.15647922,5.97686375 L4,5.41902314 L4.58190709,3.47557841 L6.65281174,4.35732648 L6.49877751,2 L8.46699267,2 L8.31295844,4.35732648 L10.3838631,3.47557841 L11,5.40102828 L8.80929095,5.97686375 L8.80929095,6.01285347 L10.2469438,7.79434447 L8.68948655,9 L7.50855746,7.02056555 L7.47432763,7.02056555 L6.29339853,9 Z M15.2933985,9 L13.7359413,7.81233933 L15.1564792,6.01285347 L15.1564792,5.97686375 L13,5.41902314 L13.5819071,3.47557841 L15.6528117,4.35732648 L15.4987775,2 L17.4669927,2 L17.3129584,4.35732648 L19.3838631,3.47557841 L20,5.40102828 L17.809291,5.97686375 L17.809291,6.01285347 L19.2469438,7.79434447 L17.6894866,9 L16.5085575,7.02056555 L16.4743276,7.02056555 L15.2933985,9 Z M25.2933985,9 L23.7359413,7.81233933 L25.1564792,6.01285347 L25.1564792,5.97686375 L23,5.41902314 L23.5819071,3.47557841 L25.6528117,4.35732648 L25.4987775,2 L27.4669927,2 L27.3129584,4.35732648 L29.3838631,3.47557841 L30,5.40102828 L27.809291,5.97686375 L27.809291,6.01285347 L29.2469438,7.79434447 L27.6894866,9 L26.5085575,7.02056555 L26.4743276,7.02056555 L25.2933985,9 Z" id="***" fill="#FFFFFF" fill-rule="nonzero"></path>
                </g>
            </g>
        </g>
    </g>
</svg>