<?xml version="1.0" encoding="UTF-8"?>
<svg width="24px" height="24px" viewBox="0 0 24 24" version="1.1" xmlns="http://www.w3.org/2000/svg" xmlns:xlink="http://www.w3.org/1999/xlink">
    <!-- Generator: Sketch 51.3 (57544) - http://www.bohemiancoding.com/sketch -->
    <title>password_hide</title>
    <desc>Created with Sketch.</desc>
    <defs></defs>
    <g id="password_hide" stroke="none" stroke-width="1" fill="none" fill-rule="evenodd">
        <path d="M9.32304714,11.8533772 L8.38894096,10.919271 C7.31199938,11.4039122 6.35484917,12.1295967 5.51749487,13.0963289 L7.06912452,16 L3,12.6468643 C4.05725617,11.1491832 5.2937793,10.0135282 6.70956939,9.23989948 L4.73483496,7.26516504 L6.26516504,5.73483496 L18.265165,17.734835 L16.734835,19.265165 L13.2139196,15.7442497 C12.8427819,15.9086651 12.4320571,16 12,16 C10.3431458,16 9,14.6568542 9,13 C9,12.5121611 9.11644139,12.1382116 9.32304715,11.8533772 Z M11.0268287,8.0268287 C11.3007006,8.0089429 11.5790009,8 11.8617294,8 C15.5826456,8 18.6287358,9.54895478 21,12.6468643 L18.0318774,15.0318774 L17.588735,14.588735 L18.3942033,13.0963289 C17.0416273,11.4780337 15.3328442,10.5352088 13.2678541,10.2678541 L11.0268287,8.0268287 Z" id="Combined-Shape" fill="#A8ABAC"></path>
    </g>
</svg>