<?xml version="1.0" encoding="utf-8"?>
<!-- Generator: Adobe Illustrator 22.1.0, SVG Export Plug-In . SVG Version: 6.00 Build 0)  -->
<svg version="1.1" id="Layer_1" xmlns="http://www.w3.org/2000/svg" xmlns:xlink="http://www.w3.org/1999/xlink" x="0px" y="0px"
	 viewBox="0 0 58 37" style="enable-background:new 0 0 58 37;" xml:space="preserve" width="58px" height="52px">
<style type="text/css">
	.st0{fill:#FFFFFF;}
</style>
<title>graphics / icons / account_settings</title>
<desc>Created with Sketch.</desc>
<path id="Combined-Shape" class="st0" d="M12.5,9.9c2.4,0.2,7-0.4,13.7-1.9c0,0,4.3-1.8,11.2,4.8c-0.6,0.3-2.4,1.2-4.9,3.1
	c-0.4,0-1.4-0.7-3-2c-3.4-0.2-5,0.5-5,2c0,0.4-0.1,2.2,2.2,2.8c2.3,0.5,8.4,0.5,9,1.8s-0.1,3.3-3.3,3.4c-2.7,0.1-3.9-0.7-8,0
	s-7.4-2.8-8-3s-2.5-0.1-4,0v-11H12.5z M6.5,8.9h4v13h-4V8.9z"/>
<path id="Combined-Shape_1_" class="st0" d="M33.5,25.6c3.9-0.5,4.9-3.8,4-5.9c-0.3-0.8-1.7-1.4-3.5-1.7c1.5-2.5,4.2-4.1,7.3-4.1
	c4.7,0,8.5,3.8,8.5,8.5s-3.8,8.5-8.5,8.5C37.8,30.8,34.8,28.7,33.5,25.6z M42.1,31.8c5.1-0.1,9.2-4.3,9.2-9.5c0-4.9-3.7-9-8.4-9.5
	c0.3,0,0.6,0,0.9,0c5.3,0,9.6,4.3,9.6,9.6c0,5.3-4.3,9.6-9.6,9.6C43.2,31.9,42.6,31.9,42.1,31.8z M38.8,24.9c0,0,0.8,0.8,2.4,1v0.9
	h1.3v-0.9c1.5-0.2,2.3-1.1,2.3-2.1c0-2.2-3.8-2.1-3.8-3c0-0.4,0.5-0.6,0.9-0.6c1,0,1.8,0.6,1.8,0.6l0.9-1.4c0,0-0.7-0.6-2.1-0.8
	v-0.8h-1.3v0.9c-1.3,0.2-2.2,1-2.2,2.1c0,2.1,3.8,2.2,3.8,3c0,0.4-0.5,0.6-0.9,0.6c-1.1,0-2-0.7-2-0.7L38.8,24.9z"/>
</svg>
