<?xml version="1.0" encoding="UTF-8"?>
<svg width="48px" height="48px" viewBox="0 0 48 48" version="1.1" xmlns="http://www.w3.org/2000/svg" xmlns:xlink="http://www.w3.org/1999/xlink">
    <!-- Generator: Sketch 51.3 (57544) - http://www.bohemiancoding.com/sketch -->
    <title>paybill</title>
    <desc>Created with Sketch.</desc>
    <defs></defs>
    <g id="paybill" stroke="none" stroke-width="1" fill="none" fill-rule="evenodd">
        <path d="M7,14.1063938 C9.38694639,14.3034481 13.9691375,13.679924 20.7465734,12.2358215 C20.7465734,12.2358215 25.0952218,10.3891924 31.9114456,17.0308708 C31.305012,17.2926889 29.5578967,18.2117253 26.9953299,20.0899201 C26.5846435,20.0899201 25.5854666,19.4277281 23.9977992,18.1033441 C20.6174482,17.9152265 18.9515152,18.5712176 19,20.0713176 C19,20.4987302 18.9272727,22.2763809 21.2366434,22.8246327 C23.546014,23.3728844 29.6125874,23.3619753 30.2481119,24.6554019 C30.8836364,25.9488285 30.1157468,27.9656747 26.9953299,28.0926047 C24.2809243,28.1619753 23.0562245,27.4192721 19,28.0926047 C14.9437755,28.7659373 11.62168,25.3279656 11.0060801,25.0875675 C10.3904803,24.8471695 8.48402158,24.9875771 7,25.1033441 L7,14.1063938 Z M1,13.1033441 L5,13.1033441 L5,26.1033441 L1,26.1033441 L1,13.1033441 Z" id="Combined-Shape" fill="#008BBF" fill-rule="nonzero"></path>
        <path d="M28,29.8024198 C31.931255,29.3292756 32.8839709,26.01839 32.0286262,23.8620032 C31.6973415,23.0268102 30.3164388,22.5038746 28.5442713,22.1277985 C30.0306138,19.6549188 32.7394978,18.0004224 35.8348103,18.0004224 C40.5292306,18.0004224 44.3348103,21.806002 44.3348103,26.5004224 C44.3348103,31.1948427 40.5292306,35.0004224 35.8348103,35.0004224 C32.3114619,35.0004224 29.2888062,32.8567025 28,29.8024198 Z M36.5636753,35.9994704 C41.6339606,35.9451089 45.7278381,31.7128748 45.7278381,26.5 C45.7278381,21.5538777 42.0422233,17.4906016 37.3339551,17.0412666 C37.6287423,17.0139591 37.9274032,17 38.2293267,17 C43.5194713,17 47.8079808,21.2854585 47.8079808,26.5718395 C47.8079808,31.8582205 43.5194713,36.143679 38.2293267,36.143679 C37.6612003,36.143679 37.1046261,36.0942534 36.5636753,35.9994704 Z M33.3413809,29.1389497 C33.3413809,29.1389497 34.1834862,29.916849 35.7273458,30.1039387 L35.7273458,31 L37.0021996,31 L37.0021996,30.1039387 C38.4992757,29.9070022 39.3413809,29.0010941 39.3413809,27.9573304 C39.3413809,25.7811816 35.5402113,25.8402626 35.5402113,25.0032823 C35.5402113,24.6094092 36.0080476,24.45186 36.4291002,24.45186 C37.4349482,24.45186 38.2770534,25.0722101 38.2770534,25.0722101 L39.1425505,23.6641138 C39.1425505,23.6641138 38.4291002,23.0339168 37.0021996,22.8960613 L37.0021996,22 L35.7273458,22 L35.7273458,22.9256018 C34.4291002,23.1323851 33.4934277,23.9201313 33.4934277,25.0229759 C33.4934277,27.1400438 37.2945973,27.2089716 37.2945973,27.9967177 C37.2945973,28.4201313 36.8384569,28.5579869 36.4174043,28.5579869 C35.3647727,28.5579869 34.4174043,27.8293217 34.4174043,27.8293217 L33.3413809,29.1389497 Z" id="Combined-Shape" fill="#003863"></path>
    </g>
</svg>