<svg width="24" height="24" viewBox="0 0 24 24" fill="none" xmlns="http://www.w3.org/2000/svg">
    <path fill-rule="evenodd" clip-rule="evenodd" d="M8 2h8a1 1 0 0 1 .707.293l4 4A1 1 0 0 1 21 7v12a3 3 0 0 1-3 3H8a3 3 0 0 1-3-3H4a2 2 0 0 1-2-2v-5a2 2 0 0 1 2-2h1V5a3 3 0 0 1 3-3zm-1 9H4a1 1 0 0 0-1 1v5a1 1 0 0 0 1 1h12a1 1 0 0 0 1-1v-5a1 1 0 0 0-1-1H7zm0 8h9a2 2 0 0 0 2-2v-5a2 2 0 0 0-2-2H7V5a1 1 0 0 1 1-1h6v3l.005.15A2 2 0 0 0 16 9h3v10a1 1 0 0 1-1 1H8a1 1 0 0 1-1-1zm9-14.585L18.585 7H16V4.415zM5.767 16.79v-1.326h.732c.834 0 1.398-.624 1.398-1.488S7.333 12.5 6.499 12.5H4.717v4.29h1.05zm.516-2.226h-.516V13.4h.534c.348 0 .528.234.528.576 0 .342-.18.588-.546.588zm5.976.072c0 1.35-.864 2.154-2.214 2.154H8.521V12.5h1.524c1.35 0 2.214.786 2.214 2.136zm-2.256 1.254h-.432V13.4h.432c.708 0 1.17.42 1.17 1.236 0 .822-.444 1.254-1.17 1.254zm4.044-.69v1.59h-1.05V12.5h2.628v.9h-1.578v.9h1.308v.9h-1.308z" fill="#A8ABAC"/>
</svg>
