<?xml version="1.0" encoding="UTF-8"?>
<svg width="12px" height="14px" viewBox="0 0 12 14" version="1.1" xmlns="http://www.w3.org/2000/svg" xmlns:xlink="http://www.w3.org/1999/xlink">
    <!-- Generator: Sketch 52.6 (67491) - http://www.bohemiancoding.com/sketch -->
    <title>phone</title>
    <desc>Created with Sketch.</desc>
    <g id="Page-1" stroke="none" stroke-width="1" fill="none" fill-rule="evenodd">
        <path d="M6.26866117,7.56434665 C7.33994587,7.42270448 8.16666667,6.50581441 8.16666667,5.39583333 C8.16666667,5.14016166 8.1228042,4.89473463 8.04219375,4.66666667 L9.92512077,4.66666667 C10.88695,4.66666667 11.6666667,5.44638331 11.6666667,6.40821256 C11.6666667,7.37236596 10.8893008,8.15619627 9.9251805,8.1641807 L9.625,8.16666667 L9.625,9.04166667 L8.45833333,8.16666667 L7.57484309,8.1609759 C7.05403265,8.15762124 6.58747527,7.92738007 6.26866117,7.56434665 Z M7.99998474,4 L7,3 L7,2 L1,2 L1,12 L7,12 L7,9.00120425 L8.0002594,10 L8.0002594,12.8783002 C8.0002594,13.2683397 7.9596482,13.4097774 7.88338883,13.55237 C7.80712949,13.6949626 7.69522197,13.8068701 7.55262941,13.8831294 C7.41003681,13.9593888 7.26859907,14 6.87855962,14 L1.13435242,14 C0.744312976,14 0.602875235,13.9593888 0.460282639,13.8831294 C0.317690072,13.8068701 0.20578256,13.6949626 0.129523218,13.55237 C0.053263847,13.4097774 0.012652647,13.2683397 0.012652647,12.8783002 L0.012652647,1.12169978 C0.012652647,0.731660329 0.053263847,0.590222588 0.129523218,0.447629992 C0.20578256,0.305037425 0.317690072,0.193129913 0.460282639,0.116870571 C0.602875235,0.0406112 0.744312976,1.09912079e-14 1.13435242,1.09912079e-14 L6.87828497,7.10542736e-15 C7.26832441,7.10542736e-15 7.40976215,0.0406112 7.55235475,0.116870571 C7.69494732,0.193129913 7.80685483,0.305037425 7.88311417,0.447629992 C7.95937354,0.590222588 7.99998474,0.731660329 7.99998474,1.12169978 L7.99998474,4 Z M4,13.5 C4.27614237,13.5 4.5,13.2761424 4.5,13 C4.5,12.7238576 4.27614237,12.5 4,12.5 C3.72385763,12.5 3.5,12.7238576 3.5,13 C3.5,13.2761424 3.72385763,13.5 4,13.5 Z M3.5,4.08333333 L5.83333333,4.08333333 C6.63874858,4.08333333 7.29166667,4.73625142 7.29166667,5.54166667 C7.29166667,6.34708191 6.63874858,7 5.83333333,7 L4.66666667,7 L3.5,7.875 L3.51074532,7 L3.5,7 C2.69458475,7 2.04166667,6.34708191 2.04166667,5.54166667 C2.04166667,4.73625142 2.69458475,4.08333333 3.5,4.08333333 Z" id="phone" fill="#A8ABAC" fill-rule="nonzero"></path>
    </g>
</svg>