<?xml version="1.0" encoding="UTF-8"?>
<svg width="128px" height="128px" viewBox="0 0 128 128" version="1.1" xmlns="http://www.w3.org/2000/svg" xmlns:xlink="http://www.w3.org/1999/xlink">
    <!-- Generator: Sketch 51.3 (57544) - http://www.bohemiancoding.com/sketch -->
    <title>phone</title>
    <desc>Created with Sketch.</desc>
    <defs></defs>
    <g id="phone" stroke="none" stroke-width="1" fill="none" fill-rule="evenodd">
        <path d="M65.4925526,65.9349028 C69.1655287,65.4492725 72,62.3056494 72,58.5 C72,57.6234114 71.8496144,56.7819473 71.5732357,56 L78.0289855,56 C81.3266858,56 84,58.6733142 84,61.9710145 C84,65.2766833 81.3347457,67.9641015 78.0291903,67.9914767 L77,68 L77,71 L73,68 L69.9708906,67.9804888 C68.1852548,67.9689871 66.5856295,67.1795888 65.4925526,65.9349028 Z M72,52.7803468 L67.9459459,50.600049 L67.9459459,46 L48,46 L48,80 L67.9459459,80 L67.9459459,70.8612717 L72,73.1213873 L72,84.1541722 C72,85.4914503 71.8607616,85.9763797 71.5993009,86.4652686 C71.3378403,86.9541574 70.9541574,87.3378403 70.4652686,87.5993009 C69.9763797,87.8607616 69.4914503,88 68.1541722,88 L47.8458278,88 C46.5085497,88 46.0236203,87.8607616 45.5347314,87.5993009 C45.0458426,87.3378403 44.6621597,86.9541574 44.4006991,86.4652686 C44.1392384,85.9763797 44,85.4914503 44,84.1541722 L44,43.8458278 C44,42.5085497 44.1392384,42.0236203 44.4006991,41.5347314 C44.6621597,41.0458426 45.0458426,40.6621597 45.5347314,40.4006991 C46.0236203,40.1392384 46.5085497,40 47.8458278,40 L68.1541722,40 C69.4914503,40 69.9763797,40.1392384 70.4652686,40.4006991 C70.9541574,40.6621597 71.3378403,41.0458426 71.5993009,41.5347314 C71.8607616,42.0236203 72,42.5085497 72,43.8458278 L72,52.7803468 Z M58,86 C59.1045695,86 60,85.1045695 60,84 C60,82.8954305 59.1045695,82 58,82 C56.8954305,82 56,82.8954305 56,84 C56,85.1045695 56.8954305,86 58,86 Z M56,54 L64,54 C66.7614237,54 69,56.2385763 69,59 C69,61.7614237 66.7614237,64 64,64 L60,64 L56,67 L56.0368411,64 L56,64 C53.2385763,64 51,61.7614237 51,59 C51,56.2385763 53.2385763,54 56,54 Z" id="Combined-Shape" fill="#474B55"></path>
    </g>
</svg>