<svg width="24" height="24" viewBox="0 0 24 24" fill="none" xmlns="http://www.w3.org/2000/svg">
<path fill-rule="evenodd" clip-rule="evenodd" d="M6 6C5.44772 6 5 6.44772 5 7V13.2667C5 13.819 5.44772 14.2667 6 14.2667H13C13.5275 14.2667 14.0337 14.4751 14.4083 14.8465L16.1765 16.6V16.2078C16.1765 15.1358 17.0456 14.2667 18.1176 14.2667C18.605 14.2667 19 13.8716 19 13.3843V7C19 6.44772 18.5523 6 18 6H6ZM3 7C3 5.34315 4.34315 4 6 4H18C19.6569 4 21 5.34315 21 7V13.3843C21 14.9565 19.7412 16.2348 18.1765 16.2661V19C18.1765 19.4037 17.9337 19.7678 17.5611 19.9231C17.1884 20.0783 16.759 19.9943 16.4723 19.7101L13 16.2667H6C4.34315 16.2667 3 14.9235 3 13.2667V7Z" fill="#A8ABAC"/>
</svg>
