<?xml version="1.0" encoding="UTF-8"?>
<svg width="38px" height="38px" viewBox="0 0 38 38" version="1.1" xmlns="http://www.w3.org/2000/svg" xmlns:xlink="http://www.w3.org/1999/xlink">
    <!-- Generator: Sketch 58 (84663) - https://sketch.com -->
    <title>remove_hover@2x</title>
    <desc>Created with Sketch.</desc>
    <g id="Page-1" stroke="none" stroke-width="1" fill="none" fill-rule="evenodd">
        <g id="icons-/-report-2" transform="translate(19.000000, 19.000000) scale(-1, 1) translate(-19.000000, -19.000000) translate(-3.000000, -3.000000)">
            <rect id="Rectangle" opacity="0" x="0" y="0" width="44" height="44"></rect>
            <polygon id="Combined-Shape" fill="#AD122A" fill-rule="evenodd" points="13 3 3 13 3 31 13 41 31 41 41 31 41 13 31 3"></polygon>
            <g id="Group-10" stroke-width="1" fill-rule="evenodd" transform="translate(11.000000, 11.000000)">
                <g id="Group">
                    <path d="M23,2 L23,3 L20,3 L20,22 L3,22 L3,3 L0,3 L0,2 L23,2 Z M19,3 L4,3 L4,21 L19,21 L19,3 Z M8,6 L8,18 L7,18 L7,6 L8,6 Z M12,6 L12,18 L11,18 L11,6 L12,6 Z M16,6 L16,18 L15,18 L15,6 L16,6 Z M15,0 L15,1 L8,1 L8,0 L15,0 Z" id="Combined-Shape" fill="#FFFFFF" fill-rule="nonzero"></path>
                    <g id="Group-2" transform="translate(7.000000, 6.000000)"></g>
                </g>
            </g>
        </g>
    </g>
</svg>