<svg width="69" height="32" viewBox="0 0 69 32" fill="none" xmlns="http://www.w3.org/2000/svg">
    <path d="m23.063 28.483-.557.656-.56-.656h-.02v1.186h.174v-.61c0-.065-.007-.168-.007-.168s.06.088.104.141l.296.356h.02l.295-.356a1.37 1.37 0 0 0 .106-.141s-.007.103-.007.169v.61h.174v-1.187h-.018zm-2.196.012h.88v.16h-.35v1.014h-.18v-1.013h-.35v-.16zM0 18.922C.004 13.728.026 2.257.032 0h26.125c.005 2.257.028 13.728.032 18.922 0 1.12-.232 2.231-.723 3.239-1.834 3.767-6.214 7.758-12.37 9.839h-.002C6.935 29.919 2.555 25.928.721 22.16A7.379 7.379 0 0 1 0 18.923z" fill="#1E54A8"/>
    <path d="m2.903 14.96-.005 3.964c0 .709.149 1.389.43 1.968.587 1.206 1.606 2.598 3.069 3.947h13.392c1.463-1.349 2.481-2.741 3.069-3.947a4.51 4.51 0 0 0 .43-1.968l-.005-3.965H2.903zm7.352 12.639h5.676a20.61 20.61 0 0 0 2.436-1.577H7.819a20.62 20.62 0 0 0 2.436 1.577zm8.58-14.564H13.59c.922-1.204 4.818-4.136 5.3-4.71.531-.633 1.125-3.015 1.741-3.038.313-.012.995.449 1.593.907.554.508 1.127 1.1 1.17 1.41.084.611-2.159 1.61-2.69 2.244-.264.314-1.047 1.76-1.87 3.187z" fill="#fff"/>
    <path d="M12.93 8.261s-2.167-.506-3.416.743C8.252 10.266 8.79 12.4 8.79 12.4s2.135.538 3.397-.724c1.249-1.249.743-3.416.743-3.416zM9.775 5.458c0-1.785-1.89-2.914-1.89-2.914s-1.89 1.129-1.89 2.914c0 1.766 1.89 2.94 1.89 2.94s1.89-1.174 1.89-2.94zm-3.52 3.546C5.007 7.755 2.84 8.26 2.84 8.26s-.506 2.167.742 3.416c1.263 1.262 3.397.724 3.397.724s.538-2.135-.724-3.397zM43.192 16.258h2.074v13.426h-2.074V16.258zm8.783 11.59h-1.46v-9.754h1.46c3.495 0 5.134 2.014 5.134 4.877s-1.639 4.877-5.134 4.877zm.139-11.59H48.42v13.426h3.693c4.323 0 7.166-2.686 7.166-6.713 0-4.028-2.862-6.713-7.166-6.713zm-14.178 9.773h-4.68l1.679-4.185c.335-.79.651-1.994.651-1.994s.336 1.204.671 1.994l1.678 4.185zm-2.429-9.911-5.745 13.564h2.014l.77-1.896h6.14l.77 1.896h2.171L35.744 16.12h-.237z" fill="#76C92B"/>
    <path d="M37.624 9.285c1.757-.77 2.685-2.192 2.685-4.265 0-3.08-2.073-5.014-5.785-5.014h-3.356V13.43h2.093V9.976h1.263c.375 0 .75-.04 1.126-.079l2.408 3.534h2.409l-2.843-4.146zm-4.363-1.106V1.842h1.184c2.626 0 3.732 1.165 3.732 3.178 0 1.995-1.066 3.16-3.732 3.16h-1.184zm9.93 5.252h2.074V.006H43.19V13.43zm8.371 0h2.074V1.841h3.988V.007h-10.05v1.836h3.988v11.59zm8.313 0h8.805v-1.836h-6.713V8.851h5.706V7.054h-5.706V1.842h6.437V.006h-8.53V13.43z" fill="#1E54A8"/>
</svg>
