<?xml version="1.0" encoding="UTF-8"?>
<svg width="24px" height="24px" viewBox="0 0 24 24" version="1.1" xmlns="http://www.w3.org/2000/svg" xmlns:xlink="http://www.w3.org/1999/xlink">
    <!-- Generator: Sketch 51.3 (57544) - http://www.bohemiancoding.com/sketch -->
    <title>search_small</title>
    <desc>Created with Sketch.</desc>
    <defs></defs>
    <g id="search_small" stroke="none" stroke-width="1" fill="none" fill-rule="evenodd">
        <circle id="Oval-6" fill="#529535" cx="12" cy="12" r="11"></circle>
        <path d="M10,13.6666667 C7.97495592,13.6666667 6.33333333,12.0250441 6.33333333,10 C6.33333333,7.97495592 7.97495592,6.33333333 10,6.33333333 C12.0250441,6.33333333 13.6666667,7.97495592 13.6666667,10 C13.6666667,12.0250441 12.0250441,13.6666667 10,13.6666667 Z M10,12.3333333 C11.2886644,12.3333333 12.3333333,11.2886644 12.3333333,10 C12.3333333,8.71133558 11.2886644,7.66666667 10,7.66666667 C8.71133558,7.66666667 7.66666667,8.71133558 7.66666667,10 C7.66666667,11.2886644 8.71133558,12.3333333 10,12.3333333 Z" id="Oval-4" fill="#FFFFFF" fill-rule="nonzero"></path>
        <rect id="Rectangle-Copy" fill="#FFFFFF" fill-rule="nonzero" transform="translate(14.237982, 14.355629) scale(-1, 1) rotate(45.000000) translate(-14.237982, -14.355629) " x="13.5713151" y="11.6889626" width="1.33333333" height="5.33333333" rx="0.666666667"></rect>
    </g>
</svg>