<?xml version="1.0" encoding="UTF-8"?>
<svg width="24px" height="24px" viewBox="0 0 24 24" version="1.1" xmlns="http://www.w3.org/2000/svg" xmlns:xlink="http://www.w3.org/1999/xlink">
    <!-- Generator: Sketch 59 (86127) - https://sketch.com -->
    <title>setttings@2x</title>
    <desc>Created with Sketch.</desc>
    <g id="setttings" stroke="none" stroke-width="1" fill="none" fill-rule="evenodd">
        <g id="settings">
            <rect id="Rectangle" fill-opacity="0" fill="#D8D8D8" x="0" y="0" width="24" height="24"></rect>
            <path d="M12,4 C12.5522847,4 13,4.44771525 13,5 L13,6 L12.9958144,6.08225776 C13.9108417,6.23510287 14.7557499,6.59503477 15.4807239,7.11223824 L15.5355339,7.05025253 L15.5355339,7.05025253 L16.2426407,6.34314575 C16.633165,5.95262146 17.26633,5.95262146 17.6568542,6.34314575 C18.0473785,6.73367004 18.0473785,7.36683502 17.6568542,7.75735931 L16.9497475,8.46446609 L16.8877618,8.51927609 C17.4049652,9.2442501 17.7648971,10.0891583 17.9177422,11.0041856 L18,11 L18,11 L19,11 C19.5522847,11 20,11.4477153 20,12 C20,12.5522847 19.5522847,13 19,13 L18,13 L17.9177422,12.9958144 C17.7648971,13.9108417 17.4049652,14.7557499 16.8877618,15.4807239 L16.9497475,15.5355339 L17.6568542,16.2426407 C18.0473785,16.633165 18.0473785,17.26633 17.6568542,17.6568542 C17.26633,18.0473785 16.633165,18.0473785 16.2426407,17.6568542 L16.2426407,17.6568542 L15.5355339,16.9497475 C15.5157201,16.9299336 15.4969115,16.9094952 15.4791083,16.8884955 C14.7557499,17.4049652 13.9108417,17.7648971 12.9958144,17.9177422 C12.9988226,17.9436304 13,17.9716777 13,18 L13,19 C13,19.5522847 12.5522847,20 12,20 C11.4477153,20 11,19.5522847 11,19 L11,18 L11.0041856,17.9177422 C10.0891583,17.7648971 9.2442501,17.4049652 8.51927609,16.8877618 L8.46446609,16.9497475 L8.46446609,16.9497475 L7.75735931,17.6568542 C7.36683502,18.0473785 6.73367004,18.0473785 6.34314575,17.6568542 C5.95262146,17.26633 5.95262146,16.633165 6.34314575,16.2426407 L7.05025253,15.5355339 L7.11223824,15.4807239 C6.59503477,14.7557499 6.23510287,13.9108417 6.08225776,12.9958144 L6,13 L6,13 L5,13 C4.44771525,13 4,12.5522847 4,12 C4,11.4477153 4.44771525,11 5,11 L6,11 L6.08225776,11.0041856 C6.23510287,10.0891583 6.59503477,9.2442501 7.11223824,8.51927609 L7.05025253,8.46446609 L6.34314575,7.75735931 C5.95262146,7.36683502 5.95262146,6.73367004 6.34314575,6.34314575 C6.73367004,5.95262146 7.36683502,5.95262146 7.75735931,6.34314575 L7.75735931,6.34314575 L8.46446609,7.05025253 C8.48427993,7.07006637 8.50308848,7.0905048 8.52089174,7.11150447 C9.2442501,6.59503477 10.0891583,6.23510287 11.0041856,6.08225776 C11.0011695,6.05617961 11,6.02822638 11,6 L11,5 C11,4.44771525 11.4477153,4 12,4 Z M12,9 C10.3431458,9 9,10.3431458 9,12 C9,13.6568542 10.3431458,15 12,15 C13.6568542,15 15,13.6568542 15,12 C15,10.3431458 13.6568542,9 12,9 Z M12,11 C12.5522847,11 13,11.4477153 13,12 C13,12.5522847 12.5522847,13 12,13 C11.4477153,13 11,12.5522847 11,12 C11,11.4477153 11.4477153,11 12,11 Z" id="Combined-Shape" fill="#FFFFFF"></path>
        </g>
    </g>
</svg>