<?xml version="1.0" encoding="UTF-8"?>
<svg width="24px" height="24px" viewBox="0 0 24 24" version="1.1" xmlns="http://www.w3.org/2000/svg" xmlns:xlink="http://www.w3.org/1999/xlink">
    <!-- Generator: Sketch 51.3 (57544) - http://www.bohemiancoding.com/sketch -->
    <title>sms_red</title>
    <desc>Created with Sketch.</desc>
    <defs></defs>
    <g id="sms_red" stroke="none" stroke-width="1" fill="none" fill-rule="evenodd">
        <path d="M13.3757767,12.9424702 C15.0717334,12.7736289 16.3961556,11.3425643 16.3961556,9.60216439 C16.3961556,9.23359183 16.3367573,8.8788925 16.2270109,8.54711671 L18.1225973,8.54711671 C19.7117429,8.54711671 21,9.8353738 21,11.4245195 L21,11.9729719 C21,13.2592156 19.9572934,14.3019222 18.6710497,14.3019222 L18.6118125,15.4528833 L16.3996294,14.3019222 L15.8206751,14.3019222 C14.7886817,14.3019222 13.8835798,13.7586357 13.3757767,12.9424702 Z M17,7 L15,6.03531579 L15,4 L6,4 L6,18 L15,18 L15,15 L17,16 L17,20.4361148 C17,21.3276335 16.9071744,21.6509198 16.7328673,21.9768457 C16.5585602,22.3027716 16.3027716,22.5585602 15.9768457,22.7328673 C15.6509198,22.9071744 15.3276335,23 14.4361148,23 L6.5638852,23 C5.67236646,23 5.34908022,22.9071744 5.0231543,22.7328673 C4.69722837,22.5585602 4.4414398,22.3027716 4.2671327,21.9768457 C4.09282561,21.6509198 4,21.3276335 4,20.4361148 L4,4.5638852 C4,3.67236646 4.09282561,3.34908022 4.2671327,3.0231543 C4.4414398,2.69722837 4.69722837,2.4414398 5.0231543,2.2671327 C5.34908022,2.09282561 5.67236646,2 6.5638852,2 L14.4361148,2 C15.3276335,2 15.6509198,2.09282561 15.9768457,2.2671327 C16.3027716,2.4414398 16.5585602,2.69722837 16.7328673,3.0231543 C16.9071744,3.34908022 17,3.67236646 17,4.5638852 L17,7 Z M10.5,22 C11.3284271,22 12,21.3284271 12,20.5 C12,19.6715729 11.3284271,19 10.5,19 C9.67157288,19 9,19.6715729 9,20.5 C9,21.3284271 9.67157288,22 10.5,22 Z M9.91666667,6 L12.0833333,6 C13.6941639,6 15,7.30583615 15,8.91666667 C15,10.5274972 13.6941639,11.8333333 12.0833333,11.8333333 L11.5679793,11.8333333 L9.37137223,13 L9.31255211,11.8333333 C8.03536485,11.8333333 7,10.7979685 7,9.52078122 L7,8.91666667 C7,7.30583615 8.30583615,6 9.91666667,6 Z" id="Combined-Shape" fill="#AD122A"></path>
    </g>
</svg>