<?xml version="1.0" encoding="UTF-8"?>
<svg width="48px" height="48px" viewBox="0 0 48 48" version="1.1" xmlns="http://www.w3.org/2000/svg" xmlns:xlink="http://www.w3.org/1999/xlink">
    <!-- Generator: Sketch 54.1 (76490) - https://sketchapp.com -->
    <title>teladoc</title>
    <desc>Created with Sketch.</desc>
    <defs>
        <path d="M15,5 L33,5 C34.6568542,5 36,6.34314575 36,8 L36,40 C36,41.6568542 34.6568542,43 33,43 L15,43 C13.3431458,43 12,41.6568542 12,40 L12,8 C12,6.34314575 13.3431458,5 15,5 Z M24,41 C25.1045695,41 26,40.1045695 26,39 C26,37.8954305 25.1045695,37 24,37 C22.8954305,37 22,37.8954305 22,39 C22,40.1045695 22.8954305,41 24,41 Z M16,8 C15.4477153,8 15,8.44771525 15,9 L15,34 C15,34.5522847 15.4477153,35 16,35 L32,35 C32.5522847,35 33,34.5522847 33,34 L33,9 C33,8.44771525 32.5522847,8 32,8 L16,8 Z" id="path-1"></path>
    </defs>
    <g id="Page-1" stroke="none" stroke-width="1" fill="none" fill-rule="evenodd">
        <g id="graphics-/-icons-/-teladoc">
            <mask id="mask-2" fill="white">
                <use xlink:href="#path-1"></use>
            </mask>
            <use id="Combined-Shape" fill="#003863" fill-rule="evenodd" xlink:href="#path-1"></use>
            <path d="M26,20 L30,20 L30,24 L26,24 L26,28 L22,28 L22,24 L18,24 L18,20 L22,20 L22,16 L26,16 L26,20 Z" id="Combined-Shape" fill="#008BBF" fill-rule="evenodd"></path>
        </g>
    </g>
</svg>