<svg width="40" height="40" viewBox="0 0 40 40" fill="none" xmlns="http://www.w3.org/2000/svg">
    <path fill-rule="evenodd" clip-rule="evenodd" d="M19.875 2.5a.5.5 0 0 0-.5.5v2.75a.5.5 0 0 0 .5.5h.25a.5.5 0 0 0 .5-.5V3a.5.5 0 0 0-.5-.5h-.25zm8.11 2.858a.5.5 0 0 0-.705.062l-1.768 2.107a.5.5 0 0 0 .062.704l.191.16a.5.5 0 0 0 .705-.061l1.768-2.107a.5.5 0 0 0-.062-.704l-.191-.16zm4.658 5.216a.5.5 0 0 1 .696.123l.144.205a.5.5 0 0 1-.123.696l-2.253 1.578a.5.5 0 0 1-.696-.123l-.144-.205a.5.5 0 0 1 .123-.696l2.253-1.578zm-26.126.328a.5.5 0 0 0 .123.696l2.253 1.578a.5.5 0 0 0 .696-.123l.144-.205a.5.5 0 0 0-.123-.696l-2.253-1.578a.5.5 0 0 0-.696.123l-.144.205zm5.245-4.679a.5.5 0 0 1 .062-.704l.191-.16a.5.5 0 0 1 .705.061l1.768 2.107a.5.5 0 0 1-.062.704l-.191.16a.5.5 0 0 1-.705-.061l-1.768-2.107zM8.75 20c0-6.213 5.037-11.25 11.25-11.25S31.25 13.787 31.25 20v11.25h1.25a2.5 2.5 0 0 1 2.5 2.5v3.75H5v-3.75a2.5 2.5 0 0 1 2.5-2.5h1.25V20zm20 0v11.25h-17.5V20A8.75 8.75 0 0 1 20 11.25l.3.005A8.75 8.75 0 0 1 28.75 20zM7.5 33.75h25V35h-25v-1.25z" fill="#A8ABAC"/>
</svg>
