<svg width="117" height="24" viewBox="0 0 117 24" fill="none" xmlns="http://www.w3.org/2000/svg">
<mask id="mask0_98_23549" style="mask-type:alpha" maskUnits="userSpaceOnUse" x="0" y="0" width="117" height="24">
<path d="M0.796875 0H116.768V24H0.796875V0Z" fill="white"/>
</mask>
<g mask="url(#mask0_98_23549)">
<path fill-rule="evenodd" clip-rule="evenodd" d="M81.5563 12.6305C81.5563 10.8685 84.2341 8.14628 85.5737 8.14628C85.9413 8.14628 86.1801 8.30397 86.1801 8.67798C86.1801 9.65391 84.117 11.3946 81.5563 12.6305ZM74.9517 8.15143C75.3191 8.15143 75.5581 8.30912 75.5581 8.68329C75.5581 9.65922 73.4948 11.3996 70.9341 12.6358C70.9341 10.8737 73.6119 8.15143 74.9517 8.15143ZM47.6661 12.8312C47.6661 10.7295 50.8605 8.40754 53.3323 8.40754C53.8215 8.40754 54.3137 8.49033 54.7501 8.66783C51.848 13.2949 47.6661 15.1349 47.6661 12.8312ZM44.9147 22.5182C44.632 22.5182 44.4503 22.3768 44.4503 22.0766C44.4503 21.422 45.7357 19.7194 49.1164 18.5027C47.6795 20.8503 46.0073 22.5182 44.9147 22.5182ZM25.9306 12.8312C25.9306 10.8022 29.0855 8.3998 31.6132 8.3998C32.1224 8.3998 32.6021 8.4834 33.0167 8.66783C29.96 13.4768 25.9306 15.0572 25.9306 12.8312ZM45.6126 3.55332C45.8914 3.55332 46.0135 3.69281 46.0135 3.95423C46.0135 5.15695 43.1376 8.88689 40.2443 11.2398C40.9763 8.67765 44.253 3.55332 45.6126 3.55332ZM110.939 14.1565C113.124 11.4127 110.261 7.4018 113.356 6.31457C113.284 5.54368 112.561 5.08286 111.639 5.08286C110.807 5.08286 109.918 5.5374 109.349 6.2714C106.089 10.4776 102.705 13.7171 100.769 13.7171C100.124 13.7171 99.8973 13.4207 99.8973 12.9154C99.8973 11.3466 101.867 9.04586 103.383 7.44239C103.575 7.23316 103.662 7.02393 103.662 6.83225C103.662 6.3616 103.122 6.04784 102.459 6.04784C100.794 6.04784 97.3372 8.68329 94.7831 11.0897C95.698 9.36172 96.7136 7.98633 96.7136 7.24122C96.7136 6.4568 95.8944 6.23033 94.9531 6.24773C91.307 11.0944 86.6287 14.675 83.6257 14.675C82.8482 14.675 82.3289 14.4126 82.0031 14.0249C85.8271 12.462 89.0203 9.85187 89.0203 7.92545C89.0203 6.73207 88.0193 6.20101 86.6166 6.20101C83.0156 6.20101 78.4597 10.0324 78.2343 13.8687C74.764 15.1167 72.179 14.8944 71.381 14.0302C75.2047 12.4673 78.3983 9.85702 78.3983 7.93076C78.3983 6.73738 77.3971 6.20633 75.9944 6.20633C72.3623 6.20633 67.7585 10.1036 67.6066 13.9729C65.8692 14.507 63.8938 14.7418 63.8938 13.3099C63.8938 10.9478 67.432 9.00801 67.432 7.43595C67.432 7.00025 67.2402 6.63414 66.909 6.44262C65.7806 7.02393 64.103 7.5057 62.8827 7.5057C63.1965 6.52976 62.8653 5.76274 61.9068 5.76274C60.4948 5.76274 59.4182 7.34881 59.4182 8.63867C59.4182 9.20452 59.627 9.59786 59.9688 9.85799C58.5684 11.742 56.7941 13.466 54.4012 14.8356C55.1157 13.3537 55.669 11.7583 56.4376 9.50637C58.2944 8.41108 59.2369 6.18056 55.4953 6.18056C52.4281 6.18056 49.0401 8.0237 46.9199 10.5028C44.1516 13.7395 40.7806 15.547 40.1827 13.0909C44.7536 9.6523 49.0038 4.7918 48.9571 2.37073C48.9404 1.49498 48.4191 0.900146 47.1929 0.900146C44.291 0.900146 37.5234 7.49732 36.9487 13.3692C32.1039 15.9636 32.6528 11.8761 34.134 9.72542C36.2867 8.62031 37.7767 6.18056 33.7621 6.18056C27.9371 6.18056 23.1426 11.5969 23.2237 15.0617C23.2477 16.0876 23.7629 16.934 24.8526 16.9345C26.1011 16.9355 28.1051 16.07 30.2158 13.8893C29.8094 15.9779 30.2933 16.9345 32.0058 16.9345C33.3981 16.9345 35.182 16.2342 37.0673 15.1503C37.3804 16.1254 38.1938 16.9345 39.792 16.9345C41.4507 16.9345 43.4952 15.6284 45.0958 13.9424C45.0134 14.3165 44.97 14.6913 44.97 15.0633C44.97 16.2752 45.6205 16.934 46.586 16.9345C47.6737 16.9353 49.3021 16.0718 51.095 14.3796C50.813 15.1492 50.4905 15.932 50.1112 16.6952C46.2537 18.0573 42.2749 19.5318 42.2749 22.202C42.2749 23.3349 43.2144 24.0096 44.3996 24.0096C47.2912 24.0096 50.8447 20.5556 53.0632 17.1872C55.8122 15.9549 59.0123 13.6213 61.4808 10.2839C62.1228 10.2995 62.8347 10.1888 63.4932 10.0157C61.3825 12.2584 60.4077 13.7108 60.4077 15.1226C60.4077 16.2905 61.2967 16.9345 62.8653 16.9345C64.2343 16.9345 65.955 16.4502 67.9892 15.5549C68.5839 16.4668 69.8238 16.9345 71.4179 16.9345C73.796 16.9345 76.4269 16.1227 78.4671 15.2806C78.919 16.2445 80.0069 16.9345 81.7513 16.9345C85.2975 16.9345 88.5059 14.6842 91.2133 12.2729C89.9909 14.133 88.1721 16.9345 90.7291 16.9345C91.13 16.9345 91.6944 16.8698 92.1573 16.715C93.97 13.4033 96.3243 11.2595 98.6772 9.84768C96.7424 12.253 95.9408 14.0832 95.9408 15.2684C95.9408 16.3664 96.6205 16.9345 97.7359 16.9345C101.133 16.9345 105.125 13.4423 108.561 9.44419C108.737 10.9713 109.667 12.6097 108.039 14.0318C105.579 13.974 104.203 14.6832 104.206 15.8366C104.207 16.5471 104.802 16.9345 105.645 16.9345C106.5 16.9345 107.34 16.6858 108.12 16.3029C109.498 16.7021 110.92 17.1302 112.583 17.1302C115.007 17.1302 116.715 15.9123 116.768 13.8959C115.378 14.6238 113.137 14.35 110.939 14.1565Z" fill="#D22D2A"/>
<path fill-rule="evenodd" clip-rule="evenodd" d="M13.5729 11.6248C13.6253 8.36534 15.9259 4.93999 17.0938 4.93999C17.4388 4.93999 17.5121 5.16404 17.5121 5.40226C17.5121 6.51768 15.8563 9.49831 13.5729 11.6248ZM25.1498 3.96052e-05C24.0625 -0.0058799 23.0133 0.652259 22.3339 1.64011C25.5439 3.7392 21.6107 14.1911 15.8099 14.1911C15.1147 14.1911 14.5249 13.9887 14.1302 13.5752C17.2705 10.7465 19.539 6.89974 19.539 4.63121C19.539 3.47133 18.9724 2.73556 17.6443 2.73556C13.7915 2.73556 9.72943 9.05698 10.4829 13.6174C8.05364 14.4804 6.8464 13.4009 6.8464 11.2327C6.8464 6.70582 11.5764 2.01074 11.3018 0.598139C6.40072 2.11334 2.56496 -1.40704 0.796875 4.32228C3.17929 3.02597 5.3784 5.09816 8.09616 3.58312C5.76207 6.27559 3.40624 10.0877 3.43797 13.3072C3.45891 15.4143 4.59704 16.9345 7.06256 16.9345C8.4626 16.9345 9.91546 16.4442 11.3139 15.6445C11.9131 16.3935 12.8787 16.9345 14.3544 16.9345C20.3713 16.9345 26.9472 8.48034 26.9472 2.44772C26.9472 0.847317 26.3121 0.00652261 25.1498 3.96052e-05Z" fill="#D22D2A"/>
</g>
</svg>
