<?xml version="1.0" encoding="UTF-8"?>
<svg width="16px" height="16px" viewBox="0 0 16 16" version="1.1" xmlns="http://www.w3.org/2000/svg" xmlns:xlink="http://www.w3.org/1999/xlink">
    <title>ico-home</title>
    <defs>
        <path d="M6.96542312,0.131227963 L12.7338504,5.40872529 C12.8565829,5.53145778 12.9179492,5.71555653 12.9179492,5.83828902 L12.9179492,13.3863375 C12.9179492,13.754535 12.6724842,14 12.3042867,14 L8.31548057,14 C8.00864934,14 7.76318434,13.754535 7.76318434,13.3863375 L7.76318434,10.0111939 L5.73809816,10.0111939 L5.73809816,13.3863375 C5.73809816,13.754535 5.49263317,14 5.12443568,14 L1.13562956,14 C0.828798325,14 0.583333333,13.754535 0.583333333,13.3863375 L0.583333333,5.83828902 C0.583333333,5.71555653 0.644699581,5.53145778 0.767432077,5.40872529 L6.1676619,0.192594211 C6.41312689,-0.0528707805 6.71995813,-0.0528707805 6.96542312,0.131227963 Z" id="path-1"></path>
    </defs>
    <g id="Home-Page" stroke="none" stroke-width="1" fill="none" fill-rule="evenodd">
        <g id="LOL-icons" transform="translate(-437.000000, -346.000000)">
            <g id="ico-home" transform="translate(437.000000, 346.000000)">
                <rect id="background" fill-opacity="0" fill="#000000" x="0" y="0" width="16" height="16"></rect>
                <g id="iconography/_nav/home" transform="translate(1.000000, 1.000000)">
                    <mask id="mask-2" fill="white">
                        <use xlink:href="#path-1"></use>
                    </mask>
                    <use id="Shape" fill="#000000" xlink:href="#path-1"></use>
                    <g id="Group" mask="url(#mask-2)" fill="#474B55">
                        <g id="colors/03_medium_gray">
                            <rect id="Rectangle-Copy" x="0" y="0" width="14" height="14"></rect>
                        </g>
                    </g>
                </g>
            </g>
        </g>
    </g>
</svg>