<?xml version="1.0" encoding="UTF-8"?>
<svg width="16px" height="16px" viewBox="0 0 16 16" version="1.1" xmlns="http://www.w3.org/2000/svg" xmlns:xlink="http://www.w3.org/1999/xlink">
    <title>ico-search</title>
    <defs>
        <path d="M5.20965609,0 C8.08713004,0 10.4193122,2.23250243 10.4193122,4.9858792 C10.4193122,6.30814721 9.88145105,7.51028822 9.00363501,8.40273163 C9.07325671,8.43161636 9.13828307,8.47436105 9.19590308,8.52942001 L9.19590308,8.52942001 L13.8092659,12.9377313 C13.8159322,12.9441013 13.8224529,12.950622 13.828823,12.9572884 C14.0610306,13.200297 14.0522745,13.5855359 13.8092659,13.8177435 C13.551638,14.0639206 13.145948,14.0639206 12.8883201,13.8177435 L12.8883201,13.8177435 L8.27495729,9.40943224 C8.26829096,9.4030622 8.26177024,9.39654149 8.25540021,9.38987515 C8.18238382,9.31346243 8.13319279,9.22298664 8.10761845,9.12762772 C7.28075705,9.66103694 6.28315364,9.9717584 5.20965609,9.9717584 C2.33218214,9.9717584 0,7.73925597 0,4.9858792 C0,2.23250243 2.33218214,0 5.20965609,0 Z M5.20965609,1.24452523 C3.05200622,1.24452523 1.30241402,2.91933818 1.30241402,4.9858792 C1.30241402,7.05242022 3.05200622,8.72723317 5.20965609,8.72723317 C7.36730596,8.72723317 9.11689816,7.05242022 9.11689816,4.9858792 C9.11689816,2.91933818 7.36730596,1.24452523 5.20965609,1.24452523 Z" id="path-1"></path>
    </defs>
    <g id="Home-Page" stroke="none" stroke-width="1" fill="none" fill-rule="evenodd">
        <g id="LOL-icons" transform="translate(-392.000000, -346.000000)">
            <g id="ico-search" transform="translate(392.000000, 346.000000)">
                <rect id="background" fill-opacity="0" fill="#000000" x="0" y="0" width="16" height="16"></rect>
                <g id="iconography/_nav/home" transform="translate(1.000000, 1.000000)">
                    <mask id="mask-2" fill="white">
                        <use xlink:href="#path-1"></use>
                    </mask>
                    <use id="Combined-Shape" fill="#FFFFFF" fill-rule="nonzero" xlink:href="#path-1"></use>
                    <g id="Group" mask="url(#mask-2)" fill="#474B55">
                        <g id="colors/03_medium_gray">
                            <rect id="Rectangle-Copy" x="0" y="0" width="14" height="14"></rect>
                        </g>
                    </g>
                </g>
            </g>
        </g>
    </g>
</svg>