<?xml version="1.0" encoding="UTF-8"?>
<svg width="16px" height="16px" viewBox="0 0 16 16" version="1.1" xmlns="http://www.w3.org/2000/svg" xmlns:xlink="http://www.w3.org/1999/xlink">
    <title>ico-message</title>
    <g id="Home-Page" stroke="none" stroke-width="1" fill="none" fill-rule="evenodd">
        <g id="LOL-icons" transform="translate(-238.000000, -346.000000)">
            <g id="ico-message" transform="translate(238.000000, 346.000000)">
                <path d="M10.4217333,0 C12.028,0 12.8309333,0 13.6956,0.273333333 C14.6396,0.616933333 15.3830667,1.3604 15.7266667,2.3044 C16,3.16893333 16,3.97213333 16,5.57826667 L16,10.4217333 C16,12.028 16,12.8309333 15.7266667,13.6956 C15.3830667,14.6396 14.6396,15.3830667 13.6956,15.7265333 C12.8309333,16 12.028,16 10.4217333,16 L5.57826667,16 C3.972,16 3.16893333,16 2.3044,15.7265333 C1.3604,15.3830667 0.616933333,14.6396 0.273333333,13.6956 C0,12.8309333 0,12.028 0,10.4217333 L0,5.57826667 C0,3.97213333 0,3.16893333 0.273333333,2.3044 C0.616933333,1.3604 1.3604,0.616933333 2.3044,0.273333333 C3.16893333,0 3.972,0 5.57826667,0 L10.4217333,0 Z" id="background" fill-opacity="0" fill="#008BBF"></path>
                <path d="M7.5,1 C3.36585366,1 0,3.87195122 0,7.40243902 C0,9.28658537 0.969512195,11.0792683 2.67073171,12.304878 C2.7804878,12.3780488 2.83536585,12.4878049 2.81707317,12.6158537 L2.68902439,14.847561 L5.0304878,13.5670732 C5.12195122,13.5304878 5.21341463,13.5121951 5.30487805,13.5304878 C6.01829268,13.7134146 6.75,13.804878 7.5,13.804878 C11.6341463,13.804878 15,10.9329268 15,7.40243902 C15,3.87195122 11.6341463,1 7.5,1 Z" id="shape" fill="#008BBF" fill-rule="nonzero"></path>
            </g>
        </g>
    </g>
</svg>