<?xml version="1.0" encoding="UTF-8"?>
<svg width="16px" height="16px" viewBox="0 0 16 16" version="1.1" xmlns="http://www.w3.org/2000/svg" xmlns:xlink="http://www.w3.org/1999/xlink">
    <title>ico-mail</title>
    <defs>
        <path d="M13.8133858,5.86343504 C13.8937008,5.8125 14,5.86564961 14,5.95644685 L14,5.95644685 L14,11.4375 C14,11.7475394 13.7307087,12 13.4,12 L13.4,12 L2.6,12 C2.26929134,12 2,11.7475394 2,11.4375 L2,11.4375 L2,5.95644685 C2,5.86564961 2.10629921,5.8125 2.18661417,5.86343504 L2.18661417,5.86343504 L7.03622047,8.92396654 C7.32677165,9.09891732 7.66220472,9.18528543 7.9976378,9.18528543 C8.33779528,9.18528543 8.67795276,9.09448819 8.98031496,8.91510827 L8.98031496,8.91510827 Z M13.4,3 C13.7307087,3 14,3.25246063 14,3.5625 L14,3.5625 L14,4.32874016 C14,4.3663878 13.9811024,4.40182087 13.9480315,4.42175197 L13.9480315,4.42175197 L8.32125984,7.97391732 C8.12519685,8.09128937 7.87244094,8.09128937 7.69055118,7.98277559 L7.69055118,7.98277559 L2.0519685,4.42175197 C2.01889764,4.40182087 2,4.3663878 2,4.32874016 L2,4.32874016 L2,3.5625 C2,3.25246063 2.26929134,3 2.6,3 L2.6,3 Z" id="path-1"></path>
    </defs>
    <g id="Icons" stroke="none" stroke-width="1" fill="none" fill-rule="evenodd">
        <g id="Dark" transform="translate(-96.000000, -451.000000)">
            <g id="ico-mail" transform="translate(96.000000, 451.000000)">
                <rect id="background-copy-7" fill-opacity="0" fill="#000000" fill-rule="nonzero" transform="translate(8.000000, 8.000000) rotate(90.000000) translate(-8.000000, -8.000000) " x="0" y="0" width="16" height="16"></rect>
                <mask id="mask-2" fill="white">
                    <use xlink:href="#path-1"></use>
                </mask>
                <use id="Combined-Shape" fill="#474B55" fill-rule="nonzero" xlink:href="#path-1"></use>
            </g>
        </g>
    </g>
</svg>