<?xml version="1.0" encoding="UTF-8"?>
<svg width="16px" height="16px" viewBox="0 0 16 16" version="1.1" xmlns="http://www.w3.org/2000/svg" xmlns:xlink="http://www.w3.org/1999/xlink">
    <title>ico-back</title>
    <defs>
        <path d="M9.27136012,2.35450451 L9.29419421,2.3773386 L13.9956519,7.23312905 C14.231538,7.47675856 14.3192125,7.81037914 14.2586754,8.12090466 L14.262226,8.1402379 C14.3088764,8.40712835 14.2466759,8.68927081 14.0756245,8.91548925 L13.9956524,9.00880859 L9.29419474,13.864599 L9.27136065,13.8874331 L9.27136065,13.8874331 C8.90510326,14.2420497 8.33749842,14.260617 7.95018333,13.9492979 L7.85733144,13.864599 L7.72590767,13.7288611 C7.37936201,13.3709395 7.35270465,12.8187883 7.6459356,12.4309853 L7.72590767,12.337666 L10.776,9.18563549 L2,9.18571936 C1.44771525,9.18571936 1,8.73800411 1,8.18571936 L1,8.03138473 C1,7.47909998 1.44771525,7.03138473 2,7.03138473 L10.753,7.03063549 L7.72590714,3.90427168 C7.35048267,3.51652331 7.35048267,2.90082493 7.72590714,2.51307656 L7.85733091,2.3773386 C8.24149883,1.98055976 8.87458128,1.97033659 9.27136012,2.35450451 Z" id="path-1"></path>
    </defs>
    <g id="Icons" stroke="none" stroke-width="1" fill="none" fill-rule="evenodd">
        <g id="Dark" transform="translate(-148.000000, -451.000000)">
            <g id="ico-back" transform="translate(148.000000, 451.000000)">
                <rect id="background-copy-9" fill-opacity="0" fill="#000000" fill-rule="nonzero" transform="translate(8.000000, 8.000000) rotate(90.000000) translate(-8.000000, -8.000000) " x="0" y="0" width="16" height="16"></rect>
                <mask id="mask-2" fill="white">
                    <use xlink:href="#path-1"></use>
                </mask>
                <use id="Combined-Shape" fill="#474B55" fill-rule="nonzero" transform="translate(7.671270, 8.120969) scale(-1, 1) translate(-7.671270, -8.120969) " xlink:href="#path-1"></use>
            </g>
        </g>
    </g>
</svg>