<?xml version="1.0" encoding="UTF-8"?>
<svg width="16px" height="16px" viewBox="0 0 16 16" version="1.1" xmlns="http://www.w3.org/2000/svg" xmlns:xlink="http://www.w3.org/1999/xlink">
    <title>ico-map</title>
    <defs>
        <path d="M6.05682233,3.00239526 C6.04241561,3.00401683 6.0281659,3.00674459 6.01420877,3.01055259 L2.19603421,4.06311122 C2.07893379,4.09622829 1.9988798,4.20036107 2,4.31809354 L2,12.7385678 C2.0005777,12.8211485 2.04128718,12.8986838 2.10996003,12.9479752 C2.17863287,12.9972666 2.267304,13.0125969 2.349443,12.9893794 L6.09091317,11.9573719 L9.83238328,12.9893794 C9.88246644,13.0035402 9.93570892,13.0035402 9.98579208,12.9893794 L13.8039666,11.9368207 C13.9195283,11.9041361 13.9991983,11.8021979 14,11.6860092 L14,3.26553492 C14.0007654,3.18223223 13.960617,3.10349407 13.8917462,3.0532515 C13.8228753,3.00300893 13.733416,2.98719585 13.6505578,3.01061838 L9.90908768,4.04262579 L6.16761757,3.01061838 C6.1316572,3.00059281 6.09394295,2.99781609 6.05682233,3.00246105 L6.05682233,3.00239526 Z M5.5,4.5 L5.5,10.7786884 L3,11.5 L3,5.22131158 L5.5,4.5 L5.5,4.5 Z M6.5,4.5 L9.5,5.22131158 L9.5,11.5 L6.5,10.7786884 L6.5,4.5 L6.5,4.5 Z M13,4.5 L13,10.7786884 L10.5,11.5 L10.5,5.22131158 L13,4.5 L13,4.5 Z" id="path-1"></path>
    </defs>
    <g id="Icons" stroke="none" stroke-width="1" fill="none" fill-rule="evenodd">
        <g id="Dark" transform="translate(-50.000000, -451.000000)">
            <g id="ico-map" transform="translate(50.000000, 451.000000)">
                <rect id="background-copy-2" fill-opacity="0" fill="#000000" fill-rule="nonzero" transform="translate(8.000000, 8.000000) rotate(90.000000) translate(-8.000000, -8.000000) " x="0" y="0" width="16" height="16"></rect>
                <mask id="mask-2" fill="white">
                    <use xlink:href="#path-1"></use>
                </mask>
                <use id="Shape" fill="#474B55" fill-rule="nonzero" xlink:href="#path-1"></use>
            </g>
        </g>
    </g>
</svg>