<?xml version="1.0" encoding="UTF-8"?>
<svg width="16px" height="16px" viewBox="0 0 16 16" version="1.1" xmlns="http://www.w3.org/2000/svg" xmlns:xlink="http://www.w3.org/1999/xlink">
    <title>ico_key</title>
    <defs>
        <path d="M11.3620443,0 C13.9235165,0 16,2.09006458 16,4.6682899 C16,7.24651522 13.9235165,9.33657981 11.3620443,9.33657981 C10.5548371,9.33657981 9.79579387,9.12901654 9.13472173,8.76402287 L6.35063114,11.1798166 L6.35063114,13.4248562 L3.88836419,12.9662747 L3.88836419,15.4875408 L0,16 L0.364810788,12.6168989 L6.90581763,5.96661825 C6.78749572,5.55444698 6.72408868,5.11882162 6.72408868,4.6682899 C6.72408868,2.09006458 8.80057216,0 11.3620443,0 Z M11.3620443,2.97072994 C10.4305999,2.97072994 9.67551501,3.73075342 9.67551501,4.6682899 C9.67551501,5.60582638 10.4305999,6.36584987 11.3620443,6.36584987 C12.2934888,6.36584987 13.0485737,5.60582638 13.0485737,4.6682899 C13.0485737,3.73075342 12.2934888,2.97072994 11.3620443,2.97072994 Z" id="path-1"></path>
    </defs>
    <g id="Icons" stroke="none" stroke-width="1" fill="none" fill-rule="evenodd">
        <g id="Dark" transform="translate(-123.000000, -385.000000)">
            <g id="ico_key" transform="translate(123.000000, 385.000000)">
                <mask id="mask-2" fill="white">
                    <use xlink:href="#path-1"></use>
                </mask>
                <use id="Combined-Shape" fill="#474B55" xlink:href="#path-1"></use>
            </g>
        </g>
    </g>
</svg>