<?xml version="1.0" encoding="UTF-8"?>
<svg width="16px" height="16px" viewBox="0 0 16 16" version="1.1" xmlns="http://www.w3.org/2000/svg" xmlns:xlink="http://www.w3.org/1999/xlink">
    <title>ico_settings</title>
    <defs>
        <path d="M9.58064236,0 C9.74386672,0 9.98870328,0.16080402 9.90709109,0.40201005 L9.90709109,0.40201005 L10.2335398,2.49246231 C10.7232129,2.73366834 11.212886,2.97487437 11.620947,3.29648241 L11.620947,3.29648241 L13.6612515,2.49246231 C13.9060881,2.4120603 14.0693125,2.49246231 14.1509246,2.57286432 L14.1509246,2.57286432 L15.7831683,5.38693467 C15.8647805,5.54773869 15.8647805,5.70854271 15.7015561,5.86934673 L15.7015561,5.86934673 L13.9877003,7.2361809 C14.0693125,7.47738693 14.0693125,7.71859296 14.0693125,8.04020101 C14.0693125,8.36180905 13.9877003,8.60301508 13.9877003,8.84422111 L13.9877003,8.84422111 L15.8647805,10.1306533 C16.0280049,10.2110553 16.0280049,10.4522613 15.9463927,10.6130653 L15.9463927,10.6130653 L14.314149,13.4271357 C14.2325368,13.5879397 13.9877003,13.6683417 13.8244759,13.5879397 L13.8244759,13.5879397 L11.7841713,12.7839196 C11.3761104,13.1055276 10.8864373,13.3467337 10.3967642,13.5879397 L10.3967642,13.5879397 L10.0703155,15.678392 C10.0703155,15.839196 9.82547891,16 9.66225454,16 L9.66225454,16 L6.39776719,16 C6.15293064,16 5.98970627,15.839196 5.98970627,15.678392 L5.98970627,15.678392 L5.66325754,13.5879397 C5.17358443,13.3467337 4.68391133,13.1055276 4.27585041,12.7839196 L4.27585041,12.7839196 L2.23554582,13.5879397 C1.99070927,13.6683417 1.8274849,13.5879397 1.74587271,13.5075377 L1.74587271,13.5075377 L0.113629039,10.6934673 C0.0320168551,10.5326633 0.0320168551,10.3718593 0.195241223,10.2110553 L0.195241223,10.2110553 L1.90909708,8.84422111 C1.8274849,8.60301508 1.8274849,8.36180905 1.8274849,8.04020101 C1.8274849,7.71859296 1.90909708,7.47738693 1.90909708,7.2361809 L1.90909708,7.2361809 L0.195241223,5.94974874 C0.0320168551,5.78894472 -0.0495953286,5.54773869 0.0320168551,5.46733668 L0.0320168551,5.46733668 L1.66426053,2.65326633 C1.8274849,2.49246231 1.99070927,2.4120603 2.23554582,2.49246231 L2.23554582,2.49246231 L4.19423823,3.29648241 C4.68391133,2.97487437 5.09197225,2.65326633 5.58164535,2.49246231 L5.58164535,2.49246231 L5.90809409,0.32160804 C5.90809409,0.16080402 6.15293064,0 6.31615501,0 L6.31615501,0 Z M8,4.66666667 C6.31684648,4.66666667 4.95238095,6.15905083 4.95238095,8 C4.95238095,9.84094917 6.31684648,11.3333333 8,11.3333333 C9.68315352,11.3333333 11.047619,9.84094917 11.047619,8 C11.047619,6.15905083 9.68315352,4.66666667 8,4.66666667 Z" id="path-1"></path>
    </defs>
    <g id="Icons" stroke="none" stroke-width="1" fill="none" fill-rule="evenodd">
        <g id="Dark" transform="translate(-120.000000, -423.000000)">
            <g id="ico_settings" transform="translate(120.000000, 423.000000)">
                <mask id="mask-2" fill="white">
                    <use xlink:href="#path-1"></use>
                </mask>
                <use id="Combined-Shape" fill="#474B55" xlink:href="#path-1"></use>
            </g>
        </g>
    </g>
</svg>