<svg xmlns="http://www.w3.org/2000/svg" width="96" height="24" viewBox="0 0 96 24">
    <g fill="none" fill-rule="evenodd">
        <g fill-rule="nonzero">
            <g>
                <path fill="#81C342" d="M2.981 2.879l.07.048c1.352.966 7.917 5.707 10.97 13.44 1.016-3.604.9-5.792-.815-8.779-2.196-3.824-8.4-5.007-11.407-6.61C.715.403.379-.04.114.082.105.092.093.096.087.109-.1.597.78 1.194 1.347 3.38c1.093 4.213-.27 8.5 8.376 12.443 3.626 1.652 4.144 4.14 3.56 6.034.233.21.44.446.615.705.124.186.23.382.319.587.632-1.915-.118-3.963-.499-4.999-.96-2.606-3.946-9.286-10.737-15.271zM.506.56c.672.785 1.32 1.357 2.085 1.989C1.825 1.918 1.178 1.347.506.561z" transform="translate(-24 -20) translate(24 20)"/>
                <path fill="#000" d="M69.634 8.786H72.215V18.435H69.634zM69.634 3.931H72.277V5.898H69.634zM84.797 12.561l-1.62-.147c-.908-.076-1.066-.483-1.066-.836 0-.479.434-.922 1.459-.922.892 0 2.043.154 2.634.654l.937-1.815c-1.206-.666-1.93-.824-3.529-.824-2.096 0-3.972 1.077-3.972 3.078 0 1.78 1.147 2.54 3.005 2.708l1.62.147c.809.075 1.085.409 1.085.891 0 .722-.927 1-1.818 1-.79 0-2.336-.11-3.185-.908l-.88 2.08c1.303.88 2.403.883 4.027.883 2.427 0 4.363-1.02 4.363-3.151.002-1.632-1.024-2.652-3.06-2.838zM91.82 5.47h-2.58v3.565h-1.107v1.843h1.106v4.794c0 1.374.884 2.766 2.968 2.766h1.396V16.41h-.91c-.602 0-.872-.317-.872-.874v-4.658h1.782V9.096h-1.782V5.47zM79.562 8.66h-.261c-1.137.014-2.156.483-2.66 1.04v-.911h-2.52v9.649h2.58v-5.824c0-1.224.883-1.812 1.696-1.812.282.006.563.028.842.068l.609-2.198c-.092-.006-.184-.011-.286-.011zM63.98 6.68v2.355h-1.054c.004.71.009 1.325.009 1.728v.115h1.045v7.56h2.52v-7.56h1.905V9.035h-1.906V6.828c0-.554.28-.869.895-.869h1.072V3.933h-1.468c-2.105 0-3.018 1.382-3.018 2.746zM21.438 8.57c-1.115 0-2.035.345-2.754 1.034V3.81h-1.23v14.628h1.291v-6.164c.011-1.702.913-2.612 2.612-2.625 1.694.014 2.534.9 2.548 2.625v6.164h1.23v-6.33c0-1.088-.349-1.978-.99-2.59-.641-.61-1.568-.949-2.707-.948zM42.465 9.395c-.647-.54-1.608-.813-2.905-.813-1.595-.006-2.656.337-3.498 1.463l-.061.084.911.759.07-.093c.608-.82 1.23-1.121 2.581-1.128 1.96.022 2.598.724 2.602 2.154v1.024h-3.007c-1.07-.023-1.936.224-2.542.7-.606.475-.938 1.184-.936 2.058 0 .714.246 1.541.737 2.007.647.641 1.475.878 2.924.876 1.272.004 2.063-.224 2.823-.898v.85h1.23l.061-.604v-6.109s-.344-1.79-.99-2.33zm-.304 5.508c0 .833-.18 1.516-.503 1.805-.671.606-1.454.682-2.335.682-1.75-.017-2.405-.651-2.418-1.814.013-1.18.732-1.734 2.359-1.75h2.897v1.077zM58.165 8.543c-1.106-.003-2.015.342-2.728 1.035V3.81h-1.291v14.628h1.23v-6.193c.01-1.702.914-2.613 2.61-2.625 1.7.013 2.54.898 2.552 2.625v6.193h1.29v-6.364c0-1.087-.343-1.977-.983-2.589-.64-.611-1.552-.942-2.68-.942zM50.643 4.732h-1.168v4.241h-1.352v.922h1.352v6.03c0 .735.205 1.38.615 1.844.409.465 1.019.73 1.795.73h.663v-1.106h-.513c-.988-.015-1.374-.478-1.392-1.413V9.895h2.212v-.922h-2.212v-4.24zM30.527 8.508c-1.25 0-2.264.46-2.954 1.326-.69.864-1.06 2.108-1.06 3.67 0 1.606.368 2.856 1.092 3.707.723.851 1.798 1.288 3.165 1.288h.015c1.49 0 2.417-.43 3.323-1.253l-.738-.925c-.006.006-.015.008-.021.014l-.014.012c-.776.724-1.43 1.013-2.512 1.015-2.005-.014-3.027-1.205-3.073-3.535h6.79v-.56c0-1.482-.368-2.673-1.06-3.494-.69-.822-1.705-1.266-2.953-1.265zm-2.721 4.337c.061-.819.118-1.05.326-1.627.4-.947 1.318-1.511 2.404-1.513 1.087-.002 2.004.566 2.405 1.518.245.53.27.81.325 1.622h-5.46zM45.603 3.808H46.832V18.435000000000002H45.603zM95.202 6.101c-.03-.024-.064-.043-.102-.056.094-.003.182-.037.248-.095.06-.053.094-.125.093-.2 0-.055-.02-.108-.056-.153-.036-.047-.088-.082-.15-.1-.098-.024-.2-.034-.302-.03h-.408v1.045h.21v-.427h.123c.059-.004.117.008.168.035.09.066.164.146.221.236l.116.159h.162l-.145-.204c-.05-.075-.11-.146-.178-.21zm-.24-.2h-.228v-.308h.21c.063-.003.126.003.187.018.032.01.06.028.08.053.018.023.028.052.028.08.002.045-.02.087-.06.114-.066.033-.142.048-.218.042z" transform="translate(-24 -20) translate(24 20)"/>
                <path fill="#000" d="M95.809 5.47c-.083-.152-.21-.276-.362-.357-.296-.167-.658-.167-.955 0-.153.082-.28.206-.362.359-.086.148-.13.315-.131.486 0 .169.045.335.128.482.084.151.208.276.36.36.298.17.665.17.964 0 .152-.084.277-.208.36-.36.171-.3.171-.668 0-.968l-.002-.002zm-.138.888c-.07.126-.174.23-.3.299-.249.143-.555.143-.804 0-.126-.07-.23-.173-.3-.299-.07-.123-.107-.261-.108-.402 0-.142.039-.282.11-.405.07-.127.175-.23.302-.3.247-.14.549-.14.795 0 .128.069.233.173.302.3.072.123.11.263.11.405 0 .142-.037.28-.107.404v-.002z" transform="translate(-24 -20) translate(24 20)"/>
            </g>
        </g>
    </g>
</svg>
