<?xml version="1.0" encoding="UTF-8"?>
<svg width="24px" height="24px" viewBox="0 0 24 24" version="1.1" xmlns="http://www.w3.org/2000/svg" xmlns:xlink="http://www.w3.org/1999/xlink">
    <!-- Generator: Sketch 54.1 (76490) - https://sketchapp.com -->
    <title>bullet</title>
    <desc>Created with Sketch.</desc>
    <g id="Page-1" stroke="none" stroke-width="1" fill="none" fill-rule="evenodd">
        <g id="assets" transform="translate(-204.000000, -100.000000)">
            <g id="check" transform="translate(204.000000, 100.000000)">
                <circle id="Combined-Shape" fill="#008BBF" fill-rule="evenodd" cx="12" cy="12" r="11"></circle>
                <path d="M8.88388348,12.1161165 C8.39572811,11.6279612 7.60427189,11.6279612 7.11611652,12.1161165 C6.62796116,12.6042719 6.62796116,13.3957281 7.11611652,13.8838835 L10.1161165,16.8838835 C10.6429211,17.410688 11.5106794,17.3626271 11.976086,16.7808688 L17.976086,9.28086881 C18.4073479,8.74179139 18.3199462,7.95517592 17.7808688,7.52391399 C17.2417914,7.09265205 16.4551759,7.18005377 16.023914,7.71913119 L10.8963514,14.1285844 L8.88388348,12.1161165 Z" id="Path" fill="#003863" fill-rule="nonzero" style="mix-blend-mode: multiply;"></path>
                <path d="M8.38388348,11.6161165 C7.89572811,11.1279612 7.10427189,11.1279612 6.61611652,11.6161165 C6.12796116,12.1042719 6.12796116,12.8957281 6.61611652,13.3838835 L9.61611652,16.3838835 C10.1429211,16.910688 11.0106794,16.8626271 11.476086,16.2808688 L17.476086,8.78086881 C17.9073479,8.24179139 17.8199462,7.45517592 17.2808688,7.02391399 C16.7417914,6.59265205 15.9551759,6.68005377 15.523914,7.21913119 L10.3963514,13.6285844 L8.38388348,11.6161165 Z" id="Path" fill="#FFFFFF" fill-rule="nonzero"></path>
            </g>
        </g>
    </g>
</svg>