<?xml version="1.0" encoding="UTF-8"?>
<svg width="48px" height="48px" viewBox="0 0 48 48" version="1.1" xmlns="http://www.w3.org/2000/svg" xmlns:xlink="http://www.w3.org/1999/xlink">
    <!-- Generator: Sketch 51.3 (57544) - http://www.bohemiancoding.com/sketch -->
    <title>communication</title>
    <desc>Created with Sketch.</desc>
    <defs></defs>
    <g id="communication" stroke="none" stroke-width="1" fill="none" fill-rule="evenodd">
        <path d="M20.7370721,28.7874742 L20.9643444,28.6648679 L23.9865614,28.6648679 C28.4048394,28.6648679 31.9865614,25.0831459 31.9865614,20.6648679 L31.9865614,17.6362438 C31.9865614,16.7125738 31.8300236,15.8254653 31.5420297,15 L35.7429179,15 C40.1611959,15 43.7429179,18.581722 43.7429179,23 L43.7429179,24.0712979 C43.7429179,28.0859216 40.4884224,31.3404172 36.4737987,31.3404172 L37.2407765,36.8929861 L29.3842421,31.3404172 L26.5962612,31.3404172 C24.2822882,31.3404172 22.1977743,30.3579854 20.7370721,28.7874742 Z" id="Combined-Shape" fill="#003863"></path>
        <path d="M11.7667046,11 L20.685098,11 C24.9745305,11 28.4518026,14.4772721 28.4518026,18.7667046 C28.4518026,23.0561371 24.9745305,26.5334092 20.685098,26.5334092 L17.9619159,26.5334092 L10.3075867,32.0193906 L11.0682585,26.5334092 C7.1645671,26.5334092 4,23.3688421 4,19.4651508 L4,18.7667046 C4,14.4772721 7.4772721,11 11.7667046,11 Z M10.1632974,16 C9.61101266,16 9.16329741,16.4477153 9.16329741,17 C9.16329741,17.5522847 9.61101266,18 10.1632974,18 L19.1632974,18 C19.7155822,18 20.1632974,17.5522847 20.1632974,17 C20.1632974,16.4477153 19.7155822,16 19.1632974,16 L10.1632974,16 Z M10.1632974,20 C9.61101266,20 9.16329741,20.4477153 9.16329741,21 C9.16329741,21.5522847 9.61101266,22 10.1632974,22 L22.1632974,22 C22.7155822,22 23.1632974,21.5522847 23.1632974,21 C23.1632974,20.4477153 22.7155822,20 22.1632974,20 L10.1632974,20 Z" id="Combined-Shape" fill="#008BBF"></path>
    </g>
</svg>