<?xml version="1.0" encoding="UTF-8"?>
<svg width="48px" height="48px" viewBox="0 0 48 48" version="1.1" xmlns="http://www.w3.org/2000/svg" xmlns:xlink="http://www.w3.org/1999/xlink">
    <!-- Generator: Sketch 54.1 (76490) - https://sketchapp.com -->
    <title>connect</title>
    <desc>Created with Sketch.</desc>
    <g id="Page-1" stroke="none" stroke-width="1" fill="none" fill-rule="evenodd">
        <g id="assets" transform="translate(-42.000000, -204.000000)">
            <g id="graphics-/-icons-/-link-account" transform="translate(42.000000, 204.000000)">
                <g id="Group">
                    <circle id="Oval" fill="#008BBF" cx="24" cy="4" r="4"></circle>
                    <path d="M26.4142136,23 L37,23 C37.5522847,23 38,23.4477153 38,24 C38,24.5522847 37.5522847,25 37,25 L26.4142136,25 L33.8994949,32.4852814 C34.2900192,32.8758057 34.2900192,33.5089706 33.8994949,33.8994949 C33.5089706,34.2900192 32.8758057,34.2900192 32.4852814,33.8994949 L25,26.4142136 L25,37 C25,37.5522847 24.5522847,38 24,38 C23.4477153,38 23,37.5522847 23,37 L23,26.4142136 L15.5147186,33.8994949 C15.1241943,34.2900192 14.4910294,34.2900192 14.1005051,33.8994949 C13.7099808,33.5089706 13.7099808,32.8758057 14.1005051,32.4852814 L21.5857864,25 L11,25 C10.4477153,25 10,24.5522847 10,24 C10,23.4477153 10.4477153,23 11,23 L21.5857864,23 L14.1005051,15.5147186 C13.7099808,15.1241943 13.7099808,14.4910294 14.1005051,14.1005051 C14.4910294,13.7099808 15.1241943,13.7099808 15.5147186,14.1005051 L23,21.5857864 L23,11 C23,10.4477153 23.4477153,10 24,10 C24.5522847,10 25,10.4477153 25,11 L25,21.5857864 L32.4852814,14.1005051 C32.8758057,13.7099808 33.5089706,13.7099808 33.8994949,14.1005051 C34.2900192,14.4910294 34.2900192,15.1241943 33.8994949,15.5147186 L26.4142136,23 Z" id="Combined-Shape" fill="#003863"></path>
                    <circle id="Oval" fill="#008BBF" cx="24" cy="44" r="4"></circle>
                    <circle id="Oval" fill="#008BBF" cx="4" cy="24" r="4"></circle>
                    <circle id="Oval" fill="#008BBF" cx="44" cy="24" r="4"></circle>
                    <circle id="Oval" fill="#008BBF" cx="38" cy="10" r="3"></circle>
                    <circle id="Oval" fill="#008BBF" cx="10" cy="38" r="3"></circle>
                    <circle id="Oval" fill="#008BBF" cx="10" cy="10" r="3"></circle>
                    <circle id="Oval" fill="#008BBF" cx="38" cy="38" r="3"></circle>
                </g>
            </g>
        </g>
    </g>
</svg>