<?xml version="1.0" encoding="UTF-8"?>
<svg width="48px" height="48px" viewBox="0 0 48 48" version="1.1" xmlns="http://www.w3.org/2000/svg" xmlns:xlink="http://www.w3.org/1999/xlink">
    <!-- Generator: Sketch 52.2 (67145) - http://www.bohemiancoding.com/sketch -->
    <title>dentaQuest</title>
    <desc>Created with Sketch.</desc>
    <defs>
        <rect id="path-1" x="0" y="0" width="48" height="48"></rect>
    </defs>
    <g id="dentaQuest" stroke="none" stroke-width="1" fill="none" fill-rule="evenodd">
        <g id="Mask-2">
            <mask id="mask-2" fill="white">
                <use xlink:href="#path-1"></use>
            </mask>
            <use id="Mask" fill="#D8D8D8" opacity="0" xlink:href="#path-1"></use>
        </g>
        <g id="Group-24" transform="translate(7.000000, 7.000000)">
            <g id="Group-23">
                <path d="M10.72316,2.1049687 C11.5433355,2.44553251 12.6005315,2.77825906 13.8717228,2.77825906 C15.2449818,2.77825906 16.4643466,2.38995633 17.421296,2.0229508 C18.5595307,1.3409836 19.8312428,1 21.2364322,1 C23.8743217,1 25.7284506,2.20164711 26.798819,4.60494132 C26.6625427,4.75852751 26.5259812,4.90110612 26.3891345,5.03267713 C25.0931129,6.27873481 22.7702054,7.50019735 19.420412,8.69706475 C22.6406766,9.76939697 24.9635841,10.9908595 26.3891345,12.3614524 C26.950109,12.9008003 27.4870642,13.57375 28,14.3803016 C27.9691896,15.660467 27.8725939,16.8399305 27.7102128,17.9186921 C27.1089934,21.9128302 25.8080855,25.0954651 24.9435549,26.8241404 C24.0790244,28.5528158 22.1868577,32.9996293 19.3874099,32.9996293 C19.2733942,33.0023128 19.1663759,32.9903765 19.0659257,32.9654411 C18.9737292,32.9880146 18.8852197,32.9996293 18.8008035,32.9996293 C17.4850875,32.9996293 16.8670453,31.7986024 16.9466771,29.3965486 C16.9466771,21.5018596 15.9662552,17.3751522 14.0054112,17.0164262 C12.0445673,17.3751522 11.0641454,21.5018596 11.0641454,29.3965486 C11.1437772,31.7986024 10.525735,32.9996293 9.21001894,32.9996293 C9.14526029,32.9996293 9.08667979,32.9795142 9.03427745,32.9392841 C8.90856205,32.9818156 8.77192327,33.0031247 8.6234126,32.9996293 C5.82396482,32.9996293 3.93179807,28.5528158 3.06726754,26.8241404 C2.20273702,25.0954651 0.901829085,21.9128302 0.300609695,17.9186921 C-0.100203232,15.2559334 -0.100203232,11.979624 0.300609695,8.08976415 C0.91713071,3.36325472 3.07505758,1 6.77439029,1 C8.23482615,1 9.55108272,1.3683229 10.72316,2.1049687 Z" id="Combined-Shape" fill="#003863"></path>
                <path d="M31.5,16.6568542 C30.6560715,14.2202009 29.694777,12.462544 28.6161165,11.3838835 C27.537456,10.305223 25.7797991,9.3439285 23.3431458,8.5 C25.8778087,7.55806195 27.6354656,6.59676746 28.6161165,5.61611652 C29.5967675,4.63546559 30.5580619,2.87780867 31.5,0.34314575 C32.4419381,2.87780867 33.4032325,4.63546559 34.3838835,5.61611652 C35.3645344,6.59676746 37.1221913,7.55806195 39.6568542,8.5 C37.2202009,9.3439285 35.462544,10.305223 34.3838835,11.3838835 C33.305223,12.462544 32.3439285,14.2202009 31.5,16.6568542 Z" id="Combined-Shape" fill="#008BBF"></path>
            </g>
        </g>
    </g>
</svg>