<?xml version="1.0" encoding="UTF-8"?>
<svg width="40px" height="40px" viewBox="0 0 40 40" version="1.1" xmlns="http://www.w3.org/2000/svg" xmlns:xlink="http://www.w3.org/1999/xlink">
    <!-- Generator: Sketch 51.3 (57544) - http://www.bohemiancoding.com/sketch -->
    <title>help</title>
    <desc>Created with Sketch.</desc>
    <defs></defs>
    <g id="help" stroke="none" stroke-width="1" fill="none" fill-rule="evenodd">
        <g id="Group" transform="translate(1.000000, 1.000000)">
            <path d="M21.2788248,15.8609108 C21.6808485,16.1127156 22.0319678,16.4382654 22.3132299,16.8186073 L24.3887483,14.7430889 L25.2770322,15.6313729 L22.9015087,18.0068964 C22.998045,18.3402602 23.0497853,18.6926529 23.0497853,19.0571301 C23.0497853,19.304802 23.0258939,19.5468937 22.9802901,19.7812263 L25.5622316,22.3631678 L24.6739477,23.2514517 L22.4773351,21.0548391 C22.2255304,21.4568628 21.8999806,21.8079821 21.5196386,22.0892443 L23.6778969,24.2475025 L22.789613,25.1357864 L20.3313496,22.6775231 C19.9979857,22.7740594 19.6455931,22.8257996 19.2811158,22.8257996 C18.9166385,22.8257996 18.5642459,22.7740594 18.230882,22.6775231 L15.7726187,25.1357864 L14.8843347,24.2475025 L17.042593,22.0892443 C16.662251,21.8079821 16.3367012,21.4568628 16.0848965,21.0548391 L13.8882839,23.2514517 L13,22.3631678 L15.5819415,19.7812263 C15.5363377,19.5468937 15.5124463,19.304802 15.5124463,19.0571301 C15.5124463,18.6926529 15.5641866,18.3402602 15.6607229,18.0068964 L13.2851994,15.6313729 L14.1734833,14.7430889 L16.2490017,16.8186073 C16.5302638,16.4382654 16.8813831,16.1127156 17.2834068,15.8609108 L15.3107799,13.8882839 L16.1990638,13 L18.5570196,15.3579558 C18.7913523,15.312352 19.033444,15.2884607 19.2811158,15.2884607 C19.5287876,15.2884607 19.7708793,15.312352 20.005212,15.3579558 L22.3631678,13 L23.2514517,13.8882839 L21.2788248,15.8609108 Z M19.2811158,21.5695765 C20.6687016,21.5695765 21.7935621,20.4447159 21.7935621,19.0571301 C21.7935621,17.6695443 20.6687016,16.5446838 19.2811158,16.5446838 C17.89353,16.5446838 16.7686695,17.6695443 16.7686695,19.0571301 C16.7686695,20.4447159 17.89353,21.5695765 19.2811158,21.5695765 Z" id="Combined-Shape" fill="#474B55"></path>
            <path d="M19,25 C22.3137085,25 25,22.3137085 25,19 C25,15.6862915 22.3137085,13 19,13 C15.6862915,13 13,15.6862915 13,19 C13,22.3137085 15.6862915,25 19,25 Z M19,27 C14.581722,27 11,23.418278 11,19 C11,14.581722 14.581722,11 19,11 C23.418278,11 27,14.581722 27,19 C27,23.418278 23.418278,27 19,27 Z" id="Oval-4-Copy" fill="#474B55" fill-rule="nonzero"></path>
            <rect id="Rectangle-13" stroke="#DEDEDE" x="0.5" y="0.5" width="37" height="37" rx="18.5"></rect>
        </g>
    </g>
</svg>