<svg xmlns="http://www.w3.org/2000/svg" width="40" height="40" viewBox="0 0 40 40">
    <g fill="none" fill-rule="evenodd">
        <g fill="#A8ABAC">
            <g>
                <g>
                    <g>
                        <path d="M22.94 4.032c4.84.899 7.698 4.291 8.296 8.893.49 3.772-.667 7.899-2.822 10.164l-.334.329-2.713 2.55-.674.653-.241.249c-.514.566-.884 1.102-1.26 1.84l-.106.214-.219.473c-.074.167-.15.345-.229.536l-.371.946c-1.625 4.306-5.476 6.268-8.685 5.345-3.43-.986-5.447-3.671-4.669-8.243.116-.68.762-1.138 1.443-1.022.68.115 1.138.761 1.022 1.442-.548 3.22.612 4.764 2.895 5.42 1.95.562 4.487-.73 5.655-3.825l.275-.71.261-.633c.171-.399.336-.753.5-1.078.477-.936.974-1.655 1.637-2.386l.194-.203.276-.275.935-.899 2.45-2.299c1.688-1.62 2.711-5.108 2.3-8.266-.464-3.58-2.56-6.068-6.273-6.757-3.773-.7-6.302.139-7.855 2.063-1.075 1.333-1.617 3.212-1.553 4.541l.021.258c.08.686-.412 1.306-1.098 1.386-.685.08-1.306-.412-1.385-1.098-.23-1.98.487-4.696 2.07-6.657 2.15-2.666 5.61-3.813 10.256-2.95zm3.016 6.973c.38.576.222 1.352-.354 1.732-.535.353-1.242.242-1.645-.237l-.087-.117c-.793-1.202-3.21-1.616-4.87-.363-.448.339-.747.827-.91 1.385 1.898-.445 4.003.127 5.371 1.669 1.964 2.213.996 7.05-1.82 8.432l-.22.099c-.663.273-1.048.504-1.274.72-.101.097-.174.192-.276.363l-.443.768-.132.2-.235.31c-1.298 1.631-3.207 2.31-4.754 1.292-1.527-1.005-2.142-2.488-1.545-4.404.205-.66.905-1.028 1.565-.822.659.205 1.027.905.822 1.565-.25.8-.103 1.154.532 1.572.248.163.754.003 1.29-.6l.187-.227.13-.182.23-.392.09-.16c.26-.464.47-.762.809-1.087.479-.46 1.123-.844 2.05-1.227 1.374-.567 2.011-3.562 1.124-4.56-.852-.961-2.282-1.225-3.418-.737.17.53.43 1.023.77 1.423.447.526.382 1.315-.144 1.762-.527.446-1.315.382-1.762-.145-2.094-2.468-2.363-6.882.457-9.012 2.81-2.122 6.873-1.426 8.462.98z" transform="translate(-1009 -950) translate(485 784) translate(439 150) translate(85 16)"/>
                    </g>
                </g>
            </g>
        </g>
    </g>
</svg>
