<svg xmlns="http://www.w3.org/2000/svg" width="32" height="32" viewBox="0 0 32 32">
    <g fill="none" fill-rule="evenodd">
        <g fill="#474B55">
            <g>
                <g>
                    <g>
                        <path d="M19.627 18.667c.247 0 .494.034.732.102l5.128 1.465c2.277.65 3.846 2.732 3.846 5.1v1.333c0 1.472-1.194 2.666-2.666 2.666H5.333c-1.472 0-2.666-1.194-2.666-2.666v-1.334c0-2.367 1.57-4.448 3.846-5.099l5.128-1.465c.238-.068.485-.102.732-.102h7.254zM16 2.667c3.682 0 6.667 2.984 6.667 6.666C22.667 13.015 19.682 16 16 16s-6.667-2.985-6.667-6.667S12.318 2.667 16 2.667z" transform="translate(-1088 -90) translate(944 58) translate(128 16) translate(16 16)"/>
                    </g>
                </g>
            </g>
        </g>
    </g>
</svg>
