<svg xmlns="http://www.w3.org/2000/svg" width="40" height="40" viewBox="0 0 40 40">
    <g fill="none" fill-rule="evenodd">
        <g fill="#A8ABAC">
            <g>
                <g>
                    <g>
                        <path d="M13.75 6.25c.69 0 1.25.56 1.25 1.25v8.75h10V7.5c0-.69.56-1.25 1.25-1.25h5c.69 0 1.25.56 1.25 1.25v5h3.75c.69 0 1.25.56 1.25 1.25v12.5c0 .69-.56 1.25-1.25 1.25H32.5v5c0 .69-.56 1.25-1.25 1.25h-5c-.69 0-1.25-.56-1.25-1.25v-8.75H15v8.75c0 .69-.56 1.25-1.25 1.25h-5c-.69 0-1.25-.56-1.25-1.25v-5H3.75c-.69 0-1.25-.56-1.25-1.25v-12.5c0-.69.56-1.25 1.25-1.25H7.5v-5c0-.69.56-1.25 1.25-1.25h5zm-1.25 2.5H10v22.5h2.5V8.75zm15 22.5H30V8.75h-2.5v22.5zM7.5 15H5v10h2.5V15zM35 15h-2.5v10H35V15zm-10 3.75H15v2.5h10v-2.5z" transform="translate(-571 -950) translate(485 784) translate(0 150) translate(86 16)"/>
                    </g>
                </g>
            </g>
        </g>
    </g>
</svg>
