<svg xmlns="http://www.w3.org/2000/svg" width="41" height="40" viewBox="0 0 41 40">
    <g fill="none" fill-rule="evenodd">
        <g fill="#A8ABAC">
            <g>
                <g>
                    <g>
                        <path d="M29.375 2.5c2.004 0 3.641 1.572 3.745 3.55l.005.2v27.5c0 2.004-1.572 3.641-3.55 3.745l-.2.005h-17.5c-2.004 0-3.641-1.572-3.745-3.55l-.005-.2V6.25c0-2.004 1.572-3.641 3.55-3.745l.2-.005h17.5zm1.25 29.375h-20v1.875c0 .647.492 1.18 1.122 1.244l.128.006h17.5c.647 0 1.18-.492 1.244-1.122l.006-.128v-1.875zm0-22.5h-20v21.25h20V9.375zM14.722 12.5c.307 0 .556.24.556.536 0 .274-.215.5-.491.532l-.065.003h-1.11v1.608c0 2.027 1.668 3.68 3.754 3.747l.134.003c2.103 0 3.816-1.61 3.887-3.622l.002-.128V13.57h-1.111c-.285 0-.52-.206-.552-.473l-.004-.062c0-.275.215-.501.491-.532l.065-.004h1.666c.285 0 .52.207.552.473l.004.063v2.143c0 2.322-1.703 4.261-3.97 4.719v3.352c0 1.795 1.497 3.25 3.345 3.25 1.808 0 3.28-1.392 3.343-3.133l.003-.117v-.794c-.842-.185-1.471-.934-1.471-1.831 0-1.036.84-1.875 1.875-1.875 1.036 0 1.875.84 1.875 1.875 0 .816-.521 1.51-1.25 1.768v.857c0 2.347-1.959 4.25-4.375 4.25-2.372 0-4.304-1.834-4.373-4.122L17.5 20c-2.712 0-4.92-2.082-4.998-4.68l-.002-2.284c0-.275.214-.501.49-.532l.066-.004h1.666zm10.903 7.188c-.518 0-.938.42-.938.937 0 .518.42.938.938.938s.938-.42.938-.938-.42-.938-.938-.938zM29.375 5h-17.5c-.647 0-1.18.492-1.244 1.122l-.006.128v1.875h20V6.25c0-.647-.492-1.18-1.122-1.244L29.375 5z" transform="translate(-790 -950) translate(485 784) translate(220 150) translate(85.33 16)"/>
                    </g>
                </g>
            </g>
        </g>
    </g>
</svg>
