<svg xmlns="http://www.w3.org/2000/svg" width="40" height="40" viewBox="0 0 40 40">
    <g fill="none" fill-rule="evenodd">
        <g fill="#A8ABAC">
            <g>
                <g>
                    <g>
                        <path d="M26.25 2.5c.69 0 1.25.56 1.25 1.25v2.5H30c.69 0 1.25.56 1.25 1.25v6.25c0 .69-.56 1.25-1.25 1.25h-1.25v18.75c0 2.004-1.572 3.641-3.55 3.745l-.2.005H15c-2.071 0-3.75-1.679-3.75-3.75V15H10c-.69 0-1.25-.56-1.25-1.25V7.5c0-.69.56-1.25 1.25-1.25h2.535v-2.5c0-.69.56-1.25 1.25-1.25H26.25zm0 12.5h-12.5v18.75c0 .641.483 1.17 1.104 1.242L15 35h10c.69 0 1.25-.56 1.25-1.25V15zm-2.5 2.813c.518 0 .938.42.938.937v10c0 .518-.42.938-.938.938h-7.5c-.518 0-.938-.42-.938-.938v-10c0-.518.42-.938.938-.938zm-.938 1.875h-5.625v8.125h5.625v-8.125zM25 5h-9.966v3.75H11.25v3.75h17.5V8.75H25V5z" transform="translate(-1010 -800) translate(485 784) translate(439) translate(86 16)"/>
                    </g>
                </g>
            </g>
        </g>
    </g>
</svg>
