<?xml version="1.0" encoding="utf-8"?>
<!-- Generator: Adobe Illustrator 22.1.0, SVG Export Plug-In . SVG Version: 6.00 Build 0)  -->
<svg version="1.1" id="Layer_1" xmlns="http://www.w3.org/2000/svg" xmlns:xlink="http://www.w3.org/1999/xlink" x="0px" y="0px"
	 viewBox="0 0 43 42" style="enable-background:new 0 0 43 42;" xml:space="preserve" width="43px" height="52px">
<style type="text/css">
	.st0{fill:#FFFFFF;}
</style>
<title>graphics / icons / account_settings</title>
<desc>Created with Sketch.</desc>
<path id="Combined-Shape" class="st0" d="M24,33h3c0.6,0,1,0.4,1,1s-0.4,1-1,1H15c-0.6,0-1-0.4-1-1s0.4-1,1-1h3v-5H7.6
	c-0.9,0-1.2-0.1-1.5-0.3c-0.3-0.2-0.6-0.4-0.8-0.8C5.1,26.6,5,26.3,5,25.4V8.6c0-0.9,0.1-1.2,0.3-1.5c0.2-0.3,0.4-0.6,0.8-0.8
	C6.4,6.1,6.7,6,7.6,6h26.9c0.9,0,1.2,0.1,1.5,0.3c0.3,0.2,0.6,0.4,0.8,0.8s0.3,0.6,0.3,1.5v16.9c0,0.9-0.1,1.2-0.3,1.5
	s-0.4,0.6-0.8,0.8c-0.3,0.2-0.6,0.3-1.5,0.3H24V33z M9.2,8C8.4,8,8.1,8.1,7.9,8.2C7.6,8.3,7.4,8.6,7.2,8.8C7,9.1,7,9.3,7,10.1v13.8
	c0,0.7,0.1,1,0.2,1.3c0.2,0.3,0.4,0.5,0.7,0.6C8.2,25.9,8.5,26,9.2,26h23.5c0.8,0,1.1-0.1,1.3-0.2c0.3-0.1,0.5-0.4,0.7-0.6
	c0.2-0.3,0.2-0.5,0.2-1.3V10.1c0-0.7-0.1-1-0.2-1.3c-0.2-0.3-0.4-0.5-0.7-0.6S33.4,8,32.7,8H9.2z"/>
<path id="Combined-Shape_1_" class="st0" d="M16,21.2c0-1.6,0.7-3.2,3.4-3.2h3.1c2.7,0,3.4,1.6,3.4,3.2C26,23.6,16,23.6,16,21.2z
	 M21,17c-1.7,0-3-1.3-3-3s1.3-3,3-3s3,1.3,3,3S22.7,17,21,17z"/>
</svg>
