<?xml version="1.0" encoding="UTF-8"?>
<svg width="48px" height="48px" viewBox="0 0 48 48" version="1.1" xmlns="http://www.w3.org/2000/svg" xmlns:xlink="http://www.w3.org/1999/xlink">
    <!-- Generator: Sketch 51.3 (57544) - http://www.bohemiancoding.com/sketch -->
    <title>portal</title>
    <desc>Created with Sketch.</desc>
    <defs></defs>
    <g id="portal" stroke="none" stroke-width="1" fill="none" fill-rule="evenodd">
        <path d="M27,37 L30,37 C30.5522847,37 31,37.4477153 31,38 C31,38.5522847 30.5522847,39 30,39 L18,39 C17.4477153,39 17,38.5522847 17,38 C17,37.4477153 17.4477153,37 18,37 L21,37 L21,32 L10.5638852,32 C9.67236646,32 9.34908022,31.9071744 9.0231543,31.7328673 C8.69722837,31.5585602 8.4414398,31.3027716 8.2671327,30.9768457 C8.09282561,30.6509198 8,30.3276335 8,29.4361148 L8,12.5638852 C8,11.6723665 8.09282561,11.3490802 8.2671327,11.0231543 C8.4414398,10.6972284 8.69722837,10.4414398 9.0231543,10.2671327 C9.34908022,10.0928256 9.67236646,10 10.5638852,10 L37.4361148,10 C38.3276335,10 38.6509198,10.0928256 38.9768457,10.2671327 C39.3027716,10.4414398 39.5585602,10.6972284 39.7328673,11.0231543 C39.9071744,11.3490802 40,11.6723665 40,12.5638852 L40,29.4361148 C40,30.3276335 39.9071744,30.6509198 39.7328673,30.9768457 C39.5585602,31.3027716 39.3027716,31.5585602 38.9768457,31.7328673 C38.6509198,31.9071744 38.3276335,32 37.4361148,32 L27,32 L27,37 Z M12.2433995,12 C11.4633207,12 11.1804452,12.0759482 10.89526,12.2185631 C10.6100748,12.361178 10.3862598,12.5704596 10.2337411,12.8371262 C10.0812224,13.1037929 10,13.3682998 10,14.0977243 L10,27.9022757 C10,28.6317002 10.0812224,28.8962071 10.2337411,29.1628738 C10.3862598,29.4295404 10.6100748,29.638822 10.89526,29.7814369 C11.1804452,29.9240518 11.4633207,30 12.2433995,30 L35.7566005,30 C36.5366793,30 36.8195548,29.9240518 37.10474,29.7814369 C37.3899252,29.638822 37.6137402,29.4295404 37.7662589,29.1628738 C37.9187776,28.8962071 38,28.6317002 38,27.9022757 L38,14.0977243 C38,13.3682998 37.9187776,13.1037929 37.7662589,12.8371262 C37.6137402,12.5704596 37.3899252,12.361178 37.10474,12.2185631 C36.8195548,12.0759482 36.5366793,12 35.7566005,12 L12.2433995,12 Z" id="Combined-Shape" fill="#008BBF"></path>
        <path d="M19,25.202924 C19,23.614169 19.716726,22 22.4273239,22 L25.5731592,22 C28.2830612,22 28.9999957,23.6026689 28.9999957,25.202924 C29.0075383,27.5974661 19.0028348,27.6005841 19,25.202924 Z M24,21 C22.3431458,21 21,19.6568542 21,18 C21,16.3431458 22.3431458,15 24,15 C25.6568542,15 27,16.3431458 27,18 C27,19.6568542 25.6568542,21 24,21 Z" id="Combined-Shape" fill="#003863"></path>
    </g>
</svg>