<?xml version="1.0" encoding="UTF-8"?>
<svg width="24px" height="24px" viewBox="0 0 24 24" version="1.1" xmlns="http://www.w3.org/2000/svg" xmlns:xlink="http://www.w3.org/1999/xlink">
    <!-- Generator: sketchtool 57 (101010) - https://sketch.com -->
    <title>B3C1EC9D-C823-48E0-B490-4A2C5B34CEDE</title>
    <desc>Created with sketchtool.</desc>
    <g id="Page-1" stroke="none" stroke-width="1" fill="none" fill-rule="evenodd">
        <g id="assets" transform="translate(-42.000000, -100.000000)">
            <g id="up-arrow" transform="translate(42.000000, 100.000000)">
                <rect id="Rectangle" x="0" y="0" width="24" height="24"></rect>
                <g id="accordion-/-closed-/-dark-green" transform="translate(12.000000, 12.000000) scale(1, -1) translate(-12.000000, -12.000000) translate(0.000000, 5.000000)" fill="#529535" fill-rule="nonzero">
                    <g id="Group-5-Copy" transform="translate(12.000000, 7.000000) scale(1, -1) translate(-12.000000, -7.000000) ">
                        <g id="Group">
                            <path d="M7.03594512,-1.46902323 C7.57672394,-1.48052916 8.02443919,-1.05146871 8.03594512,-0.510689894 C8.03624059,-0.496802577 8.03624059,-0.482910545 8.03594512,-0.469023228 L7.73159729,13.8353246 C7.72721198,14.0414345 7.67851147,14.224618 7.5926254,14.3777456 C7.50673932,14.5308732 7.38366768,14.6539449 7.23054008,14.739831 C7.07741248,14.825717 6.89422892,14.8744175 6.68811903,14.8788029 C6.14734022,14.8903088 5.69962496,14.4612483 5.68811903,13.9204695 C5.68782356,13.9065822 5.68782356,13.8926902 5.68811903,13.8788029 L5.99246686,-0.425544967 C5.99685218,-0.631654858 6.04555268,-0.814838412 6.13143875,-0.967966012 C6.21732483,-1.12109361 6.34039647,-1.24416526 6.49352407,-1.33005133 C6.64665167,-1.41593741 6.82983523,-1.46463791 7.03594512,-1.46902323 Z" id="Rectangle-7" transform="translate(6.862032, 6.704890) rotate(45.000000) translate(-6.862032, -6.704890) "></path>
                            <path d="M17.3479656,-1.46902323 C17.8887444,-1.48052916 18.3364596,-1.05146871 18.3479656,-0.510689894 C18.3482611,-0.496802577 18.3482611,-0.482910545 18.3479656,-0.469023228 L18.0436178,13.8353246 C18.0392324,14.0414345 17.9905319,14.224618 17.9046459,14.3777456 C17.8187598,14.5308732 17.6956881,14.6539449 17.5425605,14.739831 C17.3894329,14.825717 17.2062494,14.8744175 17.0001395,14.8788029 C16.4593607,14.8903088 16.0116454,14.4612483 16.0001395,13.9204695 C15.999844,13.9065822 15.999844,13.8926902 16.0001395,13.8788029 L16.3044873,-0.425544967 C16.3088726,-0.631654858 16.3575731,-0.814838412 16.4434592,-0.967966012 C16.5293453,-1.12109361 16.6524169,-1.24416526 16.8055445,-1.33005133 C16.9586721,-1.41593741 17.1418557,-1.46463791 17.3479656,-1.46902323 Z" id="Rectangle-7-Copy" transform="translate(17.174053, 6.704890) scale(-1, 1) rotate(45.000000) translate(-17.174053, -6.704890) "></path>
                        </g>
                    </g>
                </g>
            </g>
        </g>
    </g>
</svg>