<?xml version="1.0" encoding="UTF-8"?>
<svg width="48px" height="48px" viewBox="0 0 48 48" version="1.1" xmlns="http://www.w3.org/2000/svg" xmlns:xlink="http://www.w3.org/1999/xlink">
    <!-- Generator: Sketch 52.2 (67145) - http://www.bohemiancoding.com/sketch -->
    <title>vision_benefit</title>
    <desc>Created with Sketch.</desc>
    <defs>
        <rect id="path-1" x="0" y="0" width="48" height="48"></rect>
    </defs>
    <g id="vision_benefit" stroke="none" stroke-width="1" fill="none" fill-rule="evenodd">
        <g id="Mask-2">
            <mask id="mask-2" fill="white">
                <use xlink:href="#path-1"></use>
            </mask>
            <use id="Mask" fill="#D8D8D8" opacity="0" xlink:href="#path-1"></use>
        </g>
        <g id="Group" transform="translate(5.000000, 13.000000)">
            <path d="M19,22 C29.4934102,22 38,13.75 38,11 C38,8.25 29.4934102,0 19,0 C8.50658975,0 0,8.25 0,11 C2.90853615e-16,13.75 8.50658975,22 19,22 Z" id="Combined-Shape" stroke="#003863" stroke-width="2"></path>
            <path d="M21.8630634,4.61038766 C21.3343801,5.0687752 21,5.74533827 21,6.5 C21,7.88071187 22.1192881,9 23.5,9 C24.2546617,9 24.9312248,8.66561989 25.3896123,8.13693656 C25.7818315,9.01092311 26,9.97998356 26,11 C26,14.8659932 22.8659932,18 19,18 C15.1340068,18 12,14.8659932 12,11 C12,7.13400675 15.1340068,4 19,4 C20.0200164,4 20.9890769,4.21816852 21.8630634,4.61038766 Z" id="Combined-Shape" fill="#008BBF"></path>
        </g>
    </g>
</svg>