<svg xmlns="http://www.w3.org/2000/svg" width="16" height="16" viewBox="0 0 16 16">
    <g fill="none" fill-rule="evenodd">
        <g fill="#008BBF">
            <g>
                <g>
                    <g>
                        <path d="M8 1.333c3.682 0 6.667 2.985 6.667 6.667S11.682 14.667 8 14.667 1.333 11.682 1.333 8 4.318 1.333 8 1.333zm0 1.334C5.054 2.667 2.667 5.054 2.667 8S5.054 13.333 8 13.333 13.333 10.946 13.333 8 10.946 2.667 8 2.667zm0 4.666c.368 0 .667.299.667.667v3.333c0 .369-.299.667-.667.667-.368 0-.667-.298-.667-.667V8c0-.368.299-.667.667-.667zm0-2.666c.368 0 .667.298.667.666C8.667 5.702 8.368 6 8 6c-.368 0-.667-.298-.667-.667 0-.368.299-.666.667-.666z" transform="translate(-900 -28) translate(884 16) translate(12 8) translate(4 4)"/>
                    </g>
                </g>
            </g>
        </g>
    </g>
</svg>
