<svg xmlns="http://www.w3.org/2000/svg" width="16" height="16" viewBox="0 0 16 16">
    <g fill="none" fill-rule="evenodd">
        <g fill="#FFF">
            <g>
                <g>
                    <g>
                        <path d="M8.59.14c.254.127.461.334.588.589l6.683 13.364c.325.65.061 1.442-.59 1.768-.183.091-.384.139-.589.139H1.318C.59 16 0 15.41 0 14.682c0-.204.048-.406.14-.59L6.82.73C7.147.078 7.938-.186 8.59.139zm.069 11.907H7.34v1.317H8.66v-1.317zm0-7.248H7.34v5.93H8.66v-5.93z" transform="translate(-488 -56) translate(460) translate(16 32) translate(12 24)"/>
                    </g>
                </g>
            </g>
        </g>
    </g>
</svg>
