<svg width="41" height="40" viewBox="0 0 41 40" fill="none" xmlns="http://www.w3.org/2000/svg">
    <path fill-rule="evenodd" clip-rule="evenodd" d="M23.606 4.032c4.841.899 7.699 4.291 8.297 8.893.49 3.772-.667 7.899-2.823 10.164l-.333.329-2.714 2.55-.673.653-.241.249a7.88 7.88 0 0 0-1.26 1.84l-.106.214-.219.473c-.074.167-.15.346-.229.536l-.372.946c-1.625 4.306-5.475 6.268-8.684 5.345-3.43-.986-5.447-3.671-4.669-8.243a1.25 1.25 0 1 1 2.465.42c-.549 3.22.611 4.764 2.894 5.42 1.951.562 4.488-.73 5.655-3.824l.276-.71.261-.634c.17-.399.335-.753.5-1.078a10.37 10.37 0 0 1 1.637-2.386l.193-.203.277-.275.934-.899 2.45-2.299c1.69-1.62 2.712-5.108 2.302-8.266-.466-3.58-2.562-6.068-6.274-6.757-3.773-.7-6.302.139-7.855 2.063-1.075 1.333-1.617 3.212-1.553 4.541l.02.258a1.25 1.25 0 1 1-2.482.288c-.23-1.98.487-4.696 2.07-6.657 2.15-2.666 5.61-3.813 10.256-2.95zm3.017 6.973a1.25 1.25 0 0 1-1.999 1.495l-.087-.117c-.794-1.202-3.21-1.616-4.87-.363-.449.339-.747.827-.91 1.386 1.898-.446 4.003.126 5.371 1.668 1.963 2.213.995 7.05-1.82 8.432l-.22.099c-.663.273-1.049.504-1.275.72-.1.097-.174.192-.276.363l-.442.768-.133.2-.234.31c-1.299 1.631-3.207 2.31-4.754 1.292-1.527-1.005-2.142-2.488-1.546-4.404a1.25 1.25 0 1 1 2.387.743c-.249.8-.102 1.154.533 1.572.248.163.753.003 1.29-.6l.186-.227.13-.182.23-.392.09-.16c.26-.464.47-.762.81-1.087.479-.46 1.122-.844 2.05-1.227 1.374-.567 2.01-3.562 1.124-4.56-.852-.961-2.283-1.225-3.418-.737.17.53.43 1.023.77 1.423a1.25 1.25 0 0 1-1.906 1.617c-2.095-2.468-2.364-6.882.457-9.012 2.81-2.122 6.873-1.426 8.462.98z" fill="#A8ABAC"/>
</svg>
