<svg xmlns="http://www.w3.org/2000/svg" width="24" height="24" viewBox="0 0 24 24">
    <g fill="none" fill-rule="evenodd">
        <g fill="#008BBF">
            <g>
                <g>
                    <path d="M5.427 5.89c.055.279-.106.551-.368.642l-.074.02-.807.161c-.365.073-.649.354-.73.71l-.017.1-.395 3.341C3.827 10.171 4.865 9.75 6 9.75c2.322 0 4.233 1.758 4.474 4.016.476-.172.99-.266 1.526-.266s1.05.094 1.526.265C13.767 11.508 15.678 9.75 18 9.75c1.142 0 2.184.425 2.977 1.126l-.405-3.355-.017-.1c-.075-.323-.316-.583-.633-.683l-.097-.024-.81-.162-.074-.02c-.262-.09-.423-.363-.367-.642.055-.28.309-.469.586-.452l.075.01.81.162.137.032c.76.207 1.338.83 1.485 1.605l.022.139.72 5.96c.048.236.078.48.088.727l.012.11.004.076c0 .041-.005.082-.015.121l-.01.206c-.172 2.328-2.116 4.164-4.488 4.164-2.062 0-3.8-1.387-4.333-3.28l.014.046C13.2 15.19 12.623 15 12 15s-1.202.19-1.681.515l-.01.035C9.752 17.4 8.033 18.75 6 18.75c-2.485 0-4.5-2.015-4.5-4.5 0-.367.044-.725.127-1.066l.686-5.794c.1-.84.7-1.529 1.508-1.748l.136-.032.808-.162c.304-.06.6.137.662.442zM18 11.25c-1.657 0-3 1.343-3 3s1.343 3 3 3 3-1.343 3-3-1.343-3-3-3zm-12 0c-1.657 0-3 1.343-3 3s1.343 3 3 3 3-1.343 3-3-1.343-3-3-3z" transform="translate(-168 -1010) translate(144 986) translate(24 24)"/>
                </g>
            </g>
        </g>
    </g>
</svg>
