<svg xmlns="http://www.w3.org/2000/svg" xmlns:xlink="http://www.w3.org/1999/xlink" width="14" height="14" viewBox="0 0 14 14">
    <defs>
        <path id="zg03z80roa" d="M4.726 2.59c1.18 0 2.137.956 2.137 2.136 0 1.18-.957 2.137-2.137 2.137-1.18 0-2.137-.957-2.137-2.137 0-1.18.957-2.137 2.137-2.137m0-2.589c2.61 0 4.727 2.116 4.727 4.726 0 .954-.283 1.843-.769 2.585l-3.936 6.462L.83 7.403C.739 7.27.656 7.134.579 6.994l-.007-.012h.001C.208 6.313 0 5.543 0 4.726 0 2.116 2.116 0 4.726 0"/>
    </defs>
    <g fill="none" fill-rule="evenodd">
        <g>
            <g>
                <g>
                    <g>
                        <g>
                            <g>
                                <g transform="translate(-40 -467) translate(0 64) translate(8 16) translate(16 327) translate(16 58) translate(0 2) translate(2.333)">
                                    <mask id="xeps31fy8b" fill="#fff">
                                        <use xlink:href="#zg03z80roa"/>
                                    </mask>
                                    <use fill="#231F20" xlink:href="#zg03z80roa"/>
                                    <g fill="#008BBF" mask="url(#xeps31fy8b)">
                                        <path d="M0 0H14V14H0z" transform="translate(-2.333)"/>
                                    </g>
                                </g>
                            </g>
                        </g>
                    </g>
                </g>
            </g>
        </g>
    </g>
</svg>
