<svg width="16" height="16" xmlns="http://www.w3.org/2000/svg">
    <path d="M13.333 3.333c.737 0 1.334.597 1.334 1.334v6.666c0 .737-.597 1.334-1.334 1.334H2.667a1.333 1.333 0 0 1-1.334-1.334V4.667c0-.737.597-1.334 1.334-1.334h10.666zm-1.219 1.334H3.886a2.006 2.006 0 0 1-1.219 1.219v4.228c.568.2 1.018.65 1.219 1.218h8.228a2.006 2.006 0 0 1 1.219-1.218V5.886a2.006 2.006 0 0 1-1.219-1.219zM8 5.5a2.5 2.5 0 1 1 0 5 2.5 2.5 0 0 1 0-5zm0 1.167a1.333 1.333 0 1 0 0 2.666 1.333 1.333 0 0 0 0-2.666z" fill="#474B55" fill-rule="evenodd"/>
</svg>
