<svg width="20" height="20" viewBox="0 0 20 20" fill="none" xmlns="http://www.w3.org/2000/svg">
<path fill-rule="evenodd" clip-rule="evenodd" d="M18.3333 6.66666C18.3333 5.28594 17.214 4.16666 15.8333 4.16666H4.16663C2.78591 4.16666 1.66663 5.28594 1.66663 6.66666V8.34327V13.3333C1.66663 14.714 2.78591 15.8333 4.16663 15.8333H15.8333C17.214 15.8333 18.3333 14.714 18.3333 13.3333V8.34327V6.66666ZM16.6666 7.32249V6.66666C16.6666 6.26395 16.381 5.92796 16.0012 5.85025C15.978 5.8455 15.9544 5.84171 15.9305 5.83893L15.8333 5.83332H4.16663C3.73515 5.83332 3.38027 6.16124 3.33759 6.58145C3.33475 6.60947 3.33329 6.63789 3.33329 6.66666V7.32332L9.99996 10.7308L16.6666 7.32249ZM3.33329 9.19512L9.24144 12.2148C9.71781 12.4583 10.2821 12.4583 10.7585 12.2148L16.6666 9.19512V13.3333C16.6666 13.7936 16.2935 14.1667 15.8333 14.1667H4.16663C3.70639 14.1667 3.33329 13.7936 3.33329 13.3333V9.19512Z" fill="#A8ABAC"/>
</svg>