<svg width="100" height="100" xmlns="http://www.w3.org/2000/svg">
    <g fill-rule="nonzero" fill="none">
        <path fill="#FFF" d="M0 0h100v100H0z"/>
        <path d="M26.667 33.75C36.595 28.419 31.444 8.333 50 8.333c18.556 0 29.369 6.195 32.462 17.473 3.094 11.277-10.03 23.57-5.897 33.36 4.133 9.792 11.992 10.317 6.983 24.382-5.009 14.064-28.281 5.913-40.215 1.16-11.933-4.753-36.301-10.125-35-26.791C9.635 41.25 16.738 39.08 26.667 33.75z" fill="#003863" opacity=".1"/>
        <circle fill="#008BBF" opacity=".25" cx="16.25" cy="18.333" r="2.5"/>
        <circle fill="#008BBF" opacity=".25" cx="21.25" cy="85.833" r="1.667"/>
        <circle fill="#008BBF" opacity=".25" cx="21.25" cy="29.167" r="1.667"/>
        <circle fill="#008BBF" opacity=".25" cx="84.167" cy="56.25" r="3.333"/>
        <path fill="#FFF" d="M30 21.667h40v56.667H30z"/>
        <path d="M70 18.333a3.333 3.333 0 0 1 3.333 3.334v9.732L70 34.732V21.667H30v56.666h40v-32.96l1.343-.448.104-.038c.17-.07.329-.167.467-.289l.081-.075 1.338-1.34v35.15A3.333 3.333 0 0 1 70 81.667H30a3.333 3.333 0 0 1-3.333-3.334V21.667A3.333 3.333 0 0 1 30 18.333h40zm11.284 7.473 3.535 3.535-14.142 14.142-5.008 1.473 1.473-5.008 14.142-14.142zm4.42-3.241 2.356 2.357a.833.833 0 0 1 0 1.178l-2.062 2.063-3.536-3.536 2.063-2.062a.833.833 0 0 1 1.178 0z" fill="#003863"/>
        <path d="M50 12.5a4.167 4.167 0 0 1 4.146 4.584h7.52c.921 0 1.667.746 1.667 1.666v5c0 .92-.746 1.667-1.666 1.667H38.333c-.92 0-1.666-.747-1.666-1.667v-5c0-.92.746-1.667 1.666-1.667h7.521A4.167 4.167 0 0 1 50 12.5zm0 2.5a1.667 1.667 0 1 0 0 3.333A1.667 1.667 0 0 0 50 15z" fill="#D8D8D8"/>
        <path d="M50 12.5a4.167 4.167 0 0 1 4.146 4.584h7.52c.921 0 1.667.746 1.667 1.666v5c0 .92-.746 1.667-1.666 1.667H38.333c-.92 0-1.666-.747-1.666-1.667v-5c0-.92.746-1.667 1.666-1.667h7.521A4.167 4.167 0 0 1 50 12.5zm0 2.5a1.667 1.667 0 1 0 0 3.333A1.667 1.667 0 0 0 50 15z" fill="#D8D8D8"/>
        <path d="M36.667 22.917h26.666v.833c0 .92-.746 1.667-1.666 1.667H38.333c-.92 0-1.666-.747-1.666-1.667v-.833z" fill="#A8ABAC"/>
        <path d="M38.333 28.75a5 5 0 1 1 0 10 5 5 0 0 1 0-10zm.834 2.083H37.5v2.084h-2.083v1.666H37.5v2.084h1.667v-2.084h2.083v-1.666h-2.083v-2.084z" fill="#008BBF"/>
        <path d="M65 36.25a.833.833 0 1 1 0 1.667H47.5a.833.833 0 0 1 0-1.667H65zm-4.167-3.333a.833.833 0 1 1 0 1.666H47.5a.833.833 0 0 1 0-1.666h13.333zm5-3.334a.833.833 0 1 1 0 1.667H47.5a.833.833 0 0 1 0-1.667h18.333z" fill="#D8D8D8"/>
        <g fill="#D8D8D8">
            <path d="M49.167 47.083a.833.833 0 1 1 0 1.667h-15a.833.833 0 1 1 0-1.667h15zm6.666-3.333a.833.833 0 1 1 0 1.667H34.167a.833.833 0 1 1 0-1.667h21.666zM64.35 43.333l-.279.833h-1.154c-.44 0-.8.34-.831.772l-.003.062v2.5c0 .44.34.8.771.831l.063.002h2.5c.439 0 .799-.34.83-.77l.003-.063v-.877l.833-.278V47.5c0 .92-.746 1.667-1.666 1.667h-2.5c-.92 0-1.667-.747-1.667-1.667V45c0-.92.746-1.667 1.667-1.667h1.432z"/>
        </g>
        <g fill="#D8D8D8">
            <path d="M49.167 57.917a.833.833 0 1 1 0 1.666h-15a.833.833 0 0 1 0-1.666h15zm6.666-3.334a.833.833 0 1 1 0 1.667H34.167a.833.833 0 1 1 0-1.667h21.666zM65.417 54.167c.92 0 1.666.746 1.666 1.666v2.5c0 .92-.746 1.667-1.666 1.667h-2.5c-.92 0-1.667-.746-1.667-1.667v-2.5c0-.92.746-1.666 1.667-1.666h2.5zm0 .833h-2.5c-.44 0-.8.34-.831.771l-.003.062v2.5c0 .44.34.8.771.831l.063.003h2.5c.439 0 .799-.34.83-.771l.003-.063v-2.5c0-.439-.34-.799-.771-.83L65.417 55z"/>
        </g>
        <g fill="#D8D8D8">
            <path d="M49.167 68.75a.833.833 0 1 1 0 1.667h-15a.833.833 0 0 1 0-1.667h15zm6.666-3.333a.833.833 0 1 1 0 1.666H34.167a.833.833 0 1 1 0-1.666h21.666zM65.417 65c.92 0 1.666.746 1.666 1.667v2.5c0 .92-.746 1.666-1.666 1.666h-2.5c-.92 0-1.667-.746-1.667-1.666v-2.5c0-.92.746-1.667 1.667-1.667h2.5zm0 .833h-2.5c-.44 0-.8.34-.831.771l-.003.063v2.5c0 .439.34.799.771.83l.063.003h2.5c.439 0 .799-.34.83-.771l.003-.062v-2.5c0-.44-.34-.8-.771-.831l-.062-.003z"/>
        </g>
        <g>
            <path fill="#FFF" d="m26.667 63.958 6.666 2.052 6.38-1.834 4.304 2.26 1.746 4.786-1.319 5.945-4.732 4.81-6.21 4.245-7.28-5.092-5.071-6.454.392-7.45z"/>
            <path d="M38.668 62.5c4.889 0 8.554 3.71 8.554 8.737 0 5.504-4.414 10.903-12.153 15.682-.537.337-1.174.581-1.742.581-.564 0-1.16-.23-1.735-.576-7.74-4.78-12.148-10.18-12.148-15.687 0-5.028 3.654-8.737 8.542-8.737 1.836 0 3.511.561 4.843 1.563l.28.221.22.191.233-.201c1.189-.985 2.672-1.594 4.323-1.74l.417-.027.366-.007zm-5.985 11.18-1.261 1.892c-.166.247-.428.41-.718.452l-.148.01-6.857.006c1.639 2.734 4.61 5.508 8.765 8.152l.573.36.29.156.275-.147c4.445-2.746 7.612-5.634 9.335-8.478l-4.793-.001-2.489 5.019c-.432.87-1.686.715-1.934-.171l-.03-.146-1.008-7.105zm5.985-8.402c-1.8 0-3.279.764-4.206 2.08a1.389 1.389 0 0 1-2.277-.008c-.898-1.296-2.4-2.072-4.2-2.072-3.343 0-5.763 2.456-5.763 5.959 0 .893.164 1.803.487 2.722l7.288-.008 2.47-3.696c.502-.751 1.629-.543 1.865.28l.033.152.917 6.48 1.285-2.589c.154-.31.45-.52.787-.568L37.5 74h6.442a8.193 8.193 0 0 0 .502-2.763c0-3.5-2.429-5.96-5.776-5.96z" fill="#008BBF"/>
        </g>
    </g>
</svg>
