<svg xmlns="http://www.w3.org/2000/svg" xmlns:xlink="http://www.w3.org/1999/xlink" width="15" height="14" viewBox="0 0 15 14">
    <defs>
        <path id="5jfu4t84ea" d="M2.8 0c.159 0 .315.013.465.04.227.036.443.101.647.19l.74 4.67c-.384.339-.86.574-1.387.661.42 1.21 1.11 2.293 1.995 3.179.886.886 1.97 1.575 3.179 1.995.087-.527.322-1.003.66-1.387l4.672.74c.088.204.153.42.19.647.026.15.039.306.039.465 0 1.546-1.254 2.8-2.8 2.8C5.015 14 0 8.985 0 2.8 0 1.254 1.254 0 2.8 0"/>
    </defs>
    <g fill="none" fill-rule="evenodd">
        <g>
            <g>
                <g>
                    <g>
                        <g transform="translate(-21 -548) translate(0 72) translate(0 430) translate(21.888 44) translate(0 2)">
                            <mask id="sfp4pv05pb" fill="#fff">
                                <use xlink:href="#5jfu4t84ea"/>
                            </mask>
                            <use fill="#221E1F" xlink:href="#5jfu4t84ea"/>
                            <g fill="#008BBF" mask="url(#sfp4pv05pb)">
                                <path d="M0 0H14V14H0z"/>
                            </g>
                        </g>
                    </g>
                </g>
            </g>
        </g>
    </g>
</svg>
