<svg xmlns="http://www.w3.org/2000/svg" width="25" height="24" viewBox="0 0 25 24">
    <g fill="none" fill-rule="evenodd">
        <g fill="#008BBF">
            <g>
                <g>
                    <path d="M12 2c.319 0 .701.098.979.27 1.866 1.166 4.832 2.182 6.072 2.66.921.356 1.856.269 1.942 1.192L21 6.27v7.486c0 3.583-2.128 4.943-8.272 8.048-.273.145-.557.197-.728.197-.182 0-.466-.052-.74-.197-6.01-3.063-8.173-4.411-8.257-7.835L3 13.755V6.27c0-1.08 1.306-.976 2.273-1.34 1.24-.466 4.2-1.463 5.748-2.658.31-.173.649-.271.979-.271zm0 2c-.257 0-.52.078-.761.217-1.204.955-3.506 1.753-4.47 2.127C6.015 6.634 5 6.55 5 7.414v5.99c0 2.866 1.655 3.938 6.425 6.438.212.116.433.158.575.158.133 0 .354-.042.566-.158C17.346 17.358 19 16.27 19 13.404v-5.99c0-.863-.763-.771-1.516-1.07-.964-.382-3.27-1.195-4.723-2.127C12.545 4.078 12.248 4 12 4zm0 4c.513 0 .936.309.993.707L13 8.8V11h2.2c.442 0 .8.448.8 1 0 .513-.309.936-.707.993L15.2 13H13v2.2c0 .442-.448.8-1 .8-.513 0-.936-.309-.993-.707L11 15.2V13H8.8c-.442 0-.8-.448-.8-1 0-.513.309-.936.707-.993L8.8 11H11V8.8c0-.442.448-.8 1-.8z" transform="translate(-663 -298) translate(648 274) translate(15.5 24)"/>
                </g>
            </g>
        </g>
    </g>
</svg>
