<svg width="40" height="40" viewBox="0 0 40 40" fill="none" xmlns="http://www.w3.org/2000/svg">
    <path fill-rule="evenodd" clip-rule="evenodd" d="M13.55 3.777a2.5 2.5 0 0 1 2.404 1.816l.047.192.747 3.723a2.498 2.498 0 0 1-.702 2.279l3.415 11.1a19.682 19.682 0 0 1 .664 8.628l-.093.577-.407 2.31a3.75 3.75 0 0 1-3.467 3.091l-.226.007h-7.94a3.75 3.75 0 0 1-3.675-3l-.038-.22-.318-2.228c-.408-2.86-.222-5.77.544-8.55l.173-.594L8.1 11.786a2.493 2.493 0 0 1-.729-2.115l.027-.163.748-3.723a2.5 2.5 0 0 1 2.254-2l.197-.008h2.953zM32.5 17.5a2.5 2.5 0 0 1 2.493 2.313L35 20v2.5c0 .292-.05.573-.142.834A3.742 3.742 0 0 1 36.242 26l.008.25v7.5a3.75 3.75 0 0 1-3.53 3.744l-.22.006H25a3.75 3.75 0 0 1-3.744-3.53l-.006-.22v-7.5c0-1.178.543-2.23 1.393-2.917a2.46 2.46 0 0 1-.134-.616L22.5 22.5V20a2.5 2.5 0 0 1 2.313-2.493L25 17.5h7.5zm-18.85-5h-3.154L7.068 23.644a18.495 18.495 0 0 0-.758 6.93l.057.584.069.54.318 2.229a1.25 1.25 0 0 0 1.096 1.065l.142.008h7.94a1.25 1.25 0 0 0 1.196-.887l.035-.146.407-2.31a17.182 17.182 0 0 0-.347-7.513l-.151-.523L13.65 12.5zM32.5 25H25a1.25 1.25 0 0 0-1.242 1.104l-.008.146v7.5c0 .641.483 1.17 1.104 1.242L25 35h7.5a1.25 1.25 0 0 0 1.242-1.104l.008-.146v-7.5c0-.69-.56-1.25-1.25-1.25zm-20.427-2.5c1.381 0 2.5 2.238 2.5 5 0 2.761-1.119 5-2.5 5-1.38 0-2.5-2.239-2.5-5 0-2.762 1.12-5 2.5-5zM32.5 20H25v2.5h7.5V20zM13.55 6.277h-2.953L9.85 10h4.447l-.747-3.723z" fill="#A8ABAC"/>
</svg>
