<svg width="20" height="20" viewBox="0 0 20 20" fill="none" xmlns="http://www.w3.org/2000/svg">
    <path fill-rule="evenodd" clip-rule="evenodd" d="M9.168 4.965 9.167 5c0-.07.008-.137.025-.202l.036-.112.042-.089.052-.081.072-.089.074-.068.045-.035 2.525-1.684a.833.833 0 0 1 1.002 1.328l-.078.059-.765.51a6.667 6.667 0 1 1-8.864 6.296.833.833 0 1 1 1.667 0 5 5 0 1 0 6.774-4.676l.586.88a.833.833 0 0 1-.153 1.098l-.078.058a.834.834 0 0 1-1.097-.153l-.059-.078-1.666-2.5a.834.834 0 0 1-.136-.376l-.003-.121z" fill="#474B55"/>
</svg>
