<svg width="132" height="32" viewBox="0 0 132 32" fill="none" xmlns="http://www.w3.org/2000/svg">
<path fill-rule="evenodd" clip-rule="evenodd" d="M4.19499 4.02105C4.13499 3.98053 4.0995 3.95436 4.0995 3.95436C13.4367 12.1763 17.542 21.3522 18.8629 24.9317C19.3868 26.3551 20.4178 29.168 19.5482 31.7986C19.4272 31.5169 19.2806 31.2467 19.1105 30.9915C18.8688 30.636 18.585 30.3109 18.2654 30.0232C19.0665 27.4213 18.355 24.0039 13.3691 21.7346C3.82264 17.3855 3.15078 12.7315 2.47783 8.06987C2.31279 6.92665 2.14769 5.78298 1.85161 4.64325C1.42742 3.01194 0.876791 2.02466 0.503737 1.35577C0.190074 0.793373 0.00194643 0.45606 0.12006 0.150274C0.124672 0.139524 0.132701 0.13312 0.140946 0.126544C0.146298 0.122275 0.151741 0.117933 0.156398 0.112284C0.368243 0.014569 0.613537 0.179891 1.07485 0.490806C1.40668 0.714447 1.85027 1.01342 2.47358 1.34401C3.63908 1.96448 5.15356 2.53916 6.79533 3.16214C10.9794 4.7498 15.9902 6.65117 18.1581 10.4237C20.5158 14.5258 20.6764 17.5312 19.2778 22.4834C15.0812 11.8605 6.05414 5.34733 4.19499 4.02105ZM0.696398 0.77078C1.62006 1.84886 2.50992 2.63483 3.56203 3.5027C2.50907 2.63483 1.62006 1.8497 0.696398 0.77078Z" fill="white"/>
<rect x="95.7466" y="12.0691" width="3.54931" height="13.2543" fill="white"/>
<rect x="95.7466" y="5.39967" width="3.6338" height="2.70152" fill="white"/>
<path d="M116.595 17.2543L114.368 17.0517C113.12 16.9478 112.902 16.389 112.902 15.9044C112.902 15.2459 113.499 14.638 114.908 14.638C116.135 14.638 117.718 14.8483 118.53 15.5363L119.818 13.0425C118.161 12.1273 117.165 11.9112 114.967 11.9112C112.084 11.9112 109.505 13.3903 109.505 16.1391C109.505 18.5831 111.082 19.6274 113.637 19.8587L115.863 20.0605C116.976 20.1635 117.357 20.6219 117.357 21.2846C117.357 22.2758 116.081 22.6582 114.856 22.6582C113.771 22.6582 111.645 22.5062 110.478 21.4113L109.268 24.2673C111.058 25.4754 112.571 25.4813 114.804 25.4813C118.141 25.4813 120.804 24.0807 120.804 21.1521C120.806 18.9107 119.395 17.5101 116.595 17.2543Z" fill="white"/>
<path d="M126.254 7.51361H122.704V12.4101H121.183V14.9428H122.704V21.5278C122.704 23.4155 123.919 25.3268 126.785 25.3268H128.704V22.5408H127.454C126.625 22.5408 126.254 22.1061 126.254 21.3404V14.9428H128.704V12.4945H126.254V7.51361Z" fill="white"/>
<path d="M109.398 11.8968C109.29 11.8968 109.171 11.8968 109.039 11.8968C107.475 11.9146 106.074 12.5587 105.38 13.3236V12.0724H101.916V25.3268H105.465V17.3269C105.465 15.6452 106.678 14.8381 107.796 14.8381C108.184 14.846 108.57 14.877 108.953 14.931L109.791 11.912C109.665 11.9036 109.538 11.8968 109.398 11.8968Z" fill="white"/>
<path d="M87.9719 9.17505V12.4101H86.5234C86.5294 13.3869 86.5353 14.2311 86.5353 14.7849V14.9428H87.9719V25.3268H91.4367V14.9428H94.0564V12.4101H91.4367V9.37851C91.4367 8.61871 91.8203 8.18562 92.6663 8.18562H94.1409V5.40305H92.1229C89.2277 5.40305 87.9719 7.30087 87.9719 9.17505Z" fill="white"/>
<path d="M29.4769 11.7719C27.9439 11.7719 26.6789 12.2463 25.6901 13.1927V5.2342H24V25.3268H25.7746V16.86C25.7899 14.5215 27.0296 13.2721 29.3662 13.2544C31.6952 13.2738 32.8504 14.4895 32.8699 16.86V25.3268H34.56V16.6313C34.56 15.1378 34.0808 13.9145 33.1994 13.0754C32.318 12.2362 31.0428 11.771 29.4769 11.7719Z" fill="white"/>
<path fill-rule="evenodd" clip-rule="evenodd" d="M54.3948 11.7879C56.1779 11.7879 57.5004 12.1645 58.3894 12.9048C59.2784 13.6469 59.7508 16.1061 59.7508 16.1061V24.4978L59.6663 25.3268H57.9762V24.1592C56.9308 25.0853 55.8424 25.3977 54.0939 25.3935C52.1021 25.3952 50.9638 25.0701 50.0739 24.1896C49.3979 23.5497 49.0598 22.4134 49.0598 21.4332C49.0573 20.2327 49.5145 19.2585 50.3477 18.6051C51.181 17.9516 52.3717 17.6122 53.8429 17.6443H57.977V16.2378C57.9711 14.2733 57.0948 13.3092 54.3998 13.2788C52.5407 13.2881 51.6863 13.7009 50.8505 14.8288L50.7542 14.9555L49.501 13.9137L49.5855 13.798C50.7432 12.2514 52.2018 11.7803 54.3948 11.7879ZM57.2798 22.9503C57.7235 22.5535 57.9719 21.6156 57.9719 20.4716V18.9917H53.9874C51.7514 19.0137 50.7626 19.7735 50.7441 21.3952C50.7626 22.9925 51.6618 23.8637 54.0686 23.8874C55.2804 23.8874 56.357 23.7827 57.2798 22.9503Z" fill="white"/>
<path d="M79.9775 11.7347C78.4563 11.7308 77.2056 12.205 76.2253 13.1573V5.2342H74.4507V25.3268H76.1408V16.8195C76.156 14.4819 77.3991 13.2307 79.7315 13.2138C82.0673 13.2324 83.2234 14.4481 83.2394 16.8195V25.3268H85.0141V16.5848C85.0141 15.0922 84.5417 13.8689 83.662 13.0289C82.7822 12.1889 81.5273 11.7347 79.9775 11.7347Z" fill="white"/>
<path d="M69.634 6.50055H68.0283V12.3257H66.1692V13.592H68.0283V21.8756C68.0283 22.8844 68.3106 23.77 68.8734 24.4083C69.4362 25.0465 70.2745 25.4112 71.3427 25.4112H72.2537V23.8916H71.5481C70.1892 23.8705 69.6593 23.2348 69.634 21.9499V13.592H72.6762V12.3257H69.634V6.50055Z" fill="white"/>
<path fill-rule="evenodd" clip-rule="evenodd" d="M37.9132 13.5076C38.8614 12.3198 40.2566 11.6875 41.9746 11.6875C43.6901 11.6858 45.0861 12.2953 46.036 13.424C46.9859 14.5528 47.4929 16.188 47.4929 18.2235V18.9934H38.1566C38.2191 22.193 39.6244 23.8291 42.3819 23.8494C43.8701 23.846 44.7684 23.4492 45.8357 22.4547L45.8543 22.4378C45.8583 22.4343 45.8632 22.4318 45.8682 22.4293C45.8738 22.4265 45.8794 22.4237 45.8839 22.4193L46.898 23.6898C45.6523 24.8203 44.378 25.4112 42.3295 25.4112H42.3092C40.429 25.4112 38.9509 24.811 37.9563 23.6417C36.9616 22.4725 36.4546 20.7561 36.4546 18.5485C36.4546 16.4042 36.965 14.6954 37.9132 13.5076ZM38.6813 15.4088C38.3957 16.2015 38.3171 16.5198 38.2326 17.6443H45.7402C45.6642 16.5291 45.6312 16.145 45.2932 15.4164C44.743 14.1087 43.4814 13.3286 41.9873 13.3312C40.4932 13.3337 39.2323 14.1087 38.6813 15.4088Z" fill="white"/>
<rect x="62.7043" y="5.23083" width="1.69014" height="20.0926" fill="white"/>
<path fill-rule="evenodd" clip-rule="evenodd" d="M130.668 8.30381C130.714 8.32187 130.755 8.34788 130.792 8.38063C130.873 8.46894 130.945 8.56541 131.007 8.66851L131.182 8.9488H130.986L130.846 8.73014C130.777 8.60678 130.686 8.49716 130.578 8.4068C130.517 8.3701 130.446 8.35301 130.375 8.35784H130.225V8.94542H129.972V7.51024H130.465C130.589 7.50455 130.713 7.51794 130.832 7.54992C130.906 7.57529 130.969 7.62389 131.012 7.68837C131.056 7.74985 131.08 7.82319 131.081 7.89858C131.081 8.00152 131.041 8.1004 130.967 8.17295C130.888 8.25291 130.781 8.29969 130.668 8.30381ZM130.225 8.10457H130.5C130.592 8.11299 130.684 8.09263 130.764 8.04632C130.811 8.00921 130.838 7.95132 130.836 7.89098C130.836 7.85124 130.824 7.81231 130.802 7.77955C130.778 7.74629 130.744 7.721 130.705 7.70694C130.632 7.68698 130.555 7.67872 130.479 7.68246H130.225V8.10457Z" fill="white"/>
<path fill-rule="evenodd" clip-rule="evenodd" d="M131.24 7.02396C131.45 7.13524 131.623 7.30543 131.737 7.51362L131.74 7.51615C131.976 7.92831 131.976 8.43448 131.74 8.84665C131.625 9.05473 131.454 9.2258 131.245 9.33968C130.834 9.57386 130.33 9.57386 129.919 9.33968C129.711 9.22483 129.54 9.054 129.424 8.84665C129.31 8.64433 129.25 8.4162 129.249 8.18393C129.249 7.94943 129.311 7.71914 129.429 7.51615C129.543 7.3066 129.716 7.13538 129.927 7.02396C130.334 6.79436 130.832 6.79436 131.24 7.02396ZM131.135 9.14382C131.309 9.04942 131.452 8.90699 131.547 8.73352V8.73606C131.643 8.56696 131.694 8.37592 131.695 8.1814C131.694 7.98592 131.642 7.79407 131.544 7.62505C131.449 7.45048 131.304 7.30756 131.129 7.21392C130.79 7.02152 130.374 7.02152 130.035 7.21392C129.86 7.30827 129.716 7.45101 129.62 7.62505C129.522 7.79407 129.47 7.98592 129.469 8.1814C129.47 8.37499 129.521 8.56512 129.616 8.73352C129.713 8.90637 129.856 9.04855 130.03 9.14382C130.372 9.34075 130.793 9.34075 131.135 9.14382Z" fill="white"/>
</svg>