<svg xmlns="http://www.w3.org/2000/svg" width="10" height="16" viewBox="0 0 10 16" fill="none">
<path fill-rule="evenodd" clip-rule="evenodd" d="M2.04672 2.09289C2.01685 2.07306 1.99917 2.06025 1.99917 2.06025C6.64838 6.08308 8.69253 10.5727 9.35021 12.3241C9.61109 13.0205 10.1244 14.3968 9.69146 15.6839C9.63118 15.5461 9.55822 15.4139 9.47349 15.289C9.35313 15.1151 9.21185 14.956 9.05271 14.8153C9.45161 13.5422 9.09732 11.8701 6.61471 10.7598C1.86132 8.63185 1.52679 6.35473 1.19171 4.0739C1.10953 3.51454 1.02732 2.95497 0.879899 2.39732C0.668685 1.59915 0.394514 1.11609 0.208762 0.788816C0.0525814 0.513645 -0.0410917 0.348604 0.0177198 0.198989C0.020016 0.193729 0.0240141 0.190595 0.0281192 0.187378C0.0307842 0.185289 0.0334944 0.183165 0.0358133 0.180401C0.141296 0.132591 0.263434 0.21348 0.493134 0.365605C0.658358 0.475028 0.879233 0.621309 1.18959 0.783061C1.76992 1.08665 2.52402 1.36783 3.34149 1.67264C5.42483 2.44945 7.91981 3.37975 8.99928 5.22556C10.1733 7.23264 10.2532 8.70315 9.55681 11.1262C7.46721 5.9286 2.97244 2.74181 2.04672 2.09289ZM0.344828 0.511514C0.900558 0.919745 1.43595 1.21737 2.06897 1.546C1.43544 1.21737 0.900558 0.920065 0.344828 0.511514Z" fill="#81C342"/>
</svg>