<svg width="166" height="40" viewBox="0 0 166 40" fill="none" xmlns="http://www.w3.org/2000/svg">
<path fill-rule="evenodd" clip-rule="evenodd" d="M5.821 5.02646C5.74608 4.97581 5.70175 4.9431 5.70175 4.9431C17.3616 15.2205 22.4881 26.6904 24.1375 31.1648C24.7918 32.944 26.0793 36.4602 24.9934 39.7484C24.8422 39.3962 24.6592 39.0586 24.4467 38.7396C24.1449 38.2952 23.7906 37.8888 23.3915 37.5292C24.3919 34.2768 23.5033 30.005 17.2771 27.1684C5.35603 21.732 4.51704 15.9145 3.67669 10.0875C3.4706 8.65847 3.26443 7.22888 2.8947 5.80421C2.365 3.76507 1.6774 2.53097 1.21155 1.69486C0.819858 0.991866 0.584934 0.570225 0.732428 0.187992C0.738187 0.174555 0.748214 0.166549 0.758509 0.15833C0.765193 0.152993 0.771989 0.147566 0.777805 0.140505C1.04235 0.018361 1.34866 0.225013 1.92473 0.613658C2.3391 0.893209 2.89303 1.26692 3.67139 1.68016C5.12681 2.45575 7.01802 3.1741 9.06818 3.95282C14.293 5.9374 20.5502 8.31411 23.2574 13.0297C26.2017 18.1573 26.4022 21.9142 24.6557 28.1044C19.4152 14.8258 8.14262 6.68431 5.821 5.02646ZM1.45213 0.963625C2.60555 2.31122 3.71677 3.29369 5.03059 4.37852C3.71571 3.29369 2.60555 2.31228 1.45213 0.963625Z" fill="#81C342"/>
<rect x="120.146" y="15.0869" width="4.43218" height="16.5679" fill="black"/>
<rect x="120.146" y="6.75" width="4.53771" height="3.3769" fill="black"/>
<path d="M146.181 21.5676L143.399 21.3143C141.842 21.1845 141.57 20.4859 141.57 19.8802C141.57 19.057 142.315 18.2972 144.075 18.2972C145.607 18.2972 147.584 18.56 148.598 19.4201L150.206 16.3028C148.137 15.1588 146.892 14.8887 144.148 14.8887C140.548 14.8887 137.327 16.7375 137.327 20.1735C137.327 23.2286 139.296 24.534 142.487 24.8231L145.267 25.0753C146.657 25.2041 147.132 25.7771 147.132 26.6055C147.132 27.8444 145.54 28.3224 144.009 28.3224C142.654 28.3224 139.999 28.1325 138.542 26.7638L137.031 30.3338C139.267 31.8439 141.156 31.8513 143.944 31.8513C148.111 31.8513 151.436 30.1006 151.436 26.4398C151.44 23.638 149.677 21.8873 146.181 21.5676Z" fill="black"/>
<path d="M158.242 9.39258H153.81V15.5132H151.91V18.6791H153.81V26.9103C153.81 29.2699 155.326 31.659 158.906 31.659H161.302V28.1766H159.74C158.706 28.1766 158.242 27.6331 158.242 26.676V18.6791H161.302V15.6187H158.242V9.39258Z" fill="black"/>
<path d="M137.193 14.8711C137.059 14.8711 136.91 14.8711 136.745 14.8711C134.792 14.8933 133.043 15.6984 132.176 16.6545V15.0906H127.85V31.6585H132.282V21.6587C132.282 19.5565 133.797 18.5477 135.193 18.5477C135.677 18.5575 136.159 18.5962 136.638 18.6638L137.684 14.8901C137.527 14.8795 137.368 14.8711 137.193 14.8711Z" fill="black"/>
<path d="M110.438 11.4689V15.5128H108.629C108.636 16.7337 108.644 17.789 108.644 18.4813V18.6786H110.438V31.6586H114.764V18.6786H118.036V15.5128H114.764V11.7232C114.764 10.7735 115.243 10.2321 116.3 10.2321H118.141V6.75391H115.621C112.006 6.75391 110.438 9.12618 110.438 11.4689Z" fill="black"/>
<path d="M37.392 14.7151C35.4777 14.7151 33.898 15.3081 32.6633 16.4911V6.54297H30.5527V31.6587H32.7688V21.0753C32.7878 18.1521 34.3359 16.5903 37.2538 16.5682C40.1621 16.5924 41.6047 18.112 41.629 21.0753V31.6587H43.7395V20.7893C43.7395 18.9225 43.1412 17.3934 42.0405 16.3444C40.9399 15.2955 39.3475 14.714 37.392 14.7151Z" fill="black"/>
<path fill-rule="evenodd" clip-rule="evenodd" d="M68.5082 14.7355C70.7349 14.7355 72.3864 15.2061 73.4965 16.1316C74.6067 17.0592 75.1966 20.1332 75.1966 20.1332V30.6227L75.0911 31.659H72.9805V30.1996C71.6751 31.3572 70.3159 31.7477 68.1325 31.7424C65.6452 31.7445 64.2238 31.3382 63.1125 30.2376C62.2683 29.4377 61.8462 28.0173 61.8462 26.7921C61.843 25.2915 62.4139 24.0737 63.4545 23.2569C64.495 22.4401 65.9819 22.0159 67.8191 22.056H72.9815V20.2979C72.9742 17.8422 71.8798 16.6371 68.5145 16.5991C66.1929 16.6107 65.126 17.1267 64.0823 18.5366L63.962 18.6949L62.3971 17.3927L62.5026 17.2481C63.9483 15.3148 65.7697 14.726 68.5082 14.7355ZM72.1109 28.6884C72.665 28.1924 72.9752 27.02 72.9752 25.5901V23.7402H67.9996C65.2073 23.7676 63.9726 24.7174 63.9494 26.7446C63.9726 28.7412 65.0954 29.8302 68.1009 29.8598C69.6141 29.8598 70.9586 29.7289 72.1109 28.6884Z" fill="black"/>
<path d="M100.455 14.6686C98.5553 14.6637 96.9934 15.2564 95.7693 16.4468V6.54297H93.5532V31.6587H95.6638V21.0246C95.6828 18.1025 97.2351 16.5386 100.148 16.5175C103.064 16.5407 104.508 18.0603 104.528 21.0246V31.6587H106.744V20.7312C106.744 18.8655 106.154 17.3364 105.056 16.2864C103.957 15.2364 102.39 14.6686 100.455 14.6686Z" fill="black"/>
<path d="M87.5381 8.12598H85.533V15.4074H83.2114V16.9904H85.533V27.3448C85.533 28.6058 85.8855 29.7128 86.5883 30.5106C87.2911 31.3084 88.338 31.7643 89.6719 31.7643H90.8095V29.8648H89.9283C88.2314 29.8384 87.5697 29.0438 87.5381 27.4377V16.9904H91.3371V15.4074H87.5381V8.12598Z" fill="black"/>
<path fill-rule="evenodd" clip-rule="evenodd" d="M47.9269 16.8846C49.1109 15.3998 50.8532 14.6094 52.9986 14.6094C55.1408 14.6073 56.8841 15.3692 58.0703 16.7801C59.2564 18.191 59.8896 20.2351 59.8896 22.7794V23.7418H48.2308C48.3089 27.7413 50.0638 29.7865 53.5072 29.8118C55.3656 29.8076 56.4873 29.3116 57.8202 28.0685L57.8434 28.0473C57.8484 28.0429 57.8545 28.0398 57.8607 28.0367C57.8677 28.0332 57.8747 28.0297 57.8803 28.0241L59.1467 29.6123C57.5912 31.0254 55.9998 31.7641 53.4418 31.7641H53.4165C51.0685 31.7641 49.2228 31.0138 47.9807 29.5522C46.7386 28.0906 46.1055 25.9452 46.1055 23.1857C46.1055 20.5052 46.7429 18.3694 47.9269 16.8846ZM48.8861 19.2611C48.5295 20.252 48.4313 20.6498 48.3258 22.0555H57.7009C57.6059 20.6614 57.5648 20.1813 57.1427 19.2706C56.4557 17.6359 54.8801 16.6608 53.0144 16.664C51.1487 16.6672 49.5742 17.6359 48.8861 19.2611Z" fill="black"/>
<rect x="78.8848" y="6.53906" width="2.11057" height="25.1157" fill="black"/>
<path fill-rule="evenodd" clip-rule="evenodd" d="M163.755 10.3803C163.811 10.4028 163.864 10.4354 163.909 10.4763C164.011 10.5867 164.101 10.7073 164.178 10.8362L164.396 11.1865H164.152L163.976 10.9132C163.891 10.759 163.777 10.622 163.642 10.509C163.566 10.4631 163.477 10.4418 163.389 10.4478H163.202V11.1823H162.885V9.38831H163.502C163.656 9.3812 163.81 9.39793 163.96 9.43791C164.051 9.46962 164.13 9.53038 164.184 9.61097C164.239 9.68783 164.269 9.77949 164.27 9.87374C164.271 10.0024 164.22 10.126 164.128 10.2167C164.029 10.3167 163.896 10.3751 163.755 10.3803ZM163.202 10.1312H163.545C163.659 10.1418 163.775 10.1163 163.874 10.0584C163.934 10.012 163.967 9.93967 163.964 9.86424C163.964 9.81456 163.95 9.7659 163.922 9.72494C163.891 9.68337 163.849 9.65177 163.801 9.63419C163.709 9.60924 163.614 9.59891 163.518 9.60359H163.202V10.1312Z" fill="black"/>
<path fill-rule="evenodd" clip-rule="evenodd" d="M164.468 8.7797C164.731 8.9188 164.947 9.13153 165.09 9.39177L165.093 9.39493C165.388 9.91014 165.388 10.5429 165.093 11.0581C164.95 11.3182 164.736 11.532 164.476 11.6743C163.962 11.9671 163.332 11.9671 162.819 11.6743C162.559 11.5308 162.345 11.3173 162.201 11.0581C162.059 10.8052 161.983 10.52 161.982 10.2297C161.982 9.93653 162.06 9.64867 162.207 9.39493C162.349 9.133 162.566 8.91897 162.829 8.7797C163.338 8.4927 163.96 8.4927 164.468 8.7797ZM164.337 11.4295C164.555 11.3115 164.733 11.1335 164.852 10.9167V10.9198C164.972 10.7084 165.036 10.4696 165.037 10.2265C165.036 9.98214 164.971 9.74233 164.848 9.53106C164.729 9.31285 164.549 9.13419 164.33 9.01714C163.907 8.77664 163.388 8.77664 162.964 9.01714C162.746 9.13508 162.566 9.31351 162.446 9.53106C162.323 9.74233 162.258 9.98214 162.257 10.2265C162.258 10.4685 162.322 10.7062 162.441 10.9167C162.562 11.1327 162.741 11.3104 162.958 11.4295C163.385 11.6757 163.911 11.6757 164.337 11.4295Z" fill="black"/>
</svg>
