<svg width="40" height="40" viewBox="0 0 40 40" fill="none" xmlns="http://www.w3.org/2000/svg">
    <path d="M25.625 15a.625.625 0 1 0 0 1.25h2.5c.345 0 .625.28.625.625v1.875a.625.625 0 1 0 1.25 0v-1.875C30 15.839 29.16 15 28.125 15h-2.5z" fill="#A8ABAC"/>
    <path fill-rule="evenodd" clip-rule="evenodd" d="M20.625 10h1.25v1.25a5 5 0 0 0-5 5v1.654c0 1.284.726 2.459 1.875 3.034.383.191.625.582.625 1.01v.678A8.723 8.723 0 0 0 13.125 20c-1.398 0-2.72.328-3.892.911.217-.527.39-1.11.479-1.727.243-1.665-.11-3.59-1.77-5.25a.625.625 0 0 0-.884 0c-.721.72-1.532 2.125-1.77 3.757a6.152 6.152 0 0 0 .125 2.463l-.596-.596a.625.625 0 1 0-.884.884l2.579 2.578a8.75 8.75 0 0 0 11.682 12.863 4.987 4.987 0 0 0 3.681 1.617h7.5a5 5 0 0 0 5-5v-2.904c0-1.284-.726-2.459-1.875-3.034a1.13 1.13 0 0 1-.625-1.01v-3.603c0-.429.242-.82.625-1.012a3.392 3.392 0 0 0 1.875-3.033V16.25a5 5 0 0 0-5-5V10h1.25c.69 0 1.25-.56 1.25-1.25v-5c0-.69-.56-1.25-1.25-1.25h-10c-.69 0-1.25.56-1.25 1.25v5c0 .69.56 1.25 1.25 1.25zm1.25-5v2.5h7.5V5h-7.5zM10.183 26.692l-1.897-1.898a6.25 6.25 0 1 0 .884-.884l1.897 1.898a.625.625 0 1 1-.884.884zM26.875 11.25h-2.5V10h2.5v1.25zm-5 17.5c0-.672-.076-1.327-.22-1.956.143-.392.22-.811.22-1.243V21.95a3.63 3.63 0 0 0-2.007-3.248.892.892 0 0 1-.493-.797V16.25a2.5 2.5 0 0 1 2.5-2.5h7.5a2.5 2.5 0 0 1 2.5 2.5v1.654c0 .337-.19.646-.493.797a3.63 3.63 0 0 0-2.006 3.174h-2.501a.625.625 0 1 0 0 1.25h2.5v1.25h-2.5a.625.625 0 1 0 0 1.25h2.5a3.63 3.63 0 0 0 2.007 3.174c.302.15.493.46.493.797V32.5a2.5 2.5 0 0 1-2.5 2.5h-7.5a2.494 2.494 0 0 1-1.871-.842 8.713 8.713 0 0 0 1.871-5.408zm-13.4-9.746a6.151 6.151 0 0 1-.994 2.536c-.94-1.203-1.127-2.503-.957-3.669.15-1.02.57-1.923.994-2.536.941 1.203 1.127 2.503.957 3.669z" fill="#A8ABAC"/>
</svg>
