<svg xmlns="http://www.w3.org/2000/svg" width="100" height="100" viewBox="0 0 100 100">
    <g fill="none" fill-rule="evenodd">
        <g fill-rule="nonzero">
            <g>
                <g transform="translate(-168.000000, -184.000000) translate(144.000000, 160.000000) translate(24.000000, 24.000000)">
                    <path fill="#FFF" d="M0 0H100V100H0z"/>
                    <path fill="#003863" d="M26.667 33.75C36.595 28.419 31.444 8.333 50 8.333c18.556 0 29.369 6.195 32.462 17.473 3.094 11.277-10.03 23.57-5.897 33.36 4.133 9.792 11.992 10.317 6.983 24.382-5.009 14.064-28.281 5.913-40.215 1.16-11.933-4.753-36.301-10.125-35-26.791C9.635 41.25 16.738 39.08 26.667 33.75z" opacity=".1"/>
                    <circle cx="16.25" cy="18.333" r="2.5" fill="#008BBF" opacity=".25"/>
                    <circle cx="21.25" cy="85.833" r="1.667" fill="#008BBF" opacity=".25"/>
                    <circle cx="21.25" cy="29.167" r="1.667" fill="#008BBF" opacity=".25"/>
                    <circle cx="84.167" cy="56.25" r="3.333" fill="#008BBF" opacity=".25"/>
                    <g>
                        <path fill="#FFF" d="M10.556 9.167H50.556V65.834H10.556z" transform="translate(19.444445, 12.500000)"/>
                        <path fill="#003863" d="M50.556 5.833c1.84 0 3.333 1.493 3.333 3.334v9.732l-3.333 3.333V9.167h-40v56.666h40v-32.96l1.343-.448.104-.038c.17-.07.328-.167.467-.289l.08-.075 1.339-1.34v35.15c0 1.841-1.492 3.334-3.333 3.334h-40c-1.841 0-3.334-1.493-3.334-3.334V9.167c0-1.841 1.493-3.334 3.334-3.334h40zm11.284 7.473l3.535 3.535-14.142 14.142-5.009 1.473 1.473-5.008L61.84 13.306zm4.419-3.241l2.357 2.357c.325.325.325.853 0 1.178l-2.062 2.063-3.536-3.536 2.062-2.062c.326-.326.853-.326 1.179 0z" transform="translate(19.444445, 12.500000)"/>
                        <path fill="#D8D8D8" d="M30.556 0c2.3 0 4.166 1.865 4.166 4.167 0 .14-.007.28-.02.417h7.52c.92 0 1.667.746 1.667 1.666v5c0 .92-.746 1.667-1.667 1.667H18.89c-.92 0-1.667-.747-1.667-1.667v-5c0-.92.746-1.667 1.667-1.667h7.52c-.013-.136-.02-.276-.02-.416C26.389 1.865 28.254 0 30.556 0zm0 2.5c-.92 0-1.667.746-1.667 1.667 0 .92.746 1.666 1.667 1.666.92 0 1.666-.746 1.666-1.666 0-.92-.746-1.667-1.666-1.667z" transform="translate(19.444445, 12.500000)"/>
                        <g>
                            <path fill="#D8D8D8" d="M13.333 0C15.635 0 17.5 1.865 17.5 4.167c0 .14-.007.28-.02.417H25c.92 0 1.667.746 1.667 1.666v5c0 .92-.747 1.667-1.667 1.667H1.667C.747 12.917 0 12.17 0 11.25v-5c0-.92.746-1.667 1.667-1.667h7.52c-.013-.136-.02-.276-.02-.416C9.167 1.865 11.032 0 13.333 0zm0 2.5c-.92 0-1.666.746-1.666 1.667 0 .92.746 1.666 1.666 1.666.92 0 1.667-.746 1.667-1.666 0-.92-.746-1.667-1.667-1.667z" transform="translate(19.444445, 12.500000) translate(17.222222, 0.000000)"/>
                            <path fill="#A8ABAC" d="M0 10.417h26.667v.833c0 .92-.747 1.667-1.667 1.667H1.667C.747 12.917 0 12.17 0 11.25v-.833z" transform="translate(19.444445, 12.500000) translate(17.222222, 0.000000)"/>
                        </g>
                        <path fill="#008BBF" d="M18.889 16.25c2.761 0 5 2.239 5 5s-2.239 5-5 5c-2.762 0-5-2.239-5-5s2.238-5 5-5zm.833 2.083h-1.666v2.084h-2.084v1.666h2.084v2.084h1.666v-2.084h2.084v-1.666h-2.084v-2.084z" transform="translate(19.444445, 12.500000)"/>
                        <path fill="#D8D8D8" d="M45.556 23.75c.46 0 .833.373.833.833 0 .46-.373.834-.833.834h-17.5c-.46 0-.834-.373-.834-.834 0-.46.373-.833.834-.833h17.5zm-4.167-3.333c.46 0 .833.373.833.833 0 .46-.373.833-.833.833H28.056c-.46 0-.834-.373-.834-.833 0-.46.373-.833.834-.833h13.333zm5-3.334c.46 0 .833.373.833.834 0 .46-.373.833-.833.833H28.056c-.46 0-.834-.373-.834-.833 0-.46.373-.834.834-.834h18.333z" transform="translate(19.444445, 12.500000)"/>
                        <g fill="#D8D8D8">
                            <path d="M15.833 3.75c.46 0 .834.373.834.834 0 .46-.373.833-.834.833h-15c-.46 0-.833-.373-.833-.833 0-.46.373-.834.833-.834h15zM22.5.417c.46 0 .833.373.833.833 0 .46-.373.834-.833.834H.833C.373 2.084 0 1.71 0 1.25 0 .79.373.417.833.417H22.5zM31.016 0l-.278.833h-1.155c-.439 0-.799.34-.83.772l-.003.062v2.5c0 .44.34.8.771.831l.062.002h2.5c.44 0 .8-.34.831-.77l.003-.063V3.29l.833-.278v1.155c0 .92-.746 1.667-1.667 1.667h-2.5c-.92 0-1.666-.747-1.666-1.667v-2.5c0-.92.746-1.667 1.666-1.667h1.433z" transform="translate(19.444445, 12.500000) translate(13.888889, 30.833034)"/>
                        </g>
                        <g fill="#D8D8D8">
                            <path d="M15.833 3.75c.46 0 .834.373.834.833 0 .46-.373.834-.834.834h-15c-.46 0-.833-.373-.833-.834 0-.46.373-.833.833-.833h15zM22.5.417c.46 0 .833.373.833.833 0 .46-.373.833-.833.833H.833C.373 2.083 0 1.71 0 1.25 0 .79.373.417.833.417H22.5zM32.083 0c.92 0 1.667.746 1.667 1.667v2.5c0 .92-.746 1.666-1.667 1.666h-2.5c-.92 0-1.666-.746-1.666-1.666v-2.5c0-.92.746-1.667 1.666-1.667h2.5zm0 .833h-2.5c-.439 0-.799.34-.83.771l-.003.063v2.5c0 .439.34.799.771.83l.062.003h2.5c.44 0 .8-.34.831-.771l.003-.062v-2.5c0-.44-.34-.8-.771-.831l-.063-.003z" transform="translate(19.444445, 12.500000) translate(13.888889, 41.666667)"/>
                        </g>
                        <g fill="#D8D8D8">
                            <path d="M15.833 3.75c.46 0 .834.373.834.833 0 .46-.373.834-.834.834h-15c-.46 0-.833-.373-.833-.834 0-.46.373-.833.833-.833h15zM22.5.417c.46 0 .833.373.833.833 0 .46-.373.833-.833.833H.833C.373 2.083 0 1.71 0 1.25 0 .79.373.417.833.417H22.5zM32.083 0c.92 0 1.667.746 1.667 1.667v2.5c0 .92-.746 1.666-1.667 1.666h-2.5c-.92 0-1.666-.746-1.666-1.666v-2.5c0-.92.746-1.667 1.666-1.667h2.5zm0 .833h-2.5c-.439 0-.799.34-.83.771l-.003.063v2.5c0 .439.34.799.771.83l.062.003h2.5c.44 0 .8-.34.831-.771l.003-.062v-2.5c0-.44-.34-.8-.771-.831l-.063-.003z" transform="translate(19.444445, 12.500000) translate(13.888889, 52.500000)"/>
                        </g>
                        <g>
                            <path fill="#FFF" d="M7.222 1.458L13.889 3.51 20.268 1.676 24.572 3.936 26.318 8.722 25 14.667 20.268 19.477 14.058 23.722 6.778 18.63 1.707 12.176 2.099 4.726z" transform="translate(19.444445, 12.500000) translate(0.000000, 50.000000)"/>
                            <path fill="#008BBF" d="M19.223 0c4.89 0 8.555 3.71 8.555 8.737 0 5.504-4.414 10.903-12.153 15.682-.538.337-1.174.581-1.743.581-.564 0-1.16-.23-1.734-.576C4.408 19.644 0 14.244 0 8.737 0 3.709 3.654 0 8.541 0c1.836 0 3.512.561 4.843 1.563l.28.221.22.191.233-.201C15.307.789 16.79.18 18.441.034l.416-.027.366-.007zM13.24 11.18l-1.262 1.892c-.165.247-.427.41-.718.452l-.147.01-6.857.006c1.638 2.734 4.61 5.508 8.764 8.152l.574.36.29.156.274-.147c4.446-2.746 7.613-5.634 9.335-8.478l-4.792-.001-2.49 5.019c-.431.87-1.686.715-1.933-.171l-.03-.146-1.008-7.105zm5.984-8.402c-1.8 0-3.278.764-4.205 2.08-.556.79-1.727.785-2.277-.008-.899-1.296-2.4-2.072-4.2-2.072-3.343 0-5.763 2.456-5.763 5.959 0 .893.164 1.803.486 2.722l7.289-.008 2.47-3.696c.501-.751 1.628-.543 1.865.28l.032.152.918 6.48 1.284-2.589c.154-.31.45-.52.787-.568l.147-.01h6.441c.333-.933.503-1.857.503-2.763 0-3.5-2.43-5.96-5.777-5.96z" transform="translate(19.444445, 12.500000) translate(0.000000, 50.000000)"/>
                        </g>
                    </g>
                </g>
            </g>
        </g>
    </g>
</svg>
