<svg xmlns="http://www.w3.org/2000/svg" width="24" height="24" viewBox="0 0 24 24">
    <g fill="none" fill-rule="evenodd">
        <g fill="#757575">
            <g>
                <g>
                    <g>
                        <g>
                            <path d="M16 2c.221 0 .434.073.608.206l.1.087 4 4c.155.156.255.359.283.576L21 7v12c0 1.598-1.249 2.904-2.824 2.995L18 22H8c-1.598 0-2.904-1.249-2.995-2.824L5 19H4c-1.054 0-1.918-.816-1.995-1.85L2 17v-5c0-1.054.816-1.918 1.85-1.995L4 10h1V5c0-1.598 1.249-2.904 2.824-2.995L8 2h8zm-2 2H8c-.513 0-.936.386-.993.883L7 5v5h9c1.054 0 1.918.816 1.995 1.85L18 12v5c0 1.054-.816 1.918-1.85 1.995L16 19H7c0 .513.386.936.883.993L8 20h10c.513 0 .936-.386.993-.883L19 19V9h-3c-1.054 0-1.918-.816-1.995-1.85L14 7V4zm2 7H4c-.513 0-.936.386-.993.883L3 12v5c0 .513.386.936.883.993L4 18h12c.513 0 .936-.386.993-.883L17 17v-5c0-.552-.448-1-1-1zm-9.501 1.5c.834 0 1.398.612 1.398 1.476s-.564 1.488-1.398 1.488h-.732v1.326h-1.05V12.5zm3.546 0c1.35 0 2.214.786 2.214 2.136s-.864 2.154-2.214 2.154H8.521V12.5zm5.58 0v.9h-1.578v.9h1.308v.9h-1.308v1.59h-1.05V12.5h2.628zm-5.622.9h-.432v2.49h.432c.726 0 1.17-.432 1.17-1.254 0-.816-.462-1.236-1.17-1.236zm-3.702 0h-.534v1.164h.516c.366 0 .546-.246.546-.588 0-.342-.18-.576-.528-.576zM16 4.415V7h2.585L16 4.415z" transform="translate(-168 -1336) translate(144 1192) translate(0 64) translate(0 64) translate(24 16)"/>
                        </g>
                    </g>
                </g>
            </g>
        </g>
    </g>
</svg>
