<svg width="16" height="16" viewBox="0 0 16 16" fill="none" xmlns="http://www.w3.org/2000/svg">
    <path d="M10.667 6.667a2.667 2.667 0 1 0-5.334 0 2.667 2.667 0 0 0 5.334 0z" fill="#008BBF"/>
    <path fill-rule="evenodd" clip-rule="evenodd" d="M14.667 8A6.667 6.667 0 1 1 1.333 8a6.667 6.667 0 0 1 13.334 0zM3.869 11.374a2.22 2.22 0 0 1 .336-.12l2.051-.549c.096-.025.194-.038.293-.038h2.902c.099 0 .197.013.293.038l2.05.55c.118.031.23.071.337.12a5.333 5.333 0 1 0-8.261 0z" fill="#008BBF"/>
</svg>
