<svg xmlns="http://www.w3.org/2000/svg" width="12" height="12" viewBox="0 0 12 12" fill="none">
<path fill-rule="evenodd" clip-rule="evenodd" d="M6.89438 1.12212C6.52586 0.385074 5.47405 0.385074 5.10553 1.12212L0.723562 9.88605C0.391112 10.551 0.874608 11.3333 1.61799 11.3333H10.3819C11.1253 11.3333 11.6088 10.551 11.2763 9.88605L6.89438 1.12212ZM5.33329 3.99993C5.33329 3.63175 5.63177 3.33327 5.99996 3.33327C6.36814 3.33327 6.66662 3.63175 6.66662 3.99993V6.6666C6.66662 7.03479 6.36814 7.33327 5.99996 7.33327C5.63177 7.33327 5.33329 7.03479 5.33329 6.6666V3.99993ZM5.33329 9.33327C5.33329 8.96508 5.63177 8.6666 5.99995 8.6666C6.36814 8.6666 6.66662 8.96508 6.66662 9.33327C6.66662 9.70146 6.36814 9.99993 5.99995 9.99993C5.63177 9.99993 5.33329 9.70146 5.33329 9.33327Z" fill="#F7911D"/>
</svg>