<svg xmlns="http://www.w3.org/2000/svg" xmlns:xlink="http://www.w3.org/1999/xlink" width="24" height="24" viewBox="0 0 24 24">
    <defs>
        <path id="y3wbci8hfa" d="M5.388 12.368c.307.653.727 1.547.753 1.962.141 2.252.502 5.238 1.416 6.673.037.057.076.122.118.19.313.516.743 1.222 1.395 1.3.035.004.073.007.114.007.22 0 .513-.077.812-.377.506-.51.604-1.299.683-1.933.015-.124.03-.243.047-.353.097-.617.134-1.124.17-1.614.058-.8.108-1.49.413-2.434.21-.65.438-.754.653-.77.013 0 .025-.004.038-.006.013.002.025.006.038.007.215.015.443.118.653.769.305.944.455 1.633.413 2.434-.102 1.967.155 2.97.9 3.9.272.339.591.377.812.377.04 0 .079-.003.114-.007.652-.078 1.081-.784 1.395-1.3.042-.068.08-.132.118-.19.914-1.434 1.275-4.42 1.416-6.673.026-.415.446-1.309.753-1.962.179-.38.333-.708.425-.959.886-2.415 2.536-6.909-.714-9.216-.82-.583-1.94-.809-3.151-.637-.629.089-1.157.227-1.623.35-.534.139-.994.259-1.508.291-.014 0-.027.005-.041.007-.014-.002-.027-.006-.041-.007-.514-.032-.975-.152-1.508-.292-.466-.121-.995-.26-1.623-.349-1.212-.172-2.332.054-3.151.637-3.25 2.307-1.6 6.801-.714 9.216.092.25.246.579.425.959zM6.42 3.472c.591-.402 1.424-.554 2.346-.43.542.074.994.187 1.43.297.522.13 1.016.254 1.583.288.031.002.062 0 .092-.004.03.004.06.006.092.004.567-.034 1.06-.158 1.583-.288.437-.11.888-.223 1.43-.296.922-.125 1.755.027 2.346.429 2.205 1.5 1.474 4.408.356 7.327-.073.192-.217.486-.37.797-.354.722-.756 1.541-.79 2.076-.18 2.73-.605 4.724-1.197 5.614-.038.057-.078.12-.12.187-.144.226-.48.754-.676.777-.033.003-.091-.033-.156-.094-.264-.256.095-2.558.063-2.982-.057-.743-.11-1.445-.43-2.394-.1-.299-1.059-1.523-2.032-1.589-.033-.002-.064 0-.095.005-.031-.005-.063-.007-.096-.005-.974.066-1.714 1.29-1.814 1.589-.32.949-.314 1.521-.37 2.264-.032.425.043 2.856-.222 3.111-.064.062-.125.098-.156.095-.196-.023-.532-.551-.675-.777l-.12-.187c-.593-.89-.566-2.884-.745-5.614-.035-.535-.233-1.354-.588-2.076-.152-.311-.296-.605-.37-.797C5.602 7.88 4.216 4.972 6.42 3.472z"/>
    </defs>
    <g fill="none" fill-rule="evenodd">
        <g>
            <g>
                <g transform="translate(-168 -868) translate(144 844) translate(24 24)">
                    <use fill="#008BBF" xlink:href="#y3wbci8hfa"/>
                </g>
            </g>
        </g>
    </g>
</svg>
