<svg width="41" height="40" viewBox="0 0 41 40" fill="none" xmlns="http://www.w3.org/2000/svg">
    <path fill-rule="evenodd" clip-rule="evenodd" d="M20.02 3.75a5.938 5.938 0 0 1 5.779 7.308l.221.087.462.196 4.085-2.209a.938.938 0 0 1 1.384.837l-.01.125-.714 4.799c.196.24.377.482.545.729l.244.373.15.254 1.605.001c1.084 0 1.983.788 2.157 1.823l.023.185.007.18v5a2.188 2.188 0 0 1-2.008 2.18l-.18.007h-1.604l-.112.193a11.164 11.164 0 0 1-2.108 2.5l-.367.314-.274.218.612.873a2.813 2.813 0 0 1-.36 3.647l-.164.144-.167.126a2.813 2.813 0 0 1-3.79-.523l-.127-.167-1.127-1.611-.362.094c-.873.208-1.774.345-2.691.405l-.552.028-.556.009c-1.115 0-2.212-.11-3.272-.326l-.527-.116-.363-.093-1.126 1.61a2.813 2.813 0 0 1-3.56.904l-.181-.1-.176-.114a2.813 2.813 0 0 1-.805-3.74l.114-.177.61-.874-.168-.132c-2.313-1.86-3.742-4.355-3.956-7.067l-.02-.355-.008-.358c0-1.606.421-3.125 1.176-4.492-1.59-.99-2.426-2.437-2.426-4.258a.937.937 0 1 1 1.875 0c0 1.172.506 2.046 1.603 2.705 1.346-1.65 3.226-2.98 5.434-3.835A5.937 5.937 0 0 1 20.02 3.75zm9.79 7.922-2.85 1.543a.937.937 0 0 1-.856.019c-.332-.162-.673-.31-1.022-.444a5.614 5.614 0 0 1-.48.676c.279.114.559.243.838.383a.938.938 0 0 1-.838 1.677c-1.4-.7-2.787-1.079-4.167-1.142l-.414-.009c-1.517 0-3.04.381-4.581 1.151a.937.937 0 1 1-.838-1.677c.278-.14.558-.268.838-.386a5.9 5.9 0 0 1-.481-.671c-3.86 1.477-6.5 4.595-6.5 8.146 0 2.68 1.504 5.189 4.095 6.912.402.268.53.79.316 1.208l-.067.11-1.142 1.63a.937.937 0 0 0 1.448 1.184l.088-.108 1.407-2.007.07-.11a.938.938 0 0 1 1.074-.398c1.347.421 2.79.641 4.273.641 1.483 0 2.925-.22 4.273-.641a.937.937 0 0 1 .991.284l.083.113.043.07 1.434 2.048a.937.937 0 0 0 1.607-.956l-.071-.12-1.142-1.63a.938.938 0 0 1 .249-1.318c1.457-.969 2.588-2.203 3.288-3.586a.938.938 0 0 1 .705-.505l.131-.009h2.159a.313.313 0 0 0 .304-.24l.008-.073v-5a.312.312 0 0 0-.24-.304l-.073-.008h-2.159a.937.937 0 0 1-.836-.515 8.648 8.648 0 0 0-1.24-1.814.938.938 0 0 1-.234-.621l.01-.137.498-3.366zm-9.785 5.515c.182 0 .325.119.352.296l.004.061v.527c.95.108 1.7.627 1.945 1.384l.033.115c.024.081.04.162.04.243 0 .276-.194.47-.47.47-.26 0-.413-.146-.502-.38-.136-.467-.467-.766-.935-.884l-.11-.024v2.058l.129.024c1.329.243 2.01.867 2.01 1.913 0 1.117-.867 1.805-2.011 1.955l-.129.014v.527a.347.347 0 0 1-.356.364.343.343 0 0 1-.352-.3l-.005-.064v-.535c-1.053-.105-1.896-.673-2.115-1.532-.016-.08-.032-.162-.032-.243 0-.284.186-.478.47-.478.235 0 .405.13.494.397.114.462.467.803 1.054.925l.13.023v-2.18l-.082-.024c-1.272-.292-1.937-.875-1.937-1.856 0-1.014.774-1.728 1.888-1.895l.13-.017v-.527a.34.34 0 0 1 .357-.357zm.356 4.855v2.001c.754-.08 1.127-.47 1.127-.996 0-.443-.223-.735-.843-.93l-.122-.035-.162-.04zm-.713-3.047c-.632.105-1.013.478-1.013.932 0 .408.261.69.83.883l.183.057v-1.872zm8.79-1.808a.938.938 0 1 1 0 1.876.938.938 0 0 1 0-1.875zM20.021 5.626a4.062 4.062 0 0 0-4.029 4.588l.046.275.08.333.041.132.092.252.07.165.127.255.057.1.066.111.155.228.162.211c.06.073.124.144.19.213l.182.18.096.083.058-.011a13.953 13.953 0 0 1 1.55-.201l.526-.03.53-.009c.534 0 1.062.03 1.582.087l.516.068.567.096.095-.081c.126-.117.244-.241.354-.372l.238-.312.11-.171.131-.229.107-.216.101-.244.085-.249.06-.22.042-.187.041-.257.026-.261.008-.264a4.063 4.063 0 0 0-4.062-4.063z" fill="#A8ABAC"/>
</svg>
