<svg xmlns="http://www.w3.org/2000/svg" width="12" height="14" viewBox="0 0 12 14" fill="none">
<path d="M2.64994 13.6666H9.35194C10.6631 13.6666 11.3353 12.9983 11.3353 11.6879V6.09247H6.72305C5.91775 6.09247 5.53839 5.719 5.53839 4.92621V0.333252H2.64994C1.33882 0.333252 0.666626 1.00156 0.666626 2.31196V11.6879C0.666626 13.0048 1.33882 13.6666 2.64994 13.6666ZM6.76964 5.2276H11.262C11.2221 4.95897 11.0291 4.70344 10.723 4.3955L7.26214 0.929485C6.96265 0.628092 6.68977 0.438084 6.42356 0.398772V4.88034C6.42356 5.10966 6.5367 5.2276 6.76964 5.2276ZM3.54176 8.805C3.28886 8.805 3.10251 8.62154 3.10251 8.38567C3.10251 8.15635 3.28886 7.97289 3.54176 7.97289H8.48008C8.72633 7.97289 8.91268 8.15635 8.91268 8.38567C8.91268 8.62154 8.72633 8.805 8.48008 8.805H3.54176ZM3.54176 11.1441C3.28886 11.1441 3.10251 10.9672 3.10251 10.7313C3.10251 10.4954 3.28886 10.312 3.54176 10.312H8.48008C8.72633 10.312 8.91268 10.4954 8.91268 10.7313C8.91268 10.9672 8.72633 11.1441 8.48008 11.1441H3.54176Z" fill="#008BBF"/>
</svg>