<svg xmlns="http://www.w3.org/2000/svg" width="16" height="16" viewBox="0 0 16 16">
    <g fill="none" fill-rule="evenodd">
        <g fill="#3E7128">
            <g>
                <g>
                    <g>
                        <path d="M13.333 3.333c.737 0 1.334.597 1.334 1.334v6.666c0 .737-.597 1.334-1.334 1.334H2.667c-.737 0-1.334-.597-1.334-1.334V4.667c0-.737.597-1.334 1.334-1.334h10.666zm-1.219 1.334H3.886c-.2.568-.651 1.018-1.219 1.219v4.228c.568.2 1.018.65 1.219 1.218h8.228c.201-.568.651-1.017 1.219-1.218V5.886c-.568-.2-1.018-.651-1.219-1.219zM8 5.5c1.38 0 2.5 1.12 2.5 2.5S9.38 10.5 8 10.5 5.5 9.38 5.5 8 6.62 5.5 8 5.5zm0 1.167c-.736 0-1.333.597-1.333 1.333S7.264 9.333 8 9.333 9.333 8.736 9.333 8 8.736 6.667 8 6.667z" transform="translate(-244 -24) translate(144) translate(92) translate(8 24)"/>
                    </g>
                </g>
            </g>
        </g>
    </g>
</svg>
