<svg width="40" height="40" viewBox="0 0 40 40" fill="none" xmlns="http://www.w3.org/2000/svg">
    <path fill-rule="evenodd" clip-rule="evenodd" d="M8.98 20.613c.51 1.088 1.21 2.579 1.254 3.27.236 3.754.838 8.73 2.361 11.121.062.097.127.204.197.319.522.858 1.238 2.035 2.325 2.165.058.007.122.012.19.012.367 0 .855-.128 1.352-.628.845-.85 1.008-2.165 1.14-3.221.024-.207.05-.406.078-.59.161-1.028.223-1.872.282-2.69.097-1.332.181-2.482.69-4.056.35-1.084.73-1.257 1.088-1.282.022-.002.042-.008.063-.011.021.003.041.01.063.01.358.026.738.199 1.088 1.282.509 1.575.76 2.723.69 4.058-.172 3.279.257 4.951 1.5 6.5.452.565.984.628 1.352.628.068 0 .131-.004.19-.011 1.087-.13 1.803-1.307 2.325-2.166.07-.114.135-.222.197-.318 1.523-2.39 2.124-7.368 2.36-11.122.044-.69.744-2.181 1.256-3.27.297-.633.554-1.18.707-1.598 1.477-4.024 4.227-11.515-1.189-15.36-1.367-.971-3.233-1.348-5.253-1.062-1.048.149-1.928.379-2.705.582-.889.233-1.656.433-2.513.487-.023.001-.045.007-.068.011-.023-.003-.045-.01-.07-.011-.856-.053-1.623-.254-2.512-.486-.777-.203-1.657-.434-2.705-.582-2.02-.287-3.886.09-5.252 1.06C4.045 7.5 6.795 14.99 8.271 19.014c.154.419.411.966.708 1.599zM10.7 5.786c.985-.67 2.373-.923 3.91-.715.904.123 1.656.31 2.383.493.871.219 1.693.424 2.638.48.053.004.104.001.154-.006.05.007.101.01.154.007.944-.057 1.767-.263 2.638-.48.727-.183 1.48-.372 2.383-.494 1.537-.208 2.925.046 3.91.715 3.675 2.5 2.457 7.348.593 12.213-.122.32-.362.809-.616 1.327-.59 1.204-1.26 2.57-1.318 3.46-.299 4.55-1.007 7.873-1.994 9.357-.063.094-.13.2-.2.312-.24.376-.799 1.257-1.126 1.295-.055.005-.153-.054-.26-.157-.441-.426.158-4.263.104-4.97-.094-1.239-.184-2.409-.717-3.99-.167-.497-1.764-2.539-3.386-2.648a.741.741 0 0 0-.159.008.734.734 0 0 0-.16-.008c-1.622.11-2.856 2.15-3.023 2.648-.533 1.581-.523 2.536-.617 3.774-.053.708.072 4.76-.37 5.185-.107.103-.207.164-.259.158-.328-.038-.887-.919-1.125-1.295-.072-.112-.139-.218-.202-.312-.987-1.484-.941-4.806-1.24-9.356-.059-.892-.389-2.257-.98-3.46-.253-.52-.493-1.009-.616-1.328-1.864-4.865-4.174-9.712-.498-12.213z" fill="#A8ABAC"/>
    <mask id="0boobbbrna" style="mask-type:alpha" maskUnits="userSpaceOnUse" x="6" y="2" width="28" height="36">
        <path fill-rule="evenodd" clip-rule="evenodd" d="M8.98 20.613c.51 1.088 1.21 2.579 1.254 3.27.236 3.754.838 8.73 2.361 11.121.062.097.127.204.197.319.522.858 1.238 2.035 2.325 2.165.058.007.122.012.19.012.367 0 .855-.128 1.352-.628.845-.85 1.008-2.165 1.14-3.221.024-.207.05-.406.078-.59.161-1.028.223-1.872.282-2.69.097-1.332.181-2.482.69-4.056.35-1.084.73-1.257 1.088-1.282.022-.002.042-.008.063-.011.021.003.041.01.063.01.358.026.738.199 1.088 1.282.509 1.575.76 2.723.69 4.058-.172 3.279.257 4.951 1.5 6.5.452.565.984.628 1.352.628.068 0 .131-.004.19-.011 1.087-.13 1.803-1.307 2.325-2.166.07-.114.135-.222.197-.318 1.523-2.39 2.124-7.368 2.36-11.122.044-.69.744-2.181 1.256-3.27.297-.633.554-1.18.707-1.598 1.477-4.024 4.227-11.515-1.189-15.36-1.367-.971-3.233-1.348-5.253-1.062-1.048.149-1.928.379-2.705.582-.889.233-1.656.433-2.513.487-.023.001-.045.007-.068.011-.023-.003-.045-.01-.07-.011-.856-.053-1.623-.254-2.512-.486-.777-.203-1.657-.434-2.705-.582-2.02-.287-3.886.09-5.252 1.06C4.045 7.5 6.795 14.99 8.271 19.014c.154.419.411.966.708 1.599zM10.7 5.786c.985-.67 2.373-.923 3.91-.715.904.123 1.656.31 2.383.493.871.219 1.693.424 2.638.48.053.004.104.001.154-.006.05.007.101.01.154.007.944-.057 1.767-.263 2.638-.48.727-.183 1.48-.372 2.383-.494 1.537-.208 2.925.046 3.91.715 3.675 2.5 2.457 7.348.593 12.213-.122.32-.362.809-.616 1.327-.59 1.204-1.26 2.57-1.318 3.46-.299 4.55-1.007 7.873-1.994 9.357-.063.094-.13.2-.2.312-.24.376-.799 1.257-1.126 1.295-.055.005-.153-.054-.26-.157-.441-.426.158-4.263.104-4.97-.094-1.239-.184-2.409-.717-3.99-.167-.497-1.764-2.539-3.386-2.648a.741.741 0 0 0-.159.008.734.734 0 0 0-.16-.008c-1.622.11-2.856 2.15-3.023 2.648-.533 1.581-.523 2.536-.617 3.774-.053.708.072 4.76-.37 5.185-.107.103-.207.164-.259.158-.328-.038-.887-.919-1.125-1.295-.072-.112-.139-.218-.202-.312-.987-1.484-.941-4.806-1.24-9.356-.059-.892-.389-2.257-.98-3.46-.253-.52-.493-1.009-.616-1.328-1.864-4.865-4.174-9.712-.498-12.213z" fill="#fff"/>
    </mask>
</svg>
