<svg width="24" height="24" viewBox="0 0 24 24" fill="none" xmlns="http://www.w3.org/2000/svg">
    <path fill-rule="evenodd" clip-rule="evenodd" d="M17.625 1.5h-10.5a2.25 2.25 0 0 0-2.25 2.25v16.5a2.25 2.25 0 0 0 2.25 2.25h10.5a2.25 2.25 0 0 0 2.25-2.25V3.75a2.25 2.25 0 0 0-2.25-2.25zM7.125 3h10.5a.75.75 0 0 1 .75.75v1.125h-12V3.75a.75.75 0 0 1 .75-.75zm-.75 15.375V5.625h12v12.75h-12zm12 .75v1.125a.75.75 0 0 1-.75.75h-10.5a.75.75 0 0 1-.75-.75v-1.125h12zM9.167 7.821a.328.328 0 0 0-.334-.321h-1l-.039.002a.326.326 0 0 0-.294.32l.001 1.37C7.548 10.751 8.873 12 10.5 12l.001 2.027c.042 1.373 1.2 2.473 2.624 2.473 1.45 0 2.625-1.142 2.625-2.55v-.514a1.126 1.126 0 1 0-.618.038v.546c-.039 1.045-.922 1.88-2.007 1.88-1.109 0-2.007-.873-2.007-1.95v-2.011c1.36-.275 2.382-1.438 2.382-2.832V7.821l-.002-.037a.33.33 0 0 0-.331-.284h-1l-.04.002a.326.326 0 0 0-.294.32l.003.037c.019.16.16.284.33.284h.667v.964l-.001.077c-.042 1.207-1.07 2.173-2.332 2.173l-.08-.001c-1.252-.04-2.253-1.032-2.253-2.249v-.964h.666l.04-.002a.326.326 0 0 0 .294-.32zm5.646 4.554a.562.562 0 1 1 1.124 0 .562.562 0 0 1-1.124 0z" fill="#A8ABAC"/>
</svg>
