<svg width="16" height="16" viewBox="0 0 16 16" fill="none" xmlns="http://www.w3.org/2000/svg">
    <path fill-rule="evenodd" clip-rule="evenodd" d="M8 1.333A4.667 4.667 0 0 1 12.667 6c0 .61-.197 1.37-.59 2.276l-.157.347c-.138.295-.296.605-.472.929l-.222.395c-.076.135-.156.271-.24.41l-.257.423-.277.437c-.095.148-.193.299-.295.451l-.313.465-.164.238-.34.486-.36.5-.378.513-.397.527c-.067.09-.136.18-.205.27l-.405-.535-.388-.52a56.15 56.15 0 0 1-.186-.255l-.36-.5-.34-.486-.164-.238-.314-.465a36.07 36.07 0 0 1-.295-.45l-.276-.438a28.481 28.481 0 0 1-.132-.213l-.249-.417-.117-.203-.221-.395a17.11 17.11 0 0 1-.473-.929l-.157-.347C3.53 7.37 3.333 6.611 3.333 6A4.667 4.667 0 0 1 8 1.333zM8 4a2 2 0 1 0 0 4 2 2 0 0 0 0-4z" fill="#A8ABAC"/>
</svg>
