<svg width="16" height="16" viewBox="0 0 16 16" fill="none" xmlns="http://www.w3.org/2000/svg">
    <path fill-rule="evenodd" clip-rule="evenodd" d="M9.813 9.333c.124 0 .247.018.367.052l2.564.732a2.651 2.651 0 0 1 1.923 2.55v.666c0 .737-.597 1.334-1.334 1.334H2.667a1.333 1.333 0 0 1-1.334-1.334v-.666c0-1.184.785-2.225 1.923-2.55l2.564-.732c.12-.034.243-.052.367-.052h3.626zm0 1.334H6.187l-2.564.732c-.53.152-.907.616-.952 1.158l-.004.11v.666h10.666v-.666c0-.552-.342-1.041-.852-1.233l-.104-.035-2.564-.732zM8 1.333A3.333 3.333 0 1 1 8 8a3.333 3.333 0 0 1 0-6.667zm0 1.334a2 2 0 1 0 0 4 2 2 0 0 0 0-4z" fill="#474B55"/>
</svg>
