<svg xmlns="http://www.w3.org/2000/svg" width="24" height="24" viewBox="0 0 24 24">
    <g fill="none" fill-rule="evenodd">
        <g fill="#A8ABAC">
            <g>
                <g>
                    <g>
                        <path d="M12 2c5.523 0 10 4.477 10 10s-4.477 10-10 10S2 17.523 2 12 6.477 2 12 2zm0 2c-4.418 0-8 3.582-8 8s3.582 8 8 8 8-3.582 8-8-3.582-8-8-8zm5.707 4.293c.36.36.388.928.083 1.32l-.083.094-7 7c-.36.36-.928.388-1.32.083l-.094-.083-3-3c-.39-.39-.39-1.024 0-1.414.36-.36.928-.388 1.32-.083l.094.083L10 14.585l6.293-6.292c.39-.39 1.024-.39 1.414 0z" transform="translate(-160.000000, -324.000000) translate(144.000000, 160.000000) translate(0.000000, 148.000000) translate(16.000000, 16.000000)"/>
                    </g>
                </g>
            </g>
        </g>
    </g>
</svg>
