<svg width="24" height="24" viewBox="0 0 24 24" fill="none" xmlns="http://www.w3.org/2000/svg">
<path fill-rule="evenodd" clip-rule="evenodd" d="M12 3.66669C14.3012 3.66669 16.1667 5.53217 16.1667 7.83335V10.3334H17C17.9205 10.3334 18.6667 11.0795 18.6667 12V18.6667C18.6667 19.5872 17.9205 20.3334 17 20.3334H7.00001C6.07954 20.3334 5.33334 19.5872 5.33334 18.6667V12C5.33334 11.0795 6.07954 10.3334 7.00001 10.3334H7.83334V7.83335C7.83334 5.53217 9.69882 3.66669 12 3.66669ZM12 13.6667C11.3097 13.6667 10.75 14.2263 10.75 14.9167C10.75 15.3331 10.9536 15.702 11.2667 15.9291L11.3639 15.9929L10.75 17.8334H13.25L12.637 15.9924C13.004 15.7747 13.25 15.3744 13.25 14.9167C13.25 14.2263 12.6904 13.6667 12 13.6667ZM12 5.33335C10.6686 5.33335 9.58029 6.37412 9.50425 7.68646L9.50001 7.83335V10.3334H14.5V7.83335C14.5 6.50195 13.4592 5.41364 12.1469 5.3376L12 5.33335Z" fill="#A8ABAC"/>
</svg>
