<svg width="40" height="40" viewBox="0 0 40 40" fill="none" xmlns="http://www.w3.org/2000/svg">
<path fill-rule="evenodd" clip-rule="evenodd" d="M36.6673 11.6666C36.6673 9.82564 35.1749 8.33325 33.334 8.33325H6.66732C4.82637 8.33325 3.33398 9.82564 3.33398 11.6666V28.3333C3.33398 30.1742 4.82637 31.6666 6.66732 31.6666H33.334C35.1749 31.6666 36.6673 30.1742 36.6673 28.3333V11.6666ZM9.71614 11.6666H30.2852C30.7873 13.0873 31.9133 14.2133 33.334 14.7154V25.2844C31.9133 25.7866 30.7873 26.9126 30.2852 28.3333H9.71614C9.214 26.9126 8.08801 25.7866 6.66732 25.2844V14.7154C8.08801 14.2133 9.214 13.0873 9.71614 11.6666ZM26.2507 19.9999C26.2507 23.4517 23.4524 26.2499 20.0007 26.2499C16.5489 26.2499 13.7507 23.4517 13.7507 19.9999C13.7507 16.5481 16.5489 13.7499 20.0007 13.7499C23.4524 13.7499 26.2507 16.5481 26.2507 19.9999ZM20.0007 23.3333C18.1597 23.3333 16.6673 21.8409 16.6673 19.9999C16.6673 18.159 18.1597 16.6666 20.0007 16.6666C21.8416 16.6666 23.334 18.159 23.334 19.9999C23.334 21.8409 21.8416 23.3333 20.0007 23.3333Z" fill="#A8ABAC"/>
</svg>
