<svg width="40" height="40" viewBox="0 0 40 40" fill="none" xmlns="http://www.w3.org/2000/svg">
    <path fill-rule="evenodd" clip-rule="evenodd" d="M22.938 4.032c4.841.899 7.7 4.291 8.297 8.893.49 3.772-.667 7.899-2.822 10.164l-.334.329-2.713 2.55-.674.653-.24.249a7.882 7.882 0 0 0-1.26 1.84l-.107.214-.218.473c-.075.167-.15.346-.23.536l-.371.946c-1.625 4.306-5.476 6.268-8.685 5.345-3.43-.986-5.447-3.671-4.668-8.243a1.25 1.25 0 1 1 2.464.42c-.548 3.22.612 4.764 2.895 5.42 1.95.562 4.487-.73 5.655-3.824l.275-.71.262-.634c.17-.399.335-.753.5-1.078A10.37 10.37 0 0 1 22.6 25.19l.194-.203.276-.275.935-.899 2.45-2.299c1.689-1.62 2.712-5.108 2.301-8.266-.465-3.58-2.561-6.068-6.274-6.757-3.773-.7-6.302.139-7.855 2.063-1.075 1.333-1.616 3.212-1.552 4.541l.02.258a1.25 1.25 0 1 1-2.483.288c-.23-1.98.488-4.696 2.07-6.657 2.151-2.666 5.61-3.813 10.256-2.95zm3.018 6.973a1.25 1.25 0 0 1-2 1.495l-.087-.117c-.793-1.202-3.21-1.616-4.87-.363-.448.339-.746.827-.91 1.386 1.898-.446 4.004.126 5.372 1.668 1.963 2.213.995 7.05-1.82 8.432l-.22.099c-.663.273-1.05.504-1.275.72-.1.097-.174.192-.276.363l-.443.768-.132.2-.235.31c-1.298 1.631-3.206 2.31-4.753 1.292-1.527-1.005-2.143-2.488-1.546-4.404a1.25 1.25 0 0 1 2.387.743c-.25.8-.103 1.154.533 1.572.248.163.753.003 1.289-.6l.187-.227.13-.182.23-.392.09-.16c.26-.464.47-.762.809-1.087.48-.46 1.123-.844 2.051-1.227 1.373-.567 2.01-3.562 1.124-4.56-.853-.961-2.283-1.225-3.419-.737.17.53.431 1.023.77 1.423a1.25 1.25 0 0 1-1.906 1.617c-2.094-2.468-2.363-6.882.457-9.012 2.81-2.122 6.874-1.426 8.463.98z" fill="#A8ABAC"/>
</svg>
