<svg xmlns="http://www.w3.org/2000/svg" width="24" height="24" viewBox="0 0 24 24">
    <g fill="none" fill-rule="evenodd">
        <g>
            <g>
                <path fill="#000" fill-opacity=".25" fill-rule="nonzero" d="M12 2c5.523 0 10 4.477 10 10s-4.477 10-10 10S2 17.523 2 12 6.477 2 12 2zm0 2c-4.418 0-8 3.582-8 8s3.582 8 8 8 8-3.582 8-8-3.582-8-8-8z" transform="translate(-38 -8) translate(38 8)"/>
                <path fill="#FFF" d="M12 2v2c-4.418 0-8 3.582-8 8H2C2 6.477 6.477 2 12 2z" transform="translate(-38 -8) translate(38 8)"/>
            </g>
        </g>
    </g>
</svg>
