<svg xmlns="http://www.w3.org/2000/svg" width="48" height="48" viewBox="0 0 48 48" fill="none">
<path fill-rule="evenodd" clip-rule="evenodd" d="M24.8944 1.12212C24.5259 0.385074 23.4741 0.385074 23.1055 1.12212L0.723562 45.8861C0.391112 46.551 0.874608 47.3333 1.61799 47.3333H46.3819C47.1253 47.3333 47.6088 46.551 47.2763 45.8861L24.8944 1.12212ZM21.3333 16.3333C21.3333 15.781 21.781 15.3333 22.3333 15.3333H25.6666C26.2189 15.3333 26.6666 15.781 26.6666 16.3333V30.3333C26.6666 30.8856 26.2189 31.3333 25.6666 31.3333H22.3333C21.781 31.3333 21.3333 30.8856 21.3333 30.3333V16.3333ZM21.3333 37.6666C21.3333 37.1143 21.781 36.6666 22.3333 36.6666H25.6666C26.2189 36.6666 26.6666 37.1143 26.6666 37.6666V40.9999C26.6666 41.5522 26.2189 41.9999 25.6666 41.9999H22.3333C21.781 41.9999 21.3333 41.5522 21.3333 40.9999V37.6666Z" fill="#F7911D"/>
</svg>