<svg xmlns="http://www.w3.org/2000/svg" width="40" height="40" viewBox="0 0 40 40">
    <g fill="none" fill-rule="evenodd">
        <g fill="#FFF">
            <g>
                <g>
                    <path d="M31.756 4.98l3.889 3.89c.39.39.39 1.023 0 1.414l-.354.353c-.39.39-1.024.39-1.414 0l-1.061-1.061-2.651 2.652 1.767 1.768c.489.488.489 1.28 0 1.768L17.79 29.906c-.488.488-1.28.488-1.767 0l-1.768-1.768-7.071 7.071.22-3.756 5.083-5.083-1.768-1.768c-.488-.488-.488-1.28 0-1.767L24.861 8.693c.489-.489 1.28-.489 1.768 0l1.768 1.767 2.65-2.652-1.06-1.06c-.39-.39-.39-1.024 0-1.414l.354-.354c.391-.39 1.024-.39 1.415 0zm-6.011 6.363L13.371 23.718l3.535 3.535 1.767-1.768-1.06-1.06c-.39-.39-.39-1.023 0-1.414l.354-.353c.39-.39 1.024-.39 1.414 0l1.06 1.06 1.768-1.768-1.06-1.06c-.39-.39-.39-1.024 0-1.414l.354-.354c.39-.39 1.023-.39 1.414 0l1.06 1.06 1.767-1.768-1.06-1.06c-.39-.39-.39-1.023 0-1.414l.354-.353c.39-.39 1.024-.39 1.414 0l1.06 1.06 1.768-1.768-3.535-3.536z" transform="translate(-40 -16) translate(40 10) translate(0 6)"/>
                </g>
            </g>
        </g>
    </g>
</svg>
