<?xml version="1.0" encoding="UTF-8"?>
<svg width="16px" height="16px" viewBox="0 0 16 16" version="1.1" xmlns="http://www.w3.org/2000/svg" xmlns:xlink="http://www.w3.org/1999/xlink">
    <title>ico-lock</title>
    <defs>
        <path d="M7.01928374,0 C8.91177023,0 10.4325069,1.58041297 10.4325069,3.51386787 L10.4323333,7.212 L10.7438017,7.21212121 C11.2960864,7.21212121 11.7438017,7.65983646 11.7438017,8.21212121 L11.7438017,13 C11.7438017,13.5522847 11.2960864,14 10.7438017,14 L3.33333333,14 C2.78104858,14 2.33333333,13.5522847 2.33333333,13 L2.33333333,8.21212121 C2.33333333,7.65983646 2.78104858,7.21212121 3.33333333,7.21212121 L3.60533333,7.212 L3.60606061,3.51386787 C3.60606061,1.58037725 5.1267157,0 7.01928374,0 Z M7.01928374,1.6969697 C6.07886391,1.6969697 5.3030303,2.50327337 5.3030303,3.51386787 L5.30233333,7.212 L8.73533333,7.212 L8.73553719,3.51386787 C8.73553719,2.50332035 7.9596343,1.6969697 7.01928374,1.6969697 Z" id="path-1"></path>
    </defs>
    <g id="Home-Page" stroke="none" stroke-width="1" fill="none" fill-rule="evenodd">
        <g id="LOL-icons" transform="translate(-198.000000, -292.000000)">
            <g id="ico-lock" transform="translate(198.000000, 292.000000)">
                <path d="M10.4217333,0 C12.028,0 12.8309333,0 13.6956,0.273333333 C14.6396,0.616933333 15.3830667,1.3604 15.7266667,2.3044 C16,3.16893333 16,3.97213333 16,5.57826667 L16,10.4217333 C16,12.028 16,12.8309333 15.7266667,13.6956 C15.3830667,14.6396 14.6396,15.3830667 13.6956,15.7265333 C12.8309333,16 12.028,16 10.4217333,16 L5.57826667,16 C3.972,16 3.16893333,16 2.3044,15.7265333 C1.3604,15.3830667 0.616933333,14.6396 0.273333333,13.6956 C0,12.8309333 0,12.028 0,10.4217333 L0,5.57826667 C0,3.97213333 0,3.16893333 0.273333333,2.3044 C0.616933333,1.3604 1.3604,0.616933333 2.3044,0.273333333 C3.16893333,0 3.972,0 5.57826667,0 L10.4217333,0 Z" id="background" fill-opacity="0" fill="#000000"></path>
                <g id="iconography/icn_lock" transform="translate(1.000000, 1.000000)">
                    <mask id="mask-2" fill="white">
                        <use xlink:href="#path-1"></use>
                    </mask>
                    <use id="Combined-Shape" fill="#FFFFFF" fill-rule="nonzero" xlink:href="#path-1"></use>
                    <g id="Group" mask="url(#mask-2)" fill="#FFFFFF">
                        <g id="colors/03_medium_gray">
                            <rect id="Rectangle-Copy-2" x="0" y="0" width="14" height="14"></rect>
                        </g>
                    </g>
                </g>
            </g>
        </g>
    </g>
</svg>