<?xml version="1.0" encoding="UTF-8"?>
<svg width="16px" height="16px" viewBox="0 0 16 16" version="1.1" xmlns="http://www.w3.org/2000/svg" xmlns:xlink="http://www.w3.org/1999/xlink">
    <title>ico_hambuger</title>
    <defs>
        <path d="M0.975609756,2.07017463 C0.4368,2.07017463 -1.95121288e-08,2.50392192 -1.95121288e-08,3.03900932 C-1.95121288e-08,3.57409478 0.4368,4.00784401 0.975609756,4.00784401 L15.0243902,4.00784401 C15.5632,4.00784401 16,3.57409478 16,3.03900932 C16,2.50392192 15.5632,2.07017463 15.0243902,2.07017463 L0.975609756,2.07017463 Z M0.975609756,7.30188195 C0.4368,7.30188195 -1.95121288e-08,7.73561955 -1.95121288e-08,8.27070501 C-1.95121288e-08,8.80579241 0.4368,9.2395397 0.975609756,9.2395397 L15.0243902,9.2395397 C15.5632,9.2395397 16,8.80579241 16,8.27070501 C16,7.73561955 15.5632,7.30188195 15.0243902,7.30188195 L0.975609756,7.30188195 Z M0.975609756,12.533597 C0.4368,12.533597 -1.95121288e-08,12.9673443 -1.95121288e-08,13.5024317 C-1.95121288e-08,14.0375191 0.4368,14.4712664 0.975609756,14.4712664 L15.0243902,14.4712664 C15.5632,14.4712664 16,14.0375191 16,13.5024317 C16,12.9673443 15.5632,12.533597 15.0243902,12.533597 L0.975609756,12.533597 Z" id="path-1"></path>
    </defs>
    <g id="Icons" stroke="none" stroke-width="1" fill="none" fill-rule="evenodd">
        <g id="Light" transform="translate(-276.000000, -251.000000)">
            <g id="ico_hambuger" transform="translate(276.000000, 251.000000)">
                <mask id="mask-2" fill="white">
                    <use xlink:href="#path-1"></use>
                </mask>
                <use id="Mask" fill="#FFFFFF" fill-rule="nonzero" xlink:href="#path-1"></use>
                <rect id="Rectangle" fill-opacity="0" fill="#D8D8D8" x="0" y="0" width="16" height="16"></rect>
            </g>
        </g>
    </g>
</svg>